<svg width="21" height="21" viewBox="0 0 21 21" fill="none" xmlns="http://www.w3.org/2000/svg">
<g id="calendar-outline">
<rect y="0.113281" width="20.7059" height="20.7059" rx="5" fill="#5688FF"/>
<path id="Vector" d="M16.8235 3.3479H3.88234C2.81026 3.3479 1.94116 4.21699 1.94116 5.28908V16.9361C1.94116 18.0082 2.81026 18.8773 3.88234 18.8773H16.8235C17.8956 18.8773 18.7647 18.0082 18.7647 16.9361V5.28908C18.7647 4.21699 17.8956 3.3479 16.8235 3.3479Z" stroke="white" stroke-width="1.5" stroke-linejoin="round"/>
<path id="Vector_2" d="M11.9706 10.4647C12.5066 10.4647 12.9412 10.0302 12.9412 9.49415C12.9412 8.95811 12.5066 8.52356 11.9706 8.52356C11.4345 8.52356 11 8.95811 11 9.49415C11 10.0302 11.4345 10.4647 11.9706 10.4647Z" fill="white"/>
<path id="Vector_3" d="M15.2059 10.4647C15.742 10.4647 16.1765 10.0302 16.1765 9.49415C16.1765 8.95811 15.742 8.52356 15.2059 8.52356C14.6699 8.52356 14.2354 8.95811 14.2354 9.49415C14.2354 10.0302 14.6699 10.4647 15.2059 10.4647Z" fill="white"/>
<path id="Vector_4" d="M11.9706 13.7001C12.5066 13.7001 12.9412 13.2655 12.9412 12.7295C12.9412 12.1935 12.5066 11.7589 11.9706 11.7589C11.4345 11.7589 11 12.1935 11 12.7295C11 13.2655 11.4345 13.7001 11.9706 13.7001Z" fill="white"/>
<path id="Vector_5" d="M15.2059 13.7001C15.742 13.7001 16.1765 13.2655 16.1765 12.7295C16.1765 12.1935 15.742 11.7589 15.2059 11.7589C14.6699 11.7589 14.2354 12.1935 14.2354 12.7295C14.2354 13.2655 14.6699 13.7001 15.2059 13.7001Z" fill="white"/>
<path id="Vector_6" d="M5.49989 13.7001C6.03593 13.7001 6.47047 13.2655 6.47047 12.7295C6.47047 12.1935 6.03593 11.7589 5.49989 11.7589C4.96384 11.7589 4.5293 12.1935 4.5293 12.7295C4.5293 13.2655 4.96384 13.7001 5.49989 13.7001Z" fill="white"/>
<path id="Vector_7" d="M8.73524 13.7001C9.27128 13.7001 9.70582 13.2655 9.70582 12.7295C9.70582 12.1935 9.27128 11.7589 8.73524 11.7589C8.1992 11.7589 7.76465 12.1935 7.76465 12.7295C7.76465 13.2655 8.1992 13.7001 8.73524 13.7001Z" fill="white"/>
<path id="Vector_8" d="M5.49989 16.9353C6.03593 16.9353 6.47047 16.5008 6.47047 15.9647C6.47047 15.4287 6.03593 14.9941 5.49989 14.9941C4.96384 14.9941 4.5293 15.4287 4.5293 15.9647C4.5293 16.5008 4.96384 16.9353 5.49989 16.9353Z" fill="white"/>
<path id="Vector_9" d="M8.73524 16.9353C9.27128 16.9353 9.70582 16.5008 9.70582 15.9647C9.70582 15.4287 9.27128 14.9941 8.73524 14.9941C8.1992 14.9941 7.76465 15.4287 7.76465 15.9647C7.76465 16.5008 8.1992 16.9353 8.73524 16.9353Z" fill="white"/>
<path id="Vector_10" d="M11.9706 16.9353C12.5066 16.9353 12.9412 16.5008 12.9412 15.9647C12.9412 15.4287 12.5066 14.9941 11.9706 14.9941C11.4345 14.9941 11 15.4287 11 15.9647C11 16.5008 11.4345 16.9353 11.9706 16.9353Z" fill="white"/>
<path id="Vector_11" d="M15.5295 2.05298V3.3471M5.17651 2.05298V3.3471V2.05298Z" stroke="white" stroke-width="1.5" stroke-linecap="round" stroke-linejoin="round"/>
<path id="Vector_12" d="M18.7647 6.58313H1.94116" stroke="white" stroke-width="1.5" stroke-linejoin="round"/>
</g>
</svg>
