<svg width="24" height="24" viewBox="0 0 24 24" fill="none" xmlns="http://www.w3.org/2000/svg">
<g id="Icon / Platform / Search">
<g id="Group">
<path id="Union" fill-rule="evenodd" clip-rule="evenodd" d="M10.3823 2.99756C8.40455 2.99756 6.50775 3.78324 5.10924 5.18175C3.71073 6.58026 2.92505 8.47706 2.92505 10.4549C2.92505 12.4327 3.71073 14.3294 5.10924 15.728C6.50775 17.1265 8.40455 17.9121 10.3823 17.9121C12.1085 17.9121 13.773 17.3137 15.0984 16.2316L19.7964 20.9302C20.0893 21.2231 20.5641 21.2232 20.8571 20.9303C21.15 20.6374 21.15 20.1626 20.8571 19.8696L16.1591 15.1709C17.2411 13.8455 17.8396 12.1811 17.8396 10.4549C17.8396 8.47706 17.054 6.58026 15.6554 5.18175C14.2569 3.78324 12.3601 2.99756 10.3823 2.99756ZM14.6138 14.6483C15.7191 13.5329 16.3396 12.0259 16.3396 10.4549C16.3396 8.87488 15.712 7.35962 14.5948 6.24241C13.4776 5.1252 11.9623 4.49756 10.3823 4.49756C8.80237 4.49756 7.28711 5.1252 6.1699 6.24241C5.05269 7.35962 4.42505 8.87488 4.42505 10.4549C4.42505 12.0348 5.05269 13.5501 6.1699 14.6673C7.28711 15.7845 8.80237 16.4121 10.3823 16.4121C11.9534 16.4121 13.4604 15.7916 14.5758 14.6862C14.5819 14.6797 14.5881 14.6732 14.5945 14.6668C14.6008 14.6605 14.6072 14.6543 14.6138 14.6483Z" fill="#444444"/>
</g>
</g>
</svg>
