<svg width="28" height="25" viewBox="0 0 28 25" fill="none" xmlns="http://www.w3.org/2000/svg">
<g id="wallet-add">
<g id="vuesax/outline/wallet-add">
<g id="wallet-add_2">
<path id="Vector" d="M7.2218 8.22269C6.9418 8.22269 6.68514 8.1104 6.51014 7.90623C6.3118 7.67144 6.28847 7.36516 6.44014 7.10995C6.63847 6.76287 6.91847 6.42602 7.28014 6.11977L11.0718 2.79185C13.0085 1.10747 16.1585 1.10747 18.0951 2.79185L20.1368 4.60896C21.0001 5.35417 21.5251 6.35458 21.5835 7.41625C21.5951 7.65104 21.4901 7.8756 21.2918 8.02873C21.0935 8.18185 20.8251 8.2533 20.5685 8.21247C20.3351 8.18184 20.0901 8.17166 19.8335 8.17166H8.1668C7.8868 8.17166 7.61847 8.19206 7.35014 8.22269C7.31514 8.22269 7.26847 8.22269 7.2218 8.22269ZM9.17014 6.63019H19.6235C19.4718 6.28311 19.2268 5.96665 18.9001 5.68082L16.8468 3.86371C15.5985 2.78162 13.5568 2.78162 12.2968 3.86371L9.17014 6.63019Z" fill="#5688FF"/>
<path id="Vector_2" d="M5.83341 24.4948C3.89675 24.4948 2.07675 23.5965 1.09675 22.1367C0.571748 21.4017 0.291748 20.534 0.291748 19.6458C0.291748 16.9713 2.77675 14.7969 5.83341 14.7969C8.89008 14.7969 11.3751 16.9713 11.3751 19.6458C11.3751 20.534 11.0951 21.4017 10.5701 22.1469C9.59008 23.5965 7.77008 24.4948 5.83341 24.4948ZM5.83341 16.3281C3.74508 16.3281 2.04175 17.8185 2.04175 19.6458C2.04175 20.2481 2.22841 20.8402 2.59008 21.3506C3.27841 22.3714 4.49175 22.9635 5.83341 22.9635C7.17508 22.9635 8.38841 22.3612 9.07675 21.3608C9.43841 20.8402 9.62508 20.2583 9.62508 19.6458C9.62508 17.8185 7.92175 16.3281 5.83341 16.3281Z" fill="#5688FF"/>
<path id="Vector_3" d="M7.57139 20.391H4.09473C3.61639 20.391 3.21973 20.0439 3.21973 19.6254C3.21973 19.2068 3.61639 18.8597 4.09473 18.8597H7.58306C8.06139 18.8597 8.45806 19.2068 8.45806 19.6254C8.45806 20.0439 8.06139 20.391 7.57139 20.391Z" fill="#5688FF"/>
<path id="Vector_4" d="M5.83325 21.9529C5.35492 21.9529 4.95825 21.6058 4.95825 21.1873V18.135C4.95825 17.7165 5.35492 17.3694 5.83325 17.3694C6.31159 17.3694 6.70825 17.7165 6.70825 18.135V21.1873C6.70825 21.616 6.31159 21.9529 5.83325 21.9529Z" fill="#5688FF"/>
<path id="Vector_5" d="M19.8334 23.474H8.90173C8.52839 23.474 8.20173 23.2698 8.07339 22.9738C7.94506 22.6676 8.05006 22.3307 8.33006 22.1265C8.61006 21.9223 8.86673 21.6569 9.05339 21.3711C9.42673 20.8505 9.61339 20.2584 9.61339 19.6561C9.61339 17.8288 7.91006 16.3384 5.82172 16.3384C4.73672 16.3384 3.69839 16.7467 2.97506 17.4715C2.73006 17.7063 2.34506 17.7982 2.00673 17.6859C1.66839 17.5736 1.43506 17.2878 1.43506 16.9713V12.5C1.43506 9.35587 3.65173 7.07942 7.09339 6.70171C7.40839 6.66088 7.77006 6.63025 8.14339 6.63025H19.8101C20.0901 6.63025 20.4517 6.64045 20.8251 6.6915C24.2667 7.03858 26.5184 9.32525 26.5184 12.5V17.6042C26.5417 21.1159 23.8467 23.474 19.8334 23.474ZM10.7101 21.9427H19.8334C22.8434 21.9427 24.7917 20.238 24.7917 17.6042V12.5C24.7917 10.1113 23.1934 8.46773 20.6034 8.20231C20.3234 8.16148 20.0784 8.1615 19.8334 8.1615H8.16673C7.88672 8.1615 7.61839 8.1819 7.35006 8.21253C4.78339 8.49836 3.20839 10.1317 3.20839 12.5V15.3788C4.00173 15.0011 4.91173 14.7969 5.83339 14.7969C8.89006 14.7969 11.3751 16.9713 11.3751 19.6459C11.3751 20.4523 11.1417 21.2486 10.7101 21.9427Z" fill="#5688FF"/>
<path id="Vector_6" d="M25.6666 17.8593H22.1666C20.3933 17.8593 18.9583 16.6037 18.9583 15.052C18.9583 13.5004 20.3933 12.2448 22.1666 12.2448H25.6666C26.1449 12.2448 26.5416 12.5918 26.5416 13.0104C26.5416 13.4289 26.1449 13.776 25.6666 13.776H22.1666C21.3616 13.776 20.7083 14.3477 20.7083 15.052C20.7083 15.7564 21.3616 16.3281 22.1666 16.3281H25.6666C26.1449 16.3281 26.5416 16.6752 26.5416 17.0937C26.5416 17.5123 26.1449 17.8593 25.6666 17.8593Z" fill="#5688FF"/>
</g>
</g>
<rect x="0.5" y="0.75" width="27" height="23.5" stroke="#E4E9F2"/>
</g>
</svg>
