<svg width="122" height="121" viewBox="0 0 122 121" fill="none" xmlns="http://www.w3.org/2000/svg">
<g id="Illustration">
<g id="Group">
<g id="Group_2">
<g id="Group_3">
<path id="Vector" d="M83.0039 98.6881C80.7836 94.9016 82.9381 88.5958 85.5756 84.9041C88.6549 80.594 91.1567 81.577 93.2906 78.0386C97.2639 71.4505 90.2209 65.3414 93.7009 58.3799C96.5457 52.6889 102.332 54.6122 105.196 48.1666C107.262 43.5156 105.242 40.2786 108.375 36.8229C108.643 36.5275 111.577 33.3831 115.14 33.9526C118.736 34.5275 120.871 38.5496 121.569 41.3267C122.859 46.46 119.436 48.1048 118.733 54.7514C117.775 63.8006 123.554 66.1085 121.472 72.6259C119.753 78.0078 115.415 77.6755 113.627 83.6806C111.967 89.257 115.104 91.5699 113.627 95.2145C110.231 103.599 87.5327 106.412 83.0039 98.6881Z" fill="url(#paint0_linear_82_943)"/>
<g id="Clip path group">
<mask id="mask0_82_943" style="mask-type:luminance" maskUnits="userSpaceOnUse" x="82" y="33" width="40" height="71">
<g id="SVGID_00000038395556691515619190000012951320941204678071_">
<path id="Vector_2" d="M83.0039 98.6881C80.7836 94.9016 82.9381 88.5958 85.5756 84.9041C88.6549 80.594 91.1567 81.577 93.2906 78.0386C97.2639 71.4505 90.2209 65.3414 93.7009 58.3799C96.5457 52.6889 102.332 54.6122 105.196 48.1666C107.262 43.5156 105.242 40.2786 108.375 36.8229C108.643 36.5275 111.577 33.3831 115.14 33.9526C118.736 34.5275 120.871 38.5496 121.569 41.3267C122.859 46.46 119.436 48.1048 118.733 54.7514C117.775 63.8006 123.554 66.1085 121.472 72.6259C119.753 78.0078 115.415 77.6755 113.627 83.6806C111.967 89.257 115.104 91.5699 113.627 95.2145C110.231 103.599 87.5327 106.412 83.0039 98.6881Z" fill="white"/>
</g>
</mask>
<g mask="url(#mask0_82_943)">
<g id="Group_4">
<path id="Vector_3" opacity="0.7" d="M86.0113 104.654C85.9731 104.654 85.9401 104.625 85.936 104.586C85.9315 104.545 85.9618 104.507 86.0035 104.503C89.8562 104.095 93.4541 102.899 96.6976 100.949C99.7697 99.1014 102.946 97.191 104.356 93.6745C105.421 91.0164 104.834 89.0571 104.091 86.5766C103.367 84.1589 102.466 81.1499 102.964 76.5513C103.248 73.9253 103.602 70.6574 105.878 67.5647C107.204 65.7626 108.49 64.9909 109.626 64.3101C110.812 63.5986 111.749 63.0366 112.296 61.5332C113.189 59.0784 112.602 56.9666 111.923 54.5216C111.504 53.01 111.07 51.447 110.905 49.5908C110.442 44.366 112.908 38.7484 118.236 32.894C118.264 32.863 118.312 32.8607 118.343 32.8889C118.374 32.9171 118.376 32.9651 118.348 32.9961C113.05 38.8179 110.597 44.3966 111.056 49.5773C111.22 51.4197 111.652 52.9759 112.07 54.4809C112.756 56.9512 113.348 59.0845 112.439 61.5851C111.874 63.1391 110.868 63.7421 109.704 64.4404C108.581 65.1138 107.308 65.8771 106 67.6547C103.748 70.7144 103.397 73.9598 103.115 76.5675C102.621 81.1358 103.517 84.1284 104.237 86.5331C104.988 89.042 105.582 91.0237 104.497 93.731C103.068 97.2949 99.8693 99.2186 96.7759 101.079C93.5133 103.041 89.8943 104.244 86.0195 104.654C86.0168 104.654 86.014 104.654 86.0113 104.654Z" fill="white"/>
<path id="Vector_4" opacity="0.7" d="M104.972 69.2085C104.943 69.2085 104.915 69.1916 104.902 69.1632C101.793 62.123 101.304 56.6726 101.441 53.3398C101.591 49.7227 102.491 47.7432 102.501 47.7236C102.518 47.6856 102.564 47.6691 102.601 47.6867C102.639 47.7044 102.656 47.7495 102.638 47.7875C102.629 47.8069 101.74 49.7661 101.593 53.3566C101.457 56.6714 101.946 62.0938 105.041 69.1019C105.058 69.1402 105.041 69.185 105.002 69.202C104.992 69.2064 104.982 69.2085 104.972 69.2085Z" fill="white"/>
<path id="Vector_5" opacity="0.7" d="M102.921 80.3766C102.887 80.3766 102.856 80.3541 102.847 80.3201C102.837 80.2796 102.861 80.238 102.901 80.2273C111.835 77.8563 116.233 72.6916 118.349 68.7765C120.641 64.5355 120.824 60.811 120.825 60.7739C120.827 60.7331 120.861 60.7012 120.901 60.7012C120.902 60.7012 120.903 60.7012 120.904 60.7013C120.946 60.703 120.979 60.7384 120.977 60.7803C120.975 60.8178 120.791 64.5773 118.482 68.8488C116.352 72.7902 111.926 77.9892 102.94 80.374C102.934 80.3758 102.927 80.3766 102.921 80.3766Z" fill="white"/>
<path id="Vector_6" opacity="0.7" d="M100.151 99.1088C100.133 99.1088 100.115 99.1028 100.101 99.0904C93.4148 93.3317 91.2558 87.3906 90.622 83.4207C89.9346 79.1155 90.844 76.1308 90.8532 76.1012C90.8658 76.0612 90.9076 76.0388 90.9484 76.0513C90.9883 76.0638 91.0106 76.1064 90.9982 76.1464C90.989 76.1758 90.0893 79.133 90.7732 83.4051C91.4044 87.3478 93.5522 93.2495 100.2 98.9752C100.232 99.0026 100.235 99.0505 100.208 99.0824C100.193 99.0998 100.172 99.1088 100.151 99.1088Z" fill="white"/>
<path id="Vector_7" opacity="0.7" d="M111.077 48.7636C111.047 48.7636 111.019 48.7462 111.007 48.7172C110.991 48.6786 111.009 48.6341 111.047 48.6177C117.511 45.8831 120.262 41.223 121.431 37.7951C122.699 34.0773 122.434 30.9654 122.431 30.9344C122.427 30.8926 122.458 30.8557 122.5 30.8519C122.542 30.8479 122.579 30.8787 122.583 30.9206C122.585 30.9519 122.854 34.0908 121.577 37.8381C120.398 41.2975 117.625 46 111.106 48.7576C111.097 48.7617 111.087 48.7636 111.077 48.7636Z" fill="white"/>
</g>
</g>
</g>
</g>
</g>
<g id="Group_5">
<path id="Vector_8" d="M86.6938 84.7772C82.1245 82.8326 79.7575 77.1634 79.6063 72.6657C79.373 65.7237 84.5202 64.6027 85.1388 57.1424C85.7966 49.2091 80.217 47.5719 81.1601 40.0492C82.0239 33.1591 86.8213 33.6013 88.9286 25.4816C91.0477 17.3166 87.0262 13.9543 90.4136 7.32707C91.0595 6.06363 93.7147 0.868984 98.3676 0.527389C102.261 0.241565 105.778 3.48302 107.254 6.57795C108.924 10.0777 107.282 11.9221 107.443 18.1118C107.663 26.5678 110.818 26.6584 110.246 32.4018C109.48 40.0776 103.774 41.6778 104.464 47.823C104.928 51.9558 107.818 51.964 109.504 56.8057C111.914 63.7242 108.957 72.1623 104.229 77.4829C103.608 78.1823 94.5535 88.1223 86.6938 84.7772Z" fill="url(#paint1_linear_82_943)"/>
<g id="Group_6">
<path id="Vector_9" d="M86.6938 84.7772C82.1245 82.8326 79.7575 77.1634 79.6063 72.6657C79.373 65.7237 84.5202 64.6027 85.1388 57.1424C85.7966 49.2091 80.217 47.5719 81.1601 40.0492C82.0239 33.1591 86.8213 33.6013 88.9286 25.4816C91.0477 17.3166 87.0262 13.9543 90.4136 7.32707C91.0595 6.06363 93.7147 0.868984 98.3676 0.527389C102.261 0.241565 105.778 3.48302 107.254 6.57795C108.924 10.0777 107.282 11.9221 107.443 18.1118C107.663 26.5678 110.818 26.6584 110.246 32.4018C109.48 40.0776 103.774 41.6778 104.464 47.823C104.928 51.9558 107.818 51.964 109.504 56.8057C111.914 63.7242 108.957 72.1623 104.229 77.4829C103.608 78.1823 94.5535 88.1223 86.6938 84.7772Z" fill="url(#paint2_linear_82_943)"/>
<g id="Clip path group_2">
<mask id="mask1_82_943" style="mask-type:luminance" maskUnits="userSpaceOnUse" x="79" y="0" width="32" height="86">
<g id="SVGID_00000046303171500054602860000005696632391886738321_">
<path id="Vector_10" d="M86.6938 84.7772C82.1245 82.8326 79.7575 77.1634 79.6063 72.6657C79.373 65.7237 84.5202 64.6027 85.1388 57.1424C85.7966 49.2091 80.217 47.5719 81.1601 40.0492C82.0239 33.1591 86.8213 33.6013 88.9286 25.4816C91.0477 17.3166 87.0262 13.9543 90.4136 7.32707C91.0595 6.06363 93.7147 0.868984 98.3676 0.527389C102.261 0.241565 105.778 3.48302 107.254 6.57795C108.924 10.0777 107.282 11.9221 107.443 18.1118C107.663 26.5678 110.818 26.6584 110.246 32.4018C109.48 40.0776 103.774 41.6778 104.464 47.823C104.928 51.9558 107.818 51.964 109.504 56.8057C111.914 63.7242 108.957 72.1623 104.229 77.4829C103.608 78.1823 94.5535 88.1223 86.6938 84.7772Z" fill="white"/>
</g>
</mask>
<g mask="url(#mask1_82_943)">
<g id="Group_7">
<path id="Vector_11" opacity="0.7" d="M89.3953 87.2135C89.3766 87.2135 89.3579 87.2067 89.3434 87.1929C89.3127 87.1642 89.3112 87.1162 89.34 87.0856C94.5171 81.5692 97.0623 76.0064 96.9045 70.5518C96.8297 67.9692 96.1719 66.4292 95.4101 64.646C94.6448 62.8546 93.7774 60.8243 93.1948 57.2255C92.0462 50.1307 92.639 43.7043 94.9564 38.1248C96.2292 35.0607 97.5386 33.4584 98.5909 32.171C99.7878 30.7066 100.733 29.55 101.112 26.9745C101.553 23.9718 100.723 21.9712 99.762 19.6546C98.9502 17.6986 98.0302 15.4815 97.7424 12.2582C97.3187 7.51597 98.0775 2.54219 99.9977 -2.52513C100.013 -2.56431 100.057 -2.58421 100.096 -2.56922C100.135 -2.5544 100.155 -2.51055 100.14 -2.47133C98.2278 2.57431 97.4721 7.52551 97.8937 12.2446C98.1794 15.4448 99.0947 17.6504 99.9023 19.5964C100.872 21.9338 101.71 23.9524 101.262 26.9966C100.877 29.6135 99.9203 30.7845 98.7085 32.2671C97.6626 33.5468 96.3608 35.1395 95.0967 38.183C92.7903 43.7361 92.2008 50.1347 93.3446 57.2013C93.9244 60.7816 94.7879 62.8029 95.5497 64.5863C96.3175 66.3837 96.9808 67.936 97.0564 70.5474C97.2152 76.0436 94.6564 81.6427 89.4507 87.1894C89.4358 87.2054 89.4154 87.2135 89.3953 87.2135Z" fill="white"/>
<path id="Vector_12" opacity="0.7" d="M101.037 22.8458C101.026 22.8458 101.015 22.8435 101.004 22.8385C95.5817 20.2622 92.2884 15.2017 90.4805 11.4102C88.5233 7.30535 87.8371 3.76114 87.8305 3.72583C87.8226 3.68463 87.8497 3.6449 87.891 3.63709C87.9316 3.62928 87.9718 3.65628 87.9797 3.69752C87.9863 3.73267 88.6697 7.26075 90.6193 11.3484C92.4165 15.1164 95.6883 20.1447 101.069 22.7013C101.107 22.7193 101.123 22.7646 101.105 22.8025C101.092 22.8298 101.065 22.8458 101.037 22.8458Z" fill="white"/>
<path id="Vector_13" opacity="0.7" d="M94.5496 39.4608C94.509 39.4608 94.4753 39.4287 94.4737 39.3877C94.4722 39.3458 94.5048 39.3106 94.5468 39.309C101.85 39.034 105.783 34.5524 107.795 30.8412C109.979 26.8144 110.438 22.803 110.443 22.7629C110.447 22.7211 110.485 22.6914 110.527 22.6957C110.568 22.7003 110.598 22.7378 110.594 22.7795C110.589 22.8198 110.127 26.8609 107.929 30.9137C105.897 34.6596 101.928 39.1831 94.5525 39.4608C94.5515 39.4608 94.5505 39.4608 94.5496 39.4608Z" fill="white"/>
<path id="Vector_14" opacity="0.7" d="M92.6224 47.7632C92.6123 47.7632 92.6021 47.7611 92.5923 47.7569C86.3404 45.0504 84.0211 40.3172 83.1763 36.8231C82.2618 33.0399 82.8327 29.8527 82.8387 29.8209C82.8463 29.7797 82.8865 29.7525 82.9271 29.7601C82.9683 29.7677 82.9956 29.8073 82.9879 29.8485C82.9821 29.88 82.4168 33.0402 83.3254 36.793C84.1627 40.2515 86.4605 44.9369 92.6525 47.6175C92.6911 47.6342 92.7087 47.6789 92.6921 47.7173C92.6796 47.746 92.6518 47.7632 92.6224 47.7632Z" fill="white"/>
<path id="Vector_15" opacity="0.7" d="M96.7584 68.4845C96.7227 68.4845 96.6909 68.4591 96.684 68.4227C96.6761 68.3815 96.7032 68.3418 96.7443 68.3339C103.367 67.0746 106.855 62.5658 108.616 59.0052C110.527 55.1409 110.874 51.5269 110.877 51.4909C110.881 51.449 110.922 51.4189 110.959 51.4221C111.001 51.4259 111.032 51.4628 111.028 51.5046C111.025 51.5409 110.677 55.1788 108.755 59.068C106.979 62.6614 103.458 67.2117 96.7727 68.4831C96.7679 68.484 96.7632 68.4845 96.7584 68.4845Z" fill="white"/>
<path id="Vector_16" opacity="0.7" d="M94.3496 80.5797C94.3459 80.5797 94.3423 80.5794 94.3386 80.5789C88.3717 79.7169 85.0469 75.171 83.3083 71.5092C81.4281 67.5489 80.9485 63.7412 80.9439 63.7032C80.9389 63.6616 80.9684 63.6238 81.0101 63.6187C81.0498 63.6139 81.0896 63.6432 81.0946 63.6849C81.0992 63.7227 81.5765 67.5093 83.4473 71.4477C85.1699 75.0744 88.4616 79.5764 94.3603 80.4286C94.4018 80.4346 94.4306 80.4731 94.4246 80.5146C94.4191 80.5524 94.3866 80.5797 94.3496 80.5797Z" fill="white"/>
</g>
</g>
</g>
</g>
</g>
<g id="Group_8">
<path id="Vector_17" d="M45.2755 95.2216C49.8448 93.2769 52.2118 87.6077 52.363 83.11C52.5963 76.168 47.4491 75.047 46.8305 67.5867C46.1727 59.6534 51.7523 58.0163 50.8091 50.4935C49.9453 43.6034 45.1479 44.0456 43.0406 35.9259C40.9216 27.7609 44.9431 24.3986 41.5556 17.7714C40.9098 16.508 38.2546 11.3133 33.6016 10.9717C29.7087 10.6859 26.1911 13.9274 24.7149 17.0223C23.0455 20.5221 24.6868 22.3664 24.5258 28.5562C24.3058 37.0122 21.1507 37.1027 21.7236 42.8462C22.4892 50.522 28.1949 52.1221 27.505 58.2674C27.0411 62.4001 24.1511 62.4084 22.4649 67.25C20.0555 74.1685 23.0121 82.6066 27.7402 87.9273C28.3616 88.6266 37.4158 98.5667 45.2755 95.2216Z" fill="url(#paint3_linear_82_943)"/>
<g id="Group_9">
<path id="Vector_18" d="M45.2755 95.2216C49.8448 93.2769 52.2118 87.6077 52.363 83.11C52.5963 76.168 47.4491 75.047 46.8305 67.5867C46.1727 59.6534 51.7523 58.0163 50.8091 50.4935C49.9453 43.6034 45.1479 44.0456 43.0406 35.9259C40.9216 27.7609 44.9431 24.3986 41.5556 17.7714C40.9098 16.508 38.2546 11.3133 33.6016 10.9717C29.7087 10.6859 26.1911 13.9274 24.7149 17.0223C23.0455 20.5221 24.6868 22.3664 24.5258 28.5562C24.3058 37.0122 21.1507 37.1027 21.7236 42.8462C22.4892 50.522 28.1949 52.1221 27.505 58.2674C27.0411 62.4001 24.1511 62.4084 22.4649 67.25C20.0555 74.1685 23.0121 82.6066 27.7402 87.9273C28.3616 88.6266 37.4158 98.5667 45.2755 95.2216Z" fill="url(#paint4_linear_82_943)"/>
<g id="Clip path group_3">
<mask id="mask2_82_943" style="mask-type:luminance" maskUnits="userSpaceOnUse" x="21" y="10" width="32" height="86">
<g id="SVGID_00000023965807609669055980000017996147920019885992_">
<path id="Vector_19" d="M45.2755 95.2216C49.8448 93.2769 52.2118 87.6077 52.363 83.11C52.5963 76.168 47.4491 75.047 46.8305 67.5867C46.1727 59.6534 51.7523 58.0163 50.8091 50.4935C49.9453 43.6034 45.1479 44.0456 43.0406 35.9259C40.9216 27.7609 44.9431 24.3986 41.5556 17.7714C40.9098 16.508 38.2546 11.3133 33.6016 10.9717C29.7087 10.6859 26.1911 13.9274 24.7149 17.0223C23.0455 20.5221 24.6868 22.3664 24.5258 28.5562C24.3058 37.0122 21.1507 37.1027 21.7236 42.8462C22.4892 50.522 28.1949 52.1221 27.505 58.2674C27.0411 62.4001 24.1511 62.4084 22.4649 67.25C20.0555 74.1685 23.0121 82.6066 27.7402 87.9273C28.3616 88.6266 37.4158 98.5667 45.2755 95.2216Z" fill="white"/>
</g>
</mask>
<g mask="url(#mask2_82_943)">
<g id="Group_10">
<path id="Vector_20" opacity="0.7" d="M42.5728 97.6569C42.5526 97.6569 42.5323 97.6489 42.5175 97.6329C37.3119 92.0861 34.7531 86.4869 34.9119 80.9909C34.9874 78.3795 35.6506 76.8271 36.4184 75.0297C37.1803 73.2463 38.0439 71.2251 38.6235 67.6447C39.7676 60.5786 39.1782 54.18 36.8714 48.6265C35.6073 45.5828 34.3056 43.9901 33.2596 42.7103C32.048 41.2278 31.0909 40.0569 30.7059 37.44C30.2582 34.3958 31.0959 32.3771 32.0659 30.0397C32.8734 28.0937 33.7886 25.8881 34.0746 22.688C34.496 17.9684 33.7403 13.0172 31.8283 7.97199C31.8135 7.93277 31.8333 7.88897 31.8725 7.8741C31.9114 7.85919 31.9554 7.87905 31.9704 7.91819C33.8905 12.985 34.6493 17.9588 34.2258 22.7015C33.9378 25.9248 33.0177 28.1418 32.2061 30.0979C31.2448 32.4145 30.4146 34.4151 30.8562 37.4179C31.235 39.9932 32.1803 41.1498 33.3771 42.6142C34.4294 43.9016 35.739 45.5039 37.0116 48.5681C39.3293 54.1481 39.922 60.5745 38.7732 67.6689C38.1907 71.2676 37.3233 73.2979 36.558 75.0893C35.7962 76.8725 35.1382 78.4125 35.0636 80.9951C34.9058 86.4496 37.4509 92.0124 42.628 97.5289C42.6567 97.5595 42.6553 97.6075 42.6246 97.6362C42.6102 97.6501 42.5915 97.6569 42.5728 97.6569Z" fill="white"/>
<path id="Vector_21" opacity="0.7" d="M30.9324 33.2892C30.904 33.2892 30.8768 33.2732 30.8639 33.2458C30.8458 33.2079 30.8619 33.1626 30.8997 33.1446C36.2822 30.5875 39.5545 25.5575 41.3517 21.7881C43.3005 17.7008 43.9828 14.176 43.9895 14.1409C43.9974 14.0996 44.0377 14.0726 44.0782 14.0805C44.1195 14.0883 44.1466 14.128 44.1387 14.1692C44.1321 14.2045 43.4461 17.7487 41.4887 21.8535C39.681 25.6451 36.3877 30.7055 30.965 33.2818C30.9545 33.2868 30.9433 33.2892 30.9324 33.2892Z" fill="white"/>
<path id="Vector_22" opacity="0.7" d="M37.4195 49.9032C37.4187 49.9032 37.4176 49.9032 37.4167 49.9032C30.0414 49.6255 26.0719 45.1019 24.0404 41.3561C21.8426 37.3033 21.3799 33.2622 21.3755 33.2219C21.3709 33.1802 21.401 33.1427 21.4427 33.1381C21.4839 33.1337 21.5217 33.1636 21.5264 33.2053C21.5309 33.2454 21.9913 37.2609 24.1763 41.2878C26.1889 44.9972 30.1207 49.4765 37.4224 49.7514C37.4643 49.753 37.497 49.7882 37.4955 49.8301C37.4938 49.8711 37.4601 49.9032 37.4195 49.9032Z" fill="white"/>
<path id="Vector_23" opacity="0.7" d="M39.3455 58.2064C39.3161 58.2064 39.2882 58.1893 39.2758 58.1607C39.2592 58.1222 39.2768 58.0775 39.3154 58.0608C45.5098 55.3792 47.8073 50.6912 48.644 47.2307C49.551 43.4786 48.9858 40.3233 48.98 40.2919C48.9723 40.2506 48.9996 40.2111 49.0408 40.2034C49.081 40.1958 49.1217 40.223 49.1292 40.2643C49.1351 40.2961 49.7061 43.4833 48.7915 47.2664C47.9469 50.7605 45.6275 55.4937 39.3756 58.2002C39.3658 58.2044 39.3556 58.2064 39.3455 58.2064Z" fill="white"/>
<path id="Vector_24" opacity="0.7" d="M35.2103 78.9268C35.2056 78.9268 35.2008 78.9264 35.196 78.9254C28.5105 77.6541 24.9902 73.1038 23.2142 69.5104C21.292 65.6213 20.944 61.9833 20.9407 61.947C20.937 61.9052 20.9677 61.8683 21.0095 61.8645C21.0467 61.8614 21.0881 61.8914 21.092 61.9333C21.0952 61.9693 21.4415 65.5833 23.3524 69.4476C25.1133 73.0082 28.6022 77.5169 35.2244 78.7763C35.2655 78.7841 35.2926 78.8239 35.2848 78.8651C35.2778 78.9015 35.2461 78.9268 35.2103 78.9268Z" fill="white"/>
<path id="Vector_25" opacity="0.7" d="M37.6188 91.023C37.5817 91.023 37.5492 90.9957 37.5437 90.9579C37.5378 90.9164 37.5666 90.8779 37.6081 90.8719C43.5069 90.0197 46.7986 85.5177 48.5212 81.891C50.392 77.9526 50.8693 74.166 50.8739 74.1282C50.879 74.0866 50.9188 74.0572 50.9585 74.062C51.0001 74.0671 51.0296 74.105 51.0246 74.1466C51.02 74.1846 50.5404 77.9922 48.6602 81.9525C46.9216 85.6143 43.5967 90.1603 37.6297 91.0223C37.6261 91.0227 37.6225 91.023 37.6188 91.023Z" fill="white"/>
</g>
</g>
</g>
</g>
</g>
<g id="Group_11">
<path id="Vector_26" d="M98.3148 27.618L75.2852 1.41356C74.3288 0.389031 72.3765 0.623241 70.9894 0.553486C69.5963 0.483437 68.2543 0.972353 67.2666 1.91201L40.3613 27.4513C38.4621 29.2578 37.334 31.7074 37.334 34.2602V105.949C37.334 110.499 41.2937 113.76 46.0443 113.167L93.4286 107.258C97.4786 106.752 100.698 102.958 100.698 98.8307V33.7331C100.698 31.454 99.8509 29.2631 98.3148 27.618ZM70.7881 30.8704C67.2794 30.8793 64.4072 28.0624 64.4072 24.5786C64.4072 21.0948 67.2793 18.3188 70.7881 18.3776C74.2593 18.4358 77.0457 21.2521 77.0457 24.6685C77.0458 28.085 74.2593 30.8616 70.7881 30.8704Z" fill="url(#paint5_linear_82_943)"/>
<path id="Vector_27" d="M100.488 27.6213L77.0029 2.3642C76.054 1.3445 74.7498 0.727745 73.3732 0.658788C71.9894 0.589872 70.6596 1.07589 69.6788 2.01248L56.456 14.627L43.0568 27.4588C41.1711 29.2578 40.1318 31.7001 40.1318 34.2431V105.664C40.1318 110.197 44.0364 113.434 48.7496 112.844L83.2542 108.525L95.6296 106.98C99.6519 106.477 102.838 102.684 102.838 98.5718V33.7147C102.838 31.4439 102.013 29.2613 100.488 27.6213ZM73.1752 18.4176C76.6213 18.4742 79.3871 21.2805 79.3871 24.6842C79.3871 28.0879 76.6213 30.8554 73.1752 30.8642C69.6939 30.873 66.8415 28.0667 66.8415 24.5959C66.8415 21.125 69.6939 18.3594 73.1752 18.4176Z" fill="url(#paint6_linear_82_943)"/>
<g id="Group_12">
<g id="Group_13" opacity="0.15">
<path id="Vector_28" d="M70.6357 56.9148C70.5144 64.929 65.502 69.0938 59.9214 69.0724C53.8411 69.049 48.9673 64.3872 49.0831 56.7328C49.1932 49.4547 53.7781 44.2697 60.5905 44.7786C67.2005 45.2724 70.7347 50.3739 70.6357 56.9148ZM56.2013 56.7611C56.138 60.9418 57.506 63.9806 60.1786 64.0301C62.7509 64.0777 64.0332 61.4571 64.0995 57.071C64.1595 53.1055 63.1424 49.9775 60.3335 49.809C57.6006 49.645 56.2618 52.7647 56.2013 56.7611ZM61.8436 82.5262L81.2087 47.4646C81.5791 46.7941 82.3062 46.4008 83.0701 46.4579C84.4904 46.564 85.3267 48.1018 84.6438 49.3516L65.4929 84.4038C65.1642 85.0055 64.5448 85.3916 63.8598 85.4219L63.6456 85.4314C62.1166 85.4991 61.1036 83.8661 61.8436 82.5262ZM94.9783 72.6455C94.8659 80.068 90.5634 84.1293 85.7892 84.339C80.6542 84.5645 76.5117 80.4702 76.5639 73.4161C76.6654 66.7075 80.5737 61.7209 86.3866 61.877C92.0435 62.029 95.0699 66.5873 94.9783 72.6455ZM82.6789 73.1326C82.5679 76.9929 83.732 79.739 86.0144 79.6723C88.2136 79.608 89.3137 77.1319 89.3751 73.0754C89.4306 69.408 88.6141 66.5635 86.2132 66.5343C83.8277 66.5053 82.7347 69.4437 82.6789 73.1326Z" fill="url(#paint7_linear_82_943)"/>
</g>
<g id="Group_14">
<path id="Vector_29" d="M71.5703 56.5417C71.449 64.5559 66.4365 68.7207 60.856 68.6993C54.7757 68.676 49.9018 64.0142 50.0176 56.3597C50.1278 49.0817 54.7127 43.8966 61.5251 44.4055C68.1351 44.8993 71.6692 50.0009 71.5703 56.5417ZM57.1359 56.388C57.0726 60.5688 58.4406 63.6075 61.1132 63.657C63.6855 63.7047 64.9677 61.084 65.0341 56.698C65.0941 52.7325 64.077 49.6044 61.2681 49.4359C58.5351 49.272 57.1963 52.3917 57.1359 56.388ZM62.7782 82.1532L82.1433 47.0916C82.5137 46.421 83.2408 46.0277 84.0047 46.0848C85.425 46.1909 86.2613 47.7287 85.5784 48.9786L66.4275 84.0307C66.0988 84.6324 65.4794 85.0185 64.7944 85.0488L64.5802 85.0583C63.0511 85.1261 62.0381 83.493 62.7782 82.1532ZM95.9128 72.2725C95.8005 79.695 91.498 83.7563 86.7238 83.966C81.5888 84.1915 77.4463 80.0972 77.4984 73.0431C77.5999 66.3345 81.5082 61.3479 87.3211 61.504C92.9781 61.6559 96.0045 66.2143 95.9128 72.2725ZM83.6135 72.7596C83.5024 76.6198 84.6665 79.3659 86.9489 79.2992C89.1482 79.2349 90.2482 76.7587 90.3096 72.7023C90.3651 69.0348 89.5486 66.1904 87.1477 66.1612C84.7623 66.1322 83.6693 69.0706 83.6135 72.7596Z" fill="white"/>
</g>
</g>
<path id="Vector_30" opacity="0.35" d="M83.229 108.526L48.7496 112.845C44.0364 113.435 40.1318 110.198 40.1318 105.665V34.2441C40.1318 31.7011 41.1701 29.2588 43.0557 27.4597L56.479 14.6279C53.9395 22.789 54.6391 28.748 56.0564 32.9523C60.5417 46.2594 73.6251 46.9646 77.0094 60.4255C79.7415 71.2939 72.5617 76.2421 73.5213 88.2469C73.9771 93.9744 76.2714 101.001 83.229 108.526Z" fill="white"/>
</g>
<g id="Group_15">
<path id="Vector_31" d="M39.8542 68.4302C40.1323 68.2175 40.4106 68.0047 40.6888 67.792C40.9322 67.8611 44.9295 69.0625 45.7208 72.5786C45.8297 73.0623 46.2308 74.8447 45.2544 75.9906C43.6177 77.9114 38.8681 77.1549 36.6386 74.4687C34.8867 72.3579 34.669 69.0291 35.6812 68.4056C36.9062 67.6511 40.5579 70.4735 40.836 70.6885C41.3942 71.1199 41.9011 71.5791 41.9897 71.4985C42.1405 71.3616 40.9415 69.7939 39.8542 68.4302Z" fill="url(#paint8_linear_82_943)"/>
<g id="Group_16">
<path id="Vector_32" d="M9.07487 93.3192C9.07487 93.3192 9.28775 92.7661 8.95421 92.4769C8.62073 92.1877 6.77584 91.351 5.84996 91.3684C4.92416 91.3859 5.67018 92.0993 6.19869 92.5032C6.72725 92.907 7.96013 93.7529 8.27749 93.8246C8.59481 93.8961 9.07487 93.3192 9.07487 93.3192Z" fill="url(#paint9_linear_82_943)"/>
<path id="Vector_33" d="M10.7081 94.2974C10.1706 93.8789 9.70158 93.5521 9.34726 93.3164C8.56332 92.7949 8.21387 92.6343 7.86388 92.5248C7.55882 92.4296 6.86719 92.2523 6.80243 92.3958C6.73658 92.5415 7.37748 92.8839 8.95153 94.0785C9.18003 94.2519 9.90576 94.8058 9.90576 94.8058L10.7081 94.2974Z" fill="url(#paint10_linear_82_943)"/>
</g>
<path id="Vector_34" d="M34.1359 119.045C34.1359 119.045 33.9221 119.597 34.2553 119.887C34.5884 120.177 36.432 121.016 37.3579 121C38.2837 120.984 37.5388 120.269 37.0108 119.865C36.4829 119.46 35.2512 118.613 34.9339 118.54C34.6168 118.468 34.1359 119.045 34.1359 119.045Z" fill="url(#paint11_linear_82_943)"/>
<path id="Vector_35" d="M34.2687 116.598C34.2296 117.302 34.3028 117.874 34.3802 118.271C34.4907 118.839 34.5577 119.161 34.827 119.446C35.3028 119.95 36.136 120.049 36.2567 119.846C36.3937 119.616 35.5122 119.168 35.2197 118.091C35.0916 117.619 35.1215 117.192 35.1719 116.892L34.2687 116.598Z" fill="url(#paint12_linear_82_943)"/>
<path id="Vector_36" d="M37.4383 87.8764C38.686 89.1899 38.4134 91.0667 38.0226 94.4309C37.6948 97.253 37.2483 101.426 36.8283 106.71C36.4471 110.395 36.0658 114.081 35.6846 117.766C35.0492 117.766 34.4137 117.766 33.7783 117.766C32.9991 116.111 32.071 113.577 32.0246 110.446C31.9862 107.853 32.5923 107.512 32.7093 104.575C32.7736 102.96 32.6305 102.054 31.4146 95.0438C30.4474 89.4671 30.2571 88.4205 31.0334 87.5715C32.4028 86.0735 35.8518 86.2064 37.4383 87.8764Z" fill="url(#paint13_linear_82_943)"/>
<path id="Vector_37" opacity="0.4" d="M33.6258 113.556C33.9538 112.528 34.8251 111.477 34.884 109.438C34.9534 107.033 33.8001 106.433 33.9689 104.177C34.1312 102.01 35.2497 101.852 35.5702 99.7167C35.9425 97.2363 34.5629 96.5877 34.0833 93.6549C33.6459 90.9794 34.2793 88.3718 34.9387 86.629C33.4581 86.3589 31.8638 86.6638 31.0334 87.5721C30.2571 88.4212 30.4474 89.4678 31.4146 95.0443C32.6305 102.055 32.7736 102.96 32.7092 104.576C32.5922 107.513 31.9862 107.853 32.0246 110.447C32.071 113.578 32.9991 116.112 33.7783 117.767C33.9886 117.767 34.1989 117.767 34.4092 117.767C33.3904 115.914 33.3044 114.564 33.6258 113.556Z" fill="url(#paint14_linear_82_943)"/>
<path id="Vector_38" d="M8.74512 94.6115C11.4176 98.2934 16.5273 104.377 20.9455 103.345C23.2818 102.8 24.1293 100.568 30.9957 91.1387C32.6469 88.8712 34.0529 87.0023 35.0509 85.6904C32.3822 85.0297 29.7135 84.3688 27.0448 83.708C25.2433 86.68 24.0588 89.1965 23.3254 90.8954C21.572 94.9571 20.9397 97.7222 19.3437 97.8903C18.5635 97.9725 18.0578 97.3809 16.98 96.5178C15.5688 95.388 13.3833 93.9582 10.1176 92.8579C9.66008 93.4424 9.20258 94.0269 8.74512 94.6115Z" fill="url(#paint15_linear_82_943)"/>
<path id="Vector_39" d="M35.6147 63.5758C35.0134 62.6081 34.0861 62.2274 33.0501 61.8187C31.7067 61.2887 31.1009 61.3968 30.1027 61.1437C27.6333 60.5174 27.5855 58.9034 25.3691 57.7927C22.5361 56.3729 21.1527 58.2772 18.8021 57.0241C16.1632 55.6173 17.0963 52.7856 14.7652 50.908C11.5297 48.3019 3.96473 49.1125 1.58411 53.6071C0.209035 56.2029 0.467899 60.2083 2.40857 62.4568C3.53977 63.7675 5.16313 64.4645 5.08203 65.6331C5.02429 66.4648 4.04049 66.5781 3.46385 67.7599C2.72031 69.2834 3.40929 71.0323 3.52058 71.3147C4.5533 73.9365 9.26356 75.5501 13.4128 74.9909C20.8952 73.9825 24.2046 66.2251 28.97 67.6978C29.8464 67.9687 31.1136 68.7243 32.8817 68.4473C33.414 68.3639 35.2997 68.0684 35.9683 66.5061C36.5568 65.1307 35.7189 63.7435 35.6147 63.5758Z" fill="url(#paint16_linear_82_943)"/>
<path id="Vector_40" d="M27.1509 67.5852C29.1974 67.5774 31.7307 67.5998 34.3198 67.8731C39.8865 68.4607 39.6675 71.2304 38.6595 73.7554C37.631 76.3321 37.6667 78.6074 37.6874 79.4169C37.7207 80.721 37.9577 81.7664 38.4317 83.8574C39.2552 87.4899 39.8684 88.3241 39.2887 89.253C38.4432 90.6074 36.0738 90.5405 35.6583 90.5205C33.5538 90.4193 33.1073 89.1842 31.3328 88.9888C29.2713 88.7618 28.7947 90.3101 25.9282 91.3518C22.5449 92.5815 18.1891 92.2562 16.166 89.9909C15.3848 89.1163 14.8835 87.9079 15.2194 87.5275C15.6767 87.0096 17.2674 88.4998 18.9609 87.9087C20.0828 87.5171 19.9815 86.6549 21.3249 85.8136C22.9416 84.8011 23.8927 85.5461 24.989 84.8927C26.699 83.8731 26.3312 80.8996 26.4696 76.0045C26.5268 73.9779 26.6859 71.0935 27.1509 67.5852Z" fill="url(#paint17_linear_82_943)"/>
<path id="Vector_41" d="M27.1504 67.5841C24.1814 67.7289 23.12 70.8194 20.0204 71.4292C18.1423 71.7987 15.3411 71.2917 11.3189 67.3848C10.7487 67.6485 10.1786 67.9123 9.6084 68.1761C10.1943 71.6841 11.8222 73.6525 12.6213 74.4815C17.1866 79.2174 25.8452 79.0722 30.5336 75.0121C32.0049 73.738 32.8343 72.2955 33.285 71.3476C31.8031 69.5046 29.6462 67.4625 27.1504 67.5841Z" fill="url(#paint18_linear_82_943)"/>
<path id="Vector_42" d="M33.6503 65.2986C33.4649 65.1654 33.2044 65.2522 33.1342 65.4694C32.9398 66.0707 32.538 67.0937 31.9905 67.3494C31.202 67.7172 30.0148 67.5557 29.8648 67.7017C29.7153 67.847 33.405 69.762 35.8633 68.8915C35.8806 68.8853 35.8973 68.8778 35.9135 68.8691L36.0535 68.7938C36.331 68.6443 36.2682 68.2297 35.959 68.1685C35.4847 68.0748 34.2424 67.7182 33.9299 67.1764C33.894 67.1142 33.8838 66.6253 33.8929 66.5541L33.9937 65.7619C34.0092 65.6396 33.9565 65.5186 33.8564 65.4466L33.6503 65.2986Z" fill="url(#paint19_linear_82_943)"/>
<path id="Vector_43" d="M33.0702 65.7128C33.0702 65.7128 33.4704 66.4269 34.2536 66.2427C34.9551 66.0778 34.7611 64.2939 34.2516 64.0323C34.0817 63.9451 33.7516 63.9353 33.517 64.0454C33.3521 64.1229 32.8813 64.5832 33.0482 65.182C32.8844 65.1125 32.7295 65.1394 32.6821 65.219C32.6219 65.32 32.7483 65.4824 32.7769 65.5192C32.8762 65.6468 33.0086 65.6949 33.0702 65.7128Z" fill="url(#paint20_linear_82_943)"/>
<path id="Vector_44" d="M10.8386 67.6067L10.5585 67.0547C10.5585 67.0547 11.9887 64.7155 10.8165 64.3399C9.64433 63.9642 9.97475 64.6332 10.1077 64.9524C10.2406 65.2715 10.0265 66.3121 9.8229 66.63C9.61926 66.9479 9.97341 68.007 9.97341 68.007L10.8386 67.6067Z" fill="url(#paint21_linear_82_943)"/>
<path id="Vector_45" opacity="0.3" d="M20.9694 89.8049C21.7089 89.3016 21.1999 88.3147 22.0369 87.5175C22.8029 86.7879 23.6412 87.2219 25.0106 86.8312C26.6568 86.3616 27.9321 85.0249 28.518 83.8575C28.9357 83.0252 28.9022 82.4799 28.518 78.2151C28.1521 74.1537 28.0486 73.1617 27.5268 73.0303C26.5772 72.791 25.7268 75.7749 23.8668 75.7752C22.8164 75.7754 22.674 74.8236 21.3507 74.3265C19.1045 73.4826 17.4991 75.4674 15.0982 75.3939C14.4845 75.3751 13.7402 75.2152 12.8906 74.7374C16.3506 78.076 21.9242 78.8054 26.4426 77.2928C26.3813 81.4207 26.542 83.9655 24.9884 84.8918C23.8922 85.5453 22.9411 84.8002 21.3244 85.8127C19.9809 86.654 20.0823 87.5162 18.9604 87.9079C17.267 88.4989 15.6762 87.0087 15.2189 87.5266C14.9143 87.8717 15.301 88.8953 15.9578 89.7358C16.3437 89.5759 16.7694 89.4599 17.2333 89.4237C19.0055 89.2856 20.0969 90.3987 20.9694 89.8049Z" fill="url(#paint22_linear_82_943)"/>
<path id="Vector_46" d="M42.0528 58.8967L41.8438 58.3534L42.3861 57.8168C42.5071 57.6971 42.6916 57.6698 42.8422 57.7492C43.6396 58.1695 46.0459 59.6638 46.7634 62.702C46.801 62.8615 46.7349 63.0278 46.5979 63.1177C46.349 63.2811 46.0558 63.4205 46.0558 63.4205L42.0528 58.8967Z" fill="url(#paint23_linear_82_943)"/>
<path id="Vector_47" d="M39.3556 65.4736L39.6784 67.2516C39.6784 67.2516 39.6957 67.766 39.779 67.9651C39.5764 68.2319 39.0689 68.3595 39.0689 68.3595L38.0576 66.352L39.296 65.4678L39.3556 65.4736Z" fill="url(#paint24_linear_82_943)"/>
<path id="Vector_48" d="M40.4968 67.9391L40.2081 67.2166C40.2081 67.2166 39.944 66.6458 39.1993 66.5484C38.4546 66.4511 38.4629 66.853 38.4629 66.853L38.9486 66.9967C38.9486 66.9967 39.263 67.0875 39.4785 67.5428C39.78 68.0065 40.1036 68.2398 40.1036 68.2398L40.4968 67.9391Z" fill="url(#paint25_linear_82_943)"/>
<path id="Vector_49" d="M36.4102 65.8321C36.4102 65.8321 40.9285 61.5037 41.8442 58.3525C45.0569 59.239 46.0563 63.4196 46.0563 63.4196C46.0563 63.4196 39.5855 65.5293 37.4653 67.1786C36.7068 67.0113 36.4102 65.8321 36.4102 65.8321Z" fill="url(#paint26_linear_82_943)"/>
<path id="Vector_50" d="M48.5972 63.2146C48.4162 63.1503 48.2748 62.9925 48.2411 62.7896C47.3122 57.198 43.4073 56.3077 43.3692 56.2995C43.0744 56.2374 42.8861 55.9473 42.9485 55.6524C43.011 55.3576 43.3006 55.1693 43.5955 55.2317C43.7865 55.2719 48.2683 56.2924 49.3178 62.6107C49.3672 62.908 49.1662 63.1892 48.8689 63.2385C48.7744 63.2544 48.6814 63.2445 48.5972 63.2146Z" fill="url(#paint27_linear_82_943)"/>
</g>
</g>
</g>
<defs>
<linearGradient id="paint0_linear_82_943" x1="115.082" y1="51.1377" x2="73.6694" y2="144.175" gradientUnits="userSpaceOnUse">
<stop offset="0.0036" stop-color="#E38DDD"/>
<stop offset="1" stop-color="#9571F6"/>
</linearGradient>
<linearGradient id="paint1_linear_82_943" x1="119.503" y1="-13.3489" x2="103.393" y2="28.6535" gradientUnits="userSpaceOnUse">
<stop stop-color="#AA80F9"/>
<stop offset="0.9964" stop-color="#6165D7"/>
</linearGradient>
<linearGradient id="paint2_linear_82_943" x1="119.503" y1="-13.3489" x2="103.393" y2="28.6535" gradientUnits="userSpaceOnUse">
<stop stop-color="#AA80F9"/>
<stop offset="0.9964" stop-color="#6165D7"/>
</linearGradient>
<linearGradient id="paint3_linear_82_943" x1="12.4661" y1="-2.90453" x2="28.5766" y2="39.0978" gradientUnits="userSpaceOnUse">
<stop stop-color="#AA80F9"/>
<stop offset="0.9964" stop-color="#6165D7"/>
</linearGradient>
<linearGradient id="paint4_linear_82_943" x1="58.0625" y1="0.333995" x2="24.2554" y2="88.474" gradientUnits="userSpaceOnUse">
<stop offset="0.0036" stop-color="#E38DDD"/>
<stop offset="1" stop-color="#9571F6"/>
</linearGradient>
<linearGradient id="paint5_linear_82_943" x1="63.5512" y1="210.749" x2="87.5135" y2="-421.582" gradientUnits="userSpaceOnUse">
<stop offset="0.0036" stop-color="#F36F56"/>
<stop offset="1" stop-color="#FFC444"/>
</linearGradient>
<linearGradient id="paint6_linear_82_943" x1="54.334" y1="518.979" x2="78.1967" y2="-110.721" gradientUnits="userSpaceOnUse">
<stop offset="0.0036" stop-color="#F36F56"/>
<stop offset="1" stop-color="#FFC444"/>
</linearGradient>
<linearGradient id="paint7_linear_82_943" x1="48.9598" y1="64.8971" x2="95.0848" y2="65.5937" gradientUnits="userSpaceOnUse">
<stop stop-color="#FF9085"/>
<stop offset="1" stop-color="#FB6FBB"/>
</linearGradient>
<linearGradient id="paint8_linear_82_943" x1="21.8736" y1="145.062" x2="39.6318" y2="75.4135" gradientUnits="userSpaceOnUse">
<stop stop-color="#AA80F9"/>
<stop offset="0.9964" stop-color="#6165D7"/>
</linearGradient>
<linearGradient id="paint9_linear_82_943" x1="10.9368" y1="97.3305" x2="2.81199" y2="85.9612" gradientUnits="userSpaceOnUse">
<stop stop-color="#AB316D"/>
<stop offset="1" stop-color="#792D3D"/>
</linearGradient>
<linearGradient id="paint10_linear_82_943" x1="7.16321" y1="90.9788" x2="17.5974" y2="106.67" gradientUnits="userSpaceOnUse">
<stop stop-color="#FFC444"/>
<stop offset="0.9964" stop-color="#F36F56"/>
</linearGradient>
<linearGradient id="paint11_linear_82_943" x1="32.2796" y1="115.031" x2="40.3881" y2="126.412" gradientUnits="userSpaceOnUse">
<stop stop-color="#AB316D"/>
<stop offset="1" stop-color="#792D3D"/>
</linearGradient>
<linearGradient id="paint12_linear_82_943" x1="34.6233" y1="120.348" x2="38.6384" y2="107.034" gradientUnits="userSpaceOnUse">
<stop stop-color="#FFC444"/>
<stop offset="0.9964" stop-color="#F36F56"/>
</linearGradient>
<linearGradient id="paint13_linear_82_943" x1="39.7269" y1="117.106" x2="33.4364" y2="95.0316" gradientUnits="userSpaceOnUse">
<stop stop-color="#444B8C"/>
<stop offset="0.9964" stop-color="#26264F"/>
</linearGradient>
<linearGradient id="paint14_linear_82_943" x1="38.5674" y1="117.437" x2="32.2768" y2="95.3626" gradientUnits="userSpaceOnUse">
<stop stop-color="#444B8C"/>
<stop offset="0.9964" stop-color="#26264F"/>
</linearGradient>
<linearGradient id="paint15_linear_82_943" x1="27.9532" y1="101.223" x2="19.3515" y2="85.4945" gradientUnits="userSpaceOnUse">
<stop stop-color="#444B8C"/>
<stop offset="0.9964" stop-color="#26264F"/>
</linearGradient>
<linearGradient id="paint16_linear_82_943" x1="-15.9819" y1="81.346" x2="27.524" y2="54.3921" gradientUnits="userSpaceOnUse">
<stop stop-color="#444B8C"/>
<stop offset="0.9964" stop-color="#26264F"/>
</linearGradient>
<linearGradient id="paint17_linear_82_943" x1="13.3738" y1="142.896" x2="31.132" y2="73.2474" gradientUnits="userSpaceOnUse">
<stop stop-color="#AA80F9"/>
<stop offset="0.9964" stop-color="#6165D7"/>
</linearGradient>
<linearGradient id="paint18_linear_82_943" x1="3.44548" y1="140.364" x2="21.2036" y2="70.7151" gradientUnits="userSpaceOnUse">
<stop stop-color="#AA80F9"/>
<stop offset="0.9964" stop-color="#6165D7"/>
</linearGradient>
<linearGradient id="paint19_linear_82_943" x1="30.8049" y1="73.6116" x2="35.0258" y2="63.2993" gradientUnits="userSpaceOnUse">
<stop stop-color="#FFC444"/>
<stop offset="0.9964" stop-color="#F36F56"/>
</linearGradient>
<linearGradient id="paint20_linear_82_943" x1="32.182" y1="63.354" x2="40.8216" y2="72.4814" gradientUnits="userSpaceOnUse">
<stop stop-color="#FFC444"/>
<stop offset="0.9964" stop-color="#F36F56"/>
</linearGradient>
<linearGradient id="paint21_linear_82_943" x1="10.7291" y1="62.1515" x2="9.94361" y2="76.5358" gradientUnits="userSpaceOnUse">
<stop stop-color="#FFC444"/>
<stop offset="0.9964" stop-color="#F36F56"/>
</linearGradient>
<linearGradient id="paint22_linear_82_943" x1="12.8907" y1="81.4986" x2="28.8189" y2="81.4986" gradientUnits="userSpaceOnUse">
<stop stop-color="#AA80F9"/>
<stop offset="0.9964" stop-color="#6165D7"/>
</linearGradient>
<linearGradient id="paint23_linear_82_943" x1="46.0711" y1="58.8307" x2="42.0427" y2="62.9928" gradientUnits="userSpaceOnUse">
<stop stop-color="#AB316D"/>
<stop offset="1" stop-color="#792D3D"/>
</linearGradient>
<linearGradient id="paint24_linear_82_943" x1="40.8216" y1="65.195" x2="36.5689" y2="69.5888" gradientUnits="userSpaceOnUse">
<stop stop-color="#AB316D"/>
<stop offset="1" stop-color="#792D3D"/>
</linearGradient>
<linearGradient id="paint25_linear_82_943" x1="38.9955" y1="66.5203" x2="40.0523" y2="68.1017" gradientUnits="userSpaceOnUse">
<stop stop-color="#FFC444"/>
<stop offset="0.9964" stop-color="#F36F56"/>
</linearGradient>
<linearGradient id="paint26_linear_82_943" x1="41.5773" y1="58.7234" x2="40.5504" y2="76.3408" gradientUnits="userSpaceOnUse">
<stop stop-color="#444B8C"/>
<stop offset="0.9964" stop-color="#26264F"/>
</linearGradient>
<linearGradient id="paint27_linear_82_943" x1="45.2442" y1="59.7647" x2="47.7041" y2="58.2895" gradientUnits="userSpaceOnUse">
<stop stop-color="#AB316D"/>
<stop offset="1" stop-color="#792D3D"/>
</linearGradient>
</defs>
</svg>
