<svg width="121" height="122" viewBox="0 0 121 122" fill="none" xmlns="http://www.w3.org/2000/svg">
<g id="Illustration">
<g id="Group">
<g id="Group_2">
<g id="Group_3">
<g id="Group_4">
<path id="Vector" d="M82.6268 42.3828C82.6268 42.3828 90.5596 49.5406 85.946 62.9542C85.5162 64.2037 83.8868 64.5076 83.0302 63.5015L77.5735 57.0927C76.6987 56.0652 76.2983 54.7161 76.471 53.3777L77.3574 46.5064L82.6268 42.3828Z" fill="url(#paint0_linear_80_784)"/>
<path id="Vector_2" d="M65.48 31.6263C65.48 31.6263 55.5831 27.5995 45.5146 37.5912C44.5767 38.5219 45.0123 40.1212 46.2909 40.4545L54.4358 42.578C55.7416 42.9184 57.1304 42.6917 58.2603 41.9538L64.0609 38.1651L65.48 31.6263Z" fill="url(#paint1_linear_80_784)"/>
</g>
<g id="Group_5">
<path id="Vector_3" d="M83.2265 41.4248C83.2265 41.4248 91.1593 48.5827 86.5456 61.9962C86.1158 63.2457 84.4864 63.5496 83.6299 62.5435L78.1732 56.1346C77.2983 55.1072 76.8979 53.7581 77.0706 52.4197L77.957 45.5483L83.2265 41.4248Z" fill="url(#paint2_linear_80_784)"/>
<path id="Vector_4" d="M66.0806 30.6702C66.0806 30.6702 56.1837 26.6434 46.1152 36.6351C45.1773 37.5658 45.6129 39.1651 46.8915 39.4985L55.0364 41.6219C56.3422 41.9624 57.7311 41.7357 58.8609 40.9978L64.6615 37.2091L66.0806 30.6702Z" fill="url(#paint3_linear_80_784)"/>
</g>
<path id="Vector_5" d="M71.2553 9.88444C80.0618 -1.21059 96.8705 0.594877 96.8815 0.61389C96.9034 0.615506 105.844 14.9641 99.6882 27.7206C94.1046 39.2914 79.905 48.8138 77.1694 50.5729C76.8751 50.7621 76.3932 51.0299 76.1758 50.7558C71.9482 45.4255 66.728 42.3373 60.7288 41.0716C60.3968 41.0016 60.4386 40.4589 60.4794 40.122C60.866 36.9374 63.2534 19.9657 71.2553 9.88444Z" fill="url(#paint4_linear_80_784)"/>
<g id="Group_6" opacity="0.3">
<path id="Vector_6" d="M79.3046 24.3107C84.2376 18.1477 89.6878 19.8521 94.5101 14.4243C96.2709 12.4425 98.0947 9.34432 98.7528 4.26562C100.992 9.34446 103.939 18.912 99.6885 27.7208C94.1049 39.2917 79.9053 48.814 77.1697 50.5731C76.8755 50.7623 76.3935 51.0301 76.1761 50.756C74.0404 48.0632 71.651 45.9435 69.0361 44.341C70.9848 42.8735 72.3292 41.3241 73.2901 39.879C77.1651 34.0514 74.81 29.926 79.3046 24.3107Z" fill="url(#paint5_linear_80_784)"/>
</g>
<path id="Vector_7" d="M91.2524 9.58765C87.1033 6.98492 82.103 4.76518 77.8047 4.36834C85.3726 0.126003 94.1794 0.409448 96.3694 0.566999C96.6937 0.59035 96.9847 0.772914 97.1468 1.05474C98.2417 2.95786 102.329 10.7636 101.804 19.4232C99.9158 16.106 95.4014 12.1903 91.2524 9.58765Z" fill="url(#paint6_linear_80_784)"/>
<path id="Vector_8" opacity="0.3" d="M98.7528 4.26562C98.7632 4.28935 98.7737 4.31311 98.7841 4.33702C98.8019 4.37754 98.8197 4.41824 98.8376 4.45936C98.8554 4.50029 98.8732 4.54173 98.8911 4.58317C98.908 4.62258 98.925 4.66209 98.942 4.70201C98.9608 4.74603 98.9797 4.79052 98.9985 4.83519C99.0147 4.87345 99.0308 4.91175 99.0471 4.95042C99.0668 4.99763 99.0866 5.04521 99.1064 5.09307C99.1218 5.13026 99.1372 5.1676 99.1527 5.20521C99.1733 5.25542 99.1939 5.30609 99.2146 5.35699C99.2293 5.39308 99.2439 5.42921 99.2586 5.46562C99.28 5.51897 99.3015 5.57274 99.323 5.62678C99.3369 5.66166 99.3507 5.69665 99.3646 5.73176C99.3868 5.78797 99.4089 5.8446 99.431 5.9015C99.4444 5.93579 99.4577 5.97017 99.4711 6.00473C99.4936 6.06329 99.5162 6.12227 99.5388 6.18157C99.5515 6.21508 99.5642 6.24872 99.577 6.28245C99.6002 6.34388 99.6234 6.40576 99.6465 6.46797C99.6585 6.50041 99.6706 6.533 99.6826 6.56567C99.7062 6.62972 99.7298 6.69419 99.7533 6.75903C99.7648 6.79074 99.7763 6.82258 99.7878 6.85447C99.8118 6.9212 99.8358 6.9883 99.8597 7.05586C99.8705 7.08655 99.8814 7.11737 99.8923 7.14825C99.9165 7.21747 99.9408 7.28711 99.9649 7.35716C99.9753 7.38725 99.9856 7.41748 99.996 7.4477C100.02 7.51923 100.045 7.59123 100.069 7.66359C100.079 7.69303 100.089 7.72256 100.099 7.75215C100.123 7.82589 100.148 7.90001 100.172 7.97454C100.181 8.00343 100.191 8.03245 100.2 8.06148C100.225 8.13758 100.249 8.21405 100.274 8.29098C100.282 8.31899 100.291 8.34709 100.3 8.37524C100.325 8.4537 100.349 8.53256 100.374 8.61189C100.382 8.63912 100.39 8.66644 100.399 8.69376C100.423 8.77443 100.448 8.85551 100.472 8.93706C100.48 8.96364 100.487 8.99031 100.495 9.01694C100.52 9.10005 100.544 9.18353 100.568 9.26748C100.575 9.29277 100.583 9.3182 100.59 9.34358C100.614 9.42923 100.638 9.5152 100.662 9.60169C100.669 9.62615 100.676 9.65074 100.683 9.67529C100.707 9.76307 100.731 9.85121 100.754 9.93986C100.761 9.96377 100.767 9.98781 100.773 10.0118C100.797 10.1014 100.82 10.1913 100.844 10.2817C100.85 10.3053 100.856 10.3288 100.861 10.3524C100.885 10.444 100.908 10.536 100.93 10.6284C100.936 10.6509 100.941 10.6734 100.947 10.696C100.97 10.7897 100.992 10.8839 101.014 10.9785C101.019 11.0003 101.024 11.0222 101.03 11.0441C101.052 11.1399 101.074 11.2361 101.095 11.3328C101.1 11.3535 101.105 11.3743 101.109 11.395C101.131 11.493 101.152 11.5914 101.173 11.6904C101.178 11.7103 101.182 11.7303 101.186 11.7502C101.207 11.8504 101.228 11.9508 101.248 12.0518C101.252 12.0705 101.255 12.0894 101.259 12.1082C101.279 12.2105 101.299 12.3131 101.319 12.4163C101.322 12.4341 101.326 12.4521 101.329 12.47C101.349 12.5743 101.368 12.6791 101.386 12.7843C101.389 12.801 101.392 12.8179 101.395 12.8346C101.414 12.9411 101.432 13.0478 101.45 13.155C101.453 13.1711 101.455 13.1872 101.458 13.2033C101.476 13.3117 101.493 13.4203 101.51 13.5295C101.512 13.544 101.514 13.5586 101.516 13.5731C101.533 13.6839 101.549 13.7951 101.565 13.9067C101.567 13.9198 101.569 13.933 101.57 13.9461C101.586 14.0592 101.602 14.1727 101.616 14.2866C101.618 14.2984 101.619 14.3103 101.62 14.322C101.635 14.4375 101.649 14.5533 101.663 14.6695C101.664 14.6794 101.665 14.6892 101.666 14.6991C101.679 14.8173 101.692 14.936 101.704 15.055C101.705 15.0629 101.706 15.0708 101.707 15.0786C101.719 15.1997 101.731 15.3211 101.741 15.4428C101.742 15.4486 101.742 15.4544 101.743 15.4602C101.754 15.5842 101.764 15.7086 101.773 15.8334C101.773 15.8363 101.774 15.8393 101.774 15.8423C101.861 17.0099 101.878 18.2083 101.804 19.4234C100.597 17.3034 98.3174 14.9393 95.7461 12.8293C97.0636 10.8752 98.2493 8.15036 98.7528 4.26562Z" fill="url(#paint7_linear_80_784)"/>
<path id="Vector_9" d="M73.4206 16.5221C70.4019 21.3343 72.2864 27.9527 77.6298 31.3046C82.9732 34.6565 89.7521 33.4728 92.7708 28.6605C95.7895 23.8483 93.905 17.23 88.5616 13.878C83.2181 10.5261 76.4393 11.7099 73.4206 16.5221Z" fill="url(#paint8_linear_80_784)"/>
<path id="Vector_10" d="M79.3053 24.3101C83.3307 19.2809 87.7006 19.4901 91.7926 16.7881C94.527 20.3048 95.0648 25.0037 92.7711 28.6602C89.7524 33.4724 82.9735 34.6562 77.6301 31.3042C77.1931 31.03 76.7796 30.7337 76.3896 30.4186C76.8342 28.4831 77.5435 26.5111 79.3053 24.3101Z" fill="url(#paint9_linear_80_784)"/>
<path id="Vector_11" d="M74.2274 17.0284C71.4603 21.4394 73.1878 27.5059 78.0856 30.5783C82.9835 33.6508 89.1971 32.5657 91.9641 28.1547C94.7311 23.7438 93.0037 17.6773 88.1058 14.6048C83.208 11.5324 76.9943 12.6174 74.2274 17.0284Z" fill="url(#paint10_linear_80_784)"/>
<path id="Vector_12" d="M75.3708 17.7447C72.9604 21.5871 74.4652 26.8716 78.7318 29.5481C82.9983 32.2245 88.411 31.2793 90.8214 27.4369C93.2317 23.5945 91.727 18.3099 87.4604 15.6335C83.1939 12.9571 77.7812 13.9023 75.3708 17.7447Z" fill="url(#paint11_linear_80_784)"/>
<path id="Vector_13" d="M60.366 40.8789C59.5424 42.1919 62.4772 45.5162 66.9213 48.3039C71.3653 51.0917 75.6356 52.2872 76.4592 50.9742C77.2829 49.6612 74.348 46.3369 69.904 43.5492C65.46 40.7614 61.1897 39.5659 60.366 40.8789Z" fill="url(#paint12_linear_80_784)"/>
<path id="Vector_14" d="M67.4485 43.6992L70.902 45.8656C72.7394 47.0183 73.6947 49.1698 73.3173 51.3058L72.9592 53.3326C72.8274 54.0786 71.9822 54.4538 71.3405 54.0513L59.888 46.8671C59.2463 46.4645 59.2163 45.5403 59.8305 45.0969L61.4995 43.8924C63.2583 42.623 65.6111 42.5466 67.4485 43.6992Z" fill="url(#paint13_linear_80_784)"/>
<path id="Vector_15" d="M59.2592 45.8332C58.482 47.0723 60.825 49.9417 64.4926 52.2424C68.1601 54.5431 71.7633 55.4037 72.5406 54.1647C73.3178 52.9256 70.9748 50.0561 67.3073 47.7555C63.6397 45.4548 60.0365 44.5942 59.2592 45.8332Z" fill="url(#paint14_linear_80_784)"/>
<path id="Vector_16" d="M60.8534 46.833C60.2627 47.7746 62.0434 49.9555 64.8307 51.7039C67.618 53.4525 70.3565 54.1065 70.9472 53.1649C71.5379 52.2232 69.7572 50.0424 66.9699 48.2939C64.1825 46.5454 61.4441 45.8913 60.8534 46.833Z" fill="url(#paint15_linear_80_784)"/>
<g id="Group_7" opacity="0.3">
<path id="Vector_17" d="M79.3053 24.3091C82.729 20.0318 86.4017 19.5436 89.9408 17.8311C92.21 20.652 92.6802 24.4728 90.8213 27.436C88.411 31.2784 82.9982 32.2237 78.7317 29.5472C78.1081 29.156 77.544 28.7088 77.042 28.2188C77.5132 26.9738 78.203 25.6863 79.3053 24.3091Z" fill="url(#paint16_linear_80_784)"/>
</g>
</g>
</g>
<path id="Vector_18" opacity="0.32" d="M5.15827 119.209L82.5099 110.879C82.5203 88.464 77.4225 77.967 72.3945 72.5626C70.7955 70.8438 65.8123 65.995 66.5462 60.3722C66.9677 57.1422 69.1364 54.7245 70.9465 53.1644C72.3945 50.561 62.4826 44.8267 60.8527 46.8325C56.7085 47.3065 50.6605 48.6847 46.2287 53.3145C40.5791 59.2166 42.951 64.7664 38.3157 71.1725C31.7471 80.2503 21.5188 76.6589 13.2932 83.3629C7.90434 87.7549 2.73183 97.0901 5.15827 119.209Z" fill="url(#paint17_linear_80_784)"/>
<g id="Group_8">
<g id="Group_9">
<path id="Vector_19" d="M17.3224 119.678L5.75192 121.907C3.41071 122.138 0.310547 119.62 0.310547 117.483V113.394C0.310547 111.257 2.21477 109.354 4.55598 109.145L17.3224 108.005C19.609 107.801 21.4566 109.341 21.4566 111.443V115.465C21.4566 117.567 19.609 119.453 17.3224 119.678Z" fill="url(#paint18_linear_80_784)"/>
<path id="Vector_20" d="M42.2959 117.221L31.1672 119.375C28.9181 119.597 25.9502 117.132 25.9502 115.037V104.786C25.9502 102.691 27.7794 100.838 30.0286 100.649L42.2959 99.6144C44.4936 99.4292 48.3249 101.128 48.3249 103.189L46.2694 113.098C46.2695 115.159 44.4936 117.004 42.2959 117.221Z" fill="url(#paint19_linear_80_784)"/>
<path id="Vector_21" d="M66.3076 114.856L56.0193 117.029C53.8568 117.242 50.5898 114.738 50.5898 112.684V88.7042C50.5898 86.6503 52.3484 84.8568 54.5108 84.6988L66.3076 83.8369C68.4215 83.6825 72.5692 85.3781 72.5692 87.3996L70.1298 110.819C70.1298 112.841 68.4215 114.648 66.3076 114.856Z" fill="url(#paint20_linear_80_784)"/>
<path id="Vector_22" d="M89.4106 112.581L79.949 114.748C77.8684 114.953 74.2852 112.437 74.2852 110.422V73.2389C74.2852 71.2242 75.9771 69.4865 78.0577 69.3579L89.4107 68.6563C91.4455 68.5305 95.1971 70.1507 95.1971 72.1341L93.0899 108.627C93.0899 110.611 91.4454 112.381 89.4106 112.581Z" fill="url(#paint21_linear_80_784)"/>
<path id="Vector_23" d="M117.987 55.4474L109.568 34.0181C109.389 33.6512 106.585 32.5916 106.228 32.5987C105.861 32.6059 105.493 32.8066 105.309 33.1949L94.2037 56.6848C94.0022 57.1109 94.12 57.56 94.4198 57.8272C94.5996 57.9876 97.0903 58.9592 97.0903 58.9592V110.204C97.0903 111.1 99.8473 112.76 100.757 112.67L113.598 110.201C114.483 110.114 115.201 109.328 115.201 108.446V56.9989L117.099 56.8978C117.821 56.8594 118.296 56.0827 117.987 55.4474Z" fill="url(#paint22_linear_80_784)"/>
</g>
<g id="Group_10">
<path id="Vector_24" d="M19.8703 120.721L7.10383 121.977C4.76262 122.208 2.8584 120.663 2.8584 118.525V114.436C2.8584 112.299 4.76262 110.396 7.10383 110.187L19.8703 109.048C22.1569 108.844 24.0045 110.383 24.0045 112.485V116.507C24.0045 118.609 22.1569 120.495 19.8703 120.721Z" fill="url(#paint23_linear_80_784)"/>
<path id="Vector_25" d="M44.8447 118.262L32.5774 119.47C30.3283 119.691 28.499 118.173 28.499 116.078V105.827C28.499 103.732 30.3283 101.88 32.5774 101.69L44.8447 100.656C47.0424 100.471 48.8183 101.992 48.8183 104.053V114.139C48.8183 116.2 47.0424 118.046 44.8447 118.262Z" fill="url(#paint24_linear_80_784)"/>
<path id="Vector_26" d="M68.8555 115.899L57.0587 117.06C54.8962 117.273 53.1377 115.781 53.1377 113.727V89.7473C53.1377 87.6933 54.8962 85.8998 57.0587 85.7418L68.8555 84.88C70.9694 84.7256 72.6777 86.2395 72.6777 88.261V111.863C72.6777 113.884 70.9694 115.691 68.8555 115.899Z" fill="url(#paint25_linear_80_784)"/>
<path id="Vector_27" d="M91.9585 113.624L80.6055 114.742C78.5249 114.947 76.833 113.48 76.833 111.466V74.2824C76.833 72.2678 78.5249 70.53 80.6055 70.4014L91.9585 69.6997C93.9933 69.574 95.6378 71.0802 95.6378 73.0636V109.671C95.6378 111.654 93.9933 113.424 91.9585 113.624Z" fill="url(#paint26_linear_80_784)"/>
<path id="Vector_28" d="M120.535 56.4895L109.668 34.1779C109.306 33.435 108.221 33.4698 107.858 34.237L96.7525 57.7269C96.4302 58.4086 96.925 59.1495 97.6753 59.1095L99.6392 59.005V111.247C99.6392 112.142 100.378 112.795 101.287 112.706L116.146 111.243C117.032 111.156 117.749 110.37 117.749 109.488V58.0411L119.648 57.94C120.37 57.9016 120.845 57.1248 120.535 56.4895Z" fill="url(#paint27_linear_80_784)"/>
</g>
</g>
</g>
</g>
<defs>
<linearGradient id="paint0_linear_80_784" x1="89.5901" y1="57.2317" x2="75.9837" y2="48.6962" gradientUnits="userSpaceOnUse">
<stop stop-color="#444B8C"/>
<stop offset="0.9964" stop-color="#26264F"/>
</linearGradient>
<linearGradient id="paint1_linear_80_784" x1="62.6871" y1="40.3551" x2="49.081" y2="31.8197" gradientUnits="userSpaceOnUse">
<stop stop-color="#444B8C"/>
<stop offset="0.9964" stop-color="#26264F"/>
</linearGradient>
<linearGradient id="paint2_linear_80_784" x1="90.1897" y1="56.2736" x2="76.5834" y2="47.7381" gradientUnits="userSpaceOnUse">
<stop stop-color="#AA80F9"/>
<stop offset="0.9964" stop-color="#6165D7"/>
</linearGradient>
<linearGradient id="paint3_linear_80_784" x1="51.6121" y1="38.5644" x2="79.7701" y2="24.1981" gradientUnits="userSpaceOnUse">
<stop stop-color="#AA80F9"/>
<stop offset="0.9964" stop-color="#6165D7"/>
</linearGradient>
<linearGradient id="paint4_linear_80_784" x1="83.5192" y1="39.5447" x2="73.6409" y2="-9.293" gradientUnits="userSpaceOnUse">
<stop stop-color="#FFC444"/>
<stop offset="0.9964" stop-color="#F36F56"/>
</linearGradient>
<linearGradient id="paint5_linear_80_784" x1="87.2836" y1="38.7836" x2="77.4052" y2="-10.0546" gradientUnits="userSpaceOnUse">
<stop stop-color="#FFC444"/>
<stop offset="0.9964" stop-color="#F36F56"/>
</linearGradient>
<linearGradient id="paint6_linear_80_784" x1="105.311" y1="13.8325" x2="81.312" y2="-1.22261" gradientUnits="userSpaceOnUse">
<stop stop-color="#AA80F9"/>
<stop offset="0.9964" stop-color="#6165D7"/>
</linearGradient>
<linearGradient id="paint7_linear_80_784" x1="99.2626" y1="16.2256" x2="95.5616" y2="-2.07176" gradientUnits="userSpaceOnUse">
<stop stop-color="#AA80F9"/>
<stop offset="0.9964" stop-color="#6165D7"/>
</linearGradient>
<linearGradient id="paint8_linear_80_784" x1="92.7708" y1="28.6606" x2="73.4206" y2="16.522" gradientUnits="userSpaceOnUse">
<stop offset="0.0036" stop-color="#EBEFF2"/>
<stop offset="1" stop-color="white"/>
</linearGradient>
<linearGradient id="paint9_linear_80_784" x1="92.5721" y1="28.9774" x2="73.222" y2="16.8387" gradientUnits="userSpaceOnUse">
<stop offset="0.0036" stop-color="#EBEFF2"/>
<stop offset="1" stop-color="white"/>
</linearGradient>
<linearGradient id="paint10_linear_80_784" x1="83.9682" y1="14.5208" x2="82.5883" y2="27.2852" gradientUnits="userSpaceOnUse">
<stop offset="0.0036" stop-color="#EBEFF2"/>
<stop offset="1" stop-color="white"/>
</linearGradient>
<linearGradient id="paint11_linear_80_784" x1="83.8087" y1="40.1765" x2="82.5905" y2="10.114" gradientUnits="userSpaceOnUse">
<stop stop-color="#444B8C"/>
<stop offset="0.9964" stop-color="#26264F"/>
</linearGradient>
<linearGradient id="paint12_linear_80_784" x1="64.428" y1="53.51" x2="68.7273" y2="45.3276" gradientUnits="userSpaceOnUse">
<stop stop-color="#FFC444"/>
<stop offset="0.9964" stop-color="#F36F56"/>
</linearGradient>
<linearGradient id="paint13_linear_80_784" x1="74.0263" y1="51.7809" x2="60.7632" y2="43.4608" gradientUnits="userSpaceOnUse">
<stop stop-color="#AA80F9"/>
<stop offset="0.9964" stop-color="#6165D7"/>
</linearGradient>
<linearGradient id="paint14_linear_80_784" x1="66.6807" y1="46.8005" x2="63.7863" y2="58.6571" gradientUnits="userSpaceOnUse">
<stop stop-color="#AA80F9"/>
<stop offset="0.9964" stop-color="#6165D7"/>
</linearGradient>
<linearGradient id="paint15_linear_80_784" x1="66.4937" y1="47.5681" x2="64.294" y2="56.5791" gradientUnits="userSpaceOnUse">
<stop stop-color="#444B8C"/>
<stop offset="0.9964" stop-color="#26264F"/>
</linearGradient>
<linearGradient id="paint16_linear_80_784" x1="85.0895" y1="40.1239" x2="83.8713" y2="10.0612" gradientUnits="userSpaceOnUse">
<stop stop-color="#444B8C"/>
<stop offset="0.9964" stop-color="#26264F"/>
</linearGradient>
<linearGradient id="paint17_linear_80_784" x1="4.54297" y1="82.8122" x2="82.5099" y2="82.8122" gradientUnits="userSpaceOnUse">
<stop stop-color="#FF9085"/>
<stop offset="1" stop-color="#FB6FBB"/>
</linearGradient>
<linearGradient id="paint18_linear_80_784" x1="8.22003" y1="122.968" x2="13.3792" y2="106.428" gradientUnits="userSpaceOnUse">
<stop offset="0.0036" stop-color="#26264F"/>
<stop offset="1" stop-color="#444B8C"/>
</linearGradient>
<linearGradient id="paint19_linear_80_784" x1="32.6278" y1="120.104" x2="39.4258" y2="98.311" gradientUnits="userSpaceOnUse">
<stop offset="0.0036" stop-color="#26264F"/>
<stop offset="1" stop-color="#444B8C"/>
</linearGradient>
<linearGradient id="paint20_linear_80_784" x1="54.9923" y1="116.971" x2="65.5266" y2="83.1987" gradientUnits="userSpaceOnUse">
<stop offset="0.0036" stop-color="#26264F"/>
<stop offset="1" stop-color="#444B8C"/>
</linearGradient>
<linearGradient id="paint21_linear_80_784" x1="76.5141" y1="113.932" x2="90.6273" y2="68.6869" gradientUnits="userSpaceOnUse">
<stop offset="0.0036" stop-color="#26264F"/>
<stop offset="1" stop-color="#444B8C"/>
</linearGradient>
<linearGradient id="paint22_linear_80_784" x1="95.7985" y1="111.217" x2="119.082" y2="36.5722" gradientUnits="userSpaceOnUse">
<stop offset="0.0036" stop-color="#26264F"/>
<stop offset="1" stop-color="#444B8C"/>
</linearGradient>
<linearGradient id="paint23_linear_80_784" x1="58.2207" y1="22.1383" x2="-19.153" y2="183.372" gradientUnits="userSpaceOnUse">
<stop stop-color="#FFC444"/>
<stop offset="0.9964" stop-color="#F36F56"/>
</linearGradient>
<linearGradient id="paint24_linear_80_784" x1="76.5854" y1="30.951" x2="-0.788437" y2="192.185" gradientUnits="userSpaceOnUse">
<stop stop-color="#FFC444"/>
<stop offset="0.9964" stop-color="#F36F56"/>
</linearGradient>
<linearGradient id="paint25_linear_80_784" x1="92.716" y1="38.6923" x2="15.3423" y2="199.926" gradientUnits="userSpaceOnUse">
<stop stop-color="#FFC444"/>
<stop offset="0.9964" stop-color="#F36F56"/>
</linearGradient>
<linearGradient id="paint26_linear_80_784" x1="108.234" y1="46.1394" x2="30.8608" y2="207.373" gradientUnits="userSpaceOnUse">
<stop stop-color="#FFC444"/>
<stop offset="0.9964" stop-color="#F36F56"/>
</linearGradient>
<linearGradient id="paint27_linear_80_784" x1="122.056" y1="52.7717" x2="44.6826" y2="214.005" gradientUnits="userSpaceOnUse">
<stop stop-color="#FFC444"/>
<stop offset="0.9964" stop-color="#F36F56"/>
</linearGradient>
</defs>
</svg>
