<svg width="32" height="33" viewBox="0 0 32 33" fill="none" xmlns="http://www.w3.org/2000/svg">
<g id="mdi:close-circle-outline">
<path id="Vector" d="M15.9998 27.1665C10.1198 27.1665 5.33317 22.3798 5.33317 16.4998C5.33317 10.6198 10.1198 5.83317 15.9998 5.83317C21.8798 5.83317 26.6665 10.6198 26.6665 16.4998C26.6665 22.3798 21.8798 27.1665 15.9998 27.1665ZM15.9998 3.1665C8.6265 3.1665 2.6665 9.1265 2.6665 16.4998C2.6665 23.8732 8.6265 29.8332 15.9998 29.8332C23.3732 29.8332 29.3332 23.8732 29.3332 16.4998C29.3332 9.1265 23.3732 3.1665 15.9998 3.1665ZM19.4532 11.1665L15.9998 14.6198L12.5465 11.1665L10.6665 13.0465L14.1198 16.4998L10.6665 19.9532L12.5465 21.8332L15.9998 18.3798L19.4532 21.8332L21.3332 19.9532L17.8798 16.4998L21.3332 13.0465L19.4532 11.1665Z" fill="#666666"/>
</g>
</svg>
