<svg width="21" height="20" viewBox="0 0 21 20" fill="none" xmlns="http://www.w3.org/2000/svg">
<g id="fi-rr-clock" clip-path="url(#clip0_1000_17565)">
<path id="Vector" d="M10.5859 0C8.60813 0 6.67473 0.58649 5.03024 1.6853C3.38575 2.78412 2.10402 4.3459 1.34715 6.17317C0.59027 8.00043 0.392237 10.0111 0.778089 11.9509C1.16394 13.8907 2.11635 15.6725 3.51487 17.0711C4.9134 18.4696 6.69523 19.422 8.63504 19.8079C10.5748 20.1937 12.5855 19.9957 14.4128 19.2388C16.24 18.4819 17.8018 17.2002 18.9006 15.5557C19.9995 13.9112 20.5859 11.9778 20.5859 10C20.5831 7.34872 19.5286 4.80684 17.6538 2.9321C15.7791 1.05736 13.2372 0.00286757 10.5859 0V0ZM10.5859 18.3333C8.93776 18.3333 7.3266 17.8446 5.95619 16.9289C4.58578 16.0132 3.51768 14.7117 2.88695 13.189C2.25622 11.6663 2.09119 9.99076 2.41273 8.37425C2.73427 6.75774 3.52795 5.27288 4.69339 4.10744C5.85882 2.94201 7.34368 2.14833 8.96019 1.82679C10.5767 1.50525 12.2523 1.67027 13.775 2.301C15.2977 2.93173 16.5992 3.99984 17.5149 5.37025C18.4305 6.74066 18.9193 8.35182 18.9193 10C18.9168 12.2094 18.0381 14.3276 16.4758 15.8899C14.9135 17.4522 12.7953 18.3309 10.5859 18.3333Z" fill="#579540"/>
<path id="Vector_2" d="M10.586 5C10.365 5 10.153 5.0878 9.99672 5.24408C9.84044 5.40036 9.75264 5.61232 9.75264 5.83333V9.43749L6.94347 11.1975C6.75561 11.3148 6.62207 11.502 6.57221 11.7179C6.52236 11.9337 6.56028 12.1605 6.67764 12.3483C6.795 12.5362 6.98218 12.6697 7.198 12.7196C7.41382 12.7694 7.64061 12.7315 7.82847 12.6142L11.0285 10.6142C11.1494 10.5384 11.2488 10.4329 11.3172 10.3077C11.3857 10.1825 11.4208 10.0418 11.4193 9.89916V5.83333C11.4193 5.61232 11.3315 5.40036 11.1752 5.24408C11.0189 5.0878 10.807 5 10.586 5Z" fill="#579540"/>
</g>
<defs>
<clipPath id="clip0_1000_17565">
<rect width="20" height="20" fill="white" transform="translate(0.585938)"/>
</clipPath>
</defs>
</svg>
