<svg width="18" height="18" viewBox="0 0 18 18" fill="none" xmlns="http://www.w3.org/2000/svg">
<g id="Icon / Line / Arrow - Up">
<g id="Iconly/Light outline/Arrow   Up">
<g id="Arrow   Up">
<path id="Vector" d="M8.50016 16C8.1919 16 7.93714 15.7606 7.89682 15.45L7.89126 15.3636L7.89158 4.177L4.04063 8.21853C3.80335 8.46758 3.41782 8.46845 3.17951 8.22047C2.96288 7.99504 2.9425 7.64155 3.11885 7.39203L3.17766 7.32052L8.06835 2.18719L8.08118 2.17461C8.09433 2.16157 8.10803 2.14914 8.12225 2.13736L8.06835 2.18719C8.09192 2.16245 8.11694 2.14017 8.14313 2.12034C8.15959 2.10835 8.17668 2.09671 8.19433 2.08597C8.2336 2.06172 8.2747 2.04293 8.31697 2.02907C8.33186 2.0244 8.34707 2.02006 8.36251 2.01633C8.3743 2.0133 8.38628 2.0108 8.3983 2.00869C8.41133 2.00657 8.42438 2.00473 8.43754 2.00332C8.45075 2.00173 8.46426 2.00075 8.47778 2.00024C8.48527 2.00014 8.4927 2 8.50016 2L8.52038 2.00019C8.53538 2.00072 8.55036 2.00182 8.56529 2.0035L8.50016 2C8.53493 2 8.56902 2.00305 8.6022 2.0089C8.61732 2.01151 8.6325 2.01482 8.64756 2.01874C8.65954 2.02189 8.67129 2.02534 8.6829 2.02915C8.69668 2.03365 8.71057 2.03879 8.72431 2.04447C8.73849 2.05037 8.75234 2.05676 8.76592 2.06365C8.77631 2.06887 8.78702 2.07472 8.7976 2.08092C8.81744 2.09262 8.83605 2.105 8.85394 2.11837C8.85674 2.12047 8.85983 2.12283 8.86291 2.12522C8.89009 2.14645 8.91406 2.16844 8.93626 2.19226L13.8228 7.32048C14.0601 7.56951 14.0593 7.97243 13.821 8.22043C13.6044 8.44589 13.2661 8.4657 13.0281 8.28033L12.9599 8.21857L9.10964 4.17778L9.10906 15.3636C9.10906 15.7151 8.83645 16 8.50016 16Z" fill="#579540"/>
</g>
</g>
</g>
</svg>
