<svg width="21" height="20" viewBox="0 0 21 20" fill="none" xmlns="http://www.w3.org/2000/svg">
<g id="Icon / Line / Arrow - Up">
<g id="Iconly/Light outline/Arrow   Up">
<g id="Arrow   Up">
<path id="Vector" d="M10.5002 2.5C10.1499 2.5 9.86035 2.7565 9.81454 3.0893L9.80822 3.18182L9.80858 15.1675L5.4325 10.8373C5.16287 10.5704 4.72476 10.5695 4.45396 10.8352C4.20778 11.0767 4.18462 11.4555 4.38503 11.7228L4.45185 11.7994L10.0095 17.2994L10.024 17.3129C10.039 17.3269 10.0545 17.3402 10.0707 17.3528L10.0095 17.2994C10.0362 17.3259 10.0647 17.3498 10.0944 17.3711C10.1131 17.3839 10.1326 17.3964 10.1526 17.4079C10.1972 17.4339 10.2439 17.454 10.292 17.4689C10.3089 17.4739 10.3262 17.4785 10.3437 17.4825C10.3571 17.4858 10.3707 17.4884 10.3844 17.4907C10.3992 17.493 10.414 17.4949 10.429 17.4964C10.444 17.4981 10.4594 17.4992 10.4747 17.4997C10.4832 17.4999 10.4917 17.5 10.5002 17.5L10.5231 17.4998C10.5402 17.4992 10.5572 17.4981 10.5742 17.4963L10.5002 17.5C10.5397 17.5 10.5784 17.4967 10.6161 17.4905C10.6333 17.4877 10.6505 17.4841 10.6677 17.4799C10.6813 17.4766 10.6946 17.4728 10.7078 17.4688C10.7235 17.4639 10.7393 17.4584 10.7549 17.4523C10.771 17.446 10.7867 17.4392 10.8021 17.4318C10.814 17.4262 10.8261 17.4199 10.8381 17.4133C10.8607 17.4008 10.8818 17.3875 10.9022 17.3732C10.9054 17.3709 10.9089 17.3684 10.9124 17.3658C10.9432 17.3431 10.9705 17.3195 10.9957 17.294L16.5486 11.7995C16.8183 11.5327 16.8173 11.101 16.5466 10.8352C16.3004 10.5937 15.916 10.5725 15.6455 10.7711L15.568 10.8372L11.1927 15.1667L11.1921 3.18182C11.1921 2.80526 10.8823 2.5 10.5002 2.5Z" fill="#C94141"/>
</g>
</g>
</g>
</svg>
