<svg width="20" height="20" viewBox="0 0 20 20" fill="none" xmlns="http://www.w3.org/2000/svg">
<g id="Icon / Line / Arrow - Up">
<g id="Iconly/Light outline/Arrow   Up">
<g id="Arrow   Up">
<path id="Vector" d="M10.0002 2.5C9.64985 2.5 9.36035 2.7565 9.31454 3.0893L9.30822 3.18182L9.30858 15.1675L4.9325 10.8373C4.66287 10.5704 4.22476 10.5695 3.95396 10.8352C3.70778 11.0767 3.68462 11.4555 3.88503 11.7228L3.95185 11.7994L9.50946 17.2994L9.52403 17.3129C9.53897 17.3269 9.55455 17.3402 9.57071 17.3528L9.50946 17.2994C9.53624 17.3259 9.56467 17.3498 9.59444 17.3711C9.61314 17.3839 9.63256 17.3964 9.65261 17.4079C9.69724 17.4339 9.74395 17.454 9.79197 17.4689C9.8089 17.4739 9.82619 17.4785 9.84373 17.4825C9.85712 17.4858 9.87074 17.4884 9.8844 17.4907C9.89921 17.493 9.91403 17.4949 9.92899 17.4964C9.944 17.4981 9.95935 17.4992 9.97471 17.4997C9.98323 17.4999 9.99167 17.5 10.0002 17.5L10.0231 17.4998C10.0402 17.4992 10.0572 17.4981 10.0742 17.4963L10.0002 17.5C10.0397 17.5 10.0784 17.4967 10.1161 17.4905C10.1333 17.4877 10.1505 17.4841 10.1677 17.4799C10.1813 17.4766 10.1946 17.4728 10.2078 17.4688C10.2235 17.4639 10.2393 17.4584 10.2549 17.4523C10.271 17.446 10.2867 17.4392 10.3021 17.4318C10.314 17.4262 10.3261 17.4199 10.3381 17.4133C10.3607 17.4008 10.3818 17.3875 10.4022 17.3732C10.4054 17.3709 10.4089 17.3684 10.4124 17.3658C10.4432 17.3431 10.4705 17.3195 10.4957 17.294L16.0486 11.7995C16.3183 11.5327 16.3173 11.101 16.0466 10.8352C15.8004 10.5937 15.416 10.5725 15.1455 10.7711L15.068 10.8372L10.6927 15.1667L10.6921 3.18182C10.6921 2.80526 10.3823 2.5 10.0002 2.5Z" fill="#0074C1"/>
</g>
</g>
</g>
</svg>
