<svg width="28" height="28" viewBox="0 0 28 28" fill="none" xmlns="http://www.w3.org/2000/svg">
<g id="call">
<path id="Vector" d="M21.3826 26.2495C20.3151 26.2495 18.8155 25.8634 16.5701 24.6089C13.8395 23.0776 11.7275 21.6639 9.01171 18.9553C6.39327 16.3385 5.11905 14.6443 3.33569 11.3991C1.32101 7.73504 1.66444 5.81441 2.04835 4.99356C2.50554 4.01246 3.18038 3.42566 4.05265 2.84324C4.54809 2.51864 5.07239 2.24038 5.6189 2.01199C5.67359 1.98848 5.72444 1.96606 5.76984 1.94582C6.04054 1.82387 6.45069 1.63957 6.97023 1.83645C7.31694 1.9666 7.62648 2.23293 8.11101 2.71145C9.10468 3.69145 10.4626 5.87402 10.9635 6.9459C11.2998 7.66832 11.5224 8.1452 11.523 8.68004C11.523 9.30621 11.208 9.7891 10.8257 10.3103C10.7541 10.4082 10.683 10.5017 10.6141 10.5925C10.1979 11.1393 10.1066 11.2974 10.1667 11.5796C10.2887 12.1467 11.1981 13.8349 12.6927 15.3262C14.1873 16.8175 15.8269 17.6696 16.3962 17.791C16.6904 17.8539 16.8517 17.7587 17.4161 17.3278C17.497 17.266 17.5801 17.202 17.6671 17.138C18.2501 16.7043 18.7105 16.3975 19.3219 16.3975H19.3252C19.8573 16.3975 20.3129 16.6283 21.0676 17.0089C22.0519 17.5055 24.3001 18.8459 25.2862 19.8407C25.7658 20.3241 26.0332 20.6325 26.1639 20.9787C26.3608 21.4999 26.1754 21.9084 26.0545 22.1818C26.0343 22.2272 26.0119 22.277 25.9884 22.3322C25.7582 22.8778 25.4783 23.401 25.1522 23.8952C24.5709 24.7647 23.9819 25.4379 22.9986 25.8957C22.4937 26.1345 21.9411 26.2555 21.3826 26.2495Z" fill="#222B45"/>
<rect x="0.0231934" y="0.0234375" width="27.9531" height="27.9531" stroke="#E4E9F2" stroke-width="0.046875"/>
</g>
</svg>
