<svg width="16" height="15" viewBox="0 0 16 15" fill="none" xmlns="http://www.w3.org/2000/svg">
<g id="call">
<path id="Vector" d="M12.306 13.8343C11.7166 13.8343 10.8887 13.6308 9.64892 12.9696C8.14132 12.1626 6.97522 11.4176 5.47577 9.99001C4.03007 8.61089 3.32654 7.71799 2.34191 6.0077C1.22955 4.07664 1.41917 3.06442 1.63113 2.6318C1.88356 2.11474 2.25615 1.80548 2.73775 1.49853C3.0113 1.32746 3.30078 1.18081 3.60252 1.06044C3.63271 1.04805 3.66079 1.03623 3.68585 1.02557C3.83531 0.961294 4.06177 0.864164 4.34862 0.967923C4.54005 1.03652 4.71095 1.17688 4.97847 1.42907C5.5271 1.94556 6.27682 3.09584 6.5534 3.66074C6.7391 4.04148 6.86199 4.2928 6.86229 4.57468C6.86229 4.90469 6.68837 5.15919 6.47731 5.43386C6.43776 5.48545 6.39851 5.53474 6.36046 5.58258C6.13068 5.8708 6.08026 5.95409 6.11347 6.10281C6.1808 6.4017 6.68294 7.29142 7.50814 8.07739C8.33335 8.86336 9.23858 9.31241 9.5529 9.37639C9.71534 9.40954 9.80442 9.35939 10.116 9.13227C10.1607 9.0997 10.2066 9.06598 10.2546 9.03226C10.5765 8.8037 10.8307 8.64201 11.1683 8.64201H11.1701C11.4639 8.64201 11.7154 8.76364 12.1321 8.96424C12.6756 9.22594 13.9169 9.93236 14.4613 10.4566C14.7261 10.7114 14.8737 10.874 14.9459 11.0564C15.0546 11.3311 14.9522 11.5464 14.8855 11.6905C14.8743 11.7144 14.862 11.7406 14.849 11.7698C14.7219 12.0573 14.5673 12.333 14.3873 12.5935C14.0663 13.0517 13.7411 13.4065 13.1983 13.6478C12.9195 13.7736 12.6144 13.8374 12.306 13.8343Z" fill="#5688FF"/>
</g>
</svg>
