<svg width="26" height="26" viewBox="0 0 26 26" fill="none" xmlns="http://www.w3.org/2000/svg">
<g id="vuesax/bold/location">
<path id="Vector" d="M22.3384 9.15408C21.2009 4.14909 16.8351 1.89575 13.0001 1.89575C13.0001 1.89575 13.0001 1.89575 12.9893 1.89575C9.1651 1.89575 4.78844 4.13825 3.65094 9.14325C2.38344 14.7333 5.80677 19.4674 8.9051 22.4466C10.0534 23.5516 11.5268 24.1041 13.0001 24.1041C14.4734 24.1041 15.9468 23.5516 17.0843 22.4466C20.1826 19.4674 23.6059 14.7441 22.3384 9.15408ZM13.0001 14.5816C11.1151 14.5816 9.5876 13.0541 9.5876 11.1691C9.5876 9.28409 11.1151 7.75658 13.0001 7.75658C14.8851 7.75658 16.4126 9.28409 16.4126 11.1691C16.4126 13.0541 14.8851 14.5816 13.0001 14.5816Z" fill="#737373"/>
</g>
</svg>
