<svg width="28" height="28" viewBox="0 0 28 28" fill="none" xmlns="http://www.w3.org/2000/svg">
<g id="vuesax/outline/wallet-add">
<g id="wallet-add">
<path id="Vector" d="M7.2218 9.11161C6.9418 9.11161 6.68514 8.98328 6.51014 8.74994C6.3118 8.48161 6.28847 8.13158 6.44014 7.83991C6.63847 7.44324 6.91847 7.05828 7.28014 6.70828L11.0718 2.90493C13.0085 0.979932 16.1585 0.979932 18.0951 2.90493L20.1368 4.98163C21.0001 5.8333 21.5251 6.97663 21.5835 8.18997C21.5951 8.4583 21.4901 8.71494 21.2918 8.88994C21.0935 9.06494 20.8251 9.1466 20.5685 9.09993C20.3351 9.06493 20.0901 9.05329 19.8335 9.05329H8.1668C7.8868 9.05329 7.61847 9.07661 7.35014 9.11161C7.31514 9.11161 7.26847 9.11161 7.2218 9.11161ZM9.17014 7.29161H19.6235C19.4718 6.89494 19.2268 6.53329 18.9001 6.20662L16.8468 4.12992C15.5985 2.89325 13.5568 2.89325 12.2968 4.12992L9.17014 7.29161Z" fill="#5688FF"/>
<path id="Vector_2" d="M5.83341 27.7083C3.89675 27.7083 2.07675 26.6817 1.09675 25.0133C0.571748 24.1733 0.291748 23.1817 0.291748 22.1667C0.291748 19.11 2.77675 16.625 5.83341 16.625C8.89008 16.625 11.3751 19.11 11.3751 22.1667C11.3751 23.1817 11.0951 24.1733 10.5701 25.025C9.59008 26.6817 7.77008 27.7083 5.83341 27.7083ZM5.83341 18.375C3.74508 18.375 2.04175 20.0783 2.04175 22.1667C2.04175 22.855 2.22841 23.5316 2.59008 24.115C3.27841 25.2816 4.49175 25.9583 5.83341 25.9583C7.17508 25.9583 8.38841 25.27 9.07675 24.1267C9.43841 23.5317 9.62508 22.8667 9.62508 22.1667C9.62508 20.0783 7.92175 18.375 5.83341 18.375Z" fill="#5688FF"/>
<path id="Vector_3" d="M7.57139 23.0183H4.09473C3.61639 23.0183 3.21973 22.6216 3.21973 22.1433C3.21973 21.665 3.61639 21.2683 4.09473 21.2683H7.58306C8.06139 21.2683 8.45806 21.665 8.45806 22.1433C8.45806 22.6216 8.06139 23.0183 7.57139 23.0183Z" fill="#5688FF"/>
<path id="Vector_4" d="M5.83325 24.8033C5.35492 24.8033 4.95825 24.4066 4.95825 23.9283V20.4399C4.95825 19.9616 5.35492 19.5649 5.83325 19.5649C6.31159 19.5649 6.70825 19.9616 6.70825 20.4399V23.9283C6.70825 24.4183 6.31159 24.8033 5.83325 24.8033Z" fill="#5688FF"/>
<path id="Vector_5" d="M19.8334 26.5417H8.90173C8.52839 26.5417 8.20173 26.3084 8.07339 25.9701C7.94506 25.6201 8.05006 25.2351 8.33006 25.0017C8.61006 24.7684 8.86673 24.4651 9.05339 24.1384C9.42673 23.5434 9.61339 22.8668 9.61339 22.1784C9.61339 20.0901 7.91006 18.3868 5.82172 18.3868C4.73672 18.3868 3.69839 18.8534 2.97506 19.6817C2.73006 19.9501 2.34506 20.0551 2.00673 19.9268C1.66839 19.7984 1.43506 19.4718 1.43506 19.1101V14.0001C1.43506 10.4067 3.65173 7.80509 7.09339 7.37342C7.40839 7.32676 7.77006 7.29175 8.14339 7.29175H19.8101C20.0901 7.29175 20.4517 7.30341 20.8251 7.36175C24.2667 7.75841 26.5184 10.3717 26.5184 14.0001V19.8334C26.5417 23.8467 23.8467 26.5417 19.8334 26.5417ZM10.7101 24.7917H19.8334C22.8434 24.7917 24.7917 22.8434 24.7917 19.8334V14.0001C24.7917 11.2701 23.1934 9.39172 20.6034 9.08839C20.3234 9.04172 20.0784 9.04175 19.8334 9.04175H8.16673C7.88672 9.04175 7.61839 9.06507 7.35006 9.10007C4.78339 9.42673 3.20839 11.2934 3.20839 14.0001V17.2901C4.00173 16.8584 4.91173 16.6251 5.83339 16.6251C8.89006 16.6251 11.3751 19.1101 11.3751 22.1667C11.3751 23.0884 11.1417 23.9984 10.7101 24.7917Z" fill="#5688FF"/>
<path id="Vector_6" d="M25.6666 20.1249H22.1666C20.3933 20.1249 18.9583 18.6899 18.9583 16.9166C18.9583 15.1433 20.3933 13.7083 22.1666 13.7083H25.6666C26.1449 13.7083 26.5416 14.1049 26.5416 14.5833C26.5416 15.0616 26.1449 15.4583 25.6666 15.4583H22.1666C21.3616 15.4583 20.7083 16.1116 20.7083 16.9166C20.7083 17.7216 21.3616 18.3749 22.1666 18.3749H25.6666C26.1449 18.3749 26.5416 18.7716 26.5416 19.2499C26.5416 19.7283 26.1449 20.1249 25.6666 20.1249Z" fill="#5688FF"/>
</g>
</g>
</svg>
