<svg width="322" height="248" viewBox="0 0 322 248" fill="none" xmlns="http://www.w3.org/2000/svg">
<g clip-path="url(#clip0_1041_24418)">
<path d="M24.7115 92.8633L119.607 92.8633L119.607 10.6187L24.7115 10.6187L24.7115 92.8633Z" fill="#E6E6E6"/>
<path d="M22.5988 92.8633L117.494 92.8633L117.494 10.6187L22.5988 10.6187L22.5988 92.8633Z" fill="#F5F5F5"/>
<path d="M113.711 89.9261L113.711 13.5576L26.3894 13.5576L26.3894 89.9261L113.711 89.9261Z" fill="#FAFAFA"/>
<path d="M78.6899 89.9251L94.5081 13.5566H61.4102L45.592 89.9251H78.6899Z" fill="white"/>
<path d="M27.9791 89.9232L27.9791 13.5547H26.3847L26.3847 89.9232H27.9791Z" fill="#E6E6E6"/>
<path d="M24.1722 76.2334L115.934 76.2334V72.288L24.1722 72.288V76.2334Z" fill="#F5F5F5"/>
<path d="M115.211 221.034H130.365V155.299H115.211L115.211 221.034Z" fill="#F0F0F0"/>
<path d="M16.2435 225.201H127.453V221.039H16.2435V225.201Z" fill="#F0F0F0"/>
<path d="M115.207 155.297H13.3333V221.032H115.207V155.297Z" fill="#F5F5F5"/>
<path d="M109.256 163.391H19.2914V184.95H109.256V163.391Z" fill="#F0F0F0"/>
<path d="M109.256 191.386H19.2914V212.945H109.256V191.386Z" fill="#F0F0F0"/>
<path d="M40.0256 175.646H88.5151C89.3263 175.646 89.9907 174.982 89.9907 174.17C89.9907 173.359 89.3263 172.694 88.5151 172.694H40.0256C39.2144 172.694 38.5501 173.359 38.5501 174.17C38.5501 174.982 39.2144 175.646 40.0256 175.646Z" fill="#F5F5F5"/>
<path d="M40.0256 203.641H88.5151C89.3263 203.641 89.9907 202.977 89.9907 202.165C89.9907 201.354 89.3263 200.689 88.5151 200.689H40.0256C39.2144 200.689 38.5501 201.354 38.5501 202.165C38.5501 202.977 39.2144 203.641 40.0256 203.641Z" fill="#F5F5F5"/>
<path d="M273.515 53.6057C282.145 51.2273 285.096 35.5647 263.291 29.1709C268.103 44.9245 258.473 57.754 273.515 53.6057Z" fill="#EBEBEB"/>
<path d="M275.424 60.4056C282.221 53.0534 275.795 36.4184 251.291 43.2179C265.152 55.3479 263.571 73.2281 275.424 60.4056Z" fill="#E0E0E0"/>
<path d="M268.711 62.2944C263.019 56.6561 271.172 37.0341 289.97 46.1281C279.312 56.3133 278.634 72.1229 268.711 62.2944Z" fill="#FAFAFA"/>
<path d="M263.033 73.2771H279.599L280.851 62.0635H261.781L263.033 73.2771Z" fill="#E6E6E6"/>
<path d="M261.599 64.0711H281.04C281.725 64.0711 282.277 63.5185 282.277 62.8329C282.277 62.1474 281.725 61.5947 281.04 61.5947H261.599C260.914 61.5947 260.361 62.1474 260.361 62.8329C260.361 63.5185 260.914 64.0711 261.599 64.0711Z" fill="#E6E6E6"/>
<path d="M123.648 206.209V187.217H139.459V168.232H155.277V149.239H171.089V130.247H186.907V111.254H202.718V92.2688H218.536V73.2764H234.347H321.333V225.202H123.648H107.83V206.209H123.648Z" fill="#FAFAFA"/>
<path d="M210.627 206.209V187.217H226.445V168.232H242.256V149.239H258.075V130.247H273.886V111.254H289.704V92.2688H305.515V73.2764H321.333V92.2688V225.202H210.627H194.816V206.209H210.627Z" fill="#E0E0E0"/>
<path d="M194.816 206.209H106.9V211.903H194.816V206.209Z" fill="#EBEBEB"/>
<path d="M210.627 187.217H122.711V192.911H210.627V187.217Z" fill="#EBEBEB"/>
<path d="M226.445 168.231H138.529V173.926H226.445V168.231Z" fill="#EBEBEB"/>
<path d="M242.256 149.239H154.34V154.933H242.256V149.239Z" fill="#EBEBEB"/>
<path d="M258.075 130.247H170.159V135.941H258.075V130.247Z" fill="#EBEBEB"/>
<path d="M273.886 111.254H185.97V116.948H273.886V111.254Z" fill="#EBEBEB"/>
<path d="M289.704 92.2686H201.788V97.9628H289.704V92.2686Z" fill="#EBEBEB"/>
<path d="M305.522 73.2764H217.606V78.9706H305.522V73.2764Z" fill="#EBEBEB"/>
<path d="M205.732 68.6593C205.613 70.7579 205.368 72.6817 205.096 74.6753C204.823 76.655 204.452 78.6207 204.033 80.5794C203.208 84.4968 202.068 88.3863 200.501 92.1708L199.872 93.5838L199.711 93.9336L199.634 94.1085C199.606 94.1645 199.585 94.2134 199.529 94.3323C199.333 94.7241 199.082 95.1438 198.725 95.5425C198.368 95.9413 197.914 96.333 197.389 96.5988C196.872 96.8717 196.298 97.0465 195.795 97.1025C194.753 97.2284 193.942 97.0395 193.256 96.8367C191.907 96.396 190.935 95.7874 190.012 95.1648C189.11 94.5282 188.298 93.8567 187.529 93.1711C184.494 90.373 181.963 87.3789 179.627 84.1191L181.949 82.1604C183.312 83.4545 184.732 84.7557 186.152 86.0009C187.564 87.253 189.033 88.4352 190.501 89.4985C191.235 90.0302 191.977 90.5199 192.711 90.9256C193.424 91.3313 194.173 91.6671 194.683 91.765C194.928 91.814 195.096 91.786 195.019 91.772C194.949 91.7441 194.641 91.884 194.571 91.9679C194.529 92.0029 194.529 92.0029 194.543 91.9609L194.767 91.3733L195.256 90.1001C196.466 86.6514 197.382 83.0348 198.089 79.3553C198.452 77.5225 198.718 75.6547 198.991 73.8009C199.256 71.9611 199.466 70.0374 199.627 68.2676L205.732 68.6593Z" fill="#FFC3BD"/>
<path d="M201.501 60.9649C198.893 61.6294 197.075 72.3603 197.075 72.3603L204.256 77.2431C204.256 77.2431 211.145 66.4213 209.138 63.5532C207.047 60.5661 205.298 59.9995 201.501 60.9649Z" fill="#407BFF"/>
<path d="M201.501 60.9649C198.893 61.6294 197.075 72.3603 197.075 72.3603L204.256 77.2431C204.256 77.2431 211.145 66.4213 209.138 63.5532C207.047 60.5661 205.298 59.9995 201.501 60.9649Z" fill="#407BFF"/>
<path opacity="0.4" d="M201.501 60.9649C198.893 61.6294 197.075 72.3603 197.075 72.3603L204.256 77.2431C204.256 77.2431 211.145 66.4213 209.138 63.5532C207.047 60.5661 205.298 59.9995 201.501 60.9649Z" fill="black"/>
<path opacity="0.3" d="M201.732 63.3643L199.732 74.1721L203.767 76.9143L201.732 63.3643Z" fill="black"/>
<path d="M182.061 81.7129L178.641 76.3125L176.704 82.4474C176.704 82.4474 179.508 85.3855 182.04 84.686L182.061 81.7129Z" fill="#FFC3BD"/>
<path d="M173.641 74.5352L172.291 79.7537L176.711 82.4539L178.648 76.319L173.641 74.5352Z" fill="#FFC3BD"/>
<path d="M215.599 241.536H209.277L208.851 226.888H215.18L215.599 241.536Z" fill="#FFC3BD"/>
<path d="M271.396 212.155L266.578 216.254L255.55 206.405L260.368 202.306L271.396 212.155Z" fill="#FFC3BD"/>
<path d="M265.256 215.758L269.928 210.407C270.096 210.211 270.368 210.169 270.585 210.309L275.347 213.401C275.844 213.723 275.928 214.464 275.529 214.905C273.865 216.745 272.97 217.549 270.914 219.9C269.648 221.348 267.949 223.593 266.207 225.594C264.501 227.553 262.389 225.972 262.942 224.985C265.396 220.55 264.809 218.99 264.851 216.815C264.865 216.423 265.005 216.045 265.256 215.758Z" fill="#263238"/>
<path d="M209.061 240.809H216.166C216.424 240.809 216.634 240.99 216.669 241.242L217.48 246.867C217.564 247.447 217.061 248 216.466 247.993C213.991 247.951 212.795 247.804 209.669 247.804C207.746 247.804 203.774 248.007 201.117 248.007C198.522 248.007 198.319 245.384 199.424 245.146C204.382 244.082 206.333 242.606 207.998 241.207C208.305 240.942 208.683 240.809 209.061 240.809Z" fill="#263238"/>
<path opacity="0.2" d="M208.851 226.896L209.068 234.444H215.396L215.18 226.896H208.851Z" fill="black"/>
<path opacity="0.2" d="M260.368 202.313L255.55 206.406L261.235 211.484L266.061 207.385L260.368 202.313Z" fill="black"/>
<path d="M201.501 60.9647C201.501 60.9647 198.487 62.028 204.522 99.1455C214.711 99.1455 225.242 99.1455 230.2 99.1455C229.767 88.6874 229.76 82.2446 234.753 60.7828C234.753 60.7828 229.375 59.6146 223.851 59.3488C219.529 59.1389 215.991 58.999 212.186 59.3488C207.179 59.8035 201.501 60.9647 201.501 60.9647Z" fill="#407BFF"/>
<path opacity="0.4" d="M201.501 60.9647C201.501 60.9647 198.487 62.028 204.522 99.1455C214.711 99.1455 225.242 99.1455 230.2 99.1455C229.767 88.6874 229.76 82.2446 234.753 60.7828C234.753 60.7828 229.375 59.6146 223.851 59.3488C219.529 59.1389 215.991 58.999 212.186 59.3488C207.179 59.8035 201.501 60.9647 201.501 60.9647Z" fill="black"/>
<path d="M223.851 59.3414C219.529 59.1386 215.991 58.9986 212.186 59.3484C211.557 59.4044 210.914 59.4743 210.277 59.5513C209.851 60.2858 209.529 61.2721 209.928 62.2795C210.746 64.3151 213.697 64.553 215.851 64.553C223.802 64.553 225.145 59.908 225.2 59.7122L225.277 59.4324C224.802 59.3974 224.326 59.3624 223.851 59.3414Z" fill="white"/>
<path d="M222.69 46.2109C221.956 49.9675 221.221 56.8439 223.844 59.3483C223.844 59.3483 222.816 63.1537 215.844 63.1537C208.179 63.1537 212.179 59.3483 212.179 59.3483C216.361 58.3479 216.256 55.242 215.529 52.3249L222.69 46.2109Z" fill="#FFC3BD"/>
<path opacity="0.2" d="M219.774 48.7021L215.536 52.3188C215.711 53.0113 215.844 53.7108 215.893 54.3894C217.494 54.1585 219.69 52.4027 219.858 50.7308C219.949 49.8984 219.914 49.0939 219.774 48.7021Z" fill="black"/>
<path d="M218.333 25.7989C217.683 23.6023 217.124 20.1256 221.047 18.5937C219.515 16.7189 219.145 13.1932 221.026 11.1016C222.907 9.01 225.781 9.77949 225.781 9.77949C225.781 9.77949 226.62 4.66587 232.837 5.56128C239.054 6.45669 236.284 10.57 236.284 10.57C236.284 10.57 244.767 8.89108 245.333 16.8868C245.9 24.8825 241.033 23.8962 241.033 23.8962C241.033 23.8962 244.816 27.0721 242.725 30.5627C240.627 34.0534 235.781 32.8502 235.781 32.8502C235.781 32.8502 233.501 39.0202 228.131 35.5085C222.753 31.9898 218.333 25.7989 218.333 25.7989Z" fill="#263238"/>
<path d="M205.732 30.4365C203.627 33.1437 204.557 36.2217 206.41 37.4039C210.921 40.286 217.445 28.205 215.746 26.757C214.061 25.3089 207.837 27.7293 205.732 30.4365Z" fill="#263238"/>
<path d="M224.683 23.9874C221.718 22.7912 218.711 24.0434 217.774 25.8482C215.487 30.2483 225.872 38.1741 228.879 32.6757C230.662 29.4089 227.739 25.2186 224.683 23.9874Z" fill="#407BFF"/>
<path d="M223.417 37.4256C223.634 43.7004 223.858 46.3516 221.012 49.8563C216.739 55.1238 208.984 54.0186 206.9 47.9326C205.026 42.4552 204.991 33.1164 210.851 30.0524C216.634 27.0304 223.201 31.1507 223.417 37.4256Z" fill="#FFC3BD"/>
<path d="M222.48 40.7343C219.704 39.692 218.977 36.4252 219.438 35.166C218.054 35.1101 214.977 34.6064 213.83 32.8715C211.648 34.2426 207.04 35.6627 206.536 33.3472C206.033 31.0248 212.998 25.0227 218.249 24.568C224.501 24.0224 230.669 30.1713 229.075 36.0474C227.487 41.9305 222.48 40.7343 222.48 40.7343Z" fill="#263238"/>
<path d="M204.522 99.1455C204.522 99.1455 199.536 147.875 199.949 167.162C200.382 187.224 207.732 232.988 207.732 232.988H216.284C216.284 232.988 214.928 188.399 215.69 168.694C216.515 147.211 223.333 99.1455 223.333 99.1455H204.522Z" fill="#263238"/>
<path d="M217.019 233.289H206.984L206.249 230.085L217.487 229.693L217.019 233.289Z" fill="#407BFF"/>
<path opacity="0.2" d="M215.599 111.268C209.291 123.965 214.333 147.12 216.564 155.731C217.711 142.789 219.634 126.98 221.138 115.361C220.179 108.792 218.508 105.413 215.599 111.268Z" fill="black"/>
<path d="M211.305 99.1455C211.305 99.1455 217.124 149.806 221.515 166.063C226.732 185.37 259.131 211.358 259.131 211.358L265.704 205.776C265.704 205.776 242.221 177.55 238.235 167.378C229.725 145.672 237.012 113.318 230.207 99.1455H211.305Z" fill="#263238"/>
<path d="M266.746 205.475L258.599 212.4L255.55 210.575L264.774 201.991L266.746 205.475Z" fill="#407BFF"/>
<path d="M214.124 40.0765C214.172 40.5872 213.942 41.0209 213.613 41.0559C213.284 41.0908 212.97 40.6991 212.921 40.1954C212.872 39.6848 213.103 39.2511 213.431 39.2161C213.767 39.1811 214.075 39.5658 214.124 40.0765Z" fill="#263238"/>
<path d="M208.382 40.6292C208.431 41.1399 208.2 41.5736 207.872 41.6086C207.543 41.6436 207.228 41.2518 207.18 40.7482C207.131 40.2375 207.361 39.8038 207.69 39.7688C208.026 39.7338 208.333 40.1186 208.382 40.6292Z" fill="#263238"/>
<path d="M207.844 39.7759L206.592 39.5381C206.592 39.5451 207.312 40.4405 207.844 39.7759Z" fill="#263238"/>
<path d="M209.984 41.3564C209.984 41.3564 209.333 43.6229 208.487 44.7702C209.214 45.3298 210.326 44.9381 210.326 44.9381L209.984 41.3564Z" fill="#ED847E"/>
<path d="M213.152 46.6101C212.893 46.6801 212.613 46.7361 212.305 46.764C212.221 46.771 212.152 46.7151 212.145 46.6311C212.138 46.5472 212.193 46.4772 212.277 46.4702C214.501 46.2604 215.396 44.6025 215.403 44.5815C215.438 44.5045 215.529 44.4765 215.606 44.5185C215.676 44.5535 215.711 44.6444 215.669 44.7214C215.641 44.7843 214.921 46.1205 213.152 46.6101Z" fill="#263238"/>
<path d="M224.893 41.7907C224.739 43.0848 224.012 44.1831 223.158 44.8337C221.879 45.813 220.648 44.8127 220.501 43.2947C220.368 41.9306 220.879 39.776 222.403 39.3913C223.907 39.0205 225.068 40.3147 224.893 41.7907Z" fill="#FFC3BD"/>
<path d="M214.739 36.4734C214.662 36.4944 214.578 36.4874 214.501 36.4384C213.354 35.7529 212.361 36.2216 212.347 36.2286C212.2 36.2985 212.019 36.2356 211.949 36.0887C211.879 35.9418 211.942 35.7599 212.089 35.6899C212.137 35.6619 213.389 35.0743 214.809 35.9278C214.949 36.0117 214.998 36.1936 214.914 36.3405C214.872 36.4105 214.809 36.4594 214.739 36.4734Z" fill="#263238"/>
<path d="M205.578 38.2222C205.508 38.2431 205.424 38.2361 205.354 38.2012C205.207 38.1242 205.152 37.9423 205.228 37.7954C206.012 36.3334 207.389 36.2005 207.445 36.1935C207.613 36.1795 207.753 36.2984 207.767 36.4663C207.781 36.6342 207.662 36.7741 207.494 36.7881C207.438 36.7951 206.375 36.914 205.753 38.0753C205.718 38.1522 205.655 38.2012 205.578 38.2222Z" fill="#263238"/>
<path d="M237.375 67.6035C238.83 71.1432 240.019 74.6409 241.061 78.2785C242.082 81.9091 242.97 85.5956 243.382 89.499C243.501 90.4644 243.536 91.4717 243.585 92.4721L243.592 92.563V92.7169L243.585 93.0387C243.571 93.2416 243.55 93.4444 243.522 93.6333C243.466 94.0111 243.382 94.3538 243.284 94.6686C243.096 95.3052 242.851 95.8438 242.599 96.3545C241.564 98.3412 240.333 99.8522 239.054 101.314C236.459 104.182 233.704 106.666 230.683 108.953L228.634 106.708C230.963 103.993 233.319 101.195 235.305 98.3412C236.284 96.9281 237.221 95.4451 237.753 94.116C237.879 93.7872 237.977 93.4794 238.026 93.2276C238.047 93.1017 238.068 92.9967 238.068 92.9198C238.075 92.8778 238.068 92.8568 238.068 92.8288C238.068 92.8148 238.061 92.8148 238.061 92.8078L238.054 92.7169C237.963 91.8845 237.9 91.066 237.739 90.2196C237.214 86.8478 236.256 83.4131 235.228 80.0133C234.159 76.6275 232.963 73.1928 231.704 69.919L237.375 67.6035Z" fill="#FFC3BD"/>
<path d="M234.753 60.7828C237.326 61.5663 240.417 70.4294 240.417 70.4294L230.438 77.5717C230.438 77.5717 226.795 70.1706 227.879 66.8478C229.005 63.3781 231.816 59.8874 234.753 60.7828Z" fill="#407BFF"/>
<path opacity="0.4" d="M234.753 60.7828C237.326 61.5663 240.417 70.4294 240.417 70.4294L230.438 77.5717C230.438 77.5717 226.795 70.1706 227.879 66.8478C229.005 63.3781 231.816 59.8874 234.753 60.7828Z" fill="black"/>
<path d="M263.529 218.815C263.284 218.815 263.061 218.703 262.858 218.472C262.69 218.276 262.697 218.095 262.739 217.969C262.97 217.199 265.173 216.563 265.417 216.493C265.473 216.479 265.536 216.5 265.571 216.542C265.606 216.591 265.613 216.653 265.585 216.702C265.194 217.444 264.417 218.71 263.613 218.801C263.592 218.815 263.564 218.815 263.529 218.815ZM265.152 216.891C264.277 217.171 263.152 217.654 263.026 218.06C263.012 218.109 263.005 218.178 263.089 218.276C263.242 218.458 263.41 218.528 263.592 218.514C264.019 218.465 264.592 217.864 265.152 216.891Z" fill="#407BFF"/>
<path d="M264.459 216.913C263.732 216.913 262.914 216.766 262.627 216.402C262.543 216.29 262.431 216.059 262.641 215.745C262.774 215.549 262.97 215.43 263.207 215.402C264.117 215.283 265.494 216.479 265.55 216.528C265.592 216.563 265.606 216.619 265.599 216.668C265.592 216.717 265.55 216.766 265.501 216.78C265.27 216.864 264.879 216.913 264.459 216.913ZM263.347 215.696C263.312 215.696 263.284 215.696 263.249 215.703C263.096 215.724 262.977 215.794 262.893 215.92C262.788 216.08 262.823 216.164 262.865 216.22C263.138 216.57 264.375 216.703 265.138 216.57C264.683 216.22 263.893 215.696 263.347 215.696Z" fill="#407BFF"/>
<path d="M206.683 241.914C206.054 241.914 205.473 241.816 205.151 241.522C204.949 241.333 204.851 241.088 204.879 240.795C204.893 240.613 204.984 240.48 205.131 240.396C205.907 239.969 208.424 241.256 208.711 241.41C208.767 241.438 208.802 241.501 208.788 241.564C208.781 241.627 208.732 241.676 208.669 241.69C208.138 241.795 207.382 241.914 206.683 241.914ZM205.557 240.606C205.438 240.606 205.347 240.62 205.277 240.662C205.214 240.697 205.186 240.746 205.179 240.823C205.158 241.025 205.221 241.179 205.354 241.305C205.739 241.648 206.781 241.711 208.179 241.48C207.305 241.053 206.158 240.606 205.557 240.606Z" fill="#407BFF"/>
<path d="M208.648 241.69C208.627 241.69 208.606 241.683 208.585 241.676C207.83 241.334 206.34 239.97 206.459 239.256C206.487 239.088 206.606 238.878 207.019 238.836C207.326 238.808 207.606 238.892 207.851 239.095C208.648 239.76 208.795 241.46 208.795 241.529C208.802 241.585 208.774 241.634 208.732 241.662C208.704 241.676 208.676 241.69 208.648 241.69ZM207.138 239.123C207.11 239.123 207.075 239.123 207.047 239.13C206.774 239.158 206.753 239.27 206.746 239.305C206.676 239.739 207.69 240.809 208.459 241.271C208.389 240.774 208.173 239.753 207.655 239.319C207.501 239.186 207.326 239.123 207.138 239.123Z" fill="#407BFF"/>
<path d="M230.585 97.6346L231.242 99.9361C231.333 100.118 231.124 100.3 230.823 100.3H204.389C204.158 100.3 203.963 100.188 203.949 100.041L203.718 97.7395C203.704 97.5786 203.9 97.4457 204.158 97.4457H230.165C230.361 97.4387 230.529 97.5227 230.585 97.6346Z" fill="#407BFF"/>
<path opacity="0.3" d="M230.585 97.6346L231.242 99.9361C231.333 100.118 231.124 100.3 230.823 100.3H204.389C204.158 100.3 203.963 100.188 203.949 100.041L203.718 97.7395C203.704 97.5786 203.9 97.4457 204.158 97.4457H230.165C230.361 97.4387 230.529 97.5227 230.585 97.6346Z" fill="white"/>
<path d="M227.096 100.544H227.795C227.935 100.544 228.04 100.474 228.033 100.383L227.704 97.3962C227.697 97.3053 227.571 97.2354 227.431 97.2354H226.732C226.592 97.2354 226.487 97.3053 226.494 97.3962L226.823 100.383C226.83 100.474 226.956 100.544 227.096 100.544Z" fill="#263238"/>
<path d="M206.347 100.544H207.047C207.187 100.544 207.291 100.474 207.284 100.383L206.956 97.3962C206.949 97.3053 206.823 97.2354 206.683 97.2354H205.984C205.844 97.2354 205.739 97.3053 205.746 97.3962L206.075 100.383C206.089 100.474 206.214 100.544 206.347 100.544Z" fill="#263238"/>
<path d="M216.725 100.544H217.424C217.564 100.544 217.669 100.474 217.662 100.383L217.333 97.3962C217.326 97.3053 217.2 97.2354 217.061 97.2354H216.361C216.221 97.2354 216.117 97.3053 216.124 97.3962L216.452 100.383C216.459 100.474 216.585 100.544 216.725 100.544Z" fill="#263238"/>
<path d="M213.585 39.23L212.333 38.9922C212.333 38.9922 213.047 39.8876 213.585 39.23Z" fill="#263238"/>
<path opacity="0.2" d="M190.438 128.309C157.361 141.167 120.117 124.77 107.256 91.6747C94.3963 58.5795 110.802 21.3222 143.879 8.46469C176.963 -4.3998 214.207 11.9974 227.068 45.0995C239.921 78.1946 223.522 115.452 190.438 128.309Z" fill="#407BFF"/>
<path opacity="0.1" d="M178.802 5.155L128.396 119.676C127.62 119.089 126.851 118.48 126.096 117.857C121.291 113.884 117.04 109.176 113.515 103.811V103.804L157.054 4.89617C164.375 3.71396 171.725 3.84687 178.802 5.155Z" fill="white"/>
<path opacity="0.1" d="M214.634 25.0294L167.242 132.688C157.312 132.702 147.599 130.401 138.851 126.099L190.599 8.52734C199.683 12.088 207.942 17.6983 214.634 25.0294Z" fill="white"/>
<path d="M114.256 25.0783C138.166 -4.14838 181.235 -8.45053 210.452 15.4667C239.669 39.3838 243.97 82.4683 220.061 111.695C196.145 140.929 153.075 145.231 123.858 121.314C94.648 97.3965 90.3403 54.305 114.256 25.0783ZM215.739 108.155C237.69 81.3211 233.746 41.7553 206.914 19.7898C180.082 -2.17568 140.536 1.7837 118.585 28.618C96.627 55.4592 100.571 95.025 127.403 116.991C154.235 138.956 193.781 134.997 215.739 108.155Z" fill="#407BFF"/>
<path d="M221.774 107.918C228.508 111.94 234.914 116.361 241.207 120.922C247.501 125.483 253.634 130.24 259.676 135.109C265.718 139.978 271.634 145 277.347 150.268C280.207 152.898 283.012 155.598 285.76 158.369C288.501 161.146 291.2 163.972 293.732 167.001C295.131 168.666 294.907 171.156 293.242 172.548C291.97 173.618 290.207 173.737 288.83 172.989C285.361 171.1 282.061 169.015 278.795 166.875C275.536 164.727 272.333 162.517 269.193 160.229C262.9 155.668 256.809 150.863 250.844 145.903C244.879 140.943 239.005 135.871 233.291 130.604C227.578 125.336 221.977 119.929 216.704 114.123C215.2 112.465 215.319 109.905 216.977 108.394C218.319 107.169 220.277 107.029 221.774 107.918Z" fill="#407BFF"/>
<path d="M229.291 106.015L222.536 107.043L227.375 111.282C227.375 111.282 231.193 109.897 231.571 107.295L229.291 106.015Z" fill="#FFC3BD"/>
<path d="M218.893 110.912L223.137 114.241L228.319 110.856L222.543 107.036L218.893 110.912Z" fill="#FFC3BD"/>
</g>
<g clip-path="url(#clip1_1041_24418)">
<path d="M144.563 92.7393C145.666 89.6283 148.766 87.418 152.032 87.418H203.089C206.961 87.418 209.735 90.4907 209.289 94.2725L196.105 205.139C195.652 208.927 192.151 211.993 188.273 211.993H26.2478C22.3763 211.993 19.6018 208.921 20.0482 205.139L31.1271 112.019C31.5736 108.231 35.0816 105.164 38.9532 105.164H127.119C134.747 105.164 141.986 100.009 144.563 92.7393Z" fill="#407BFF"/>
<path d="M22.9886 206.896H192.265L201.915 92.8164H32.6324L22.9886 206.896Z" fill="#F0F0F0"/>
<path d="M22.9886 206.896H192.265L199.249 92.8164H32.6324L22.9886 206.896Z" fill="#E0E0E0"/>
<path d="M22.9886 206.896H192.265L198.089 89.1943H28.8055L22.9886 206.896Z" fill="#F0F0F0"/>
<path d="M22.9886 206.896H192.265L194.568 89.1943H28.8055L22.9886 206.896Z" fill="#E0E0E0"/>
<path d="M22.9886 206.896H192.265L193.273 86H23.9963L22.9886 206.896Z" fill="#F0F0F0"/>
<path d="M22.9886 206.896H192.265L188.796 88.2871H20.6031L22.9886 206.896Z" fill="#E0E0E0"/>
<path d="M22.9886 206.896H192.265L187.246 89.1943H17.9626L22.9886 206.896Z" fill="#F0F0F0"/>
<path d="M22.9886 206.896H192.265L184.267 90.9697H14.9904L22.9886 206.896Z" fill="#E0E0E0"/>
<path d="M22.9886 206.896H192.265L182.991 91.96H13.7147L22.9886 206.896Z" fill="#F0F0F0"/>
<path d="M107.761 99.9393C107.869 96.7516 110.268 94.4902 113.533 94.4902H164.59C168.462 94.4902 172.219 97.6332 172.971 101.517L193.139 204.98C193.898 208.857 191.366 212.007 187.494 212.007H25.4761C21.6045 212.007 17.8478 208.864 17.0952 204.98L0.467263 119.692C-0.29174 115.814 2.2404 112.665 6.11195 112.665H94.2774C101.906 112.665 107.499 107.388 107.761 99.9393Z" fill="#407BFF"/>
<path opacity="0.2" d="M107.761 99.9393C107.869 96.7516 110.268 94.4902 113.533 94.4902H164.59C168.462 94.4902 172.219 97.6332 172.971 101.517L193.139 204.98C193.898 208.857 191.366 212.007 187.494 212.007H25.4761C21.6045 212.007 17.8478 208.864 17.0952 204.98L0.467263 119.692C-0.29174 115.814 2.2404 112.665 6.11195 112.665H94.2774C101.906 112.665 107.499 107.388 107.761 99.9393Z" fill="black"/>
</g>
<defs>
<clipPath id="clip0_1041_24418">
<rect width="308" height="248" fill="white" transform="translate(13.3333)"/>
</clipPath>
<clipPath id="clip1_1041_24418">
<rect width="209" height="126" fill="white" transform="translate(0.333313 86)"/>
</clipPath>
</defs>
</svg>
