<svg width="20" height="20" viewBox="0 0 20 20" fill="none" xmlns="http://www.w3.org/2000/svg">
<path d="M14.6827 17.9111C13.9573 17.9111 12.9383 17.6607 11.4124 16.8469C9.55691 15.8537 8.12171 14.9367 6.27624 13.1797C4.49691 11.4823 3.63104 10.3834 2.41918 8.27841C1.05012 5.90172 1.2835 4.65591 1.54438 4.12346C1.85506 3.48707 2.31364 3.10645 2.90637 2.72866C3.24304 2.51811 3.59932 2.33761 3.9707 2.18947C4.00786 2.17422 4.04242 2.15968 4.07326 2.14655C4.25722 2.06745 4.53593 1.9479 4.88897 2.0756C5.12458 2.16003 5.33492 2.33278 5.66418 2.64317C6.33941 3.27885 7.26215 4.69457 7.60256 5.38984C7.8311 5.85844 7.98235 6.16777 7.98272 6.51469C7.98272 6.92086 7.76867 7.23408 7.50891 7.57214C7.46022 7.63564 7.41191 7.6963 7.36509 7.75518C7.08228 8.10991 7.02022 8.21243 7.0611 8.39547C7.14397 8.76332 7.76198 9.85838 8.77762 10.8257C9.79327 11.7931 10.9074 12.3457 11.2942 12.4245C11.4942 12.4653 11.6038 12.4036 11.9873 12.124C12.0423 12.0839 12.0988 12.0424 12.1579 12.0009C12.554 11.7196 12.8669 11.5206 13.2824 11.5206H13.2847C13.6462 11.5206 13.9558 11.6703 14.4686 11.9172C15.1376 12.2393 16.6653 13.1088 17.3353 13.754C17.6612 14.0676 17.843 14.2677 17.9318 14.4922C18.0656 14.8303 17.9396 15.0953 17.8575 15.2726C17.8437 15.3021 17.8285 15.3343 17.8125 15.3702C17.6561 15.724 17.4659 16.0634 17.2443 16.384C16.8492 16.948 16.449 17.3847 15.7808 17.6816C15.4377 17.8365 15.0622 17.915 14.6827 17.9111Z" fill="#5688FF"/>
</svg>
