<svg width="17" height="15" viewBox="0 0 17 15" fill="none" xmlns="http://www.w3.org/2000/svg">
<g id="call">
<path id="Vector" d="M12.5568 13.8343C11.9761 13.8343 11.1605 13.6308 9.93913 12.9696C8.45391 12.1626 7.30511 11.4176 5.82792 9.99001C4.40368 8.61089 3.7106 7.71799 2.74058 6.0077C1.64473 4.07664 1.83153 3.06442 2.04035 2.6318C2.28903 2.11474 2.6561 1.80548 3.13055 1.49853C3.40003 1.32746 3.68521 1.18081 3.98248 1.06044C4.01222 1.04805 4.03989 1.03623 4.06457 1.02557C4.21182 0.961294 4.43491 0.864164 4.7175 0.967923C4.90609 1.03652 5.07446 1.17688 5.33801 1.42907C5.87849 1.94556 6.61709 3.09584 6.88956 3.66074C7.0725 4.04148 7.19357 4.2928 7.19386 4.57468C7.19386 4.90469 7.02253 5.15919 6.8146 5.43386C6.77563 5.48545 6.73696 5.53474 6.69948 5.58258C6.47312 5.8708 6.42344 5.95409 6.45616 6.10281C6.5225 6.4017 7.01717 7.29142 7.83013 8.07739C8.6431 8.86336 9.53488 9.31241 9.84454 9.37639C10.0046 9.40954 10.0923 9.35939 10.3993 9.13227C10.4433 9.0997 10.4885 9.06598 10.5358 9.03226C10.8529 8.8037 11.1034 8.64201 11.436 8.64201H11.4377C11.7272 8.64201 11.975 8.76364 12.3855 8.96424C12.9209 9.22594 14.1437 9.93236 14.6801 10.4566C14.9409 10.7114 15.0864 10.874 15.1575 11.0564C15.2646 11.3311 15.1637 11.5464 15.098 11.6905C15.087 11.7144 15.0748 11.7406 15.062 11.7698C14.9368 12.0573 14.7846 12.333 14.6072 12.5935C14.291 13.0517 13.9706 13.4065 13.4358 13.6478C13.1611 13.7736 12.8606 13.8374 12.5568 13.8343Z" fill="#5688FF"/>
</g>
</svg>
