<svg width="29" height="28" viewBox="0 0 29 28" fill="none" xmlns="http://www.w3.org/2000/svg">
<g id="Frame" clip-path="url(#clip0_1_22898)">
<path id="Vector" d="M6.52331 11.666C5.25902 11.666 4.22461 12.716 4.22461 13.9993C4.22461 15.2827 5.25902 16.3327 6.52331 16.3327C7.7876 16.3327 8.82201 15.2827 8.82201 13.9993C8.82201 12.716 7.7876 11.666 6.52331 11.666ZM22.6142 11.666C21.3499 11.666 20.3155 12.716 20.3155 13.9993C20.3155 15.2827 21.3499 16.3327 22.6142 16.3327C23.8785 16.3327 24.9129 15.2827 24.9129 13.9993C24.9129 12.716 23.8785 11.666 22.6142 11.666ZM14.5688 11.666C13.3045 11.666 12.2701 12.716 12.2701 13.9993C12.2701 15.2827 13.3045 16.3327 14.5688 16.3327C15.8331 16.3327 16.8675 15.2827 16.8675 13.9993C16.8675 12.716 15.8331 11.666 14.5688 11.666Z" fill="#0074C1"/>
</g>
<defs>
<clipPath id="clip0_1_22898">
<rect width="27.5844" height="28" fill="white" transform="translate(0.776367)"/>
</clipPath>
</defs>
</svg>
