<svg width="24" height="24" viewBox="0 0 24 24" fill="none" xmlns="http://www.w3.org/2000/svg">
<g id="Frame" clip-path="url(#clip0_1_22732)">
<path id="Vector" d="M18.0558 16.617L22.2752 20.899L20.8812 22.314L16.6627 18.031C15.0931 19.3082 13.1408 20.0029 11.1291 20C6.23485 20 2.2627 15.968 2.2627 11C2.2627 6.032 6.23485 2 11.1291 2C16.0234 2 19.9955 6.032 19.9955 11C19.9984 13.042 19.314 15.0237 18.0558 16.617ZM16.0795 15.875C17.3298 14.5699 18.028 12.8204 18.0252 11C18.0252 7.132 14.9387 4 11.1291 4C7.31852 4 4.23301 7.132 4.23301 11C4.23301 14.867 7.31852 18 11.1291 18C12.9225 18.0029 14.646 17.2941 15.9318 16.025L16.0795 15.875Z" fill="#444444"/>
</g>
<defs>
<clipPath id="clip0_1_22732">
<rect width="23.6438" height="24" fill="white" transform="translate(0.291992)"/>
</clipPath>
</defs>
</svg>
