<svg width="15" height="15" viewBox="0 0 15 15" fill="none" xmlns="http://www.w3.org/2000/svg">
<g id="call">
<path id="Vector" d="M11.511 13.3092C10.9669 13.3092 10.2027 13.1213 9.05829 12.511C7.66666 11.7661 6.59025 11.0784 5.20615 9.76064C3.87165 8.4876 3.22225 7.66339 2.31335 6.08466C1.28656 4.30214 1.4616 3.36779 1.65725 2.96845C1.89026 2.49116 2.2342 2.20569 2.67875 1.92235C2.93125 1.76443 3.19846 1.62906 3.47699 1.51796C3.50486 1.50652 3.53079 1.49561 3.55392 1.48577C3.69188 1.42644 3.90092 1.33678 4.1657 1.43256C4.34241 1.49588 4.50016 1.62544 4.7471 1.85823C5.25353 2.33499 5.94558 3.39679 6.20089 3.91824C6.3723 4.26969 6.48573 4.50168 6.48601 4.76187C6.48601 5.0665 6.32547 5.30142 6.13065 5.55496C6.09414 5.60258 6.05791 5.64808 6.02279 5.69224C5.81068 5.95829 5.76414 6.03518 5.7948 6.17246C5.85695 6.44835 6.32046 7.26964 7.08219 7.99515C7.84392 8.72066 8.67951 9.13516 8.96965 9.19422C9.1196 9.22482 9.20182 9.17852 9.48946 8.96888C9.53071 8.93882 9.57307 8.90769 9.61739 8.87656C9.9145 8.66559 10.1492 8.51633 10.4608 8.51633H10.4625C10.7336 8.51633 10.9658 8.62861 11.3504 8.81377C11.8521 9.05535 12.9979 9.70743 13.5005 10.1914C13.7449 10.4266 13.8812 10.5766 13.9478 10.745C14.0481 10.9986 13.9537 11.1973 13.8921 11.3303C13.8817 11.3524 13.8703 11.3766 13.8583 11.4035C13.741 11.6689 13.5984 11.9234 13.4322 12.1638C13.1359 12.5869 12.8357 12.9144 12.3346 13.137C12.0773 13.2532 11.7956 13.3121 11.511 13.3092Z" fill="#404B69"/>
</g>
</svg>
