<svg width="24" height="24" viewBox="0 0 24 24" fill="none" xmlns="http://www.w3.org/2000/svg">
<g id="old / ionicons / search">
<path id="Vector" d="M21.4073 19.7536L16.9969 15.3431C18.0587 13.9295 18.6319 12.2089 18.63 10.4409C18.63 5.92498 14.9559 2.25092 10.44 2.25092C5.92406 2.25092 2.25 5.92498 2.25 10.4409C2.25 14.9569 5.92406 18.6309 10.44 18.6309C12.208 18.6328 13.9286 18.0596 15.3422 16.9978L19.7527 21.4083C19.9759 21.6078 20.2671 21.7144 20.5664 21.706C20.8658 21.6976 21.1506 21.575 21.3623 21.3632C21.574 21.1515 21.6967 20.8667 21.7051 20.5674C21.7135 20.268 21.6069 19.9768 21.4073 19.7536ZM4.59 10.4409C4.59 9.28389 4.9331 8.15286 5.5759 7.19083C6.21871 6.2288 7.13235 5.47899 8.2013 5.03622C9.27025 4.59345 10.4465 4.4776 11.5813 4.70332C12.7161 4.92905 13.7584 5.4862 14.5766 6.30434C15.3947 7.12248 15.9519 8.16485 16.1776 9.29964C16.4033 10.4344 16.2875 11.6107 15.8447 12.6796C15.4019 13.7486 14.6521 14.6622 13.6901 15.305C12.7281 15.9478 11.597 16.2909 10.44 16.2909C8.88906 16.2891 7.40217 15.6721 6.30548 14.5754C5.2088 13.4788 4.59186 11.9919 4.59 10.4409Z" fill="#757575"/>
</g>
</svg>
