<svg width="21" height="21" viewBox="0 0 21 21" fill="none" xmlns="http://www.w3.org/2000/svg">
<rect y="0.113281" width="20.7059" height="20.7059" rx="5" fill="#0074C1"/>
<path d="M16.8238 3.3479H3.88258C2.8105 3.3479 1.94141 4.21699 1.94141 5.28908V16.9361C1.94141 18.0082 2.8105 18.8773 3.88258 18.8773H16.8238C17.8958 18.8773 18.7649 18.0082 18.7649 16.9361V5.28908C18.7649 4.21699 17.8958 3.3479 16.8238 3.3479Z" stroke="white" stroke-width="1.5" stroke-linejoin="round"/>
<path d="M11.9706 10.4649C12.5066 10.4649 12.9412 10.0303 12.9412 9.49427C12.9412 8.95823 12.5066 8.52368 11.9706 8.52368C11.4345 8.52368 11 8.95823 11 9.49427C11 10.0303 11.4345 10.4649 11.9706 10.4649Z" fill="white"/>
<path d="M15.2059 10.4649C15.742 10.4649 16.1765 10.0303 16.1765 9.49427C16.1765 8.95823 15.742 8.52368 15.2059 8.52368C14.6699 8.52368 14.2354 8.95823 14.2354 9.49427C14.2354 10.0303 14.6699 10.4649 15.2059 10.4649Z" fill="white"/>
<path d="M11.9706 13.7C12.5066 13.7 12.9412 13.2654 12.9412 12.7294C12.9412 12.1933 12.5066 11.7588 11.9706 11.7588C11.4345 11.7588 11 12.1933 11 12.7294C11 13.2654 11.4345 13.7 11.9706 13.7Z" fill="white"/>
<path d="M15.2059 13.7C15.742 13.7 16.1765 13.2654 16.1765 12.7294C16.1765 12.1933 15.742 11.7588 15.2059 11.7588C14.6699 11.7588 14.2354 12.1933 14.2354 12.7294C14.2354 13.2654 14.6699 13.7 15.2059 13.7Z" fill="white"/>
<path d="M5.49989 13.7C6.03593 13.7 6.47047 13.2654 6.47047 12.7294C6.47047 12.1933 6.03593 11.7588 5.49989 11.7588C4.96384 11.7588 4.5293 12.1933 4.5293 12.7294C4.5293 13.2654 4.96384 13.7 5.49989 13.7Z" fill="white"/>
<path d="M8.73524 13.7C9.27128 13.7 9.70582 13.2654 9.70582 12.7294C9.70582 12.1933 9.27128 11.7588 8.73524 11.7588C8.1992 11.7588 7.76465 12.1933 7.76465 12.7294C7.76465 13.2654 8.1992 13.7 8.73524 13.7Z" fill="white"/>
<path d="M5.49989 16.9353C6.03593 16.9353 6.47047 16.5008 6.47047 15.9647C6.47047 15.4287 6.03593 14.9941 5.49989 14.9941C4.96384 14.9941 4.5293 15.4287 4.5293 15.9647C4.5293 16.5008 4.96384 16.9353 5.49989 16.9353Z" fill="white"/>
<path d="M8.73524 16.9353C9.27128 16.9353 9.70582 16.5008 9.70582 15.9647C9.70582 15.4287 9.27128 14.9941 8.73524 14.9941C8.1992 14.9941 7.76465 15.4287 7.76465 15.9647C7.76465 16.5008 8.1992 16.9353 8.73524 16.9353Z" fill="white"/>
<path d="M11.9706 16.9353C12.5066 16.9353 12.9412 16.5008 12.9412 15.9647C12.9412 15.4287 12.5066 14.9941 11.9706 14.9941C11.4345 14.9941 11 15.4287 11 15.9647C11 16.5008 11.4345 16.9353 11.9706 16.9353Z" fill="white"/>
<path d="M15.5297 2.05298V3.3471M5.17676 2.05298V3.3471V2.05298Z" stroke="white" stroke-width="1.5" stroke-linecap="round" stroke-linejoin="round"/>
<path d="M18.7649 6.58325H1.94141" stroke="white" stroke-width="1.5" stroke-linejoin="round"/>
</svg>
