<svg xmlns="http://www.w3.org/2000/svg" width="20" height="19" viewBox="0 0 20 19" fill="none">
  <path d="M1.67507 2.02357L8.07537 10.7203C8.17107 10.8486 8.22425 11.0125 8.22527 11.1825V16.4651C8.22465 16.5391 8.24409 16.6114 8.28083 16.6718C8.31757 16.7321 8.36971 16.7774 8.42982 16.8011L11.4715 17.9818C11.517 17.9996 11.5654 18.0044 11.6128 17.9959C11.6602 17.9875 11.7052 17.9659 11.744 17.9331C11.7828 17.9003 11.8143 17.8572 11.836 17.8073C11.8576 17.7574 11.8688 17.7022 11.8685 17.6462V11.1825C11.87 11.0122 11.9239 10.8482 12.0203 10.7203L18.4187 2.02357C18.4848 1.93366 18.5275 1.82351 18.5417 1.70617C18.5558 1.58883 18.5409 1.46921 18.4985 1.36149C18.4562 1.25378 18.3883 1.16248 18.3028 1.09841C18.2174 1.03434 18.118 1.00019 18.0164 1H2.07924C1.9775 0.999763 1.87785 1.03361 1.79211 1.09751C1.70638 1.16141 1.63818 1.25269 1.59561 1.36049C1.55305 1.46829 1.53791 1.58808 1.55199 1.70562C1.56608 1.82317 1.6088 1.93352 1.67507 2.02357Z" stroke="#0074C1" stroke-width="1.3" stroke-linecap="round" stroke-linejoin="round"/>
</svg>