<svg xmlns="http://www.w3.org/2000/svg" width="25" height="24" viewBox="0 0 25 24" fill="none">
  <path d="M22.2179 19.7536L17.8074 15.3432C18.8693 13.9296 19.4425 12.209 19.4405 10.441C19.4405 5.92504 15.7665 2.25098 11.2505 2.25098C6.73461 2.25098 3.06055 5.92504 3.06055 10.441C3.06055 14.9569 6.73461 18.631 11.2505 18.631C13.0185 18.6329 14.7391 18.0597 16.1527 16.9979L20.5632 21.4083C20.7865 21.6079 21.0777 21.7144 21.377 21.706C21.6763 21.6977 21.9611 21.575 22.1728 21.3633C22.3846 21.1515 22.5072 20.8668 22.5156 20.5674C22.524 20.2681 22.4175 19.9769 22.2179 19.7536ZM5.40055 10.441C5.40055 9.28396 5.74364 8.15292 6.38645 7.19089C7.02926 6.22886 7.9429 5.47905 9.01185 5.03628C10.0808 4.59351 11.257 4.47766 12.3918 4.70338C13.5266 4.92911 14.569 5.48626 15.3871 6.3044C16.2053 7.12254 16.7624 8.16491 16.9881 9.2997C17.2139 10.4345 17.098 11.6107 16.6552 12.6797C16.2125 13.7486 15.4627 14.6623 14.5006 15.3051C13.5386 15.9479 12.4076 16.291 11.2505 16.291C9.6996 16.2891 8.21271 15.6722 7.11603 14.5755C6.01934 13.4788 5.40241 11.9919 5.40055 10.441Z" fill="#757575"/>
</svg>