<svg width="151" height="169" viewBox="0 0 151 169" fill="none" xmlns="http://www.w3.org/2000/svg">
<path d="M42 17.5C42 26.7508 34.5008 34.25 25.25 34.25C15.9992 34.25 8.5 26.7508 8.5 17.5C8.5 8.24923 15.9992 0.75 25.25 0.75C34.5008 0.75 42 8.24923 42 17.5ZM16.875 118V168.25H0.125V67.75C0.125 53.8739 11.3739 42.625 25.25 42.625C32.1224 42.625 38.3504 45.3842 42.8865 49.8554L62.7725 68.6352L82.1422 49.2655L93.9861 61.1096L63.1058 91.9898L50.375 79.9666V168.25H33.625V118H16.875ZM25.25 59.375C20.6247 59.375 16.875 63.1247 16.875 67.75V101.25H33.625V67.75C33.625 63.1247 29.8753 59.375 25.25 59.375ZM134.125 25.875H58.75V9.125H142.5C147.126 9.125 150.875 12.8747 150.875 17.5V109.625C150.875 114.251 147.126 118 142.5 118H113.822L137.469 168.25H118.957L95.3102 118H58.75V101.25H134.125V25.875Z" fill="#808080"/>
</svg>
