<svg width="45" height="44" viewBox="0 0 45 44" fill="none" xmlns="http://www.w3.org/2000/svg">
<g id="Frame" clip-path="url(#clip0_1_33750)">
<path id="Vector" d="M3.81836 36.6667H40.485V40.3334H3.81836V36.6667ZM7.48503 22.0001H11.1517V34.8334H7.48503V22.0001ZM16.6517 22.0001H20.3184V34.8334H16.6517V22.0001ZM23.985 22.0001H27.6517V34.8334H23.985V22.0001ZM33.1517 22.0001H36.8184V34.8334H33.1517V22.0001ZM3.81836 12.8334L22.1517 3.66675L40.485 12.8334V20.1667H3.81836V12.8334ZM7.48503 15.0994V16.5001H36.8184V15.0994L22.1517 7.76608L7.48503 15.0994ZM22.1517 14.6667C21.6655 14.6667 21.1991 14.4736 20.8553 14.1298C20.5115 13.786 20.3184 13.3196 20.3184 12.8334C20.3184 12.3472 20.5115 11.8809 20.8553 11.5371C21.1991 11.1932 21.6655 11.0001 22.1517 11.0001C22.6379 11.0001 23.1042 11.1932 23.4481 11.5371C23.7919 11.8809 23.985 12.3472 23.985 12.8334C23.985 13.3196 23.7919 13.786 23.4481 14.1298C23.1042 14.4736 22.6379 14.6667 22.1517 14.6667Z" fill="#579540"/>
</g>
<defs>
<clipPath id="clip0_1_33750">
<rect width="44" height="44" fill="white" transform="translate(0.152344)"/>
</clipPath>
</defs>
</svg>
