<svg width="34" height="34" viewBox="0 0 34 34" fill="none" xmlns="http://www.w3.org/2000/svg">
<g id="Frame" clip-path="url(#clip0_1_33731)">
<path id="Vector" d="M24.084 4.25008H29.7507C30.1264 4.25008 30.4867 4.39934 30.7524 4.66501C31.0181 4.93069 31.1673 5.29102 31.1673 5.66675V28.3334C31.1673 28.7091 31.0181 29.0695 30.7524 29.3351C30.4867 29.6008 30.1264 29.7501 29.7507 29.7501H4.25065C3.87493 29.7501 3.51459 29.6008 3.24892 29.3351C2.98324 29.0695 2.83398 28.7091 2.83398 28.3334V5.66675C2.83398 5.29102 2.98324 4.93069 3.24892 4.66501C3.51459 4.39934 3.87493 4.25008 4.25065 4.25008H9.91732V1.41675H12.7507V4.25008H21.2507V1.41675H24.084V4.25008ZM5.66732 12.7501V26.9167H28.334V12.7501H5.66732ZM8.50065 15.5834H11.334V18.4167H8.50065V15.5834ZM15.584 15.5834H18.4173V18.4167H15.584V15.5834ZM22.6673 15.5834H25.5007V18.4167H22.6673V15.5834Z" fill="#444444"/>
</g>
<defs>
<clipPath id="clip0_1_33731">
<rect width="34" height="34" fill="white"/>
</clipPath>
</defs>
</svg>
