<svg width="81" height="81" viewBox="0 0 81 81" fill="none" xmlns="http://www.w3.org/2000/svg">
<rect x="1.75996" y="1.3" width="78.4" height="78.4" rx="39.2" fill="#F5F5F5"/>
<path opacity="0.3" fill-rule="evenodd" clip-rule="evenodd" d="M37.1274 50.2551C36.5319 50.5462 36.4993 50.654 36.4463 52.5125C36.3941 54.346 36.3383 54.5761 35.8258 55.0757C35.479 55.4138 34.7919 55.7175 34.3717 55.7184C33.698 55.7201 33.0898 56.1543 32.9761 56.7148C32.8929 57.1247 33.1395 57.6568 33.5246 57.8988C34.0919 58.2554 35.4072 58.1208 36.4938 57.5952C37.1264 57.2891 38.0387 56.4639 38.4055 55.866C38.8918 55.0731 39.0198 54.4017 39.0198 52.6436C39.0198 51.2444 39.003 51.0656 38.8434 50.7607C38.7153 50.516 38.5672 50.379 38.3026 50.2606C37.8547 50.0601 37.5296 50.0586 37.1274 50.2551ZM41.1266 50.2769C40.4732 50.6233 40.4755 50.61 40.4757 54.0948C40.4758 57.5398 40.4776 57.5513 41.0662 57.9149C41.676 58.2915 42.5623 58.0709 42.8944 57.4596C43.0293 57.2114 43.0441 56.8779 43.0442 54.0948C43.0444 51.2385 43.0324 50.9848 42.8856 50.7297C42.6927 50.3944 42.1664 50.1001 41.76 50.1001C41.5951 50.1001 41.3102 50.1797 41.1266 50.2769ZM45.2109 50.2622C44.9541 50.3797 44.8011 50.5227 44.6757 50.7622C44.5171 51.0653 44.5001 51.2467 44.5001 52.6436C44.5001 54.4017 44.6281 55.0731 45.1144 55.866C45.4812 56.4639 46.3935 57.2891 47.0262 57.5952C48.1127 58.1208 49.428 58.2554 49.9954 57.8988C50.3804 57.6568 50.627 57.1247 50.5438 56.7148C50.4301 56.1543 49.822 55.7201 49.1482 55.7184C48.7281 55.7175 48.041 55.4138 47.6942 55.0757C47.1816 54.5761 47.1258 54.346 47.0736 52.5125C47.0203 50.6443 46.9883 50.541 46.3743 50.2513C45.9567 50.0543 45.659 50.0571 45.2109 50.2622Z" fill="#2C2B46"/>
<path fill-rule="evenodd" clip-rule="evenodd" d="M24.3021 24.6299C24.0549 24.6919 23.5273 24.9097 23.1298 25.1139C21.8684 25.7619 20.9135 26.9217 20.3917 28.4396L20.1962 29.0084L20.1705 36.1508C20.1416 44.1888 20.1303 44.0104 20.7535 45.3266C21.4086 46.7102 22.73 47.8366 24.2029 48.2668C24.4779 48.3471 25.1919 48.4223 25.9544 48.4512L27.2417 48.5L27.243 46.5852C27.2444 44.4042 27.3189 43.9192 27.8131 42.8767C28.2686 41.9159 29.2378 40.9239 30.196 40.4377C31.4727 39.7899 30.9607 39.8174 41.7602 39.8174C52.5596 39.8174 52.0476 39.7899 53.3243 40.4377C54.2825 40.9239 55.2517 41.9159 55.7072 42.8767C56.2014 43.9192 56.2759 44.4042 56.2774 46.5852L56.2786 48.5L57.5659 48.4512C58.3284 48.4223 59.0424 48.3471 59.3174 48.2668C60.7903 47.8366 62.1118 46.7102 62.7669 45.3266C63.3901 44.0104 63.3788 44.1888 63.3498 36.1508L63.3241 29.0084L63.1286 28.4396C62.5915 26.8773 61.6407 25.7426 60.3163 25.0839C59.8829 24.8683 59.3271 24.6493 59.0811 24.5971C58.3785 24.4481 24.9011 24.4797 24.3021 24.6299ZM50.9287 29.7138C51.5314 30.1809 51.6996 30.8549 51.364 31.4583C51.0395 32.0417 50.7776 32.1249 49.357 32.0958C48.2868 32.0739 48.105 32.0488 47.9091 31.8958C47.3096 31.4276 47.212 30.5927 47.684 29.9707C47.9997 29.5546 48.2711 29.4875 49.5411 29.5116C50.5563 29.5307 50.724 29.5551 50.9287 29.7138ZM56.9522 29.6429C57.1138 29.727 57.3355 29.9337 57.4451 30.1021C57.7165 30.5197 57.6788 31.2984 57.3706 31.6404C56.9885 32.0644 56.7945 32.1145 55.5357 32.1145C54.4561 32.1145 54.3392 32.0986 54.0754 31.9159C53.2658 31.3553 53.337 30.1112 54.2042 29.6663C54.6793 29.4225 56.4993 29.407 56.9522 29.6429ZM32.0624 42.5338C31.2374 42.7018 30.3602 43.4248 30.0107 44.2249C29.8301 44.6385 29.8142 44.8067 29.7892 46.5735L29.7622 48.4766H41.7602H53.7582L53.7311 46.5735C53.7061 44.8067 53.6902 44.6385 53.5096 44.2249C53.287 43.7152 52.6802 43.0626 52.1827 42.798C51.9959 42.6986 51.6395 42.5771 51.3905 42.5282C50.8303 42.4181 32.6048 42.4234 32.0624 42.5338Z" fill="#2C2B46"/>
<rect x="1.75996" y="1.3" width="78.4" height="78.4" rx="39.2" stroke="#ECECEC" stroke-width="1.6"/>
</svg>
