<svg width="26" height="26" viewBox="0 0 26 26" fill="none" xmlns="http://www.w3.org/2000/svg">
<g clip-path="url(#clip0_1_28000)">
<path d="M22.3382 9.15433C21.2007 4.14933 16.8349 1.896 12.9999 1.896C12.9999 1.896 12.9999 1.896 12.989 1.896C9.16486 1.896 4.78819 4.1385 3.65069 9.1435C2.38319 14.7335 5.80653 19.4677 8.90486 22.4468C10.0532 23.5518 11.5265 24.1043 12.9999 24.1043C14.4732 24.1043 15.9465 23.5518 17.084 22.4468C20.1824 19.4677 23.6057 14.7443 22.3382 9.15433ZM12.9999 14.5818C11.1149 14.5818 9.58736 13.0543 9.58736 11.1693C9.58736 9.28433 11.1149 7.75683 12.9999 7.75683C14.8849 7.75683 16.4124 9.28433 16.4124 11.1693C16.4124 13.0543 14.8849 14.5818 12.9999 14.5818Z" fill="#222B45"/>
</g>
<defs>
<clipPath id="clip0_1_28000">
<rect width="26" height="26" fill="white"/>
</clipPath>
</defs>
</svg>
