<svg xmlns="http://www.w3.org/2000/svg" width="28" height="28" viewBox="0 0 28 28" fill="none">
  <path d="M21.3823 26.2495C20.3148 26.2495 18.8153 25.8634 16.5698 24.6089C13.8393 23.0776 11.7272 21.6639 9.01147 18.9553C6.39303 16.3385 5.11881 14.6443 3.33545 11.3991C1.32076 7.73504 1.6642 5.81441 2.04811 4.99356C2.50529 4.01246 3.18014 3.42566 4.0524 2.84324C4.54784 2.51864 5.07214 2.24038 5.61865 2.01199C5.67334 1.98848 5.7242 1.96606 5.76959 1.94582C6.04029 1.82387 6.45045 1.63957 6.96998 1.83645C7.3167 1.9666 7.62623 2.23293 8.11076 2.71145C9.10444 3.69145 10.4623 5.87402 10.9633 6.9459C11.2996 7.66832 11.5222 8.1452 11.5227 8.68004C11.5227 9.30621 11.2077 9.7891 10.8255 10.3103C10.7538 10.4082 10.6827 10.5017 10.6138 10.5925C10.1976 11.1393 10.1063 11.2974 10.1665 11.5796C10.2884 12.1467 11.1979 13.8349 12.6925 15.3262C14.1871 16.8175 15.8266 17.6696 16.3959 17.791C16.6901 17.8539 16.8515 17.7587 17.4158 17.3278C17.4968 17.266 17.5799 17.202 17.6669 17.138C18.2498 16.7043 18.7103 16.3975 19.3217 16.3975H19.325C19.8571 16.3975 20.3126 16.6283 21.0673 17.0089C22.0517 17.5055 24.2999 18.8459 25.2859 19.8407C25.7655 20.3241 26.033 20.6325 26.1637 20.9787C26.3605 21.4999 26.1751 21.9084 26.0543 22.1818C26.034 22.2272 26.0116 22.277 25.9881 22.3322C25.7579 22.8778 25.478 23.401 25.1519 23.8952C24.5706 24.7647 23.9816 25.4379 22.9983 25.8957C22.4934 26.1345 21.9408 26.2555 21.3823 26.2495Z" fill="#222B45"/>
  <rect x="0.0234375" y="0.0234375" width="27.9531" height="27.9531" stroke="#E4E9F2" stroke-width="0.046875"/>
</svg>