<svg width="21" height="21" viewBox="0 0 21 21" fill="none" xmlns="http://www.w3.org/2000/svg">
<g id="calendar-outline">
<rect y="0.113281" width="20.7059" height="20.7059" rx="5" fill="#5688FF"/>
<path id="Vector" d="M16.8235 3.3479H3.88234C2.81026 3.3479 1.94116 4.21699 1.94116 5.28908V16.9361C1.94116 18.0082 2.81026 18.8773 3.88234 18.8773H16.8235C17.8956 18.8773 18.7647 18.0082 18.7647 16.9361V5.28908C18.7647 4.21699 17.8956 3.3479 16.8235 3.3479Z" stroke="white" stroke-width="1.5" stroke-linejoin="round"/>
<path id="Vector_2" d="M11.9707 10.4649C12.5067 10.4649 12.9413 10.0303 12.9413 9.49427C12.9413 8.95823 12.5067 8.52368 11.9707 8.52368C11.4346 8.52368 11.0001 8.95823 11.0001 9.49427C11.0001 10.0303 11.4346 10.4649 11.9707 10.4649Z" fill="white"/>
<path id="Vector_3" d="M15.2058 10.4649C15.7419 10.4649 16.1764 10.0303 16.1764 9.49427C16.1764 8.95823 15.7419 8.52368 15.2058 8.52368C14.6698 8.52368 14.2353 8.95823 14.2353 9.49427C14.2353 10.0303 14.6698 10.4649 15.2058 10.4649Z" fill="white"/>
<path id="Vector_4" d="M11.9707 13.7C12.5067 13.7 12.9413 13.2654 12.9413 12.7294C12.9413 12.1933 12.5067 11.7588 11.9707 11.7588C11.4346 11.7588 11.0001 12.1933 11.0001 12.7294C11.0001 13.2654 11.4346 13.7 11.9707 13.7Z" fill="white"/>
<path id="Vector_5" d="M15.2058 13.7C15.7419 13.7 16.1764 13.2654 16.1764 12.7294C16.1764 12.1933 15.7419 11.7588 15.2058 11.7588C14.6698 11.7588 14.2353 12.1933 14.2353 12.7294C14.2353 13.2654 14.6698 13.7 15.2058 13.7Z" fill="white"/>
<path id="Vector_6" d="M5.49998 13.7C6.03602 13.7 6.47056 13.2654 6.47056 12.7294C6.47056 12.1933 6.03602 11.7588 5.49998 11.7588C4.96394 11.7588 4.52939 12.1933 4.52939 12.7294C4.52939 13.2654 4.96394 13.7 5.49998 13.7Z" fill="white"/>
<path id="Vector_7" d="M8.73527 13.7C9.27131 13.7 9.70585 13.2654 9.70585 12.7294C9.70585 12.1933 9.27131 11.7588 8.73527 11.7588C8.19923 11.7588 7.76468 12.1933 7.76468 12.7294C7.76468 13.2654 8.19923 13.7 8.73527 13.7Z" fill="white"/>
<path id="Vector_8" d="M5.49998 16.9353C6.03602 16.9353 6.47056 16.5008 6.47056 15.9647C6.47056 15.4287 6.03602 14.9941 5.49998 14.9941C4.96394 14.9941 4.52939 15.4287 4.52939 15.9647C4.52939 16.5008 4.96394 16.9353 5.49998 16.9353Z" fill="white"/>
<path id="Vector_9" d="M8.73527 16.9353C9.27131 16.9353 9.70585 16.5008 9.70585 15.9647C9.70585 15.4287 9.27131 14.9941 8.73527 14.9941C8.19923 14.9941 7.76468 15.4287 7.76468 15.9647C7.76468 16.5008 8.19923 16.9353 8.73527 16.9353Z" fill="white"/>
<path id="Vector_10" d="M11.9707 16.9353C12.5067 16.9353 12.9413 16.5008 12.9413 15.9647C12.9413 15.4287 12.5067 14.9941 11.9707 14.9941C11.4346 14.9941 11.0001 15.4287 11.0001 15.9647C11.0001 16.5008 11.4346 16.9353 11.9707 16.9353Z" fill="white"/>
<path id="Vector_11" d="M15.5294 2.05298V3.3471M5.17645 2.05298V3.3471V2.05298Z" stroke="white" stroke-width="1.5" stroke-linecap="round" stroke-linejoin="round"/>
<path id="Vector_12" d="M18.7647 6.58325H1.94116" stroke="white" stroke-width="1.5" stroke-linejoin="round"/>
</g>
</svg>
