<svg width="19" height="19" viewBox="0 0 19 19" fill="none" xmlns="http://www.w3.org/2000/svg">
<path id="Vector" d="M1.1282 2.02357L7.52849 10.7203C7.62419 10.8486 7.67737 11.0125 7.67839 11.1825V16.4651C7.67777 16.5391 7.69722 16.6114 7.73396 16.6718C7.77069 16.7321 7.82284 16.7774 7.88294 16.8011L10.9246 17.9818C10.9701 17.9996 11.0185 18.0044 11.0659 17.9959C11.1133 17.9875 11.1583 17.9659 11.1971 17.9331C11.2359 17.9003 11.2675 17.8572 11.2891 17.8073C11.3108 17.7574 11.3219 17.7022 11.3216 17.6462V11.1825C11.3232 11.0122 11.377 10.8482 11.4734 10.7203L17.8718 2.02357C17.938 1.93366 17.9807 1.82351 17.9948 1.70617C18.009 1.58883 17.994 1.46921 17.9517 1.36149C17.9093 1.25378 17.8414 1.16248 17.756 1.09841C17.6705 1.03434 17.5711 1.00019 17.4695 1H1.53237C1.43063 0.999763 1.33097 1.03361 1.24524 1.09751C1.15951 1.16141 1.0913 1.25269 1.04874 1.36049C1.00617 1.46829 0.991031 1.58808 1.00512 1.70562C1.0192 1.82317 1.06192 1.93352 1.1282 2.02357Z" stroke="#5688FF" stroke-width="1.3" stroke-linecap="round" stroke-linejoin="round"/>
</svg>
