<svg width="101" height="101" viewBox="0 0 101 101" fill="none" xmlns="http://www.w3.org/2000/svg">
<g id="Frame" clip-path="url(#clip0_1_34608)">
<path id="Vector" d="M22.8664 16.915C39.3967 3.36836 63.8261 4.31102 79.2581 19.743C95.6916 36.1765 95.6916 62.8237 79.2581 79.2572C62.8245 95.6908 36.1774 95.6908 19.7438 79.2572C14.7007 74.221 11.0203 67.9856 9.04817 61.1366C7.07608 54.2877 6.87702 47.0499 8.46969 40.1029L8.79374 38.7857L16.9327 40.9319C14.9149 48.6006 15.6689 56.7354 19.0616 63.9026C22.4542 71.0699 28.2679 76.8096 35.4781 80.1102C42.6882 83.4107 50.832 84.0604 58.4742 81.9446C66.1164 79.8288 72.7665 75.0833 77.2525 68.5446C81.7385 62.0058 83.7725 54.0934 82.9961 46.2019C82.2196 38.3103 78.6825 30.9461 73.0081 25.407C67.3337 19.8679 59.8863 16.5096 51.9783 15.9238C44.0703 15.338 36.2093 17.5623 29.7807 22.2049L28.8506 22.9034L33.1305 27.1833L13.789 31.6441L18.2499 12.3026L22.8664 16.915ZM53.7093 24.2501V32.6668H64.2301V41.0834H41.0843C40.5585 41.0825 40.0513 41.2784 39.6628 41.6327C39.2742 41.9869 39.0323 42.4738 38.9848 42.9975C38.9373 43.5211 39.0876 44.0436 39.4061 44.462C39.7245 44.8804 40.1881 45.1644 40.7055 45.2581L41.0843 45.2918H57.9176C60.7079 45.2918 63.3839 46.4002 65.357 48.3733C67.33 50.3463 68.4384 53.0223 68.4384 55.8126C68.4384 58.6029 67.33 61.2789 65.357 63.252C63.3839 65.225 60.7079 66.3334 57.9176 66.3334H53.7093V74.7501H45.2926V66.3334H34.7718V57.9168H57.9176C58.4434 57.9177 58.9505 57.7218 59.3391 57.3676C59.7277 57.0133 59.9695 56.5264 60.017 56.0027C60.0646 55.4791 59.9143 54.9566 59.5958 54.5382C59.2773 54.1198 58.8138 53.8358 58.2964 53.7421L57.9176 53.7084H41.0843C38.294 53.7084 35.618 52.6 33.6449 50.627C31.6719 48.6539 30.5634 45.9779 30.5634 43.1876C30.5634 40.3973 31.6719 37.7213 33.6449 35.7483C35.618 33.7752 38.294 32.6668 41.0843 32.6668H45.2926V24.2501H53.7093Z" fill="#5688FF"/>
</g>
<defs>
<clipPath id="clip0_1_34608">
<rect width="101" height="101" fill="white"/>
</clipPath>
</defs>
</svg>
