<svg width="445" height="484" viewBox="0 0 445 484" fill="none" xmlns="http://www.w3.org/2000/svg">
<path d="M68.1108 413.477V424.757H63.4508V413.477L52.9308 395.957H57.0308C57.4441 395.957 57.7708 396.057 58.0108 396.257C58.2508 396.457 58.4508 396.711 58.6108 397.017L64.5108 407.337C64.7774 407.857 65.0174 408.351 65.2308 408.817C65.4574 409.284 65.6574 409.744 65.8308 410.197C65.9774 409.731 66.1574 409.271 66.3708 408.817C66.5841 408.351 66.8241 407.857 67.0908 407.337L72.9508 397.017C73.0841 396.751 73.2774 396.511 73.5308 396.297C73.7841 396.071 74.1108 395.957 74.5108 395.957H78.6308L68.1108 413.477ZM85.5064 404.037C87.0131 404.037 88.3731 404.284 89.5864 404.777C90.8131 405.271 91.8531 405.971 92.7064 406.877C93.5731 407.784 94.2397 408.884 94.7064 410.177C95.1731 411.471 95.4064 412.924 95.4064 414.537C95.4064 416.151 95.1731 417.604 94.7064 418.897C94.2397 420.191 93.5731 421.297 92.7064 422.217C91.8531 423.124 90.8131 423.824 89.5864 424.317C88.3731 424.811 87.0131 425.057 85.5064 425.057C83.9864 425.057 82.6131 424.811 81.3864 424.317C80.1731 423.824 79.1331 423.124 78.2664 422.217C77.3997 421.297 76.7331 420.191 76.2664 418.897C75.7997 417.604 75.5664 416.151 75.5664 414.537C75.5664 412.924 75.7997 411.471 76.2664 410.177C76.7331 408.884 77.3997 407.784 78.2664 406.877C79.1331 405.971 80.1731 405.271 81.3864 404.777C82.6131 404.284 83.9864 404.037 85.5064 404.037ZM85.5064 421.697C87.3464 421.697 88.7131 421.084 89.6064 419.857C90.5131 418.617 90.9664 416.851 90.9664 414.557C90.9664 412.264 90.5131 410.497 89.6064 409.257C88.7131 408.004 87.3464 407.377 85.5064 407.377C83.6397 407.377 82.2531 408.004 81.3464 409.257C80.4397 410.497 79.9864 412.264 79.9864 414.557C79.9864 416.851 80.4397 418.617 81.3464 419.857C82.2531 421.084 83.6397 421.697 85.5064 421.697ZM116.738 404.357V424.757H114.138C113.565 424.757 113.198 424.484 113.038 423.937L112.718 422.037C112.291 422.491 111.838 422.904 111.358 423.277C110.891 423.651 110.391 423.971 109.858 424.237C109.325 424.504 108.751 424.711 108.138 424.857C107.538 425.004 106.891 425.077 106.198 425.077C105.078 425.077 104.091 424.891 103.238 424.517C102.385 424.144 101.665 423.617 101.078 422.937C100.505 422.257 100.071 421.444 99.778 420.497C99.4846 419.537 99.338 418.484 99.338 417.337V404.357H103.638V417.337C103.638 418.711 103.951 419.777 104.578 420.537C105.218 421.297 106.185 421.677 107.478 421.677C108.425 421.677 109.305 421.464 110.118 421.037C110.945 420.597 111.718 419.997 112.438 419.237V404.357H116.738ZM142.821 415.837C141.287 415.891 139.994 416.017 138.941 416.217C137.887 416.404 137.034 416.651 136.381 416.957C135.727 417.251 135.254 417.604 134.961 418.017C134.681 418.431 134.541 418.884 134.541 419.377C134.541 419.857 134.614 420.271 134.761 420.617C134.921 420.951 135.134 421.231 135.401 421.457C135.681 421.671 136.001 421.831 136.361 421.937C136.734 422.031 137.141 422.077 137.581 422.077C138.701 422.077 139.661 421.871 140.461 421.457C141.274 421.031 142.061 420.417 142.821 419.617V415.837ZM131.421 407.197C133.727 405.051 136.474 403.977 139.661 403.977C140.834 403.977 141.874 404.171 142.781 404.557C143.701 404.931 144.467 405.464 145.081 406.157C145.707 406.851 146.181 407.677 146.501 408.637C146.834 409.584 147.001 410.637 147.001 411.797V424.757H145.081C144.667 424.757 144.354 424.697 144.141 424.577C143.927 424.444 143.747 424.184 143.601 423.797L143.181 422.137C142.661 422.604 142.147 423.024 141.641 423.397C141.134 423.757 140.607 424.064 140.061 424.317C139.527 424.571 138.947 424.757 138.321 424.877C137.707 425.011 137.027 425.077 136.281 425.077C135.454 425.077 134.681 424.964 133.961 424.737C133.254 424.511 132.641 424.171 132.121 423.717C131.601 423.251 131.187 422.677 130.881 421.997C130.587 421.317 130.441 420.517 130.441 419.597C130.441 418.811 130.647 418.044 131.061 417.297C131.487 416.551 132.181 415.884 133.141 415.297C134.114 414.697 135.387 414.204 136.961 413.817C138.547 413.431 140.501 413.211 142.821 413.157V411.797C142.821 410.331 142.507 409.237 141.881 408.517C141.254 407.797 140.334 407.437 139.121 407.437C138.294 407.437 137.601 407.544 137.041 407.757C136.481 407.957 135.994 408.177 135.581 408.417C135.167 408.657 134.801 408.884 134.481 409.097C134.161 409.297 133.821 409.397 133.461 409.397C133.167 409.397 132.914 409.324 132.701 409.177C132.501 409.017 132.334 408.824 132.201 408.597L131.421 407.197ZM156.098 408.137C156.738 406.844 157.511 405.831 158.418 405.097C159.325 404.351 160.411 403.977 161.678 403.977C162.118 403.977 162.531 404.031 162.918 404.137C163.305 404.231 163.651 404.377 163.958 404.577L163.658 407.817C163.605 408.044 163.518 408.204 163.398 408.297C163.291 408.377 163.145 408.417 162.958 408.417C162.758 408.417 162.471 408.384 162.098 408.317C161.725 408.237 161.331 408.197 160.918 408.197C160.318 408.197 159.785 408.284 159.318 408.457C158.865 408.631 158.451 408.884 158.078 409.217C157.718 409.551 157.398 409.957 157.118 410.437C156.838 410.917 156.578 411.464 156.338 412.077V424.757H152.038V404.357H154.538C154.991 404.357 155.305 404.444 155.478 404.617C155.651 404.777 155.771 405.064 155.838 405.477L156.098 408.137ZM179.48 412.257C179.48 411.537 179.374 410.871 179.16 410.257C178.96 409.631 178.66 409.091 178.26 408.637C177.86 408.171 177.36 407.811 176.76 407.557C176.174 407.291 175.494 407.157 174.72 407.157C173.16 407.157 171.934 407.604 171.04 408.497C170.147 409.391 169.58 410.644 169.34 412.257H179.48ZM169.22 414.897C169.274 416.057 169.454 417.064 169.76 417.917C170.067 418.757 170.474 419.457 170.98 420.017C171.5 420.577 172.114 420.997 172.82 421.277C173.54 421.544 174.34 421.677 175.22 421.677C176.06 421.677 176.787 421.584 177.4 421.397C178.014 421.197 178.547 420.984 179 420.757C179.454 420.517 179.84 420.304 180.16 420.117C180.48 419.917 180.774 419.817 181.04 419.817C181.387 419.817 181.654 419.951 181.84 420.217L183.06 421.797C182.554 422.397 181.98 422.904 181.34 423.317C180.7 423.731 180.02 424.071 179.3 424.337C178.58 424.591 177.84 424.771 177.08 424.877C176.32 424.997 175.58 425.057 174.86 425.057C173.447 425.057 172.134 424.824 170.92 424.357C169.72 423.877 168.674 423.177 167.78 422.257C166.9 421.337 166.207 420.197 165.7 418.837C165.207 417.477 164.96 415.911 164.96 414.137C164.96 412.724 165.18 411.404 165.62 410.177C166.074 408.951 166.714 407.884 167.54 406.977C168.38 406.071 169.394 405.357 170.58 404.837C171.78 404.304 173.134 404.037 174.64 404.037C175.894 404.037 177.054 404.244 178.12 404.657C179.187 405.057 180.107 405.651 180.88 406.437C181.654 407.224 182.254 408.191 182.68 409.337C183.12 410.471 183.34 411.764 183.34 413.217C183.34 413.884 183.267 414.331 183.12 414.557C182.974 414.784 182.707 414.897 182.32 414.897H169.22ZM201.331 407.057C201.771 406.604 202.225 406.197 202.691 405.837C203.171 405.464 203.678 405.144 204.211 404.877C204.745 404.611 205.311 404.404 205.911 404.257C206.511 404.111 207.165 404.037 207.871 404.037C208.991 404.037 209.971 404.224 210.811 404.597C211.665 404.971 212.378 405.497 212.951 406.177C213.538 406.857 213.978 407.677 214.271 408.637C214.565 409.584 214.711 410.631 214.711 411.777V424.757H210.431V411.777C210.431 410.404 210.111 409.337 209.471 408.577C208.845 407.817 207.885 407.437 206.591 407.437C205.631 407.437 204.738 407.657 203.911 408.097C203.098 408.537 202.331 409.137 201.611 409.897V424.757H197.311V404.357H199.911C200.498 404.357 200.871 404.631 201.031 405.177L201.331 407.057ZM228.553 404.037C230.06 404.037 231.42 404.284 232.633 404.777C233.86 405.271 234.9 405.971 235.753 406.877C236.62 407.784 237.287 408.884 237.753 410.177C238.22 411.471 238.453 412.924 238.453 414.537C238.453 416.151 238.22 417.604 237.753 418.897C237.287 420.191 236.62 421.297 235.753 422.217C234.9 423.124 233.86 423.824 232.633 424.317C231.42 424.811 230.06 425.057 228.553 425.057C227.033 425.057 225.66 424.811 224.433 424.317C223.22 423.824 222.18 423.124 221.313 422.217C220.447 421.297 219.78 420.191 219.313 418.897C218.847 417.604 218.613 416.151 218.613 414.537C218.613 412.924 218.847 411.471 219.313 410.177C219.78 408.884 220.447 407.784 221.313 406.877C222.18 405.971 223.22 405.271 224.433 404.777C225.66 404.284 227.033 404.037 228.553 404.037ZM228.553 421.697C230.393 421.697 231.76 421.084 232.653 419.857C233.56 418.617 234.013 416.851 234.013 414.557C234.013 412.264 233.56 410.497 232.653 409.257C231.76 408.004 230.393 407.377 228.553 407.377C226.687 407.377 225.3 408.004 224.393 409.257C223.487 410.497 223.033 412.264 223.033 414.557C223.033 416.851 223.487 418.617 224.393 419.857C225.3 421.084 226.687 421.697 228.553 421.697ZM248.734 425.077C247.041 425.077 245.734 424.604 244.814 423.657C243.908 422.697 243.454 421.351 243.454 419.617V407.737H241.214C240.974 407.737 240.768 407.664 240.594 407.517C240.421 407.357 240.334 407.124 240.334 406.817V405.077L243.634 404.597L244.574 398.697C244.641 398.471 244.754 398.291 244.914 398.157C245.074 398.011 245.288 397.937 245.554 397.937H247.754V404.637H253.414V407.737H247.754V419.317C247.754 420.051 247.934 420.611 248.294 420.997C248.654 421.384 249.134 421.577 249.734 421.577C250.068 421.577 250.354 421.537 250.594 421.457C250.834 421.364 251.041 421.271 251.214 421.177C251.388 421.071 251.534 420.977 251.654 420.897C251.788 420.804 251.914 420.757 252.034 420.757C252.274 420.757 252.468 420.891 252.614 421.157L253.894 423.257C253.228 423.844 252.441 424.297 251.534 424.617C250.628 424.924 249.694 425.077 248.734 425.077ZM281.476 413.957L277.516 403.437C277.196 402.624 276.87 401.591 276.536 400.337C276.39 400.964 276.23 401.544 276.056 402.077C275.883 402.597 275.723 403.057 275.576 403.457L271.616 413.957H281.476ZM290.336 424.757H286.716C286.303 424.757 285.97 424.657 285.716 424.457C285.463 424.244 285.27 423.984 285.136 423.677L282.736 417.317H270.336L267.936 423.677C267.83 423.944 267.643 424.191 267.376 424.417C267.11 424.644 266.776 424.757 266.376 424.757H262.756L274.176 395.957H278.916L290.336 424.757ZM305.488 409.377C304.888 408.604 304.228 408.064 303.508 407.757C302.788 407.451 302.008 407.297 301.168 407.297C299.488 407.297 298.174 407.917 297.228 409.157C296.281 410.384 295.808 412.204 295.808 414.617C295.808 415.871 295.914 416.944 296.128 417.837C296.341 418.717 296.648 419.437 297.048 419.997C297.448 420.557 297.934 420.964 298.508 421.217C299.081 421.471 299.728 421.597 300.448 421.597C301.541 421.597 302.481 421.364 303.268 420.897C304.068 420.417 304.808 419.744 305.488 418.877V409.377ZM309.788 395.157V424.757H307.188C306.614 424.757 306.248 424.484 306.088 423.937L305.708 421.717C304.854 422.717 303.881 423.524 302.788 424.137C301.708 424.751 300.448 425.057 299.008 425.057C297.861 425.057 296.821 424.831 295.888 424.377C294.954 423.911 294.154 423.237 293.488 422.357C292.821 421.477 292.301 420.391 291.928 419.097C291.568 417.791 291.388 416.297 291.388 414.617C291.388 413.097 291.588 411.691 291.988 410.397C292.401 409.104 292.988 407.984 293.748 407.037C294.508 406.077 295.428 405.331 296.508 404.797C297.601 404.251 298.821 403.977 300.168 403.977C301.368 403.977 302.388 404.171 303.228 404.557C304.068 404.931 304.821 405.457 305.488 406.137V395.157H309.788ZM315.046 424.757V404.357H317.646C318.232 404.357 318.606 404.631 318.766 405.177L319.046 406.957C319.419 406.531 319.806 406.144 320.206 405.797C320.606 405.437 321.032 405.131 321.486 404.877C321.952 404.611 322.446 404.404 322.966 404.257C323.499 404.111 324.072 404.037 324.686 404.037C325.339 404.037 325.939 404.131 326.486 404.317C327.032 404.504 327.512 404.771 327.926 405.117C328.352 405.464 328.719 405.884 329.026 406.377C329.332 406.871 329.586 407.424 329.786 408.037C330.092 407.331 330.479 406.724 330.946 406.217C331.412 405.711 331.932 405.297 332.506 404.977C333.079 404.657 333.686 404.424 334.326 404.277C334.979 404.117 335.639 404.037 336.306 404.037C337.399 404.037 338.372 404.211 339.226 404.557C340.092 404.904 340.819 405.411 341.406 406.077C342.006 406.731 342.459 407.537 342.766 408.497C343.072 409.457 343.226 410.551 343.226 411.777V424.757H338.926V411.777C338.926 410.337 338.612 409.257 337.986 408.537C337.372 407.804 336.459 407.437 335.246 407.437C334.699 407.437 334.186 407.531 333.706 407.717C333.226 407.904 332.806 408.177 332.446 408.537C332.086 408.897 331.799 409.351 331.586 409.897C331.386 410.431 331.286 411.057 331.286 411.777V424.757H326.986V411.777C326.986 410.284 326.686 409.191 326.086 408.497C325.486 407.791 324.606 407.437 323.446 407.437C322.646 407.437 321.906 407.644 321.226 408.057C320.546 408.457 319.919 409.011 319.346 409.717V424.757H315.046ZM352.729 404.357V424.757H348.429V404.357H352.729ZM353.449 398.197C353.449 398.584 353.369 398.951 353.209 399.297C353.062 399.644 352.856 399.951 352.589 400.217C352.322 400.471 352.009 400.677 351.649 400.837C351.302 400.984 350.929 401.057 350.529 401.057C350.142 401.057 349.776 400.984 349.429 400.837C349.096 400.677 348.802 400.471 348.549 400.217C348.296 399.951 348.089 399.644 347.929 399.297C347.782 398.951 347.709 398.584 347.709 398.197C347.709 397.797 347.782 397.424 347.929 397.077C348.089 396.731 348.296 396.431 348.549 396.177C348.802 395.911 349.096 395.704 349.429 395.557C349.776 395.397 350.142 395.317 350.529 395.317C350.929 395.317 351.302 395.397 351.649 395.557C352.009 395.704 352.322 395.911 352.589 396.177C352.856 396.431 353.062 396.731 353.209 397.077C353.369 397.424 353.449 397.797 353.449 398.197ZM362.152 407.057C362.592 406.604 363.045 406.197 363.512 405.837C363.992 405.464 364.498 405.144 365.032 404.877C365.565 404.611 366.132 404.404 366.732 404.257C367.332 404.111 367.985 404.037 368.692 404.037C369.812 404.037 370.792 404.224 371.632 404.597C372.485 404.971 373.198 405.497 373.772 406.177C374.358 406.857 374.798 407.677 375.092 408.637C375.385 409.584 375.532 410.631 375.532 411.777V424.757H371.252V411.777C371.252 410.404 370.932 409.337 370.292 408.577C369.665 407.817 368.705 407.437 367.412 407.437C366.452 407.437 365.558 407.657 364.732 408.097C363.918 408.537 363.152 409.137 362.432 409.897V424.757H358.132V404.357H360.732C361.318 404.357 361.692 404.631 361.852 405.177L362.152 407.057ZM385.494 395.957V407.397C385.494 408.597 385.44 409.777 385.334 410.937C385.227 412.084 385.087 413.324 384.914 414.657H382.014C381.827 413.324 381.68 412.084 381.574 410.937C381.48 409.777 381.434 408.597 381.434 407.397V395.957H385.494ZM380.614 422.277C380.614 421.891 380.68 421.531 380.814 421.197C380.96 420.851 381.16 420.551 381.414 420.297C381.667 420.044 381.96 419.844 382.294 419.697C382.627 419.551 382.994 419.477 383.394 419.477C383.78 419.477 384.14 419.551 384.474 419.697C384.82 419.844 385.114 420.044 385.354 420.297C385.607 420.551 385.807 420.851 385.954 421.197C386.1 421.531 386.174 421.891 386.174 422.277C386.174 422.677 386.1 423.044 385.954 423.377C385.807 423.711 385.607 424.004 385.354 424.257C385.114 424.511 384.82 424.704 384.474 424.837C384.14 424.984 383.78 425.057 383.394 425.057C382.994 425.057 382.627 424.984 382.294 424.837C381.96 424.704 381.667 424.511 381.414 424.257C381.16 424.004 380.96 423.711 380.814 423.377C380.68 423.044 380.614 422.677 380.614 422.277Z" fill="#222B45"/>
<path d="M9.72816 467.999C10.4842 467.999 11.1468 467.901 11.7162 467.705C12.2948 467.509 12.7755 467.234 13.1582 466.879C13.5502 466.515 13.8442 466.086 14.0402 465.591C14.2362 465.087 14.3342 464.532 14.3342 463.925C14.3342 462.703 13.9515 461.741 13.1862 461.041C12.4302 460.341 11.2775 459.991 9.72816 459.991H6.62016V467.999H9.72816ZM9.72816 457.653C11.0162 457.653 12.1362 457.803 13.0882 458.101C14.0402 458.4 14.8288 458.825 15.4542 459.375C16.0795 459.917 16.5415 460.575 16.8402 461.349C17.1482 462.124 17.3022 462.983 17.3022 463.925C17.3022 464.868 17.1388 465.736 16.8122 466.529C16.4855 467.313 16.0048 467.99 15.3702 468.559C14.7355 469.129 13.9422 469.572 12.9902 469.889C12.0475 470.197 10.9602 470.351 9.72816 470.351H6.62016V477.757H3.63816V457.653H9.72816ZM22.7493 457.093V477.757H20.0053V457.093H22.7493ZM36.0705 469.063C36.0705 468.522 35.9911 468.023 35.8325 467.565C35.6831 467.108 35.4591 466.711 35.1605 466.375C34.8618 466.039 34.4978 465.778 34.0685 465.591C33.6391 465.405 33.1445 465.311 32.5845 465.311C31.4365 465.311 30.5311 465.643 29.8685 466.305C29.2151 466.968 28.7998 467.887 28.6225 469.063H36.0705ZM38.3245 475.727C37.9885 476.119 37.6011 476.46 37.1625 476.749C36.7238 477.029 36.2571 477.258 35.7625 477.435C35.2678 477.613 34.7545 477.743 34.2225 477.827C33.6998 477.911 33.1818 477.953 32.6685 477.953C31.6885 477.953 30.7785 477.79 29.9385 477.463C29.1078 477.127 28.3845 476.642 27.7685 476.007C27.1618 475.363 26.6858 474.57 26.3405 473.627C26.0045 472.675 25.8365 471.583 25.8365 470.351C25.8365 469.362 25.9905 468.443 26.2985 467.593C26.6065 466.735 27.0451 465.988 27.6145 465.353C28.1931 464.719 28.8978 464.219 29.7285 463.855C30.5591 463.491 31.4925 463.309 32.5285 463.309C33.3965 463.309 34.1945 463.454 34.9225 463.743C35.6598 464.023 36.2945 464.434 36.8265 464.975C37.3585 465.517 37.7738 466.184 38.0725 466.977C38.3805 467.771 38.5345 468.676 38.5345 469.693C38.5345 470.113 38.4878 470.398 38.3945 470.547C38.3011 470.687 38.1285 470.757 37.8765 470.757H28.5525C28.5805 471.607 28.7018 472.349 28.9165 472.983C29.1311 473.609 29.4251 474.131 29.7985 474.551C30.1811 474.971 30.6338 475.284 31.1565 475.489C31.6791 475.695 32.2625 475.797 32.9065 475.797C33.5131 475.797 34.0358 475.727 34.4745 475.587C34.9225 475.447 35.3051 475.298 35.6225 475.139C35.9491 474.971 36.2198 474.817 36.4345 474.677C36.6585 474.537 36.8545 474.467 37.0225 474.467C37.2465 474.467 37.4191 474.551 37.5405 474.719L38.3245 475.727ZM49.1128 471.443C48.0021 471.481 47.0594 471.569 46.2848 471.709C45.5101 471.84 44.8801 472.017 44.3948 472.241C43.9094 472.465 43.5594 472.731 43.3448 473.039C43.1301 473.338 43.0228 473.674 43.0228 474.047C43.0228 474.402 43.0788 474.71 43.1908 474.971C43.3121 475.223 43.4708 475.433 43.6668 475.601C43.8721 475.76 44.1101 475.877 44.3808 475.951C44.6514 476.026 44.9454 476.063 45.2628 476.063C45.6828 476.063 46.0654 476.021 46.4108 475.937C46.7654 475.853 47.0968 475.737 47.4048 475.587C47.7128 475.429 48.0068 475.237 48.2868 475.013C48.5668 474.789 48.8421 474.533 49.1128 474.243V471.443ZM41.1048 465.521C41.8981 464.765 42.7568 464.201 43.6808 463.827C44.6141 463.454 45.6361 463.267 46.7468 463.267C47.5588 463.267 48.2774 463.403 48.9028 463.673C49.5281 463.935 50.0554 464.303 50.4848 464.779C50.9141 465.255 51.2361 465.825 51.4508 466.487C51.6748 467.15 51.7868 467.883 51.7868 468.685V477.757H50.5688C50.2981 477.757 50.0928 477.715 49.9528 477.631C49.8128 477.538 49.7008 477.37 49.6168 477.127L49.3228 475.881C48.9588 476.217 48.5994 476.516 48.2448 476.777C47.8901 477.029 47.5168 477.249 47.1248 477.435C46.7421 477.613 46.3314 477.748 45.8928 477.841C45.4541 477.935 44.9688 477.981 44.4368 477.981C43.8768 477.981 43.3494 477.907 42.8548 477.757C42.3694 477.599 41.9448 477.361 41.5808 477.043C41.2168 476.726 40.9274 476.329 40.7128 475.853C40.5074 475.377 40.4048 474.822 40.4048 474.187C40.4048 473.627 40.5541 473.091 40.8528 472.577C41.1608 472.055 41.6554 471.588 42.3368 471.177C43.0274 470.767 43.9234 470.431 45.0248 470.169C46.1354 469.908 47.4981 469.759 49.1128 469.721V468.685C49.1128 467.612 48.8841 466.809 48.4268 466.277C47.9694 465.745 47.2974 465.479 46.4108 465.479C45.8134 465.479 45.3094 465.554 44.8988 465.703C44.4974 465.853 44.1474 466.021 43.8488 466.207C43.5594 466.385 43.3028 466.548 43.0788 466.697C42.8641 466.847 42.6401 466.921 42.4068 466.921C42.2201 466.921 42.0568 466.87 41.9168 466.767C41.7861 466.665 41.6788 466.543 41.5948 466.403L41.1048 465.521ZM63.8274 465.983C63.7528 466.105 63.6734 466.193 63.5894 466.249C63.5054 466.296 63.3981 466.319 63.2674 466.319C63.1181 466.319 62.9501 466.268 62.7634 466.165C62.5861 466.063 62.3668 465.951 62.1054 465.829C61.8534 465.708 61.5548 465.596 61.2094 465.493C60.8641 465.391 60.4534 465.339 59.9774 465.339C59.5854 465.339 59.2261 465.391 58.8994 465.493C58.5821 465.587 58.3114 465.722 58.0874 465.899C57.8634 466.067 57.6908 466.273 57.5694 466.515C57.4481 466.749 57.3874 467.001 57.3874 467.271C57.3874 467.626 57.4901 467.92 57.6954 468.153C57.9101 468.387 58.1854 468.587 58.5214 468.755C58.8668 468.923 59.2541 469.077 59.6834 469.217C60.1221 469.348 60.5654 469.488 61.0134 469.637C61.4708 469.787 61.9141 469.959 62.3434 470.155C62.7821 470.342 63.1694 470.58 63.5054 470.869C63.8508 471.149 64.1261 471.49 64.3314 471.891C64.5461 472.293 64.6534 472.783 64.6534 473.361C64.6534 474.024 64.5321 474.64 64.2894 475.209C64.0561 475.769 63.7061 476.255 63.2394 476.665C62.7821 477.076 62.2128 477.398 61.5314 477.631C60.8501 477.865 60.0708 477.981 59.1934 477.981C58.2134 477.981 57.3081 477.818 56.4774 477.491C55.6468 477.165 54.9514 476.749 54.3914 476.245L55.0354 475.195C55.1101 475.065 55.2034 474.967 55.3154 474.901C55.4274 474.827 55.5768 474.789 55.7634 474.789C55.9408 474.789 56.1228 474.855 56.3094 474.985C56.4961 475.116 56.7201 475.261 56.9814 475.419C57.2428 475.569 57.5601 475.709 57.9334 475.839C58.3068 475.961 58.7734 476.021 59.3334 476.021C59.8001 476.021 60.2061 475.965 60.5514 475.853C60.8968 475.732 61.1814 475.573 61.4054 475.377C61.6388 475.172 61.8114 474.939 61.9234 474.677C62.0354 474.416 62.0914 474.141 62.0914 473.851C62.0914 473.478 61.9841 473.17 61.7694 472.927C61.5641 472.675 61.2888 472.461 60.9434 472.283C60.6074 472.106 60.2201 471.952 59.7814 471.821C59.3428 471.691 58.8948 471.551 58.4374 471.401C57.9801 471.252 57.5321 471.079 57.0934 470.883C56.6548 470.687 56.2628 470.44 55.9174 470.141C55.5814 469.843 55.3061 469.479 55.0914 469.049C54.8861 468.62 54.7834 468.097 54.7834 467.481C54.7834 466.931 54.8954 466.403 55.1194 465.899C55.3528 465.395 55.6841 464.952 56.1134 464.569C56.5521 464.187 57.0888 463.883 57.7234 463.659C58.3674 463.426 59.1001 463.309 59.9214 463.309C60.8641 463.309 61.7134 463.459 62.4694 463.757C63.2348 464.056 63.8881 464.467 64.4294 464.989L63.8274 465.983ZM77.0314 469.063C77.0314 468.522 76.9521 468.023 76.7934 467.565C76.6441 467.108 76.4201 466.711 76.1214 466.375C75.8227 466.039 75.4587 465.778 75.0294 465.591C74.6001 465.405 74.1054 465.311 73.5454 465.311C72.3974 465.311 71.4921 465.643 70.8294 466.305C70.1761 466.968 69.7607 467.887 69.5834 469.063H77.0314ZM79.2854 475.727C78.9494 476.119 78.5621 476.46 78.1234 476.749C77.6847 477.029 77.2181 477.258 76.7234 477.435C76.2287 477.613 75.7154 477.743 75.1834 477.827C74.6607 477.911 74.1427 477.953 73.6294 477.953C72.6494 477.953 71.7394 477.79 70.8994 477.463C70.0687 477.127 69.3454 476.642 68.7294 476.007C68.1227 475.363 67.6467 474.57 67.3014 473.627C66.9654 472.675 66.7974 471.583 66.7974 470.351C66.7974 469.362 66.9514 468.443 67.2594 467.593C67.5674 466.735 68.0061 465.988 68.5754 465.353C69.1541 464.719 69.8587 464.219 70.6894 463.855C71.5201 463.491 72.4534 463.309 73.4894 463.309C74.3574 463.309 75.1554 463.454 75.8834 463.743C76.6207 464.023 77.2554 464.434 77.7874 464.975C78.3194 465.517 78.7347 466.184 79.0334 466.977C79.3414 467.771 79.4954 468.676 79.4954 469.693C79.4954 470.113 79.4487 470.398 79.3554 470.547C79.2621 470.687 79.0894 470.757 78.8374 470.757H69.5134C69.5414 471.607 69.6627 472.349 69.8774 472.983C70.0921 473.609 70.3861 474.131 70.7594 474.551C71.1421 474.971 71.5947 475.284 72.1174 475.489C72.6401 475.695 73.2234 475.797 73.8674 475.797C74.4741 475.797 74.9967 475.727 75.4354 475.587C75.8834 475.447 76.2661 475.298 76.5834 475.139C76.9101 474.971 77.1807 474.817 77.3954 474.677C77.6194 474.537 77.8154 474.467 77.9834 474.467C78.2074 474.467 78.3801 474.551 78.5014 474.719L79.2854 475.727ZM99.4798 466.193C99.3958 466.296 99.3118 466.38 99.2278 466.445C99.1531 466.501 99.0411 466.529 98.8918 466.529C98.7424 466.529 98.5838 466.473 98.4158 466.361C98.2571 466.24 98.0518 466.114 97.7998 465.983C97.5571 465.843 97.2584 465.717 96.9038 465.605C96.5584 465.484 96.1291 465.423 95.6158 465.423C94.9438 465.423 94.3511 465.545 93.8378 465.787C93.3244 466.03 92.8951 466.375 92.5498 466.823C92.2138 467.271 91.9571 467.817 91.7798 468.461C91.6024 469.105 91.5138 469.829 91.5138 470.631C91.5138 471.462 91.6071 472.204 91.7938 472.857C91.9804 473.501 92.2464 474.047 92.5918 474.495C92.9371 474.934 93.3571 475.27 93.8518 475.503C94.3464 475.727 94.8971 475.839 95.5037 475.839C96.0918 475.839 96.5771 475.769 96.9598 475.629C97.3424 475.48 97.6598 475.321 97.9118 475.153C98.1638 474.985 98.3738 474.831 98.5418 474.691C98.7098 474.542 98.8824 474.467 99.0598 474.467C99.2838 474.467 99.4564 474.551 99.5778 474.719L100.362 475.727C100.035 476.129 99.6664 476.469 99.2558 476.749C98.8544 477.029 98.4251 477.258 97.9678 477.435C97.5104 477.613 97.0298 477.743 96.5258 477.827C96.0311 477.911 95.5271 477.953 95.0138 477.953C94.1271 477.953 93.2964 477.79 92.5218 477.463C91.7564 477.137 91.0891 476.661 90.5198 476.035C89.9598 475.41 89.5164 474.645 89.1898 473.739C88.8631 472.825 88.6998 471.789 88.6998 470.631C88.6998 469.577 88.8444 468.601 89.1338 467.705C89.4324 466.809 89.8664 466.039 90.4358 465.395C91.0144 464.742 91.7238 464.233 92.5638 463.869C93.4038 463.496 94.3651 463.309 95.4478 463.309C96.4651 463.309 97.3611 463.473 98.1358 463.799C98.9104 464.126 99.6011 464.588 100.208 465.185L99.4798 466.193ZM108.726 463.309C109.771 463.309 110.714 463.482 111.554 463.827C112.403 464.163 113.122 464.653 113.71 465.297C114.307 465.932 114.765 466.702 115.082 467.607C115.399 468.503 115.558 469.511 115.558 470.631C115.558 471.751 115.399 472.764 115.082 473.669C114.765 474.575 114.307 475.345 113.71 475.979C113.122 476.614 112.403 477.104 111.554 477.449C110.714 477.785 109.771 477.953 108.726 477.953C107.671 477.953 106.719 477.785 105.87 477.449C105.03 477.104 104.311 476.614 103.714 475.979C103.117 475.345 102.655 474.575 102.328 473.669C102.011 472.764 101.852 471.751 101.852 470.631C101.852 469.511 102.011 468.503 102.328 467.607C102.655 466.702 103.117 465.932 103.714 465.297C104.311 464.653 105.03 464.163 105.87 463.827C106.719 463.482 107.671 463.309 108.726 463.309ZM108.726 475.825C110.07 475.825 111.073 475.373 111.736 474.467C112.399 473.562 112.73 472.288 112.73 470.645C112.73 469.003 112.399 467.729 111.736 466.823C111.073 465.909 110.07 465.451 108.726 465.451C107.363 465.451 106.346 465.909 105.674 466.823C105.011 467.729 104.68 469.003 104.68 470.645C104.68 472.288 105.011 473.562 105.674 474.467C106.346 475.373 107.363 475.825 108.726 475.825ZM121.168 465.507C121.476 465.181 121.798 464.882 122.134 464.611C122.47 464.341 122.824 464.112 123.198 463.925C123.58 463.729 123.986 463.58 124.416 463.477C124.854 463.365 125.321 463.309 125.816 463.309C126.6 463.309 127.286 463.44 127.874 463.701C128.471 463.963 128.97 464.331 129.372 464.807C129.773 465.274 130.076 465.839 130.282 466.501C130.487 467.164 130.59 467.897 130.59 468.699V477.757H127.846V468.699C127.846 467.682 127.612 466.893 127.146 466.333C126.679 465.764 125.965 465.479 125.004 465.479C124.304 465.479 123.646 465.647 123.03 465.983C122.423 466.31 121.858 466.758 121.336 467.327V477.757H118.606V463.533H120.244C120.626 463.533 120.864 463.715 120.958 464.079L121.168 465.507ZM138.534 477.981C137.386 477.981 136.499 477.659 135.874 477.015C135.258 476.371 134.95 475.452 134.95 474.257V465.745H133.298C133.139 465.745 133.004 465.699 132.892 465.605C132.789 465.503 132.738 465.353 132.738 465.157V464.051L135.048 463.729L135.664 459.487C135.701 459.329 135.771 459.207 135.874 459.123C135.986 459.03 136.126 458.983 136.294 458.983H137.68V463.757H141.712V465.745H137.68V474.075C137.68 474.635 137.815 475.055 138.086 475.335C138.366 475.606 138.721 475.741 139.15 475.741C139.402 475.741 139.617 475.709 139.794 475.643C139.981 475.578 140.139 475.508 140.27 475.433C140.401 475.349 140.513 475.275 140.606 475.209C140.699 475.144 140.783 475.111 140.858 475.111C140.951 475.111 141.021 475.135 141.068 475.181C141.124 475.219 141.18 475.284 141.236 475.377L142.048 476.693C141.6 477.104 141.068 477.421 140.452 477.645C139.836 477.869 139.197 477.981 138.534 477.981ZM151.871 471.443C150.76 471.481 149.817 471.569 149.043 471.709C148.268 471.84 147.638 472.017 147.153 472.241C146.667 472.465 146.317 472.731 146.103 473.039C145.888 473.338 145.781 473.674 145.781 474.047C145.781 474.402 145.837 474.71 145.949 474.971C146.07 475.223 146.229 475.433 146.425 475.601C146.63 475.76 146.868 475.877 147.139 475.951C147.409 476.026 147.703 476.063 148.021 476.063C148.441 476.063 148.823 476.021 149.169 475.937C149.523 475.853 149.855 475.737 150.163 475.587C150.471 475.429 150.765 475.237 151.045 475.013C151.325 474.789 151.6 474.533 151.871 474.243V471.443ZM143.863 465.521C144.656 464.765 145.515 464.201 146.439 463.827C147.372 463.454 148.394 463.267 149.505 463.267C150.317 463.267 151.035 463.403 151.661 463.673C152.286 463.935 152.813 464.303 153.243 464.779C153.672 465.255 153.994 465.825 154.209 466.487C154.433 467.15 154.545 467.883 154.545 468.685V477.757H153.327C153.056 477.757 152.851 477.715 152.711 477.631C152.571 477.538 152.459 477.37 152.375 477.127L152.081 475.881C151.717 476.217 151.357 476.516 151.003 476.777C150.648 477.029 150.275 477.249 149.883 477.435C149.5 477.613 149.089 477.748 148.651 477.841C148.212 477.935 147.727 477.981 147.195 477.981C146.635 477.981 146.107 477.907 145.613 477.757C145.127 477.599 144.703 477.361 144.339 477.043C143.975 476.726 143.685 476.329 143.471 475.853C143.265 475.377 143.163 474.822 143.163 474.187C143.163 473.627 143.312 473.091 143.611 472.577C143.919 472.055 144.413 471.588 145.095 471.177C145.785 470.767 146.681 470.431 147.783 470.169C148.893 469.908 150.256 469.759 151.871 469.721V468.685C151.871 467.612 151.642 466.809 151.185 466.277C150.727 465.745 150.055 465.479 149.169 465.479C148.571 465.479 148.067 465.554 147.657 465.703C147.255 465.853 146.905 466.021 146.607 466.207C146.317 466.385 146.061 466.548 145.837 466.697C145.622 466.847 145.398 466.921 145.165 466.921C144.978 466.921 144.815 466.87 144.675 466.767C144.544 466.665 144.437 466.543 144.353 466.403L143.863 465.521ZM168.167 466.193C168.083 466.296 167.999 466.38 167.915 466.445C167.841 466.501 167.729 466.529 167.579 466.529C167.43 466.529 167.271 466.473 167.103 466.361C166.945 466.24 166.739 466.114 166.487 465.983C166.245 465.843 165.946 465.717 165.591 465.605C165.246 465.484 164.817 465.423 164.303 465.423C163.631 465.423 163.039 465.545 162.525 465.787C162.012 466.03 161.583 466.375 161.237 466.823C160.901 467.271 160.645 467.817 160.467 468.461C160.29 469.105 160.201 469.829 160.201 470.631C160.201 471.462 160.295 472.204 160.481 472.857C160.668 473.501 160.934 474.047 161.279 474.495C161.625 474.934 162.045 475.27 162.539 475.503C163.034 475.727 163.585 475.839 164.191 475.839C164.779 475.839 165.265 475.769 165.647 475.629C166.03 475.48 166.347 475.321 166.599 475.153C166.851 474.985 167.061 474.831 167.229 474.691C167.397 474.542 167.57 474.467 167.747 474.467C167.971 474.467 168.144 474.551 168.265 474.719L169.049 475.727C168.723 476.129 168.354 476.469 167.943 476.749C167.542 477.029 167.113 477.258 166.655 477.435C166.198 477.613 165.717 477.743 165.213 477.827C164.719 477.911 164.215 477.953 163.701 477.953C162.815 477.953 161.984 477.79 161.209 477.463C160.444 477.137 159.777 476.661 159.207 476.035C158.647 475.41 158.204 474.645 157.877 473.739C157.551 472.825 157.387 471.789 157.387 470.631C157.387 469.577 157.532 468.601 157.821 467.705C158.12 466.809 158.554 466.039 159.123 465.395C159.702 464.742 160.411 464.233 161.251 463.869C162.091 463.496 163.053 463.309 164.135 463.309C165.153 463.309 166.049 463.473 166.823 463.799C167.598 464.126 168.289 464.588 168.895 465.185L168.167 466.193ZM176.05 477.981C174.902 477.981 174.015 477.659 173.39 477.015C172.774 476.371 172.466 475.452 172.466 474.257V465.745H170.814C170.655 465.745 170.52 465.699 170.408 465.605C170.305 465.503 170.254 465.353 170.254 465.157V464.051L172.564 463.729L173.18 459.487C173.217 459.329 173.287 459.207 173.39 459.123C173.502 459.03 173.642 458.983 173.81 458.983H175.196V463.757H179.228V465.745H175.196V474.075C175.196 474.635 175.331 475.055 175.602 475.335C175.882 475.606 176.236 475.741 176.666 475.741C176.918 475.741 177.132 475.709 177.31 475.643C177.496 475.578 177.655 475.508 177.786 475.433C177.916 475.349 178.028 475.275 178.122 475.209C178.215 475.144 178.299 475.111 178.374 475.111C178.467 475.111 178.537 475.135 178.584 475.181C178.64 475.219 178.696 475.284 178.752 475.377L179.564 476.693C179.116 477.104 178.584 477.421 177.968 477.645C177.352 477.869 176.712 477.981 176.05 477.981ZM197.21 465.983C197.136 466.105 197.056 466.193 196.972 466.249C196.888 466.296 196.781 466.319 196.65 466.319C196.501 466.319 196.333 466.268 196.146 466.165C195.969 466.063 195.75 465.951 195.488 465.829C195.236 465.708 194.938 465.596 194.592 465.493C194.247 465.391 193.836 465.339 193.36 465.339C192.968 465.339 192.609 465.391 192.282 465.493C191.965 465.587 191.694 465.722 191.47 465.899C191.246 466.067 191.074 466.273 190.952 466.515C190.831 466.749 190.77 467.001 190.77 467.271C190.77 467.626 190.873 467.92 191.078 468.153C191.293 468.387 191.568 468.587 191.904 468.755C192.25 468.923 192.637 469.077 193.066 469.217C193.505 469.348 193.948 469.488 194.396 469.637C194.854 469.787 195.297 469.959 195.726 470.155C196.165 470.342 196.552 470.58 196.888 470.869C197.234 471.149 197.509 471.49 197.714 471.891C197.929 472.293 198.036 472.783 198.036 473.361C198.036 474.024 197.915 474.64 197.672 475.209C197.439 475.769 197.089 476.255 196.622 476.665C196.165 477.076 195.596 477.398 194.914 477.631C194.233 477.865 193.454 477.981 192.576 477.981C191.596 477.981 190.691 477.818 189.86 477.491C189.03 477.165 188.334 476.749 187.774 476.245L188.418 475.195C188.493 475.065 188.586 474.967 188.698 474.901C188.81 474.827 188.96 474.789 189.146 474.789C189.324 474.789 189.506 474.855 189.692 474.985C189.879 475.116 190.103 475.261 190.364 475.419C190.626 475.569 190.943 475.709 191.316 475.839C191.69 475.961 192.156 476.021 192.716 476.021C193.183 476.021 193.589 475.965 193.934 475.853C194.28 475.732 194.564 475.573 194.788 475.377C195.022 475.172 195.194 474.939 195.306 474.677C195.418 474.416 195.474 474.141 195.474 473.851C195.474 473.478 195.367 473.17 195.152 472.927C194.947 472.675 194.672 472.461 194.326 472.283C193.99 472.106 193.603 471.952 193.164 471.821C192.726 471.691 192.278 471.551 191.82 471.401C191.363 471.252 190.915 471.079 190.476 470.883C190.038 470.687 189.646 470.44 189.3 470.141C188.964 469.843 188.689 469.479 188.474 469.049C188.269 468.62 188.166 468.097 188.166 467.481C188.166 466.931 188.278 466.403 188.502 465.899C188.736 465.395 189.067 464.952 189.496 464.569C189.935 464.187 190.472 463.883 191.106 463.659C191.75 463.426 192.483 463.309 193.304 463.309C194.247 463.309 195.096 463.459 195.852 463.757C196.618 464.056 197.271 464.467 197.812 464.989L197.21 465.983ZM213.151 463.533L205.255 481.887C205.171 482.093 205.059 482.251 204.919 482.363C204.779 482.475 204.573 482.531 204.303 482.531H202.273L204.877 476.861L199.039 463.533H201.419C201.652 463.533 201.834 463.589 201.965 463.701C202.095 463.813 202.189 463.939 202.245 464.079L205.857 472.619C205.931 472.834 206.001 473.053 206.067 473.277C206.141 473.492 206.202 473.707 206.249 473.921C206.314 473.697 206.384 473.478 206.459 473.263C206.533 473.039 206.613 472.82 206.697 472.605L210.183 464.079C210.248 463.921 210.351 463.79 210.491 463.687C210.631 463.585 210.789 463.533 210.967 463.533H213.151ZM223.378 465.983C223.304 466.105 223.224 466.193 223.14 466.249C223.056 466.296 222.949 466.319 222.818 466.319C222.669 466.319 222.501 466.268 222.314 466.165C222.137 466.063 221.918 465.951 221.656 465.829C221.404 465.708 221.106 465.596 220.76 465.493C220.415 465.391 220.004 465.339 219.528 465.339C219.136 465.339 218.777 465.391 218.45 465.493C218.133 465.587 217.862 465.722 217.638 465.899C217.414 466.067 217.242 466.273 217.12 466.515C216.999 466.749 216.938 467.001 216.938 467.271C216.938 467.626 217.041 467.92 217.246 468.153C217.461 468.387 217.736 468.587 218.072 468.755C218.418 468.923 218.805 469.077 219.234 469.217C219.673 469.348 220.116 469.488 220.564 469.637C221.022 469.787 221.465 469.959 221.894 470.155C222.333 470.342 222.72 470.58 223.056 470.869C223.402 471.149 223.677 471.49 223.882 471.891C224.097 472.293 224.204 472.783 224.204 473.361C224.204 474.024 224.083 474.64 223.84 475.209C223.607 475.769 223.257 476.255 222.79 476.665C222.333 477.076 221.764 477.398 221.082 477.631C220.401 477.865 219.622 477.981 218.744 477.981C217.764 477.981 216.859 477.818 216.028 477.491C215.198 477.165 214.502 476.749 213.942 476.245L214.586 475.195C214.661 475.065 214.754 474.967 214.866 474.901C214.978 474.827 215.128 474.789 215.314 474.789C215.492 474.789 215.674 474.855 215.86 474.985C216.047 475.116 216.271 475.261 216.532 475.419C216.794 475.569 217.111 475.709 217.484 475.839C217.858 475.961 218.324 476.021 218.884 476.021C219.351 476.021 219.757 475.965 220.102 475.853C220.448 475.732 220.732 475.573 220.956 475.377C221.19 475.172 221.362 474.939 221.474 474.677C221.586 474.416 221.642 474.141 221.642 473.851C221.642 473.478 221.535 473.17 221.32 472.927C221.115 472.675 220.84 472.461 220.494 472.283C220.158 472.106 219.771 471.952 219.332 471.821C218.894 471.691 218.446 471.551 217.988 471.401C217.531 471.252 217.083 471.079 216.644 470.883C216.206 470.687 215.814 470.44 215.468 470.141C215.132 469.843 214.857 469.479 214.642 469.049C214.437 468.62 214.334 468.097 214.334 467.481C214.334 466.931 214.446 466.403 214.67 465.899C214.904 465.395 215.235 464.952 215.664 464.569C216.103 464.187 216.64 463.883 217.274 463.659C217.918 463.426 218.651 463.309 219.472 463.309C220.415 463.309 221.264 463.459 222.02 463.757C222.786 464.056 223.439 464.467 223.98 464.989L223.378 465.983ZM231.612 477.981C230.464 477.981 229.578 477.659 228.952 477.015C228.336 476.371 228.028 475.452 228.028 474.257V465.745H226.376C226.218 465.745 226.082 465.699 225.97 465.605C225.868 465.503 225.816 465.353 225.816 465.157V464.051L228.126 463.729L228.742 459.487C228.78 459.329 228.85 459.207 228.952 459.123C229.064 459.03 229.204 458.983 229.372 458.983H230.758V463.757H234.79V465.745H230.758V474.075C230.758 474.635 230.894 475.055 231.164 475.335C231.444 475.606 231.799 475.741 232.228 475.741C232.48 475.741 232.695 475.709 232.872 475.643C233.059 475.578 233.218 475.508 233.348 475.433C233.479 475.349 233.591 475.275 233.684 475.209C233.778 475.144 233.862 475.111 233.936 475.111C234.03 475.111 234.1 475.135 234.146 475.181C234.202 475.219 234.258 475.284 234.314 475.377L235.126 476.693C234.678 477.104 234.146 477.421 233.53 477.645C232.914 477.869 232.275 477.981 231.612 477.981ZM246.645 469.063C246.645 468.522 246.565 468.023 246.407 467.565C246.257 467.108 246.033 466.711 245.735 466.375C245.436 466.039 245.072 465.778 244.643 465.591C244.213 465.405 243.719 465.311 243.159 465.311C242.011 465.311 241.105 465.643 240.443 466.305C239.789 466.968 239.374 467.887 239.197 469.063H246.645ZM248.899 475.727C248.563 476.119 248.175 476.46 247.737 476.749C247.298 477.029 246.831 477.258 246.337 477.435C245.842 477.613 245.329 477.743 244.797 477.827C244.274 477.911 243.756 477.953 243.243 477.953C242.263 477.953 241.353 477.79 240.513 477.463C239.682 477.127 238.959 476.642 238.343 476.007C237.736 475.363 237.26 474.57 236.915 473.627C236.579 472.675 236.411 471.583 236.411 470.351C236.411 469.362 236.565 468.443 236.873 467.593C237.181 466.735 237.619 465.988 238.189 465.353C238.767 464.719 239.472 464.219 240.303 463.855C241.133 463.491 242.067 463.309 243.103 463.309C243.971 463.309 244.769 463.454 245.497 463.743C246.234 464.023 246.869 464.434 247.401 464.975C247.933 465.517 248.348 466.184 248.647 466.977C248.955 467.771 249.109 468.676 249.109 469.693C249.109 470.113 249.062 470.398 248.969 470.547C248.875 470.687 248.703 470.757 248.451 470.757H239.127C239.155 471.607 239.276 472.349 239.491 472.983C239.705 473.609 239.999 474.131 240.373 474.551C240.755 474.971 241.208 475.284 241.731 475.489C242.253 475.695 242.837 475.797 243.481 475.797C244.087 475.797 244.61 475.727 245.049 475.587C245.497 475.447 245.879 475.298 246.197 475.139C246.523 474.971 246.794 474.817 247.009 474.677C247.233 474.537 247.429 474.467 247.597 474.467C247.821 474.467 247.993 474.551 248.115 474.719L248.899 475.727ZM252.043 477.757V463.533H253.681C254.064 463.533 254.302 463.715 254.395 464.079L254.591 465.437C255.114 464.812 255.692 464.303 256.327 463.911C256.971 463.51 257.722 463.309 258.581 463.309C259.524 463.309 260.289 463.571 260.877 464.093C261.465 464.607 261.894 465.307 262.165 466.193C262.37 465.689 262.636 465.255 262.963 464.891C263.29 464.527 263.654 464.229 264.055 463.995C264.456 463.762 264.881 463.589 265.329 463.477C265.786 463.365 266.248 463.309 266.715 463.309C267.471 463.309 268.143 463.431 268.731 463.673C269.328 463.907 269.832 464.252 270.243 464.709C270.654 465.167 270.966 465.731 271.181 466.403C271.396 467.075 271.503 467.841 271.503 468.699V477.757H268.759V468.699C268.759 467.635 268.526 466.833 268.059 466.291C267.602 465.75 266.93 465.479 266.043 465.479C265.651 465.479 265.278 465.549 264.923 465.689C264.568 465.82 264.256 466.021 263.985 466.291C263.724 466.562 263.514 466.898 263.355 467.299C263.206 467.701 263.131 468.167 263.131 468.699V477.757H260.387V468.699C260.387 467.598 260.168 466.786 259.729 466.263C259.29 465.741 258.646 465.479 257.797 465.479C257.209 465.479 256.663 465.633 256.159 465.941C255.655 466.249 255.193 466.669 254.773 467.201V477.757H252.043ZM289.902 471.443C288.791 471.481 287.849 471.569 287.074 471.709C286.299 471.84 285.669 472.017 285.184 472.241C284.699 472.465 284.349 472.731 284.134 473.039C283.919 473.338 283.812 473.674 283.812 474.047C283.812 474.402 283.868 474.71 283.98 474.971C284.101 475.223 284.26 475.433 284.456 475.601C284.661 475.76 284.899 475.877 285.17 475.951C285.441 476.026 285.735 476.063 286.052 476.063C286.472 476.063 286.855 476.021 287.2 475.937C287.555 475.853 287.886 475.737 288.194 475.587C288.502 475.429 288.796 475.237 289.076 475.013C289.356 474.789 289.631 474.533 289.902 474.243V471.443ZM281.894 465.521C282.687 464.765 283.546 464.201 284.47 463.827C285.403 463.454 286.425 463.267 287.536 463.267C288.348 463.267 289.067 463.403 289.692 463.673C290.317 463.935 290.845 464.303 291.274 464.779C291.703 465.255 292.025 465.825 292.24 466.487C292.464 467.15 292.576 467.883 292.576 468.685V477.757H291.358C291.087 477.757 290.882 477.715 290.742 477.631C290.602 477.538 290.49 477.37 290.406 477.127L290.112 475.881C289.748 476.217 289.389 476.516 289.034 476.777C288.679 477.029 288.306 477.249 287.914 477.435C287.531 477.613 287.121 477.748 286.682 477.841C286.243 477.935 285.758 477.981 285.226 477.981C284.666 477.981 284.139 477.907 283.644 477.757C283.159 477.599 282.734 477.361 282.37 477.043C282.006 476.726 281.717 476.329 281.502 475.853C281.297 475.377 281.194 474.822 281.194 474.187C281.194 473.627 281.343 473.091 281.642 472.577C281.95 472.055 282.445 471.588 283.126 471.177C283.817 470.767 284.713 470.431 285.814 470.169C286.925 469.908 288.287 469.759 289.902 469.721V468.685C289.902 467.612 289.673 466.809 289.216 466.277C288.759 465.745 288.087 465.479 287.2 465.479C286.603 465.479 286.099 465.554 285.688 465.703C285.287 465.853 284.937 466.021 284.638 466.207C284.349 466.385 284.092 466.548 283.868 466.697C283.653 466.847 283.429 466.921 283.196 466.921C283.009 466.921 282.846 466.87 282.706 466.767C282.575 466.665 282.468 466.543 282.384 466.403L281.894 465.521ZM305.401 466.977C304.953 466.389 304.467 465.979 303.945 465.745C303.431 465.512 302.853 465.395 302.209 465.395C300.958 465.395 299.987 465.848 299.297 466.753C298.615 467.649 298.275 468.961 298.275 470.687C298.275 471.593 298.349 472.367 298.499 473.011C298.657 473.646 298.881 474.169 299.171 474.579C299.469 474.981 299.833 475.279 300.263 475.475C300.692 475.662 301.177 475.755 301.719 475.755C302.512 475.755 303.198 475.578 303.777 475.223C304.355 474.869 304.897 474.369 305.401 473.725V466.977ZM308.145 457.093V477.757H306.493C306.11 477.757 305.872 477.575 305.779 477.211L305.541 475.573C304.934 476.292 304.243 476.871 303.469 477.309C302.703 477.739 301.817 477.953 300.809 477.953C299.997 477.953 299.259 477.795 298.597 477.477C297.943 477.16 297.383 476.698 296.917 476.091C296.45 475.475 296.091 474.715 295.839 473.809C295.587 472.904 295.461 471.863 295.461 470.687C295.461 469.633 295.601 468.653 295.881 467.747C296.161 466.842 296.567 466.058 297.099 465.395C297.631 464.733 298.275 464.215 299.031 463.841C299.787 463.459 300.641 463.267 301.593 463.267C302.451 463.267 303.179 463.407 303.777 463.687C304.383 463.967 304.925 464.364 305.401 464.877V457.093H308.145ZM311.953 477.757V463.533H313.591C313.974 463.533 314.212 463.715 314.305 464.079L314.501 465.437C315.024 464.812 315.602 464.303 316.237 463.911C316.881 463.51 317.632 463.309 318.491 463.309C319.434 463.309 320.199 463.571 320.787 464.093C321.375 464.607 321.804 465.307 322.075 466.193C322.28 465.689 322.546 465.255 322.873 464.891C323.2 464.527 323.564 464.229 323.965 463.995C324.366 463.762 324.791 463.589 325.239 463.477C325.696 463.365 326.158 463.309 326.625 463.309C327.381 463.309 328.053 463.431 328.641 463.673C329.238 463.907 329.742 464.252 330.153 464.709C330.564 465.167 330.876 465.731 331.091 466.403C331.306 467.075 331.413 467.841 331.413 468.699V477.757H328.669V468.699C328.669 467.635 328.436 466.833 327.969 466.291C327.512 465.75 326.84 465.479 325.953 465.479C325.561 465.479 325.188 465.549 324.833 465.689C324.478 465.82 324.166 466.021 323.895 466.291C323.634 466.562 323.424 466.898 323.265 467.299C323.116 467.701 323.041 468.167 323.041 468.699V477.757H320.297V468.699C320.297 467.598 320.078 466.786 319.639 466.263C319.2 465.741 318.556 465.479 317.707 465.479C317.119 465.479 316.573 465.633 316.069 465.941C315.565 466.249 315.103 466.669 314.683 467.201V477.757H311.953ZM337.942 463.533V477.757H335.212V463.533H337.942ZM338.46 459.137C338.46 459.389 338.409 459.632 338.306 459.865C338.203 460.089 338.063 460.29 337.886 460.467C337.718 460.635 337.517 460.771 337.284 460.873C337.051 460.967 336.808 461.013 336.556 461.013C336.304 461.013 336.066 460.967 335.842 460.873C335.618 460.771 335.417 460.635 335.24 460.467C335.072 460.29 334.937 460.089 334.834 459.865C334.741 459.632 334.694 459.389 334.694 459.137C334.694 458.876 334.741 458.633 334.834 458.409C334.937 458.176 335.072 457.975 335.24 457.807C335.417 457.63 335.618 457.495 335.842 457.401C336.066 457.299 336.304 457.247 336.556 457.247C336.808 457.247 337.051 457.299 337.284 457.401C337.517 457.495 337.718 457.63 337.886 457.807C338.063 457.975 338.203 458.176 338.306 458.409C338.409 458.633 338.46 458.876 338.46 459.137ZM344.457 465.507C344.765 465.181 345.087 464.882 345.423 464.611C345.759 464.341 346.113 464.112 346.487 463.925C346.869 463.729 347.275 463.58 347.705 463.477C348.143 463.365 348.61 463.309 349.105 463.309C349.889 463.309 350.575 463.44 351.163 463.701C351.76 463.963 352.259 464.331 352.661 464.807C353.062 465.274 353.365 465.839 353.571 466.501C353.776 467.164 353.879 467.897 353.879 468.699V477.757H351.135V468.699C351.135 467.682 350.901 466.893 350.435 466.333C349.968 465.764 349.254 465.479 348.293 465.479C347.593 465.479 346.935 465.647 346.319 465.983C345.712 466.31 345.147 466.758 344.625 467.327V477.757H341.895V463.533H343.533C343.915 463.533 344.153 463.715 344.247 464.079L344.457 465.507ZM360.419 463.533V477.757H357.689V463.533H360.419ZM360.937 459.137C360.937 459.389 360.885 459.632 360.783 459.865C360.68 460.089 360.54 460.29 360.363 460.467C360.195 460.635 359.994 460.771 359.761 460.873C359.527 460.967 359.285 461.013 359.033 461.013C358.781 461.013 358.543 460.967 358.319 460.873C358.095 460.771 357.894 460.635 357.717 460.467C357.549 460.29 357.413 460.089 357.311 459.865C357.217 459.632 357.171 459.389 357.171 459.137C357.171 458.876 357.217 458.633 357.311 458.409C357.413 458.176 357.549 457.975 357.717 457.807C357.894 457.63 358.095 457.495 358.319 457.401C358.543 457.299 358.781 457.247 359.033 457.247C359.285 457.247 359.527 457.299 359.761 457.401C359.994 457.495 360.195 457.63 360.363 457.807C360.54 457.975 360.68 458.176 360.783 458.409C360.885 458.633 360.937 458.876 360.937 459.137ZM372.757 465.983C372.682 466.105 372.603 466.193 372.519 466.249C372.435 466.296 372.328 466.319 372.197 466.319C372.048 466.319 371.88 466.268 371.693 466.165C371.516 466.063 371.296 465.951 371.035 465.829C370.783 465.708 370.484 465.596 370.139 465.493C369.794 465.391 369.383 465.339 368.907 465.339C368.515 465.339 368.156 465.391 367.829 465.493C367.512 465.587 367.241 465.722 367.017 465.899C366.793 466.067 366.62 466.273 366.499 466.515C366.378 466.749 366.317 467.001 366.317 467.271C366.317 467.626 366.42 467.92 366.625 468.153C366.84 468.387 367.115 468.587 367.451 468.755C367.796 468.923 368.184 469.077 368.613 469.217C369.052 469.348 369.495 469.488 369.943 469.637C370.4 469.787 370.844 469.959 371.273 470.155C371.712 470.342 372.099 470.58 372.435 470.869C372.78 471.149 373.056 471.49 373.261 471.891C373.476 472.293 373.583 472.783 373.583 473.361C373.583 474.024 373.462 474.64 373.219 475.209C372.986 475.769 372.636 476.255 372.169 476.665C371.712 477.076 371.142 477.398 370.461 477.631C369.78 477.865 369 477.981 368.123 477.981C367.143 477.981 366.238 477.818 365.407 477.491C364.576 477.165 363.881 476.749 363.321 476.245L363.965 475.195C364.04 475.065 364.133 474.967 364.245 474.901C364.357 474.827 364.506 474.789 364.693 474.789C364.87 474.789 365.052 474.855 365.239 474.985C365.426 475.116 365.65 475.261 365.911 475.419C366.172 475.569 366.49 475.709 366.863 475.839C367.236 475.961 367.703 476.021 368.263 476.021C368.73 476.021 369.136 475.965 369.481 475.853C369.826 475.732 370.111 475.573 370.335 475.377C370.568 475.172 370.741 474.939 370.853 474.677C370.965 474.416 371.021 474.141 371.021 473.851C371.021 473.478 370.914 473.17 370.699 472.927C370.494 472.675 370.218 472.461 369.873 472.283C369.537 472.106 369.15 471.952 368.711 471.821C368.272 471.691 367.824 471.551 367.367 471.401C366.91 471.252 366.462 471.079 366.023 470.883C365.584 470.687 365.192 470.44 364.847 470.141C364.511 469.843 364.236 469.479 364.021 469.049C363.816 468.62 363.713 468.097 363.713 467.481C363.713 466.931 363.825 466.403 364.049 465.899C364.282 465.395 364.614 464.952 365.043 464.569C365.482 464.187 366.018 463.883 366.653 463.659C367.297 463.426 368.03 463.309 368.851 463.309C369.794 463.309 370.643 463.459 371.399 463.757C372.164 464.056 372.818 464.467 373.359 464.989L372.757 465.983ZM380.991 477.981C379.843 477.981 378.956 477.659 378.331 477.015C377.715 476.371 377.407 475.452 377.407 474.257V465.745H375.755C375.596 465.745 375.461 465.699 375.349 465.605C375.246 465.503 375.195 465.353 375.195 465.157V464.051L377.505 463.729L378.121 459.487C378.158 459.329 378.228 459.207 378.331 459.123C378.443 459.03 378.583 458.983 378.751 458.983H380.137V463.757H384.169V465.745H380.137V474.075C380.137 474.635 380.272 475.055 380.543 475.335C380.823 475.606 381.178 475.741 381.607 475.741C381.859 475.741 382.074 475.709 382.251 475.643C382.438 475.578 382.596 475.508 382.727 475.433C382.858 475.349 382.97 475.275 383.063 475.209C383.156 475.144 383.24 475.111 383.315 475.111C383.408 475.111 383.478 475.135 383.525 475.181C383.581 475.219 383.637 475.284 383.693 475.377L384.505 476.693C384.057 477.104 383.525 477.421 382.909 477.645C382.293 477.869 381.654 477.981 380.991 477.981ZM389.26 466.263C389.717 465.33 390.268 464.597 390.912 464.065C391.556 463.533 392.33 463.267 393.236 463.267C393.544 463.267 393.833 463.305 394.104 463.379C394.384 463.445 394.626 463.547 394.832 463.687L394.65 465.745C394.584 465.997 394.43 466.123 394.188 466.123C394.057 466.123 393.861 466.1 393.6 466.053C393.338 465.997 393.058 465.969 392.76 465.969C392.321 465.969 391.934 466.035 391.598 466.165C391.262 466.287 390.958 466.473 390.688 466.725C390.426 466.968 390.193 467.271 389.988 467.635C389.782 467.99 389.591 468.396 389.414 468.853V477.757H386.684V463.533H388.252C388.55 463.533 388.751 463.589 388.854 463.701C388.966 463.804 389.045 463.991 389.092 464.261L389.26 466.263ZM404.363 471.443C403.252 471.481 402.309 471.569 401.535 471.709C400.76 471.84 400.13 472.017 399.645 472.241C399.159 472.465 398.809 472.731 398.595 473.039C398.38 473.338 398.273 473.674 398.273 474.047C398.273 474.402 398.329 474.71 398.441 474.971C398.562 475.223 398.721 475.433 398.917 475.601C399.122 475.76 399.36 475.877 399.631 475.951C399.901 476.026 400.195 476.063 400.513 476.063C400.933 476.063 401.315 476.021 401.661 475.937C402.015 475.853 402.347 475.737 402.655 475.587C402.963 475.429 403.257 475.237 403.537 475.013C403.817 474.789 404.092 474.533 404.363 474.243V471.443ZM396.355 465.521C397.148 464.765 398.007 464.201 398.931 463.827C399.864 463.454 400.886 463.267 401.997 463.267C402.809 463.267 403.527 463.403 404.153 463.673C404.778 463.935 405.305 464.303 405.735 464.779C406.164 465.255 406.486 465.825 406.701 466.487C406.925 467.15 407.037 467.883 407.037 468.685V477.757H405.819C405.548 477.757 405.343 477.715 405.203 477.631C405.063 477.538 404.951 477.37 404.867 477.127L404.573 475.881C404.209 476.217 403.849 476.516 403.495 476.777C403.14 477.029 402.767 477.249 402.375 477.435C401.992 477.613 401.581 477.748 401.143 477.841C400.704 477.935 400.219 477.981 399.687 477.981C399.127 477.981 398.599 477.907 398.105 477.757C397.619 477.599 397.195 477.361 396.831 477.043C396.467 476.726 396.177 476.329 395.963 475.853C395.757 475.377 395.655 474.822 395.655 474.187C395.655 473.627 395.804 473.091 396.103 472.577C396.411 472.055 396.905 471.588 397.587 471.177C398.277 470.767 399.173 470.431 400.275 470.169C401.385 469.908 402.748 469.759 404.363 469.721V468.685C404.363 467.612 404.134 466.809 403.677 466.277C403.219 465.745 402.547 465.479 401.661 465.479C401.063 465.479 400.559 465.554 400.149 465.703C399.747 465.853 399.397 466.021 399.099 466.207C398.809 466.385 398.553 466.548 398.329 466.697C398.114 466.847 397.89 466.921 397.657 466.921C397.47 466.921 397.307 466.87 397.167 466.767C397.036 466.665 396.929 466.543 396.845 466.403L396.355 465.521ZM414.952 477.981C413.804 477.981 412.917 477.659 412.292 477.015C411.676 476.371 411.368 475.452 411.368 474.257V465.745H409.716C409.557 465.745 409.422 465.699 409.31 465.605C409.207 465.503 409.156 465.353 409.156 465.157V464.051L411.466 463.729L412.082 459.487C412.119 459.329 412.189 459.207 412.292 459.123C412.404 459.03 412.544 458.983 412.712 458.983H414.098V463.757H418.13V465.745H414.098V474.075C414.098 474.635 414.233 475.055 414.504 475.335C414.784 475.606 415.139 475.741 415.568 475.741C415.82 475.741 416.035 475.709 416.212 475.643C416.399 475.578 416.557 475.508 416.688 475.433C416.819 475.349 416.931 475.275 417.024 475.209C417.117 475.144 417.201 475.111 417.276 475.111C417.369 475.111 417.439 475.135 417.486 475.181C417.542 475.219 417.598 475.284 417.654 475.377L418.466 476.693C418.018 477.104 417.486 477.421 416.87 477.645C416.254 477.869 415.615 477.981 414.952 477.981ZM426.625 463.309C427.67 463.309 428.613 463.482 429.453 463.827C430.302 464.163 431.021 464.653 431.609 465.297C432.206 465.932 432.663 466.702 432.981 467.607C433.298 468.503 433.457 469.511 433.457 470.631C433.457 471.751 433.298 472.764 432.981 473.669C432.663 474.575 432.206 475.345 431.609 475.979C431.021 476.614 430.302 477.104 429.453 477.449C428.613 477.785 427.67 477.953 426.625 477.953C425.57 477.953 424.618 477.785 423.769 477.449C422.929 477.104 422.21 476.614 421.613 475.979C421.015 475.345 420.553 474.575 420.227 473.669C419.909 472.764 419.751 471.751 419.751 470.631C419.751 469.511 419.909 468.503 420.227 467.607C420.553 466.702 421.015 465.932 421.613 465.297C422.21 464.653 422.929 464.163 423.769 463.827C424.618 463.482 425.57 463.309 426.625 463.309ZM426.625 475.825C427.969 475.825 428.972 475.373 429.635 474.467C430.297 473.562 430.629 472.288 430.629 470.645C430.629 469.003 430.297 467.729 429.635 466.823C428.972 465.909 427.969 465.451 426.625 465.451C425.262 465.451 424.245 465.909 423.573 466.823C422.91 467.729 422.579 469.003 422.579 470.645C422.579 472.288 422.91 473.562 423.573 474.467C424.245 475.373 425.262 475.825 426.625 475.825ZM439.08 466.263C439.537 465.33 440.088 464.597 440.732 464.065C441.376 463.533 442.151 463.267 443.056 463.267C443.364 463.267 443.653 463.305 443.924 463.379C444.204 463.445 444.447 463.547 444.652 463.687L444.47 465.745C444.405 465.997 444.251 466.123 444.008 466.123C443.877 466.123 443.681 466.1 443.42 466.053C443.159 465.997 442.879 465.969 442.58 465.969C442.141 465.969 441.754 466.035 441.418 466.165C441.082 466.287 440.779 466.473 440.508 466.725C440.247 466.968 440.013 467.271 439.808 467.635C439.603 467.99 439.411 468.396 439.234 468.853V477.757H436.504V463.533H438.072C438.371 463.533 438.571 463.589 438.674 463.701C438.786 463.804 438.865 463.991 438.912 464.261L439.08 466.263Z" fill="#444444"/>
<path d="M50.908 324.532C50.908 324.532 27.4417 274.549 32.5386 273.109C37.6354 271.669 48.3217 279.627 48.3217 279.627C48.3217 279.627 16.9638 195.596 25.0828 189.078C33.2017 182.56 48.3596 215.917 48.3596 215.917C48.3596 215.917 32.1691 164.446 34.0733 144.864C35.9775 125.282 56.5449 144.144 56.5449 144.144C56.5449 144.144 40.0701 73.8776 55.3701 70.2492C70.6701 66.6208 70.1586 150.652 70.1586 150.652C70.1586 150.652 75.1796 90.5229 81.3091 107.187C87.4386 123.851 74.5544 179.623 74.5544 179.623C74.5544 179.623 82.9575 160.789 87.628 178.173C92.2986 195.558 78.3438 265.824 78.3438 265.824C78.3438 265.824 90.2049 254.238 91.3133 268.723C92.4217 283.208 66.7575 328.123 66.7575 328.123L52.2344 329.601L50.908 324.532Z" fill="#1A1D1F"/>
<path opacity="0.6" d="M50.908 324.532C50.908 324.532 27.4417 274.549 32.5386 273.109C37.6354 271.669 48.3217 279.627 48.3217 279.627C48.3217 279.627 16.9638 195.596 25.0828 189.078C33.2017 182.56 48.3596 215.917 48.3596 215.917C48.3596 215.917 32.1691 164.446 34.0733 144.864C35.9775 125.282 56.5449 144.144 56.5449 144.144C56.5449 144.144 40.0701 73.8776 55.3701 70.2492C70.6701 66.6208 70.1586 150.652 70.1586 150.652C70.1586 150.652 75.1796 90.5229 81.3091 107.187C87.4386 123.851 74.5544 179.623 74.5544 179.623C74.5544 179.623 82.9575 160.789 87.628 178.173C92.2986 195.558 78.3438 265.824 78.3438 265.824C78.3438 265.824 90.2049 254.238 91.3133 268.723C92.4217 283.208 66.7575 328.123 66.7575 328.123L52.2344 329.601L50.908 324.532Z" fill="white"/>
<path d="M55.9093 326.759C55.9093 326.759 36.3556 291.99 39.9745 285.463C43.5935 278.936 54.4598 294.16 54.4598 294.16C54.4598 294.16 29.8282 232.581 33.4566 226.792C37.0851 221.004 48.6714 246.356 48.6714 246.356C48.6714 246.356 44.3419 161.557 51.5608 164.446C58.7798 167.335 59.4998 207.911 59.4998 207.911C59.4998 207.911 55.1608 111.573 61.6787 114.472C68.1966 117.371 67.4766 224.576 67.4766 224.576C67.4766 224.576 80.5124 183.28 82.6345 202.113C84.7566 220.947 65.9798 271.66 65.9798 271.66C65.9798 271.66 84.1314 231.813 86.3387 252.864C88.5461 273.914 71.8156 312.946 71.8156 312.946C71.8156 312.946 78.3335 297.011 78.3335 305.699C78.3335 314.386 73.2651 325.262 73.2651 325.262" stroke="#263238" stroke-linecap="round" stroke-linejoin="round"/>
<path d="M31.4866 285.51L19.0098 326.626H52.8024L65.6582 285.728L31.4866 285.51Z" fill="#263238" stroke="#263238" stroke-linecap="round" stroke-linejoin="round"/>
<path d="M110.279 326.56H39.8611L31.4863 285.51H101.904L110.279 326.56Z" fill="white" stroke="#263238" stroke-linecap="round" stroke-linejoin="round"/>
<path d="M103.022 319.615H44.2848L39.8984 298.139H98.6353L103.022 319.615Z" stroke="#263238" stroke-linecap="round" stroke-linejoin="round"/>
<path d="M44.9492 298.224L49.2976 319.521" stroke="#263238" stroke-linecap="round" stroke-linejoin="round"/>
<path d="M50.3398 298.224L54.6883 319.521" stroke="#263238" stroke-linecap="round" stroke-linejoin="round"/>
<path d="M55.7305 298.224L60.0789 319.521" stroke="#263238" stroke-linecap="round" stroke-linejoin="round"/>
<path d="M61.1113 298.224L65.4598 319.521" stroke="#263238" stroke-linecap="round" stroke-linejoin="round"/>
<path d="M66.502 298.224L70.8504 319.521" stroke="#263238" stroke-linecap="round" stroke-linejoin="round"/>
<path d="M71.8926 298.224L76.241 319.521" stroke="#263238" stroke-linecap="round" stroke-linejoin="round"/>
<path d="M77.2734 298.224L81.6219 319.521" stroke="#263238" stroke-linecap="round" stroke-linejoin="round"/>
<path d="M82.6641 298.224L87.0125 319.521" stroke="#263238" stroke-linecap="round" stroke-linejoin="round"/>
<path d="M88.0449 298.224L92.3933 319.521" stroke="#263238" stroke-linecap="round" stroke-linejoin="round"/>
<path d="M93.4355 298.224L97.784 319.521" stroke="#263238" stroke-linecap="round" stroke-linejoin="round"/>
<path d="M40.9043 302.383H99.3096" stroke="#263238" stroke-linecap="round" stroke-linejoin="round"/>
<path d="M41.7754 306.665H100.181" stroke="#263238" stroke-linecap="round" stroke-linejoin="round"/>
<path d="M42.6562 310.957H101.052" stroke="#263238" stroke-linecap="round" stroke-linejoin="round"/>
<path d="M43.5273 315.239H101.933" stroke="#263238" stroke-linecap="round" stroke-linejoin="round"/>
<path d="M65.4881 294.425H39.4071L38.9902 292.341H65.0618L65.4881 294.425Z" fill="#263238"/>
<path d="M421.395 221.601H336.454C332.457 221.696 328.626 223.216 325.652 225.888C322.677 228.56 320.756 232.207 320.236 236.171L309.814 328.284H409.288L421.395 221.601Z" fill="white" stroke="#263238" stroke-linecap="round" stroke-linejoin="round"/>
<path d="M421.841 221.601C418.52 221.679 415.336 222.942 412.866 225.163C410.395 227.383 408.8 230.414 408.369 233.708L397.654 328.284H421.85L432.574 233.708C432.795 232.183 432.681 230.629 432.239 229.153C431.798 227.677 431.04 226.316 430.018 225.163C428.996 224.01 427.735 223.094 426.322 222.479C424.91 221.864 423.381 221.564 421.841 221.601Z" fill="#263238" stroke="#263238" stroke-linecap="round" stroke-linejoin="round"/>
<path d="M308.933 193.928C302.964 198.191 296.512 201.733 289.711 204.482C277.651 209.503 272.801 211.019 272.801 211.019L276.145 326.408H363.701C363.701 326.408 352.474 254.058 352.474 229.777C352.474 205.496 353.479 200.759 353.479 200.759L324.679 193.388L308.933 193.928Z" fill="#1A1D1F" stroke="#263238" stroke-linecap="round" stroke-linejoin="round"/>
<path d="M299.385 198.788C296.655 218.386 295.036 238.123 294.535 257.904C294.033 287.547 299.726 327.062 299.726 327.062H235.58C243.557 311.972 249.262 295.787 252.51 279.03C257.246 255.033 261.036 214.353 262.04 213.851C263.044 213.349 297.045 200.759 299.385 198.788Z" fill="#263238" stroke="#263238" stroke-linecap="round" stroke-linejoin="round"/>
<path d="M270.253 327.071C270.253 327.071 263.716 282.857 264.047 272.474C264.379 262.091 266.027 226.925 266.027 226.925" stroke="#616161" stroke-linecap="round" stroke-linejoin="round"/>
<path d="M335.393 195.776C335.393 195.776 327.189 233.452 326.516 264.441C325.843 295.429 323.674 327.242 323.674 327.242H375.542C375.542 327.242 376.215 298.935 375.542 289.224C374.87 279.514 374.87 281.522 374.87 281.522L394.973 286.714C394.973 286.714 382.07 224.576 379.73 217.717C377.39 210.858 378.555 208.669 377.049 207.495C375.542 206.32 335.393 195.776 335.393 195.776Z" fill="#263238" stroke="#263238" stroke-linecap="round" stroke-linejoin="round"/>
<path d="M241.709 301.454C243.061 303.527 244.651 305.435 246.446 307.139C248.748 309.109 253.683 308.086 256.308 310.776C258.932 313.467 256.061 321.681 252.746 324.551C247.061 329.449 250.074 314.585 250.074 314.585C248.07 315.959 245.856 316.999 243.518 317.664C240.297 318.403 232.008 315.883 229.232 315.769C226.456 315.655 222.6 315.125 221.122 312.036C219.645 308.948 228.815 305.225 232.889 303.747C235.766 302.759 238.715 301.993 241.709 301.454Z" fill="white" stroke="#263238" stroke-linecap="round" stroke-linejoin="round"/>
<path d="M224.163 305.812C223.287 305.578 222.362 305.606 221.501 305.893C220.641 306.179 219.884 306.711 219.322 307.423C217.427 309.914 213.638 321.169 214.746 323.338C215.855 325.508 218.725 322.467 220.089 318.895C220.671 317.174 221.447 315.524 222.401 313.978C222.401 313.978 223.898 314.708 224.949 312.756C226.001 310.805 227.062 307.877 224.163 305.812Z" fill="white" stroke="#263238" stroke-linecap="round" stroke-linejoin="round"/>
<path d="M229.524 303.851C228.607 303.323 227.534 303.129 226.489 303.302C225.445 303.474 224.492 304.003 223.793 304.799C221.131 307.641 222.959 319.587 224.371 323.244C225.782 326.901 228.454 326.446 228.852 324.191C229.25 321.937 229.704 310.691 229.847 308.086C229.964 306.666 229.855 305.237 229.524 303.851Z" fill="white" stroke="#263238" stroke-linecap="round" stroke-linejoin="round"/>
<path d="M235.209 302.563C234.304 301.992 233.22 301.774 232.164 301.948C231.108 302.123 230.152 302.679 229.478 303.51C226.835 306.513 228.786 319.151 230.236 323.035C231.685 326.92 234.357 326.465 234.736 324.049C235.115 321.633 235.456 309.763 235.569 306.997C235.666 305.509 235.545 304.015 235.209 302.563Z" fill="white" stroke="#263238" stroke-linecap="round" stroke-linejoin="round"/>
<path d="M243.527 304.097C243.527 304.097 241.32 299.162 237.72 299.976C234.12 300.791 232.983 305.661 233.646 313.05C234.309 320.439 235.692 326.313 237.701 326.522C239.709 326.73 241.898 322.268 242.296 316.498C242.693 310.729 243.29 307.281 243.29 307.281" fill="white"/>
<path d="M243.527 304.097C243.527 304.097 241.32 299.162 237.72 299.976C234.12 300.791 232.983 305.661 233.646 313.05C234.309 320.439 235.692 326.313 237.701 326.522C239.709 326.73 241.898 322.268 242.296 316.498C242.693 310.729 243.29 307.281 243.29 307.281" stroke="#263238" stroke-linecap="round" stroke-linejoin="round"/>
<path d="M289.816 252.457H267.486V286.732H289.816V252.457Z" fill="#1A1D1F" stroke="#263238" stroke-linecap="round" stroke-linejoin="round"/>
<path d="M280.209 242.471H276.098V258.33H280.209V242.471Z" fill="white" stroke="#263238" stroke-linecap="round" stroke-linejoin="round"/>
<path d="M282.56 262.053H272.963V274.587H282.56V262.053Z" fill="white" stroke="#263238" stroke-linecap="round" stroke-linejoin="round"/>
<path d="M271.398 278.31H284.519" stroke="#263238" stroke-linecap="round" stroke-linejoin="round"/>
<path d="M269.438 281.048H286.282" stroke="#263238" stroke-linecap="round" stroke-linejoin="round"/>
<path d="M306.594 189.078C306.594 189.078 299.384 193.928 298.067 197.784C296.75 201.64 291.199 218.048 289.02 224.244C286.841 230.44 274.449 235.802 276.126 236.977C277.803 238.151 294.05 239.648 294.05 239.648C294.05 239.648 297.736 254.058 298.569 257.743C299.403 261.428 304.434 272.645 304.434 272.645C304.434 272.645 319.336 254.721 321.685 249.908C323.299 246.654 325.145 243.519 327.208 240.529C327.208 240.529 333.575 242.036 337.629 242.708C341.684 243.381 352.702 244.376 352.2 242.538C351.698 240.7 346.175 232.657 343.996 224.784C341.817 216.911 343.152 199.66 340.481 192.962C337.809 186.264 331.955 185.26 329.927 184.758C327.9 184.256 309.606 186.226 306.594 189.078Z" fill="#1A1D1F" stroke="#263238" stroke-linecap="round" stroke-linejoin="round"/>
<path d="M304.244 183.886C304.244 183.886 306.423 196.107 306.138 205.988C305.854 215.869 302.283 237.981 302.453 249.368C302.623 256.932 303.237 264.48 304.291 271.972C304.291 271.972 320.709 249.368 326.734 230.942C332.759 212.515 334.436 196.78 334.436 195.605C334.436 194.43 334.768 167.136 334.768 167.136C334.768 167.136 317.308 185.392 304.244 183.886Z" fill="white" stroke="#263238" stroke-linecap="round" stroke-linejoin="round"/>
<path d="M334.588 178.723C334.655 172.584 334.721 167.136 334.721 167.136C334.721 167.136 317.308 185.392 304.244 183.886C304.244 183.886 304.86 187.325 305.381 192.033C307.09 193.204 308.987 194.072 310.989 194.601C317.034 195.813 323.807 192.431 328.402 186.624C330.098 184.483 332.343 181.565 334.588 178.723Z" fill="#263238" stroke="#263238" stroke-linecap="round" stroke-linejoin="round"/>
<path d="M346.535 123.254C355.739 123.254 363.2 115.87 363.2 106.761C363.2 97.6516 355.739 90.2671 346.535 90.2671C337.332 90.2671 329.871 97.6516 329.871 106.761C329.871 115.87 337.332 123.254 346.535 123.254Z" fill="#263238" stroke="#263238" stroke-linecap="round" stroke-linejoin="round"/>
<path d="M279.053 135.58C279.053 135.58 270.11 133.154 268.632 128.323C267.154 123.491 272.507 106.533 289.919 97.8459C307.332 89.1585 323.305 93.9711 330.315 95.9038C337.326 97.8364 342.413 101.474 347.008 114.292C351.603 127.11 351.839 137.029 350.39 141.861C349.528 144.75 348.477 147.579 347.245 150.33C347.245 150.33 338.301 151.277 335.876 147.668C333.451 144.059 334.427 125.879 324.025 121.549C313.623 117.22 293.794 119.654 288.972 123.965C284.15 128.275 279.053 135.58 279.053 135.58Z" fill="#263238" stroke="#263238" stroke-linecap="round" stroke-linejoin="round"/>
<path d="M277.604 132.435C277.604 132.435 279.782 146.219 279.782 153.712C279.782 161.206 285.827 171.618 288.972 174.554C292.117 177.491 302.519 187.372 308.564 188.585C314.608 189.798 321.381 186.406 325.976 180.599C330.571 174.791 339.524 163.186 339.524 163.186C341.52 163.408 343.531 162.926 345.209 161.822C346.887 160.718 348.127 159.063 348.713 157.142C351.138 150.122 349.926 142.145 345.814 141.179C341.702 140.212 338.804 145.044 338.804 145.044C338.804 145.044 335.412 131.989 331.064 125.452L324.773 115.979L332.797 105.946C332.885 105.837 332.949 105.711 332.986 105.576C333.023 105.442 333.033 105.301 333.013 105.162C332.993 105.023 332.946 104.89 332.873 104.771C332.8 104.652 332.703 104.549 332.589 104.468C332.373 104.314 332.106 104.248 331.843 104.285C331.58 104.322 331.342 104.459 331.177 104.667L323.324 114.776C323.324 114.776 307.844 112.113 294.296 118.887C280.749 125.661 277.604 132.435 277.604 132.435Z" fill="white" stroke="#263238" stroke-linecap="round" stroke-linejoin="round"/>
<path d="M327.304 146.048L325.125 148.957" stroke="#263238" stroke-linecap="round" stroke-linejoin="round"/>
<path d="M297.441 162.665C297.441 162.665 297.925 164.114 301.07 164.844C302.537 165.185 304.072 165.093 305.489 164.578C306.905 164.064 308.141 163.149 309.047 161.945" stroke="#263238" stroke-linecap="round" stroke-linejoin="round"/>
<path d="M301.08 170.443C304.062 171.115 307.169 171.001 310.093 170.111C313.018 169.221 315.661 167.585 317.763 165.365C317.763 165.365 315.594 174.554 311.236 176.25C306.878 177.946 306.641 173.342 306.641 173.342L301.08 170.443Z" stroke="#263238" stroke-linecap="round" stroke-linejoin="round"/>
<path d="M309.777 152.026C311.782 150.139 314.221 148.777 316.878 148.059C319.536 147.342 322.33 147.292 325.011 147.915" stroke="#263238" stroke-width="2" stroke-linecap="round" stroke-linejoin="round"/>
<path d="M294.049 151.543C294.049 151.543 288.735 146.219 283.164 149.118" stroke="#263238" stroke-width="2" stroke-linecap="round" stroke-linejoin="round"/>
<path d="M281.479 147.914L284.131 150.576" stroke="#263238" stroke-linecap="round" stroke-linejoin="round"/>
<path d="M308.08 138.962C308.08 138.962 315.29 130.653 325.711 138.479" stroke="#263238" stroke-linecap="round" stroke-linejoin="round"/>
<path d="M293.568 138.716C293.568 138.716 287.041 133.638 280.504 139.445" stroke="#263238" stroke-linecap="round" stroke-linejoin="round"/>
<path d="M315.47 150.728C315.479 150.964 315.417 151.198 315.292 151.398C315.166 151.598 314.983 151.756 314.767 151.851C314.55 151.946 314.31 151.973 314.078 151.929C313.846 151.885 313.632 151.772 313.465 151.605C313.298 151.438 313.185 151.225 313.141 150.992C313.098 150.76 313.125 150.52 313.22 150.304C313.314 150.087 313.472 149.904 313.672 149.779C313.873 149.654 314.106 149.591 314.342 149.601C314.638 149.612 314.918 149.735 315.127 149.944C315.335 150.153 315.458 150.433 315.47 150.728Z" fill="#263238"/>
<path d="M287.816 149.714C287.818 149.947 287.751 150.175 287.623 150.37C287.495 150.564 287.312 150.716 287.098 150.806C286.883 150.897 286.647 150.921 286.418 150.877C286.19 150.833 285.979 150.722 285.814 150.558C285.649 150.394 285.536 150.185 285.49 149.956C285.444 149.728 285.467 149.492 285.555 149.276C285.644 149.061 285.794 148.877 285.988 148.748C286.181 148.618 286.409 148.549 286.641 148.549C286.951 148.549 287.249 148.672 287.469 148.89C287.689 149.108 287.814 149.404 287.816 149.714Z" fill="#263238"/>
<path d="M344.972 126.125C344.972 126.125 345.805 137.01 343.797 145.214L346.98 146.218C346.98 146.218 349.491 133.656 348.316 126.627L344.972 126.125Z" fill="#1A1D1F" stroke="#263238" stroke-linecap="round" stroke-linejoin="round"/>
<path d="M323.334 94.2842C326.836 96.0317 329.957 98.4561 332.517 101.417C335.076 104.378 337.023 107.817 338.246 111.536C342.092 123.927 341.59 127.783 343.93 129.119C346.27 130.455 350.798 131.298 350.959 128.285C351.12 125.273 350.078 111.829 343.38 103.493C338.359 97.1452 327.521 94.4547 323.334 94.2842Z" fill="#1A1D1F" stroke="#263238" stroke-linecap="round" stroke-linejoin="round"/>
<path d="M346.297 142.817C341.475 141.339 336.179 144.712 334.455 150.311C332.864 155.493 334.891 160.779 339.003 162.731C335.984 170.402 331.494 177.408 325.787 183.355C324.676 183.218 323.554 183.502 322.642 184.151C320.917 185.316 320.159 187.221 320.965 188.414C321.77 189.608 323.807 189.627 325.541 188.471C327.274 187.315 327.89 185.629 327.341 184.473C333.177 178.382 337.754 171.2 340.812 163.337C345.416 164.285 350.286 160.988 351.906 155.654C353.63 150.046 351.119 144.295 346.297 142.817Z" fill="#1A1D1F" stroke="#263238" stroke-linecap="round" stroke-linejoin="round"/>
<path d="M350.39 153.769C349.575 157.35 346.345 159.681 343.171 158.961C339.998 158.241 338.084 154.745 338.899 151.164C339.713 147.583 342.944 145.252 346.118 145.963C349.291 146.673 351.205 150.179 350.39 153.769Z" fill="#1A1D1F" stroke="#263238" stroke-linecap="round" stroke-linejoin="round"/>
<path d="M349.461 212.857C349.461 212.857 344.772 201.138 343.777 198.959C342.782 196.78 350.977 183.886 352.303 182.039C353.63 180.191 356.15 176.354 356.15 175.511C356.15 174.668 346.609 165.289 344.592 163.783C342.574 162.277 339.239 165.678 339.239 165.678C339.239 165.678 330.533 177.235 330.533 178.571C330.533 179.907 334.711 184.094 334.711 184.094C334.711 184.094 328.183 193.473 329.026 197.159C329.87 200.844 333.214 204.027 333.214 204.027L337.903 222.112L349.461 212.857Z" fill="white" stroke="#263238" stroke-linecap="round" stroke-linejoin="round"/>
<path d="M334.721 184.047C334.721 184.047 340.405 179.528 339.912 178.192C339.717 177.796 339.403 177.47 339.015 177.259C338.626 177.049 338.182 176.964 337.743 177.018" stroke="#263238" stroke-linecap="round" stroke-linejoin="round"/>
<path d="M338.748 167.136C339.25 167.136 353.982 176.847 353.65 178.505C353.357 179.729 352.908 180.91 352.314 182.02" stroke="#263238" stroke-linecap="round" stroke-linejoin="round"/>
<path d="M340.424 165.63C340.424 165.63 354.322 174.336 354.634 175.843C354.697 176.338 354.638 176.84 354.463 177.307C354.288 177.774 354.002 178.192 353.63 178.524" stroke="#263238" stroke-linecap="round" stroke-linejoin="round"/>
<path d="M341.93 164.124C341.93 164.124 356.5 174.005 356.14 175.492C355.741 176.712 355.118 177.846 354.302 178.836" stroke="#263238" stroke-linecap="round" stroke-linejoin="round"/>
<path d="M351.471 211.521L329.027 224.443C329.027 224.443 358.168 293.771 363.531 303.15C368.893 312.529 383.293 314.708 390.834 312.197C398.375 309.687 402.05 294.614 399.54 288.248C397.029 281.882 378.935 254.057 370.238 240.15C361.541 226.243 351.471 211.521 351.471 211.521Z" fill="#263238" stroke="#263238" stroke-linecap="round" stroke-linejoin="round"/>
<path d="M339.609 248.127C339.609 248.127 364.241 295.495 370.55 304.969" stroke="#616161" stroke-linecap="round" stroke-linejoin="round"/>
<path d="M353.498 217.139L388.238 270.191" stroke="#616161" stroke-linecap="round" stroke-linejoin="round"/>
<path d="M254.991 148.521V118.025C254.991 116.849 254.524 115.721 253.693 114.89C252.861 114.058 251.734 113.591 250.558 113.591H176.18C175.004 113.591 173.876 114.058 173.045 114.89C172.213 115.721 171.746 116.849 171.746 118.025V148.521C171.746 149.697 172.213 150.824 173.045 151.656C173.876 152.487 175.004 152.954 176.18 152.954H240.051L254.593 166.947L251.685 152.793C252.63 152.545 253.466 151.991 254.064 151.219C254.662 150.446 254.988 149.498 254.991 148.521Z" fill="white" stroke="#263238" stroke-linecap="round" stroke-linejoin="round"/>
<path d="M198.679 135.996C200.515 135.996 202.004 134.508 202.004 132.671C202.004 130.835 200.515 129.346 198.679 129.346C196.842 129.346 195.354 130.835 195.354 132.671C195.354 134.508 196.842 135.996 198.679 135.996Z" fill="#263238"/>
<path d="M213.362 135.996C215.199 135.996 216.688 134.508 216.688 132.671C216.688 130.835 215.199 129.346 213.362 129.346C211.526 129.346 210.037 130.835 210.037 132.671C210.037 134.508 211.526 135.996 213.362 135.996Z" fill="#263238"/>
<path d="M228.058 135.996C229.894 135.996 231.383 134.508 231.383 132.671C231.383 130.835 229.894 129.346 228.058 129.346C226.221 129.346 224.732 130.835 224.732 132.671C224.732 134.508 226.221 135.996 228.058 135.996Z" fill="#263238"/>
<path d="M183.824 147.819V140.998L176.652 139.407C176.262 138.022 175.712 136.686 175.013 135.428L178.945 129.232L174.132 124.41L167.936 128.351C166.684 127.646 165.352 127.096 163.967 126.712L162.366 119.541H155.545L153.953 126.712C152.565 127.094 151.229 127.645 149.974 128.351L143.816 124.41L138.994 129.232L142.869 135.39C142.163 136.645 141.612 137.981 141.23 139.369L134.059 140.961V147.782L141.23 149.383C141.611 150.78 142.162 152.126 142.869 153.39L138.928 159.586L143.75 164.408L149.946 160.467C151.202 161.172 152.538 161.726 153.925 162.115L155.516 169.277H162.338L163.939 162.115C165.322 161.724 166.654 161.171 167.908 160.467L174.104 164.408L178.926 159.586L175.013 153.39C175.71 152.134 176.26 150.802 176.652 149.421L183.824 147.819ZM158.974 153.219C157.232 153.219 155.528 152.703 154.08 151.735C152.631 150.767 151.501 149.39 150.835 147.781C150.168 146.171 149.993 144.399 150.333 142.69C150.673 140.981 151.512 139.411 152.744 138.179C153.977 136.947 155.546 136.108 157.256 135.768C158.965 135.428 160.736 135.602 162.346 136.269C163.956 136.936 165.332 138.065 166.3 139.514C167.268 140.963 167.785 142.666 167.785 144.409C167.785 145.566 167.557 146.712 167.114 147.781C166.671 148.85 166.023 149.821 165.204 150.639C164.386 151.457 163.415 152.106 162.346 152.549C161.277 152.992 160.131 153.219 158.974 153.219Z" fill="#263238" stroke="#263238" stroke-linecap="round" stroke-linejoin="round"/>
<path d="M123.704 326.985H280.398V320.666H123.704V326.985Z" fill="white" stroke="#263238" stroke-linecap="round" stroke-linejoin="round"/>
<path d="M99.6403 326.985H236.213V320.666H99.6403V326.985Z" fill="white" stroke="#263238" stroke-linecap="round" stroke-linejoin="round"/>
<path d="M96.9975 309.421H227.659L213.571 209.673H82.9102L96.9975 309.421Z" fill="white" stroke="#263238" stroke-linecap="round" stroke-linejoin="round"/>
<path d="M91.5874 309.421H222.248L208.161 209.673H77.5L91.5874 309.421Z" fill="#263238" stroke="#263238" stroke-linecap="round" stroke-linejoin="round"/>
<path d="M131.623 263.057L118.512 326.986H152.229L165.34 263.057H131.623ZM154.493 282.004C154.438 282.273 154.292 282.514 154.08 282.687C153.867 282.859 153.601 282.953 153.328 282.952L134.229 282.762C134.05 282.76 133.874 282.718 133.714 282.638C133.553 282.559 133.413 282.444 133.303 282.303C133.193 282.162 133.116 281.998 133.078 281.824C133.04 281.649 133.041 281.468 133.082 281.294L134.806 274.122C134.861 273.854 135.007 273.613 135.22 273.44C135.432 273.268 135.698 273.174 135.972 273.175L155.08 273.355C155.258 273.359 155.433 273.402 155.592 273.482C155.751 273.562 155.89 273.677 155.999 273.818C156.108 273.958 156.184 274.122 156.222 274.296C156.26 274.47 156.258 274.65 156.217 274.823L154.493 282.004Z" fill="white" stroke="#263238" stroke-linecap="round" stroke-linejoin="round"/>
<path d="M1 331.571L442 331.571V326.986L1 326.986V331.571Z" fill="#263238" stroke="#263238" stroke-linecap="round" stroke-linejoin="round"/>
<path d="M317.052 24.1025L314.267 16.0215H286.291L288.82 63.3899H353.867V24.1025H317.052Z" stroke="#263238" stroke-linecap="round" stroke-linejoin="round"/>
<path d="M353.868 63.3902L359.42 19.9912H315.367" stroke="#263238" stroke-linecap="round" stroke-linejoin="round"/>
<path d="M165.682 47.5725C169.81 29.973 158.889 12.3594 141.29 8.23146C123.69 4.10352 106.077 15.0244 101.949 32.624C97.821 50.2235 108.742 67.8371 126.341 71.965C143.941 76.0929 161.555 65.1721 165.682 47.5725Z" stroke="#263238" stroke-linecap="round" stroke-linejoin="round"/>
<path d="M159.478 46.2506C162.867 32.0837 154.129 17.8526 139.962 14.4645C125.795 11.0764 111.564 19.8144 108.176 33.9812C104.788 48.1481 113.526 62.3792 127.692 65.7672C141.859 69.1553 156.09 60.4174 159.478 46.2506Z" stroke="#263238" stroke-linecap="round" stroke-linejoin="round"/>
<path d="M137.318 40.1037C137.318 40.7951 137.113 41.471 136.729 42.0459C136.344 42.6207 135.799 43.0688 135.16 43.3334C134.521 43.598 133.818 43.6672 133.14 43.5323C132.462 43.3974 131.839 43.0645 131.35 42.5756C130.861 42.0867 130.528 41.4638 130.393 40.7857C130.258 40.1076 130.328 39.4047 130.592 38.7659C130.857 38.1271 131.305 37.5812 131.88 37.1971C132.455 36.8129 133.131 36.6079 133.822 36.6079C134.749 36.6079 135.638 36.9762 136.294 37.6318C136.949 38.2874 137.318 39.1766 137.318 40.1037V40.1037Z" stroke="#263238" stroke-linecap="round" stroke-linejoin="round"/>
<path d="M133.719 15.709V22.2364" stroke="#263238" stroke-linecap="round" stroke-linejoin="round"/>
<path d="M133.719 58.1035V64.6214" stroke="#263238" stroke-linecap="round" stroke-linejoin="round"/>
<path d="M116.43 22.8711L121.034 27.4848" stroke="#263238" stroke-linecap="round" stroke-linejoin="round"/>
<path d="M146.402 52.8457L151.007 57.4594" stroke="#263238" stroke-linecap="round" stroke-linejoin="round"/>
<path d="M109.266 40.1699H115.784" stroke="#263238" stroke-linecap="round" stroke-linejoin="round"/>
<path d="M151.652 40.1699H158.17" stroke="#263238" stroke-linecap="round" stroke-linejoin="round"/>
<path d="M116.43 57.4594L121.034 52.8457" stroke="#263238" stroke-linecap="round" stroke-linejoin="round"/>
<path d="M146.402 27.4848L151.007 22.8711" stroke="#263238" stroke-linecap="round" stroke-linejoin="round"/>
<path d="M130.328 40.104H120.674" stroke="#263238" stroke-linecap="round" stroke-linejoin="round"/>
<path d="M133.822 36.6078V23.8657" stroke="#263238" stroke-linecap="round" stroke-linejoin="round"/>
<path d="M262.313 16.0215H187.158V64.0246H262.313V16.0215Z" stroke="#263238" stroke-linecap="round" stroke-linejoin="round"/>
<path d="M187.158 16.0215L224.731 40.0183L262.313 16.0215" stroke="#263238" stroke-linecap="round" stroke-linejoin="round"/>
<path d="M187.158 64.0246L215.579 38.1235" stroke="#263238" stroke-linecap="round" stroke-linejoin="round"/>
<path d="M261.954 64.0246L233.533 38.1235" stroke="#263238" stroke-linecap="round" stroke-linejoin="round"/>
</svg>
