<svg width="439" height="339" viewBox="0 0 439 339" fill="none" xmlns="http://www.w3.org/2000/svg">
<path d="M244.977 210.555C224.663 222.647 200.423 221.343 183.66 218.119L186.248 205.172C206.365 209.037 220.52 205.259 233.454 197.905C238.333 195.127 253.354 205.57 244.977 210.555Z" fill="#F7B686"/>
<path d="M116.537 321.509C125.95 326.502 186.933 323.382 209.481 322.038C214.199 321.757 217.888 317.801 217.908 313.006C217.988 291.805 218.048 236.698 218.072 214.197C218.078 208.729 213.785 204.262 208.401 204.128C188.073 203.627 141.496 202.627 125.322 202.359C122.172 202.306 119.573 204.837 119.486 208.031C118.841 231.826 107.863 316.908 116.537 321.509Z" fill="#96A7E2"/>
<path d="M160.743 214.708C160.299 212.815 158.48 211.187 156.563 211.187C154.647 211.187 152.551 211.735 152.551 215.257C152.551 217.203 154.647 218.229 156.563 218.229C158.48 218.229 161.365 217.34 160.743 214.708Z" fill="#BDD1F9"/>
<path d="M174.089 214.708C173.644 212.815 171.829 211.187 169.909 211.187C167.993 211.187 165.896 211.735 165.896 215.257C165.896 217.203 167.993 218.229 169.909 218.229C171.825 218.229 174.708 217.34 174.089 214.708Z" fill="#BDD1F9"/>
<path d="M187.124 214.708C186.679 212.815 184.864 211.187 182.944 211.187C181.028 211.187 178.932 211.735 178.932 215.257C178.932 217.203 181.028 218.229 182.944 218.229C184.86 218.229 187.743 217.34 187.124 214.708Z" fill="#BDD1F9"/>
<path d="M199.122 214.708C198.678 212.815 196.862 211.187 194.942 211.187C193.023 211.187 190.93 211.735 190.93 215.257C190.93 217.203 193.026 218.229 194.942 218.229C196.858 218.229 199.744 217.34 199.122 214.708Z" fill="#BDD1F9"/>
<path d="M143.004 208.315L129.221 208.857C127.977 208.907 126.97 209.903 126.893 211.164L126.452 218.49C126.362 219.978 127.589 221.206 129.054 221.095L143.282 220.008C144.546 219.912 145.526 218.841 145.526 217.554V210.773C145.522 209.378 144.379 208.261 143.004 208.315Z" fill="#2F1A31"/>
<path d="M206.652 268.485C206.652 247.469 189.752 228.231 169.16 230.435C143.626 233.167 131.668 247.472 131.668 268.485C131.668 289.499 148.454 306.536 169.16 306.536C189.865 306.539 206.652 289.502 206.652 268.485Z" fill="#2F1A31"/>
<path d="M169.161 309.267C147.004 309.267 128.98 297.206 128.98 268.485C128.98 245.997 137.283 225.817 169.161 227.703C196.26 229.308 208.592 246.011 209.341 268.485C210.331 298.186 191.318 309.267 169.161 309.267ZM169.161 233.167C146.767 231.267 135.986 252.518 135.986 271.993C135.986 291.468 150.161 306.542 169.161 303.807C191.699 300.563 201.366 285.813 201.366 266.338C201.363 246.86 188.348 233.167 169.161 233.167Z" fill="#BDD1F9"/>
<path d="M198.465 281.727H203.959V256.664H196.8C193.981 256.664 191.697 258.948 191.697 261.767V274.956C191.697 278.697 194.727 281.727 198.465 281.727Z" fill="#BDD1F9"/>
<path d="M223.409 320.028C223.409 320.028 223.288 324.844 220.078 326.205C216.868 327.562 207.562 328.789 211.04 331.886C213.036 333.661 222.436 332.514 225.091 332.514C227.746 332.514 230.237 333.688 232.21 331.886C234.38 329.903 232.21 320.028 232.21 320.028C232.21 320.028 229.919 321.239 227.859 321.185C224.89 321.105 223.409 320.028 223.409 320.028Z" fill="#2F1A31"/>
<path d="M327.708 315.832C327.708 315.832 332.453 315.939 333.801 319.192C335.149 322.446 336.382 331.889 339.425 328.351C341.171 326.322 340.014 316.781 340.004 314.09C339.997 311.394 341.148 308.863 339.365 306.867C337.406 304.67 327.682 306.9 327.682 306.9C327.682 306.9 328.882 309.221 328.835 311.314C328.765 314.327 327.708 315.832 327.708 315.832Z" fill="#2F1A31"/>
<path d="M226.792 324.315C221.335 325.539 215.837 322.432 213.992 317.079C212.774 313.548 211.316 309.284 209.795 304.767C202.683 283.646 206.538 272.545 212.597 266.211C221.726 256.664 267.441 244.188 267.922 244.111L272.259 271.903L270.092 258.005L272.263 271.899C272.263 278.584 231.019 280.901 233.597 293.424C234.152 296.123 234.697 299.393 235.593 303.272C236.209 305.94 236.851 308.495 237.459 310.799C238.971 316.52 235.466 322.366 229.765 323.643L226.792 324.315Z" fill="#436E8E"/>
<path d="M259.913 327.549C251.223 316.718 252.359 277.534 256.603 253.234C259.372 237.377 293.332 236.845 292.928 249.338C292.807 253.067 292.369 257.213 292.119 261.838C290.945 283.65 283.518 300.714 285.568 303.075C288.494 306.445 313.683 302.623 324.625 303.931C327.751 304.305 330.242 306.75 330.721 309.91L331.61 315.785C332.128 319.206 329.42 321.312 326.236 322.55C308.163 329.575 268.832 338.664 259.913 327.549Z" fill="#436E8E"/>
<path d="M283.08 191.177C283.08 191.177 278.124 181.637 256.746 186.004C250.323 187.318 247.46 190.93 244.27 193.207C239.331 196.735 238.984 199.554 240.95 204.941C245.394 217.112 251.079 234.905 238.643 253.307C238.643 253.307 290.413 267.625 291.57 249.114C291.57 249.117 299.017 217.27 283.08 191.177Z" fill="#E28569"/>
<path d="M293.659 199.634L278.107 197.822C278.107 197.822 252.342 210.619 243.992 211.134C235.646 211.649 228.951 198.514 228.951 198.514C228.951 198.514 236.589 190.325 253.556 186.676C256.047 186.141 258.518 185.556 261.003 185.252C294.983 181.082 293.659 199.634 293.659 199.634Z" fill="#E28569"/>
<path d="M259.142 182.741L256.457 177.799L255.674 176.361L251.076 167.901L252.541 176.969L253.42 182.413L253.698 184.135C253.888 185.306 253.725 186.309 253.083 187.496C252.822 187.978 251.742 190.646 254.464 191.241C257.854 191.984 262.375 188.168 264.02 184.941C264.007 184.931 260.225 185.072 259.142 182.741Z" fill="#F7B686"/>
<path d="M293.66 199.634C293.543 200.072 293.005 200.377 292.145 200.554C290.075 200.982 286.146 200.664 281.793 199.601C278.445 198.782 275.533 197.691 273.637 196.628C272.045 195.732 271.169 194.859 271.35 194.18C271.537 193.471 272.831 193.104 274.804 193.077C276.981 193.043 279.98 193.425 283.217 194.214C287.674 195.301 291.353 196.872 292.901 198.223C293.49 198.735 293.767 199.223 293.66 199.634Z" fill="#2F1A31"/>
<path d="M243.287 165.987C243.287 165.987 243.17 168.291 244.29 170.92C245.41 173.545 246.788 166.225 246.788 166.225L243.287 165.987Z" fill="#56335B"/>
<path d="M252.852 181.025C257.306 180.723 260.617 176.061 260.248 170.61C259.879 165.16 255.97 160.986 251.517 161.287C247.063 161.589 243.752 166.251 244.121 171.702C244.49 177.152 248.399 181.326 252.852 181.025Z" fill="#F7B686"/>
<path d="M259.88 167.77L255.968 168.168C255.108 168.255 254.242 167.957 253.64 167.329C252.604 166.245 251.527 165.804 247.982 166.69C243.491 167.81 239.947 165.697 238.97 163.396C237.974 161.049 239.95 158.899 242.461 159.594C244.973 160.29 243.414 157.625 245.538 156.862C249.507 155.438 250.922 158.474 254.245 157.668C258.603 156.615 267.143 158.35 265.013 166.964L259.88 167.77Z" fill="#2F1A31"/>
<path d="M251.688 170.863C251.641 170.846 251.604 170.806 251.587 170.753C251.561 170.666 251.611 170.572 251.698 170.545C251.748 170.529 252.901 170.064 253.764 171.228C253.818 171.301 253.808 171.405 253.737 171.462C253.667 171.518 253.577 171.492 253.507 171.435C252.804 170.853 251.835 170.856 251.791 170.866C251.754 170.876 251.718 170.873 251.688 170.863Z" fill="#060633"/>
<path d="M252.808 172.806C252.784 173.2 252.533 173.508 252.249 173.491C251.965 173.474 251.758 173.137 251.781 172.742C251.805 172.347 252.055 172.04 252.34 172.057C252.62 172.073 252.831 172.408 252.808 172.806Z" fill="#060633"/>
<path d="M245.652 171.622C245.612 171.622 245.575 171.602 245.548 171.559C245.505 171.485 245.511 171.381 245.565 171.325C245.595 171.291 246.277 170.422 247.24 171.171C247.3 171.218 247.324 171.318 247.29 171.398C247.257 171.478 247.187 171.488 247.116 171.458C246.444 171.184 245.752 171.555 245.725 171.585C245.705 171.609 245.678 171.622 245.652 171.622Z" fill="#060633"/>
<path d="M247.454 172.983C247.581 173.358 247.464 173.739 247.197 173.833C246.929 173.926 246.608 173.696 246.481 173.321C246.354 172.947 246.471 172.565 246.739 172.472C247.009 172.378 247.33 172.609 247.454 172.983Z" fill="#060633"/>
<path d="M265.006 166.964C265.006 166.964 263.538 173.314 259.874 174.525C259.874 174.525 262.01 169.472 255.068 168.121C255.068 168.118 260.75 165.951 265.006 166.964Z" fill="#56335B"/>
<path d="M260.367 171.267C259.672 171.953 258.615 171.996 258.01 171.364C257.405 170.732 257.482 169.662 258.177 168.977C258.873 168.291 259.929 168.248 260.535 168.88C261.14 169.512 261.063 170.582 260.367 171.267Z" fill="#F7B686"/>
<path d="M255.067 168.117C255.067 168.117 256.569 172.872 255.78 173.996C254.99 175.12 248.634 176.865 245.387 176.313C245.972 179.447 248.701 181.751 251.84 181.633C252.88 181.593 253.917 181.379 254.914 180.978C256.94 180.165 258.806 178.851 259.271 176.691C259.411 176.032 257.89 172.485 257.89 172.485C257.89 172.485 257.161 170.368 258.177 168.977C258.177 168.98 256.472 167.967 255.067 168.117Z" fill="#56335B"/>
<path d="M247.33 177.738C247.33 177.738 249.935 177.898 252.577 177.069C252.577 177.069 252.697 179.687 249.865 179.751C248.22 179.791 247.33 177.738 247.33 177.738Z" fill="white"/>
<path d="M242.8 159.119L242.76 158.902C243.813 158.715 243.729 157.849 243.726 157.812L243.947 157.788C243.95 157.798 244.057 158.899 242.8 159.119Z" fill="#2F1A31"/>
<path d="M246.434 165.666C246.42 165.666 245.113 165.556 243.735 165.138C241.899 164.58 240.769 163.727 240.465 162.667C240.251 161.925 240.281 161.393 240.555 161.042C240.983 160.487 241.92 160.51 242.746 160.534C242.869 160.537 242.99 160.54 243.103 160.54V160.651C242.986 160.651 242.866 160.647 242.742 160.644C241.943 160.624 241.037 160.6 240.642 161.109C240.391 161.43 240.371 161.931 240.572 162.634C241.284 165.108 246.39 165.549 246.444 165.553L246.434 165.666Z" fill="white"/>
<path d="M252.961 158.785C252.088 158.785 251.359 158.655 250.797 158.497C249.517 158.14 248.821 157.584 248.791 157.561L248.861 157.474C248.868 157.481 249.573 158.039 250.831 158.394C251.991 158.718 253.88 158.925 256.265 158.076L256.301 158.18C255.041 158.628 253.917 158.785 252.961 158.785Z" fill="white"/>
<path d="M253.643 281.112C253.643 281.112 253.64 281.112 253.637 281.112C253.523 281.108 253.429 281.011 253.433 280.898L253.77 269.207C253.436 266.853 251.139 265.482 251.115 265.469C251.015 265.412 250.981 265.282 251.042 265.185C251.099 265.084 251.226 265.051 251.326 265.111C251.43 265.171 253.831 266.602 254.185 269.171C254.188 269.181 254.188 269.194 254.188 269.204L253.851 280.911C253.851 281.021 253.757 281.112 253.643 281.112Z" fill="#2F1A31"/>
<path d="M242.782 206.573C242.782 206.573 259.445 200.664 264.023 204.944C268.604 209.221 273.436 222.587 282.501 224.198C291.567 225.81 294.947 227.375 294.947 227.375C294.947 227.375 295.017 263.563 289.256 282.59L252.684 262.349L234.055 255.016C234.055 255.016 241.358 249.388 241.91 242.988C242.465 236.591 236.589 208.385 242.782 206.573Z" fill="#436E8E"/>
<path d="M223.121 230.899C223.121 230.899 218.032 226.79 214.28 227.445C210.528 228.104 206.228 231.822 208.635 231.916C211.046 232.01 214.159 231.264 214.159 231.264C214.159 231.264 207.582 233.17 208.689 234.538C209.796 235.905 215.497 234.19 215.497 234.19C215.497 234.19 207.849 237.092 209.307 238.042C210.765 238.992 216.557 236.744 216.557 236.744C216.557 236.744 209.548 239.734 211.264 240.797C212.982 241.861 217.042 238.289 218.145 239.657C219.252 241.025 224.097 246.081 228.22 243.426L223.121 230.899Z" fill="#F7B686"/>
<path d="M214.219 231.394L214.102 231.137C214.178 231.103 215.974 230.288 217.044 230.946L216.894 231.187C215.951 230.605 214.235 231.384 214.219 231.394Z" fill="#DD8964"/>
<path d="M215.559 234.32L215.436 234.066C215.509 234.029 217.235 233.21 218.9 233.825L218.803 234.089C217.248 233.518 215.576 234.313 215.559 234.32Z" fill="#DD8964"/>
<path d="M216.616 236.875L216.496 236.618C216.586 236.574 218.706 235.608 219.79 236.411L219.623 236.638C218.676 235.936 216.64 236.865 216.616 236.875Z" fill="#DD8964"/>
<path d="M292.898 198.223C292.725 198.835 292.48 199.621 292.146 200.554C290.671 204.643 287.461 211.545 280.87 218.781C264.883 236.327 241.309 242.212 224.342 244.055L223.121 230.903C243.479 228.686 255.948 220.908 266.224 210.064C270.1 205.968 272.45 200.229 273.634 196.628C274.296 194.628 274.597 193.288 274.604 193.264C274.604 193.264 274.671 193.194 274.801 193.077C276.978 193.043 279.978 193.425 283.214 194.214C287.672 195.301 291.35 196.869 292.898 198.223Z" fill="#F7B686"/>
<g opacity="0.5">
<path d="M262.846 228.175C262.786 228.175 262.726 228.171 262.665 228.168C262.067 228.128 261.569 227.89 261.224 227.482C260.295 226.379 260.79 224.403 262.348 222.988C263.274 222.145 264.404 221.681 265.381 221.748C265.979 221.788 266.478 222.025 266.822 222.433C267.752 223.537 267.257 225.509 265.698 226.927C264.829 227.716 263.776 228.175 262.846 228.175ZM265.193 222.436C264.438 222.436 263.558 222.828 262.816 223.503C261.575 224.63 261.09 226.248 261.756 227.038C262.033 227.365 262.428 227.456 262.712 227.476C263.501 227.526 264.441 227.131 265.23 226.412C266.471 225.285 266.956 223.667 266.29 222.878C266.013 222.55 265.618 222.46 265.334 222.44C265.287 222.436 265.24 222.436 265.193 222.436Z" fill="#E08B65"/>
</g>
<path d="M248.828 187.867C248.828 187.867 242.726 198.791 243.284 208.87L246.966 208.676C246.966 208.676 248.046 193.558 252.022 187.021C252.022 187.021 250.26 186.462 248.828 187.867Z" fill="#436E8E"/>
<path d="M260.038 204.944C259.914 204.393 262.088 189.041 266.743 184.644C266.743 184.644 268.916 183.798 269.95 184.647C269.95 184.647 263.89 198.307 264.024 205.971L260.038 204.944Z" fill="#436E8E"/>
<path d="M243.994 207.385C243.994 206.603 244.619 205.968 245.392 205.968C246.164 205.968 246.612 206.623 246.79 207.385C247.034 208.432 246.164 208.803 245.392 208.803C244.619 208.8 243.994 208.168 243.994 207.385Z" fill="#2F1A31"/>
<path d="M260.035 205.493C260.035 204.71 260.66 204.075 261.433 204.075C262.205 204.075 262.653 204.73 262.831 205.493C263.075 206.539 262.205 206.911 261.433 206.911C260.66 206.911 260.035 206.275 260.035 205.493Z" fill="#2F1A31"/>
<g opacity="0.5">
<path d="M389.288 126.384C388.562 109.514 374.421 95.2473 358.664 95.2473C336.338 95.2473 329.016 113.579 328.135 130.44C327.222 147.957 341.622 159.942 357.379 159.942C373.141 159.942 390.196 147.343 389.288 126.384Z" fill="#74A1BD"/>
<path d="M383.749 128.148C383.749 114.711 371.238 100.401 358.708 99.9695C340.173 99.3319 332.66 119.486 332.66 132.923C332.66 146.356 345.598 154.367 358.132 154.367C370.666 154.372 383.749 141.586 383.749 128.148Z" fill="#C4D7D4"/>
<path d="M361.395 127.697C361.227 125.861 359.407 124.639 357.687 124.639C355.966 124.639 354.123 126.859 354.123 128.704C354.123 130.545 355.966 132.05 357.687 132.05C359.407 132.05 361.704 131.096 361.395 127.697Z" fill="#74A1BD"/>
<path d="M357.687 129.376H357.065C356.724 129.376 356.447 129.079 356.447 128.714C356.447 128.35 355.671 127.108 356.011 127.108L356.356 126.327L357.096 108.182L356.325 108.69C356.13 108.992 355.744 109.064 355.467 108.858C355.185 108.652 355.117 108.239 355.312 107.937L357.214 104.979C357.369 104.74 357.65 104.634 357.909 104.725C358.168 104.812 358.34 105.066 358.34 105.358L359.371 128.666C359.371 129.031 358.027 129.376 357.687 129.376Z" fill="#74A1BD"/>
<path d="M359.821 108.78C359.644 108.78 359.463 108.699 359.34 108.536L356.993 106.733C356.78 106.451 357.061 105.07 357.329 104.835C357.592 104.605 357.983 104.648 358.196 104.931L360.298 107.697C360.516 107.98 360.475 108.397 360.207 108.627C360.098 108.732 359.962 108.78 359.821 108.78Z" fill="#74A1BD"/>
<path d="M346.493 131.523C346.33 131.523 346.171 131.456 346.049 131.322L344.215 129.285C344.042 129.093 343.992 128.81 344.092 128.565C344.187 128.321 344.414 128.163 344.659 128.163L359.241 127.343C359.581 127.343 359.776 128.498 359.776 128.863V129.529C359.776 129.893 359.499 130.191 359.159 130.191C358.819 130.191 358.047 130.521 358.047 130.152L358.542 129.519L346.121 129.491L346.943 130.402C347.179 130.665 347.174 131.082 346.929 131.336C346.802 131.461 346.648 131.523 346.493 131.523Z" fill="#74A1BD"/>
<path d="M344.66 129.485C344.524 129.485 344.383 129.437 344.27 129.337C344.006 129.107 343.966 128.69 344.183 128.407L345.899 126.154C346.117 125.871 346.508 125.828 346.771 126.058C347.034 126.288 347.075 126.705 346.857 126.988L346.181 128.675C346.058 128.833 344.837 129.485 344.66 129.485Z" fill="#74A1BD"/>
</g>
<path d="M371.408 307.333L373.434 325.196C373.637 326.982 375.123 328.326 376.894 328.326H431.659C433.504 328.326 435.028 326.869 435.138 325.002L436.23 306.447C436.35 304.399 434.734 302.677 432.712 302.7L374.829 303.391C372.762 303.417 371.172 305.249 371.408 307.333Z" fill="#E28569"/>
<path d="M392.347 300.348L389.365 299.495L390.935 293.996C391.675 291.412 394.05 289.602 396.712 289.602H411.399C414.401 289.602 416.963 291.87 417.357 294.878L417.993 299.715L414.917 300.119L414.281 295.282C414.087 293.812 412.847 292.704 411.399 292.704H396.712C395.429 292.704 394.279 293.586 393.921 294.846L392.347 300.348Z" fill="#2F1A31"/>
<path d="M367.373 302.005V304.173C367.373 306.041 368.853 307.562 370.691 307.585L435.594 308.418C437.468 308.441 438.999 306.906 438.999 305.007V302.713C438.999 300.842 437.516 299.321 435.675 299.301L370.772 298.594C368.901 298.571 367.373 300.106 367.373 302.005Z" fill="#6F4975"/>
<path d="M185.928 50.3232C186.018 51.7848 178.568 53.5456 167.578 54.9027C166.945 54.9793 166.298 55.0558 165.64 55.1324C161.391 55.6161 156.683 56.0406 151.724 56.3643C147.513 56.6426 143.477 56.8201 139.736 56.9106C138.382 56.9454 137.067 56.9698 135.797 56.9802C124.741 57.0707 117.138 56.2981 117.044 54.8366C116.967 53.5734 122.504 52.091 131.088 50.8417C131.771 50.7443 132.473 50.6434 133.194 50.5459C136.827 50.0587 140.916 49.6133 145.3 49.2444C147.235 49.0809 149.219 48.9278 151.251 48.7955C152.667 48.7016 154.07 48.6216 155.437 48.552C161.238 48.2492 166.611 48.1309 171.17 48.1901C171.281 48.1901 171.385 48.1935 171.493 48.1935C180.165 48.3153 185.844 49.067 185.928 50.3232Z" fill="#CFE2DE"/>
<path d="M151.484 28.3196C150.667 28.3196 150.002 27.655 150.002 26.8372V1.99793C150.002 1.18016 150.667 0.515503 151.484 0.515503C152.302 0.515503 152.967 1.18016 152.967 1.99793V26.8372C152.967 27.655 152.302 28.3196 151.484 28.3196Z" fill="#2F1A31"/>
<path d="M147.189 26.4648C147.189 24.0323 149.114 22.0627 151.487 22.0627C153.86 22.0627 155.785 24.0323 155.785 26.4648C155.785 28.8972 153.86 30.8668 151.487 30.8668C149.11 30.8668 147.189 28.8972 147.189 26.4648Z" fill="#2F1A31"/>
<path d="M144.536 91.9246C145.27 92.2587 146.14 91.9212 146.467 91.1765L151.565 79.6129C151.892 78.8682 151.562 77.9843 150.827 77.6537C150.093 77.3196 149.223 77.6572 148.896 78.4019L143.798 89.9655C143.471 90.7101 143.802 91.594 144.536 91.9246Z" fill="#F7B686"/>
<path d="M141.118 90.3765C141.852 90.7106 142.722 90.373 143.049 89.6283L148.749 76.6937C149.076 75.949 148.746 75.0651 148.011 74.7345C147.277 74.4004 146.407 74.738 146.08 75.4827L140.38 88.4139C140.053 89.1585 140.384 90.0424 141.118 90.3765Z" fill="#F7B686"/>
<path d="M137.7 88.8244C138.434 89.1584 139.304 88.8209 139.631 88.0762L144.2 77.7097C144.527 76.965 144.197 76.0811 143.463 75.7505C142.728 75.4164 141.858 75.754 141.531 76.4986L136.962 86.8617C136.635 87.6099 136.966 88.4903 137.7 88.8244Z" fill="#F7B686"/>
<path d="M143.951 99.563C143.951 99.563 150.758 94.6425 151.029 88.6223C151.123 86.5379 140.941 82.2542 139.173 83.7505C137.409 85.2503 134.994 92.5546 134.994 92.5546L143.951 99.563Z" fill="#F7B686"/>
<path d="M147.923 93.4769C148.657 93.8109 149.524 93.4734 149.851 92.7287L154.41 82.3831C154.737 81.6384 154.406 80.758 153.675 80.4274C152.941 80.0933 152.075 80.4308 151.747 81.1755L147.189 91.5212C146.858 92.2624 147.189 93.1428 147.923 93.4769Z" fill="#F7B686"/>
<path d="M133.763 90.4075C123.337 103.137 107.385 120.599 90.5777 131.515C86.6837 134.045 85.1595 134.953 82.6888 136.091C80.6983 137.006 80.0267 141.61 81.537 145.08C82.9533 148.337 86.3914 150.202 88.9804 149.558C90.9152 149.078 89.8504 151.66 94.235 148.914C109.47 139.369 127.951 120.634 144.871 98.8288L133.763 90.4075Z" fill="#F7B686"/>
<path d="M72.4696 326.189C72.4696 326.189 72.5879 330.971 75.7755 332.317C78.963 333.668 88.1951 334.882 84.7466 337.955C82.7665 339.719 73.437 338.578 70.8027 338.578C68.1685 338.578 65.6943 339.744 63.7386 337.955C61.5846 335.985 63.7386 326.189 63.7386 326.189C63.7386 326.189 66.011 327.39 68.0571 327.338C71.0011 327.258 72.4696 326.189 72.4696 326.189Z" fill="#2F1A31"/>
<path d="M35.8719 326.189C35.8719 326.189 35.9902 330.971 39.1778 332.317C42.3654 333.668 51.5975 334.882 48.1489 337.955C46.1689 339.719 36.8393 338.578 34.2051 338.578C31.5708 338.578 29.0966 339.744 27.1409 337.955C24.9869 335.985 27.1409 326.189 27.1409 326.189C27.1409 326.189 29.4133 327.39 31.4595 327.338C34.4 327.258 35.8719 326.189 35.8719 326.189Z" fill="#2F1A31"/>
<path d="M96.1575 195.145C96.1575 195.145 96.7456 215.154 90.454 253.541C85.9127 281.251 80.5503 309.177 77.916 322.564C76.973 327.352 73.0059 330.853 68.3046 331.044L65.7782 331.145C60.6942 331.35 56.567 326.917 56.9394 321.649L63.3215 231.078L64.8944 201.269L96.1575 195.145Z" fill="#436E8E"/>
<path d="M83.0034 212.189L41.6173 325.069C40.1314 329.91 35.8408 333.226 30.9481 333.31L28.8149 333.348C23.783 333.435 19.9343 328.713 20.853 323.573L42.4281 211.695C42.71 210.404 47.1921 209.809 48.4657 209.701C59.0271 208.807 83.6576 207.408 83.0034 212.189Z" fill="#436E8E"/>
<path d="M55.8533 145.139C55.8533 145.139 62.4268 132.49 78.977 135.542C86.7998 136.983 91.4419 133.478 93.3419 148.094C95.0471 161.216 91.5567 178.369 89.6115 203.761C89.6115 203.761 77.5642 176.089 43.632 185.544C43.632 185.544 42.1879 172.884 48.2741 151.678C49.9862 145.703 53.6401 149.172 55.8533 145.139Z" fill="#9BBCB6"/>
<path d="M42.3457 137.598L54.9776 152.004C54.9776 152.004 84.2224 165.844 93.6877 151.914C100.613 141.725 92.6298 130.144 92.6298 130.144C92.6298 130.144 85.1898 134.261 76.2048 133.94C73.7063 133.85 67.3694 134.243 64.9092 134.16C47.7708 133.592 42.3457 137.598 42.3457 137.598Z" fill="#9BBCB6"/>
<path d="M60.1452 275.408L59.5605 275.272L68.288 237.425C70.0558 231.965 73.6784 227.431 78.498 224.63L78.8007 225.148C74.1099 227.876 70.5813 232.292 68.8692 237.585L60.1452 275.408Z" fill="#020202"/>
<path d="M42.2546 137.696C40.9218 138.997 42.265 142.696 46.7471 147.14C51.2292 151.584 53.3275 153.199 55.2693 151.017C56.5534 149.576 56.4072 143.632 51.772 139.888C48.1773 136.986 43.2046 136.767 42.2546 137.696Z" fill="#2F1A31"/>
<path d="M49.0898 209.649C49.0898 209.649 71.7438 205.842 93.8931 210.801C94.9093 211.027 95.6017 211.987 95.5043 213.038L94.7179 221.428L71.5385 215.572L49.0898 209.649Z" fill="#436E8E"/>
<path d="M6.97272 211.271C6.17583 211.152 5.43113 211.716 5.31282 212.523L3.49633 225.058C3.37801 225.865 3.9348 226.624 4.73169 226.742C5.52858 226.86 6.27326 226.297 6.39158 225.489L8.20807 212.955C8.32291 212.147 7.76961 211.392 6.97272 211.271Z" fill="#F7B686"/>
<path d="M10.6748 211.824C9.8779 211.705 9.13321 212.269 9.0149 213.077L6.98265 227.093C6.86434 227.901 7.42111 228.659 8.218 228.778C9.01489 228.896 9.75958 228.332 9.8779 227.525L11.9101 213.508C12.025 212.701 11.4717 211.942 10.6748 211.824Z" fill="#F7B686"/>
<path d="M12.7288 204.677L12.2799 204.941C11.4378 205.435 11.149 206.542 11.6396 207.394L16.3966 215.708C16.8838 216.56 17.973 216.853 18.8116 216.358L19.2605 216.094C20.1027 215.6 20.3915 214.493 19.9008 213.641L15.1438 205.327C14.6567 204.475 13.5709 204.182 12.7288 204.677Z" fill="#F7B686"/>
<path d="M14.3766 212.378C13.5797 212.26 12.835 212.823 12.7167 213.631L11.0881 224.867C10.9698 225.674 11.5266 226.433 12.3235 226.551C13.1204 226.67 13.8651 226.106 13.9834 225.299L15.612 214.062C15.7268 213.255 15.1735 212.496 14.3766 212.378Z" fill="#F7B686"/>
<path d="M5.4933 203.757C5.4933 203.757 0.259577 210.369 1.60629 216.236C2.07259 218.269 13.0168 219.591 14.3182 217.663C15.6162 215.735 15.9886 208.038 15.9886 208.038L5.4933 203.757Z" fill="#F7B686"/>
<path d="M3.29737 210.711C2.50396 210.593 1.75928 211.156 1.64096 211.96L0.0158601 223.172C-0.102455 223.98 0.454326 224.735 1.24774 224.853C2.04115 224.971 2.78584 224.408 2.90416 223.604L4.52925 212.392C4.64408 211.588 4.09078 210.833 3.29737 210.711Z" fill="#F7B686"/>
<path d="M17.7409 209.771C24.3735 194.651 35.0637 173.451 48.322 158.318C51.3947 154.81 52.6196 153.519 54.6936 151.741C56.3639 150.31 55.7793 145.696 53.4026 142.769C51.1685 140.024 47.3615 139.175 45.0404 140.508C43.3075 141.503 41.7763 142.923 38.2895 146.775C26.1761 160.155 15.2563 179.075 4.80273 204.722L17.7409 209.771Z" fill="#F7B686"/>
<g opacity="0.5">
<path d="M25.2368 176.6C24.9062 176.6 24.586 176.527 24.2937 176.371C23.8135 176.113 23.462 175.664 23.2846 175.066C22.9922 174.084 23.1906 172.811 23.8205 171.659C24.8783 169.728 26.7401 168.764 28.0589 169.467C28.5392 169.724 28.8906 170.173 29.0681 170.772C29.3604 171.753 29.1621 173.027 28.5322 174.178C27.711 175.682 26.4025 176.6 25.2368 176.6ZM27.1333 169.961C26.239 169.961 25.1324 170.768 24.4573 172.003C23.9179 172.988 23.7404 174.057 23.9805 174.857C24.064 175.142 24.2485 175.525 24.6382 175.734C25.5708 176.232 27.0672 175.362 27.9058 173.83C28.4452 172.846 28.6227 171.777 28.3826 170.977C28.2991 170.692 28.1146 170.309 27.7249 170.103C27.5439 170.006 27.3421 169.961 27.1333 169.961Z" fill="#E08B65"/>
</g>
<path d="M68.6981 129.935L69.0739 124.113L69.1818 122.419L69.8256 112.452L72.3763 121.59L73.904 127.075C73.904 127.075 75.1185 132.201 76.0893 133.192C77.4813 134.616 77.8641 136.404 74.9862 136.961C71.4646 137.643 68.2944 136.474 65.3574 134.188C65.3818 134.181 68.6111 132.945 68.6981 129.935Z" fill="#F7B686"/>
<path d="M76.2928 108.667C76.2928 108.667 77.3994 110.772 77.4864 113.726C77.5734 116.681 73.1191 110.445 73.1191 110.445L76.2928 108.667Z" fill="#56335B"/>
<path d="M78.0164 114.457C76.0294 109.185 70.9245 106.266 66.6164 107.939C62.3083 109.613 60.4257 115.244 62.4127 120.516C64.3997 125.788 69.5047 128.707 73.8128 127.033C78.1208 125.363 80.0034 119.733 78.0164 114.457Z" fill="#F7B686"/>
<path d="M70.5415 116.966C70.5763 116.928 70.5972 116.876 70.5867 116.82C70.5728 116.726 70.4858 116.66 70.3953 116.677C70.3397 116.684 69.0626 116.761 68.7563 118.236C68.7354 118.33 68.7911 118.421 68.8851 118.442C68.9756 118.463 69.0486 118.4 69.0869 118.313C69.4906 117.453 70.4023 117.025 70.4475 117.018C70.4858 117.011 70.5171 116.994 70.5415 116.966Z" fill="#060633"/>
<path d="M70.3333 119.284C70.5282 119.643 70.8935 119.82 71.1511 119.678C71.4086 119.535 71.4608 119.128 71.2659 118.769C71.071 118.411 70.7056 118.233 70.4481 118.376C70.1906 118.519 70.1419 118.926 70.3333 119.284Z" fill="#060633"/>
<path d="M76.5177 114.993C76.5525 114.976 76.5804 114.941 76.5873 114.889C76.5978 114.802 76.5456 114.708 76.469 114.68C76.4238 114.663 75.4111 114.151 74.837 115.282C74.8022 115.355 74.823 115.456 74.8892 115.515C74.9553 115.574 75.0249 115.553 75.0771 115.498C75.5886 114.941 76.3959 114.983 76.4342 114.997C76.4655 115.004 76.4934 115.004 76.5177 114.993Z" fill="#060633"/>
<path d="M75.4204 117.071C75.4656 117.478 75.7371 117.784 76.0294 117.75C76.3217 117.718 76.52 117.36 76.4748 116.953C76.4296 116.545 76.1581 116.243 75.8658 116.274C75.577 116.305 75.3752 116.66 75.4204 117.071Z" fill="#060633"/>
<path d="M56.3926 119.249C56.3926 119.249 60.5093 124.538 64.4659 124.037C64.4659 124.037 60.2831 120.261 66.1954 115.905C66.1919 115.905 59.9386 116.409 56.3926 119.249Z" fill="#56335B"/>
<path d="M62.5945 121.215C63.5445 121.546 64.5502 121.118 64.8425 120.258C65.1348 119.399 64.6023 118.431 63.6523 118.097C62.7023 117.767 61.6967 118.195 61.4043 119.054C61.112 119.914 61.6445 120.881 62.5945 121.215Z" fill="#F7B686"/>
<path d="M66.1927 115.905C66.1927 115.905 66.8434 121.024 68.0683 121.723C69.2932 122.422 75.9954 121.225 78.7967 119.266C79.6041 122.457 78.0451 125.829 75.0559 127.117C74.0676 127.541 72.9993 127.802 71.8962 127.872C69.6482 128.015 67.334 127.618 65.963 125.801C65.5454 125.248 65.4375 121.25 65.4375 121.25C65.4375 121.25 65.2078 118.943 63.6523 118.093C63.6523 118.097 64.8111 116.388 66.1927 115.905Z" fill="#56335B"/>
<path d="M77.5915 121.462C77.5915 121.462 75.2217 122.774 72.3926 123.174C72.3926 123.174 73.4122 125.676 76.0882 124.479C77.6437 123.78 77.5915 121.462 77.5915 121.462Z" fill="white"/>
<path d="M63.4746 116.267C63.4746 116.267 80.5712 114.593 84.9628 109.593C89.3544 104.589 75.7203 106.228 75.7203 106.228C75.7203 106.228 64.6404 116.114 63.4746 116.267Z" fill="#E28569"/>
<path d="M75.72 106.227C75.72 106.227 70.8865 100.065 62.9698 102.243C55.0531 104.425 51.4027 111.019 56.3893 119.249C56.3893 119.249 62.8062 118.118 68.6072 112.909C74.4081 107.706 75.72 106.227 75.72 106.227Z" fill="#D16B54"/>
<path d="M43.7468 183.554C43.7468 183.554 57.4401 177.721 59.8516 167.932C62.2632 158.144 60.391 150.933 71.015 150.06C81.639 149.186 89.9455 147.614 93.481 150.933C96.8043 154.055 97.4655 193.109 95.2105 215.85C95.1235 216.731 95.0922 217.475 95.0331 218.06C94.0413 227.821 41.7598 217.148 41.7598 217.148L43.7468 183.554Z" fill="#436E8E"/>
<path d="M71.3292 151.601C71.3292 151.601 68.6114 137.389 63.1237 134.111C63.1237 134.111 60.3259 133.13 59.5742 134.111C59.5742 134.111 66.353 144.488 66.1929 153.449L71.3292 151.601Z" fill="#436E8E"/>
<path d="M85.8362 150.387C85.8362 150.387 82.2902 137.925 78.2188 133.944C78.2188 133.944 80.2962 133.095 82.4224 134.585C82.4224 134.585 88.9646 142.522 89.5005 150.825L85.8362 150.387Z" fill="#436E8E"/>
<path d="M175.363 68.558C177.608 78.0754 171.104 90.6308 160.062 93.3103C149.021 95.9898 137.603 90.582 136.013 80.9289C133.692 66.8598 140.902 61.5217 151.94 58.8422C162.982 56.1592 173.122 59.037 175.363 68.558Z" fill="#96A7E2"/>
<path d="M139.5 65.0188C139.5 65.0188 145.712 58.661 144.083 51.7535L153.715 49.415C153.715 49.415 155.4 56.5453 163.539 58.2156C163.539 58.2156 152.229 67.6774 139.5 65.0188Z" fill="#96A7E2"/>
<path d="M144.354 54.297C144.354 54.297 141.208 54.5859 141.142 51.0051C141.142 51.0051 138.452 49.2234 140.036 46.8188C140.036 46.8188 137.732 44.8318 138.856 42.0862C139.98 39.3406 152.654 37.3884 153.934 38.4254C155.211 39.4624 155.076 41.0701 154.112 41.679C154.112 41.679 155.862 42.4794 155.81 44.014C155.761 45.5486 155.058 46.0184 155.058 46.0184C155.058 46.0184 156.328 46.3838 156.882 48.2734C157.431 50.1595 155.855 53.1452 144.354 54.297Z" fill="#9BBCB6"/>
<g opacity="0.4">
<path d="M161.311 84.471C161.311 84.471 164.624 80.9946 165.021 76.4047C165.414 71.8147 170.021 72.0757 171.424 75.7643C172.823 79.453 170.46 84.819 167.704 85.7864C164.951 86.7572 160.504 87.9404 161.311 84.471Z" fill="white"/>
</g>
<path d="M140.972 47.0729C140.377 47.0729 140.026 47.0381 140.012 47.0381L140.057 46.6066C140.106 46.6136 144.971 47.0903 149.421 44.3308L149.651 44.6997C146.265 46.7946 142.653 47.0729 140.972 47.0729Z" fill="#7AA098"/>
<path d="M141.16 51.2246C141.153 51.2246 141.146 51.2246 141.139 51.2246V50.7896C141.139 50.7896 141.139 50.7896 141.142 50.7896C141.295 50.7896 147.677 50.7652 151.244 48.3433L151.488 48.7017C147.848 51.1759 141.626 51.2246 141.16 51.2246Z" fill="#7AA098"/>
<path d="M132.252 92.2412C132.252 92.2412 133.686 88.2115 133.035 85.4798C132.384 82.7481 135.568 77.1456 136.8 75.2107C138.196 73.015 139.382 73.9823 139.455 75.6109C139.511 76.8706 138.547 78.3879 138.738 80.0164C139.173 83.7538 139.838 82.7133 141.028 86.9553C142.218 91.1938 142.117 93.0764 140.106 94.0855C138.091 95.0947 132.252 92.2412 132.252 92.2412Z" fill="#F7B686"/>
<path d="M68.709 153.883C68.709 153.069 69.3597 152.408 70.1636 152.408C70.9674 152.408 71.4337 153.09 71.6182 153.883C71.8722 154.972 70.9674 155.359 70.1636 155.359C69.3597 155.359 68.709 154.698 68.709 153.883Z" fill="#2F1A31"/>
<path d="M85.4004 151.917C85.4004 151.103 86.0511 150.442 86.855 150.442C87.6588 150.442 88.1251 151.124 88.3096 151.917C88.5636 153.007 87.6588 153.393 86.855 153.393C86.0476 153.389 85.4004 152.732 85.4004 151.917Z" fill="#2F1A31"/>
<path d="M185.927 50.3508V50.3229C185.843 49.0632 180.164 48.3116 171.492 48.1932C171.385 48.1932 171.277 48.1898 171.165 48.1898C166.607 48.1341 161.234 48.2454 155.436 48.5517C154.069 48.6178 152.663 48.7013 151.25 48.7918C149.218 48.9275 147.234 49.0806 145.299 49.2407C140.915 49.6061 136.826 50.055 133.19 50.5422C132.469 50.6396 131.77 50.7405 131.084 50.8345C122.572 52.0803 117.053 53.5453 117.043 54.805C117.06 39.8416 132.438 25.8073 151.483 25.8073C170.546 25.8073 185.997 36.6853 185.997 50.1072C185.997 50.1872 185.976 50.2707 185.927 50.3508Z" fill="#E28569"/>
</svg>
