<svg width="372" height="309" viewBox="0 0 372 309" fill="none" xmlns="http://www.w3.org/2000/svg">
<path d="M67.915 299.981C67.6367 299.981 67.3522 299.934 67.0708 299.837C65.7513 299.371 65.0603 297.923 65.5262 296.604L113.628 160.247C114.094 158.928 115.541 158.234 116.861 158.699C118.18 159.165 118.871 160.613 118.409 161.932L70.307 298.289C69.9349 299.33 68.9593 299.981 67.915 299.981Z" fill="#9BBCB6"/>
<path d="M2.53571 299.981C2.25431 299.981 1.9729 299.934 1.69149 299.837C0.372014 299.371 -0.318997 297.923 0.143759 296.604L48.2485 160.247C48.7144 158.928 50.162 158.234 51.4815 158.7C52.801 159.165 53.492 160.613 53.0261 161.933L4.92454 298.289C4.55558 299.33 3.57691 299.981 2.53571 299.981Z" fill="#9BBCB6"/>
<path d="M82.8836 255.015L17.5069 255.006L15.6934 260.143L81.3484 259.364L82.8836 255.015Z" fill="#9BBCB6"/>
<path d="M101.509 207.013L36.1319 207.004L34.3184 212.141L99.9765 211.362L101.509 207.013Z" fill="#9BBCB6"/>
<path d="M110.796 174.808L45.419 174.799L43.6055 179.936L109.264 179.154L110.796 174.808Z" fill="#9BBCB6"/>
<path d="M102.627 291.588C101.504 291.588 100.482 290.838 100.179 289.703L86.5524 238.312C86.1928 236.958 86.9995 235.573 88.3533 235.213C89.7072 234.854 91.0924 235.66 91.4519 237.014L105.078 288.405C105.438 289.759 104.631 291.144 103.277 291.504C103.058 291.56 102.843 291.588 102.627 291.588Z" fill="#9BBCB6"/>
<path d="M235.772 0.0961914H100.994C96.4638 0.0961914 92.793 3.76697 92.793 8.2976V32.7611C92.793 46.3874 103.84 57.431 117.463 57.431H235.769C240.299 57.431 243.97 53.7602 243.97 49.2296V8.2976C243.973 3.76697 240.303 0.0961914 235.772 0.0961914Z" fill="#A2BEE0"/>
<path d="M104.863 43.6735C103.856 43.6735 103.334 44.8929 104.015 45.6402C108.602 50.668 115.143 53.8259 122.426 53.8259H214.57C218.116 53.8259 220.989 50.9087 220.989 47.313V44.846C220.989 44.1988 220.473 43.6766 219.836 43.6766H104.863V43.6735Z" fill="#6F4975"/>
<path d="M218.912 37.4387H100.84C100.443 37.4387 100.121 37.1104 100.121 36.707C100.121 36.3037 100.443 35.9753 100.84 35.9753H218.912C219.309 35.9753 219.634 36.3037 219.634 36.707C219.634 37.1104 219.309 37.4387 218.912 37.4387Z" fill="#6F4975"/>
<path d="M218.912 31.9079H100.84C100.443 31.9079 100.121 31.5796 100.121 31.1762C100.121 30.7729 100.443 30.4446 100.84 30.4446H218.912C219.309 30.4446 219.634 30.7729 219.634 31.1762C219.634 31.5796 219.309 31.9079 218.912 31.9079Z" fill="#6F4975"/>
<path d="M218.913 5.36435C218.913 4.12929 217.925 3.12561 216.708 3.12561C215.489 3.12561 214.504 4.12929 214.504 5.36435C214.504 6.5994 215.492 7.60309 216.708 7.60309C217.925 7.60309 218.913 6.5994 218.913 5.36435Z" fill="#E28569"/>
<path d="M210.349 5.36435C210.349 4.12929 209.361 3.12561 208.145 3.12561C206.926 3.12561 205.938 4.12929 205.938 5.36435C205.938 6.5994 206.926 7.60309 208.145 7.60309C209.361 7.60309 210.349 6.5994 210.349 5.36435Z" fill="#2F1A31"/>
<path d="M17.2028 142.747C16.5524 142.694 15.9771 143.191 15.924 143.851L15.1016 154.103C15.0485 154.763 15.5362 155.348 16.1897 155.401C16.8401 155.454 17.4154 154.957 17.4686 154.297L18.2909 144.045C18.3409 143.385 17.8531 142.8 17.2028 142.747Z" fill="#F7B686"/>
<path d="M20.2325 142.997C19.5822 142.944 19.0068 143.441 18.9537 144.101L18.0313 155.567C17.9782 156.227 18.4659 156.811 19.1194 156.864C19.7698 156.918 20.3451 156.42 20.3982 155.761L21.3175 144.295C21.3707 143.635 20.8829 143.054 20.2325 142.997Z" fill="#F7B686"/>
<path d="M21.5233 137.1L21.1731 137.338C20.5165 137.785 20.3414 138.695 20.7823 139.358L25.0659 145.839C25.5068 146.505 26.401 146.684 27.0576 146.236L27.4078 145.999C28.0644 145.552 28.2395 144.642 27.7987 143.979L23.515 137.497C23.0742 136.831 22.1799 136.653 21.5233 137.1Z" fill="#F7B686"/>
<path d="M23.259 143.247C22.6086 143.194 22.0333 143.691 21.9801 144.351L21.2422 153.54C21.1891 154.2 21.6769 154.785 22.3303 154.838C22.9807 154.891 23.556 154.394 23.6092 153.734L24.3471 144.545C24.4002 143.888 23.9093 143.304 23.259 143.247Z" fill="#F7B686"/>
<path d="M15.6144 136.74C15.6144 136.74 11.7154 142.375 13.1099 147.058C13.5914 148.678 22.5307 149.169 23.4812 147.537C24.4349 145.905 24.3379 139.648 24.3379 139.648L15.6144 136.74Z" fill="#F7B686"/>
<path d="M14.1941 142.49C13.5438 142.437 12.9716 142.931 12.9184 143.591L12.1837 152.762C12.1305 153.422 12.6183 154.003 13.2686 154.056C13.919 154.109 14.4943 153.615 14.5443 152.956L15.2791 143.785C15.3323 143.125 14.8445 142.544 14.1941 142.49Z" fill="#F7B686"/>
<path d="M25.8501 140.958C30.4401 128.354 38.0068 110.607 47.9654 97.6407C50.2729 94.6359 51.1984 93.5228 52.7868 91.9719C54.0656 90.7243 53.3559 87.0192 51.2766 84.7742C49.3255 82.6667 45.6172 81.9101 44.8481 82.476C43.538 83.4391 41.8652 85.5183 39.2387 88.8233C30.1149 100.311 22.2481 116.22 15.1035 137.553L25.8501 140.958Z" fill="#F7B686"/>
<g opacity="0.5">
<path d="M30.9605 111.089C30.7573 111.089 30.5603 111.045 30.3758 110.961C29.4409 110.529 29.1658 109.091 29.763 107.756C30.1195 106.965 30.7198 106.346 31.3701 106.102C31.786 105.945 32.1956 105.948 32.552 106.114C33.4869 106.546 33.7621 107.984 33.1649 109.319C32.8116 110.11 32.2081 110.729 31.5577 110.973C31.3545 111.051 31.1544 111.089 30.9605 111.089ZM31.9705 106.483C31.836 106.483 31.6922 106.511 31.5484 106.564C31.0168 106.765 30.5197 107.284 30.2195 107.956C29.738 109.025 29.9068 110.195 30.5853 110.507C30.8198 110.614 31.095 110.614 31.3858 110.507C31.9173 110.31 32.4145 109.788 32.7146 109.116C33.1962 108.046 33.0273 106.877 32.3488 106.564C32.23 106.511 32.1018 106.483 31.9705 106.483Z" fill="#E08B65"/>
</g>
<path d="M69.7824 74.9692L71.155 68.9096L71.5553 67.1461L73.9066 56.7748L75.0541 66.8272L75.7419 72.8618L75.9608 74.7722C76.1078 76.0698 76.4517 77.9052 77.4835 78.962C77.9025 79.3904 81.0292 80.3597 78.3246 81.8261C74.954 83.6521 68.2691 81.7761 65.5645 78.8651C65.5801 78.862 69.3384 76.9265 69.7824 74.9692Z" fill="#F7B686"/>
<path d="M82.4257 58.7604C81.2187 52.8697 76.341 48.9175 71.529 49.9337C66.717 50.9499 63.7935 56.5467 64.9973 62.4343C66.2011 68.3251 71.0819 72.2773 75.8939 71.2611C80.706 70.2449 83.6294 64.6481 82.4257 58.7604Z" fill="#F7B686"/>
<path d="M78.4302 56.4332C83.5205 56.2425 85.7624 53.0845 85.6186 50.3298C85.4341 46.7966 83.0171 43.8356 80.5627 45.3396C78.1113 46.8435 78.968 43.5448 76.4917 43.3885C71.8641 43.0977 71.2481 46.4683 67.5117 46.9123C62.584 47.497 57.5593 56.2862 62.1494 62.0738C62.1525 62.0769 74.4124 56.5833 78.4302 56.4332Z" fill="#2F1A31"/>
<path d="M82.6878 52.5346C82.6878 52.5346 77.6538 58.2409 78.5887 61.1706C79.5236 64.0972 79.4267 65.2791 76.3781 67.1083C73.3264 68.9374 76.3156 71.3106 72.107 71.814C67.9016 72.3205 62.361 67.6461 61.7513 59.3259C61.4136 54.6858 63.8149 51.4528 63.8149 51.4528L82.6878 52.5346Z" fill="#2F1A31"/>
<path d="M81.317 60.8325C80.6385 59.9946 79.4878 59.8132 78.7499 60.4292C78.012 61.0451 77.9651 62.2239 78.6436 63.0619C79.3221 63.8998 80.4728 64.0812 81.2107 63.4652C81.9486 62.8492 81.9955 61.6705 81.317 60.8325Z" fill="#F7B686"/>
<path d="M63.2211 60.892C63.2055 60.892 63.1898 60.8889 63.1742 60.8826C63.1054 60.8576 63.071 60.7826 63.096 60.7138C63.5338 59.5256 64.7376 59.0097 64.7876 58.9878C64.8533 58.9597 64.9314 58.991 64.9596 59.0598C64.9877 59.1254 64.9564 59.2036 64.8876 59.2317C64.8751 59.238 63.7401 59.7258 63.3399 60.8045C63.3243 60.8576 63.2743 60.892 63.2211 60.892Z" fill="#2F1A31"/>
<path d="M64.9299 58.6002C64.9206 58.6002 64.9112 58.6002 64.9018 58.5971C64.8862 58.594 63.3416 58.2594 63.2853 56.9556C63.2822 56.8837 63.3384 56.8211 63.4104 56.818C63.4823 56.8149 63.5448 56.8711 63.5479 56.9431C63.5948 58.0437 64.9393 58.3345 64.955 58.3376C65.0269 58.3532 65.0707 58.422 65.0581 58.4939C65.0456 58.5565 64.9925 58.6002 64.9299 58.6002Z" fill="#2F1A31"/>
<path d="M79.7179 45.19C79.5772 45.19 79.4428 45.1524 79.3114 45.0805C78.5954 44.6741 78.3484 43.242 78.3359 43.1826C78.3234 43.1107 78.3734 43.0419 78.4453 43.0294C78.5172 43.0169 78.586 43.0669 78.5986 43.1388C78.6017 43.1513 78.8362 44.5052 79.4428 44.8523C79.6022 44.9429 79.7711 44.9523 79.9587 44.8804C80.3339 44.7366 80.6153 44.5052 80.8873 44.2801C81.4282 43.8361 81.9848 43.3796 83.1948 43.6766C83.2667 43.6923 83.3105 43.7642 83.2918 43.8361C83.273 43.908 83.2011 43.9486 83.1323 43.933C82.0505 43.6672 81.5908 44.0456 81.0562 44.4833C80.7685 44.721 80.4683 44.9648 80.0556 45.1243C79.9399 45.1681 79.8273 45.19 79.7179 45.19Z" fill="#2F1A31"/>
<path d="M67.5968 46.4528C67.4936 46.4528 67.3905 46.4496 67.2873 46.4403C67.2154 46.434 67.1622 46.3683 67.1685 46.2964C67.1747 46.2245 67.2372 46.1714 67.3123 46.1776C69.2696 46.3465 70.8174 44.6549 70.833 44.6361C70.883 44.583 70.9643 44.5767 71.0206 44.6268C71.0737 44.6768 71.08 44.7581 71.03 44.8144C70.9643 44.8831 69.5323 46.4528 67.5968 46.4528Z" fill="#2F1A31"/>
<path d="M80.0664 63.9344C79.6256 63.9344 78.9439 63.7406 78.3592 62.7494C78.3405 62.7181 78.3499 62.6806 78.3811 62.6619C78.4093 62.6431 78.4499 62.6556 78.4687 62.6837C79.3598 64.1971 80.4323 63.7593 80.476 63.7406C80.5073 63.7281 80.5448 63.7406 80.5604 63.775C80.573 63.8063 80.5604 63.8438 80.5261 63.8594C80.5229 63.8594 80.3416 63.9344 80.0664 63.9344Z" fill="#2F1A31"/>
<path d="M131.317 77.0015C132.336 74.5033 124.413 70.204 124.413 70.204C123.547 70.0133 116.874 85.5062 102.404 86.8788C97.2508 87.3666 87.6018 81.9918 86.6512 80.9881C86.523 80.8536 78.0527 88.8174 78.0527 88.8174C79.7787 90.6372 83.5902 97.097 90.3845 99.5671C104.439 104.676 127.283 93.7827 131.317 77.0015Z" fill="#F7B686"/>
<path d="M68.6216 244.856C68.6216 244.856 68.7154 248.662 71.2512 249.734C73.787 250.807 81.1379 251.776 78.3926 254.221C76.8168 255.625 69.3877 254.718 67.2928 254.718C65.1947 254.718 63.228 255.647 61.6678 254.221C59.9543 252.654 61.6678 244.853 61.6678 244.853C61.6678 244.853 63.4782 245.81 65.1041 245.766C67.4491 245.707 68.6216 244.856 68.6216 244.856Z" fill="#2F1A31"/>
<path d="M90.5085 130.011C90.5085 130.011 91.015 147.183 85.6152 180.13C81.7161 203.915 77.1136 227.881 74.8561 239.369C74.0494 243.48 70.6413 246.485 66.6047 246.648L64.4347 246.735C60.0698 246.913 56.5272 243.108 56.8461 238.584L62.3242 160.85L63.6749 135.264L90.5085 130.011Z" fill="#6F4975"/>
<path d="M44.5923 244.856C44.5923 244.856 44.6861 248.662 47.2219 249.734C49.7577 250.807 57.1086 251.776 54.3633 254.221C52.7875 255.625 45.3584 254.718 43.2635 254.718C41.1654 254.718 39.1987 255.647 37.6385 254.221C35.925 252.654 37.6385 244.853 37.6385 244.853C37.6385 244.853 39.4489 245.81 41.0748 245.766C43.4229 245.707 44.5923 244.856 44.5923 244.856Z" fill="#2F1A31"/>
<path d="M66.4819 130.012C66.4819 130.012 66.9885 147.184 61.5886 180.13C57.6896 203.915 53.087 227.882 50.8295 239.369C50.0228 243.481 46.6178 246.486 42.5812 246.648L40.4113 246.736C36.0464 246.914 32.5038 243.109 32.8227 238.584L38.3007 160.851L39.6515 135.265L66.4819 130.012Z" fill="#6F4975"/>
<path d="M49.6818 85.0964C49.6818 85.0964 53.8466 74.722 73.5857 77.4297C102.055 81.3319 95.1757 101.48 92.7963 127.464C92.7963 127.464 66.7757 126.41 39.4355 128.405C39.4355 128.402 41.2271 100.646 49.6818 85.0964Z" fill="#E28569"/>
<path d="M38.6777 84.6429C38.6777 84.6429 42.064 95.9585 50.9689 99.2853C59.4329 102.446 89.1587 107.921 95.3778 103.375C103.704 97.2873 99.2737 84.6429 99.2737 84.6429C99.2737 84.6429 93.68 83.042 80.432 78.874C79.1876 78.4801 77.8869 78.1361 76.5299 77.8516C74.2505 77.3732 71.943 77.1356 69.6573 77.0136C48.627 75.8849 38.6777 84.6429 38.6777 84.6429Z" fill="#E28569"/>
<path d="M60.4637 187.487C60.4543 187.487 60.4449 187.487 60.4356 187.484C60.3449 187.469 60.2855 187.381 60.3011 187.293C61.9301 178.185 60.3574 170.856 58.7503 166.31C57.0087 161.389 54.8637 158.59 54.8418 158.562C54.7856 158.49 54.7981 158.387 54.87 158.331C54.9419 158.274 55.0451 158.287 55.1014 158.359C55.1889 158.471 63.7718 169.781 60.6263 187.35C60.6107 187.431 60.5419 187.487 60.4637 187.487Z" fill="#2F1A31"/>
<path d="M39.4356 128.402C39.4356 128.402 54.3219 116.858 54.9691 101.934C55.6164 87.013 62.9892 88.7796 67.9138 89.1705C72.8352 89.5644 79.6077 89.1705 80.38 93.2946C81.1523 97.4188 78.06 108.022 84.4417 117.642C90.8265 127.263 92.7931 127.46 92.7931 127.46L88.6502 158.462L38.7227 152.79L39.4356 128.402Z" fill="#6F4975"/>
<path d="M62.0022 90.221L61.4863 76.9793C61.4863 76.9793 64.1034 76.1663 65.7606 76.9105L65.4573 91.0089L62.0022 90.221Z" fill="#6F4975"/>
<path d="M74.3848 91.0089L81.6794 79.4369C81.6794 79.4369 86.1475 78.9523 86.6509 80.9878L78.0524 94.0168L74.3848 91.0089Z" fill="#6F4975"/>
<path d="M124.89 57.2497C124.59 57.3998 124.227 57.2747 124.077 56.9714L115.863 40.1246C115.716 39.8213 115.838 39.4492 116.138 39.2991C116.438 39.149 116.804 39.2741 116.951 39.5774L125.165 56.4242C125.312 56.7306 125.19 57.0996 124.89 57.2497Z" fill="#2F1A31"/>
<path d="M133.041 73.9678C131.406 74.7902 129.402 74.1023 128.592 72.442L121.028 56.9303C120.218 55.27 120.894 53.2376 122.532 52.4153C124.167 51.593 126.172 52.2809 126.981 53.9411L134.545 69.4528C135.355 71.1131 134.679 73.1455 133.041 73.9678Z" fill="#E28569"/>
<path d="M131.847 71.6166L132.116 71.8104C132.575 72.1419 133.216 72.0293 133.541 71.5634L137.14 66.4106C137.465 65.9447 137.356 65.2943 136.896 64.9629L136.628 64.7691C136.168 64.4376 135.527 64.5502 135.202 65.0161L131.603 70.1689C131.281 70.6348 131.39 71.2851 131.847 71.6166Z" fill="#F7B686"/>
<path d="M129.388 69.8468L129.622 70.0156C130.091 70.3533 130.745 70.2376 131.076 69.7624L135.763 63.0555C136.095 62.5803 135.985 61.9174 135.516 61.5797L135.282 61.4109C134.813 61.0732 134.159 61.1858 133.828 61.661L129.141 68.3679C128.809 68.8431 128.919 69.5091 129.388 69.8468Z" fill="#F7B686"/>
<path d="M125.425 74.3343L125.847 74.3093C126.635 74.2656 127.245 73.5746 127.201 72.7741L126.776 64.9823C126.732 64.1819 126.05 63.5628 125.263 63.6097L124.84 63.6347C124.053 63.6785 123.443 64.3695 123.487 65.1699L123.912 72.9617C123.956 73.759 124.637 74.3781 125.425 74.3343Z" fill="#F7B686"/>
<path d="M127.027 68.1464C127.559 68.531 128.303 68.3996 128.681 67.8618L133.937 60.3389C134.316 59.798 134.187 59.0413 133.656 58.6599C133.124 58.2784 132.377 58.4066 132.002 58.9444L126.746 66.4673C126.368 67.0051 126.493 67.7618 127.027 68.1464Z" fill="#F7B686"/>
<path d="M130.328 77.7015C130.328 77.7015 136.516 74.8749 137.67 70.1254C138.07 68.4808 131.982 61.6489 130.34 62.5587C128.699 63.4686 124.287 70.6851 124.287 70.6851L130.328 77.7015Z" fill="#F7B686"/>
<path d="M134.267 73.3711L134.608 73.6181C135.046 73.9339 135.659 73.8276 135.968 73.3836L138.864 69.2376C139.173 68.7936 139.07 68.1745 138.632 67.8587L138.291 67.6117C137.854 67.2959 137.241 67.4022 136.931 67.8462L134.036 71.9922C133.726 72.4331 133.83 73.0553 134.267 73.3711Z" fill="#F7B686"/>
<path d="M303.491 212.726C302.836 212.85 302.399 213.493 302.52 214.157L304.393 224.464C304.514 225.127 305.149 225.57 305.801 225.449C306.456 225.326 306.892 224.682 306.772 224.019L304.899 213.711C304.781 213.045 304.146 212.603 303.491 212.726Z" fill="#F7B686"/>
<path d="M306.54 212.155C305.885 212.278 305.448 212.922 305.569 213.585L307.663 225.113C307.784 225.777 308.419 226.222 309.073 226.098C309.728 225.975 310.165 225.331 310.044 224.668L307.95 213.14C307.827 212.476 307.192 212.034 306.54 212.155Z" fill="#F7B686"/>
<path d="M306.267 206.004L305.985 206.334C305.457 206.949 305.52 207.891 306.129 208.429L312.038 213.651C312.644 214.188 313.572 214.122 314.1 213.507L314.382 213.177C314.911 212.562 314.847 211.62 314.238 211.083L308.329 205.86C307.723 205.32 306.795 205.387 306.267 206.004Z" fill="#F7B686"/>
<path d="M309.585 211.586C308.93 211.709 308.493 212.353 308.614 213.016L310.291 222.258C310.412 222.921 311.047 223.367 311.699 223.243C312.354 223.12 312.791 222.476 312.67 221.813L310.992 212.571C310.872 211.908 310.24 211.462 309.585 211.586Z" fill="#F7B686"/>
<path d="M300.36 207.242C300.36 207.242 297.999 213.838 300.596 218.069C301.495 219.534 310.414 217.607 310.926 215.745C311.437 213.884 309.705 207.754 309.705 207.754L300.36 207.242Z" fill="#F7B686"/>
<path d="M300.467 213.283C299.815 213.407 299.378 214.047 299.499 214.711L301.173 223.932C301.294 224.596 301.926 225.038 302.581 224.915C303.233 224.794 303.67 224.151 303.549 223.487L301.874 214.266C301.754 213.602 301.119 213.16 300.467 213.283Z" fill="#F7B686"/>
<path d="M311.535 208.633C312.756 194.993 315.557 175.497 321.966 160.053C323.451 156.474 324.068 155.132 325.229 153.179C326.16 151.608 324.491 148.152 321.859 146.503C319.389 144.957 315.543 145.21 314.934 145.974C313.899 147.276 312.793 149.769 311.075 153.73C305.103 167.49 301.527 185.266 300.076 208.182L311.535 208.633Z" fill="#F7B686"/>
<path d="M328.15 297.547C328.15 297.547 328.052 301.503 325.415 302.617C322.778 303.732 315.137 304.74 317.992 307.282C319.63 308.742 327.351 307.799 329.529 307.799C331.709 307.799 333.755 308.765 335.375 307.282C337.156 305.653 335.375 297.547 335.375 297.547C335.375 297.547 333.493 298.541 331.801 298.498C329.365 298.432 328.15 297.547 328.15 297.547Z" fill="#2F1A31"/>
<path d="M358.431 297.547C358.431 297.547 358.334 301.503 355.696 302.617C353.059 303.732 345.418 304.74 348.274 307.282C349.911 308.742 357.633 307.799 359.81 307.799C361.99 307.799 364.036 308.765 365.656 307.282C367.437 305.653 365.656 297.547 365.656 297.547C365.656 297.547 363.774 298.541 362.082 298.498C359.649 298.432 358.431 297.547 358.431 297.547Z" fill="#2F1A31"/>
<path d="M308.551 189.122C308.551 189.122 308.063 205.677 313.271 237.437C317.028 260.366 321.467 283.468 323.644 294.545C324.423 298.506 327.706 301.405 331.598 301.563L333.69 301.649C337.898 301.821 341.311 298.153 341.004 293.792L335.721 218.856L334.419 194.192L308.551 189.122Z" fill="#6F4975"/>
<path d="M356.176 203.691C355.935 205.705 344.709 205.461 330.966 203.694C317.22 201.927 306.522 198.905 306.764 196.892C307.002 194.875 318.091 194.631 331.836 196.398C345.579 198.164 356.418 201.675 356.176 203.691Z" fill="#2F1A31"/>
<path d="M324.333 200.945L353.677 296.619C354.907 300.623 358.458 303.367 362.505 303.439L364.269 303.47C368.434 303.542 371.617 299.635 370.859 295.381L354.806 205.484C354.574 204.415 353.795 203.565 352.781 203.269C347.274 201.658 323.793 196.99 324.333 200.945Z" fill="#6F4975"/>
<path d="M351.588 148.609C351.588 148.609 347.685 137.46 333.775 137.968C319.866 138.477 309.363 157.025 306.764 196.895C306.764 196.895 329.538 191.825 356.219 203.651C356.216 203.649 357.696 164.859 351.588 148.609Z" fill="#96A7E2"/>
<path d="M363.53 144.061L351.502 154.339C351.502 154.339 326.174 156.911 319.452 155.672C312.727 154.434 311.682 149.416 311.682 149.416C311.682 149.416 318.079 140.511 330.25 138.299C331.394 138.089 332.546 138.054 333.775 137.965C335.841 137.816 337.225 138.026 339.262 138.008C358.181 137.856 363.53 144.061 363.53 144.061Z" fill="#96A7E2"/>
<path d="M337.444 243.708L331.133 224.237C329.714 219.859 326.795 216.205 322.914 213.947L323.164 213.516C327.151 215.834 330.15 219.586 331.607 224.082L337.918 243.552L337.444 243.708Z" fill="#020202"/>
<path d="M324.236 135.483C324.161 135.466 322.377 135.024 321.837 133.731C321.55 133.042 321.676 132.243 322.211 131.358C322.449 130.967 322.668 130.614 322.869 130.29C324.262 128.035 324.733 127.276 324.368 125.509L324.526 125.475C324.905 127.302 324.388 128.138 323.006 130.373C322.805 130.697 322.587 131.051 322.352 131.441C321.843 132.277 321.722 133.027 321.987 133.668C322.495 134.886 324.256 135.322 324.273 135.328L324.236 135.483Z" fill="#E28569"/>
<path d="M324.449 125.489C324.449 125.489 325.067 128.319 323.217 131.283C321.37 134.245 323.381 136.411 325.883 135.273C328.385 134.133 329.341 137.373 332.541 135.584C335.741 133.791 324.449 125.489 324.449 125.489Z" fill="#E28569"/>
<path d="M339.24 138.008C337.858 137.859 336.655 136.977 336.106 135.681L334.382 131.62L333.883 130.442L330.941 123.507L331.452 130.692L331.76 135.004L331.846 136.233C331.918 137.236 331.225 138.123 330.251 138.301L330.234 138.304C329.711 139.169 328.988 140.924 331.148 141.622C333.684 142.441 337.792 140.416 339.263 138.011C339.254 138.008 339.246 138.008 339.24 138.008Z" fill="#F7B686"/>
<path d="M334.389 131.499C334.389 131.539 334.386 131.58 334.38 131.617C334.211 133.932 331.769 135.015 331.769 135.015L331.755 135.001L331.447 130.689C332.194 130.41 333.257 130.126 333.878 130.436C334.208 130.6 334.412 130.925 334.389 131.499Z" fill="#2F1A31"/>
<path d="M330.618 132.981C334.292 132.981 337.271 129.253 337.271 124.653C337.271 120.054 334.292 116.326 330.618 116.326C326.943 116.326 323.965 120.054 323.965 124.653C323.965 129.253 326.943 132.981 330.618 132.981Z" fill="#F7B686"/>
<path d="M336.381 125.909C335.628 126.638 334.574 126.713 334.028 126.075C333.482 125.438 333.649 124.329 334.404 123.599C335.157 122.87 336.211 122.795 336.757 123.433C337.303 124.07 337.133 125.179 336.381 125.909Z" fill="#F7B686"/>
<path d="M327.037 130.042C327.037 130.042 329.309 130.097 331.582 129.287C331.582 129.287 331.771 131.559 329.309 131.711C327.879 131.8 327.037 130.042 327.037 130.042Z" fill="#DB6B49"/>
<path d="M327.037 130.042C327.037 130.042 327.586 130.505 328.87 130.499C330.154 130.493 331.582 129.284 331.582 129.284C331.582 129.284 328.844 130.048 327.037 130.042Z" fill="white"/>
<path d="M329.975 124.734C329.932 124.722 329.892 124.688 329.875 124.642C329.843 124.564 329.88 124.475 329.958 124.444C330.004 124.426 331.021 123.895 331.917 124.886C331.974 124.949 331.972 125.044 331.911 125.104C331.851 125.162 331.768 125.147 331.696 125.099C331.001 124.625 330.107 124.714 330.07 124.728C330.038 124.742 330.004 124.742 329.975 124.734Z" fill="#060633"/>
<path d="M331.173 126.42C331.185 126.785 330.981 127.089 330.719 127.098C330.458 127.106 330.237 126.816 330.225 126.449C330.214 126.084 330.417 125.779 330.679 125.771C330.94 125.765 331.162 126.055 331.173 126.42Z" fill="#060633"/>
<path d="M324.574 125.535C324.528 125.541 324.482 125.527 324.445 125.489C324.388 125.429 324.388 125.331 324.448 125.271C324.482 125.236 325.226 124.352 326.424 124.923C326.499 124.961 326.536 125.05 326.502 125.127C326.467 125.205 326.384 125.222 326.301 125.205C325.479 125.035 324.686 125.463 324.658 125.492C324.638 125.515 324.606 125.529 324.574 125.535Z" fill="#060633"/>
<path d="M326.315 126.632C326.464 126.966 326.389 127.325 326.151 127.434C325.913 127.543 325.6 127.359 325.45 127.026C325.301 126.693 325.375 126.331 325.614 126.225C325.852 126.115 326.165 126.296 326.315 126.632Z" fill="#060633"/>
<path d="M327.794 117.834C327.794 117.834 327.938 120.723 331.494 121.215C335.051 121.709 337.504 123.234 337.024 125.834C336.547 128.434 330.816 133.828 335.028 135.917C339.239 138.005 338.343 134.11 342.91 135.015C347.478 135.917 348.302 129.729 345.157 126.136C342.011 122.545 343.287 113.039 331.494 113.459C319.702 113.881 324.023 123.429 324.023 123.429C324.023 123.429 327.8 121.025 327.794 117.834Z" fill="#E28569"/>
<path d="M336.24 136.454C335.355 136.092 334.812 135.555 334.623 134.854C334.094 132.915 336.323 129.985 338.291 127.397C338.808 126.716 339.297 126.075 339.727 125.461C340.925 123.766 341.02 121.752 339.975 120.204C338.84 118.523 336.706 117.814 334.402 118.357C332.081 118.902 330.486 118.411 329.553 117.9C328.541 117.345 328.088 116.673 328.07 116.645L328.151 116.59C328.168 116.616 330.004 119.293 334.379 118.262C336.723 117.71 338.894 118.434 340.052 120.149C341.118 121.729 341.023 123.786 339.802 125.515C339.368 126.13 338.88 126.773 338.363 127.454C336.41 130.022 334.198 132.935 334.712 134.828C334.896 135.506 335.407 136.009 336.275 136.365L336.24 136.454Z" fill="white"/>
<path d="M324.327 130.861C323.328 130.488 322.449 129.367 321.98 127.865C321.213 125.417 321.751 122.694 323.181 121.795C323.713 121.453 324.313 121.399 324.911 121.623C325.91 121.996 326.789 123.116 327.257 124.613C328.024 127.058 327.487 129.784 326.057 130.686C325.735 130.89 325.39 130.99 325.04 130.99C324.801 130.993 324.566 130.95 324.327 130.861ZM326.976 124.711C326.534 123.294 325.723 122.249 324.807 121.907C324.293 121.72 323.787 121.769 323.336 122.051C322.012 122.884 321.532 125.455 322.262 127.779C322.704 129.189 323.514 130.241 324.431 130.582C324.942 130.763 325.451 130.72 325.899 130.439C327.22 129.6 327.703 127.029 326.976 124.711Z" fill="#6F4975"/>
<g opacity="0.3">
<path d="M334.955 123.025C335.489 125.403 334.636 127.957 333.05 128.727C331.464 129.5 329.746 128.196 329.212 125.817C328.678 123.438 329.531 120.885 331.117 120.115C332.702 119.345 334.42 120.646 334.955 123.025Z" fill="white"/>
</g>
<g opacity="0.3">
<path d="M327.322 124.814C327.856 127.204 327.144 129.793 325.731 130.6C324.317 131.407 322.737 130.123 322.203 127.736C321.669 125.346 322.381 122.758 323.794 121.95C325.208 121.143 326.788 122.424 327.322 124.814Z" fill="white"/>
</g>
<path d="M330.834 128.761C329.812 128.258 329.03 127.121 328.694 125.639C328.114 123.099 329.059 120.356 330.809 119.523C331.512 119.19 332.256 119.192 332.969 119.54C333.989 120.043 334.767 121.18 335.103 122.657C335.686 125.202 334.738 127.945 332.989 128.773C332.641 128.942 332.285 129.025 331.929 129.025C331.561 129.025 331.194 128.934 330.834 128.761ZM330.929 119.79C329.303 120.568 328.43 123.16 328.979 125.57C329.292 126.94 330.036 128.034 330.964 128.491C331.587 128.787 332.245 128.79 332.863 128.503C334.491 127.724 335.365 125.133 334.813 122.723C334.5 121.355 333.762 120.267 332.834 119.804C332.518 119.649 332.19 119.569 331.863 119.569C331.55 119.574 331.237 119.649 330.929 119.79Z" fill="#6F4975"/>
<path d="M327.007 125.705C327.07 125.705 327.13 125.682 327.182 125.639C327.211 125.613 327.929 125.044 329.164 125.282C329.311 125.305 329.46 125.214 329.489 125.061C329.517 124.909 329.42 124.763 329.27 124.737C327.777 124.421 326.869 125.176 326.829 125.205C326.714 125.305 326.696 125.484 326.794 125.601C326.849 125.67 326.926 125.705 327.007 125.705Z" fill="#6F4975"/>
<path d="M352.165 184.39C352.165 184.39 348.367 180.23 345.098 180.293C341.829 180.36 337.698 182.951 339.735 183.347C341.769 183.743 344.509 183.522 344.509 183.522C344.509 183.522 338.681 184.278 339.445 185.585C340.209 186.892 345.273 186.185 345.273 186.185C345.273 186.185 338.408 187.645 339.522 188.641C340.637 189.638 345.845 188.495 345.845 188.495C345.845 188.495 339.511 190.112 340.832 191.238C342.154 192.367 346.058 189.868 346.822 191.175C347.586 192.482 351.056 197.412 354.897 195.699L352.165 184.39Z" fill="#F7B686"/>
<path d="M346.839 183.815C346.115 183.198 344.558 183.634 344.541 183.637L344.475 183.405C344.544 183.385 346.172 182.928 346.997 183.632L346.839 183.815Z" fill="#DD8964"/>
<path d="M348.093 186.533C346.849 185.841 345.326 186.297 345.312 186.3L345.24 186.067C345.306 186.047 346.878 185.576 348.211 186.32L348.093 186.533Z" fill="#DD8964"/>
<path d="M348.462 188.805C347.747 188.081 345.9 188.604 345.879 188.609L345.811 188.377C345.891 188.354 347.818 187.811 348.634 188.635L348.462 188.805Z" fill="#DD8964"/>
<path d="M363.53 144.061C364.538 145.529 362.487 147.508 358.288 150.593C354.085 153.679 352.255 154.77 351.247 153.305C350.238 151.837 351.439 149.341 355.616 146.221C358.678 143.932 362.522 142.593 363.53 144.061Z" fill="#2F1A31"/>
<path d="M352.473 194.367L348.764 186.071C348.258 184.936 348.672 183.577 349.706 182.977C354.969 179.92 358.008 176.272 358.747 172.115C359.775 166.344 356.566 159.714 353.748 155.405C352.306 153.202 352.148 151.059 354.429 148.361C355.374 147.241 356.302 146.462 359.327 145.181C360.789 144.561 362.242 144.365 363.061 145.431C364.342 147.1 365.256 148.47 367.031 151.8C371.248 159.708 372.825 167.605 371.593 174.632C370.082 183.258 364.684 190.247 355.538 195.432C354.415 196.07 353.018 195.591 352.473 194.367Z" fill="#F7B686"/>
<g opacity="0.5">
<path d="M367.086 173.997C366.948 173.997 366.813 173.98 366.678 173.942C365.489 173.618 364.891 171.977 365.316 170.202C365.572 169.142 366.155 168.252 366.882 167.821C367.321 167.559 367.784 167.485 368.218 167.602C369.407 167.927 370.005 169.567 369.579 171.343C369.324 172.403 368.741 173.293 368.014 173.724C367.709 173.905 367.393 173.997 367.086 173.997ZM367.813 168.148C367.563 168.148 367.342 168.243 367.186 168.335C366.598 168.685 366.115 169.435 365.897 170.343C365.558 171.75 365.989 173.135 366.836 173.368C367.184 173.463 367.503 173.336 367.709 173.213C368.298 172.862 368.781 172.112 368.999 171.207C369.338 169.797 368.907 168.412 368.06 168.183C367.974 168.16 367.893 168.148 367.813 168.148Z" fill="#E08B65"/>
</g>
<path d="M345.124 201.508C345.124 201.508 317.693 196.191 308.797 198.699L313.063 205.114L328.92 206.024L345.124 201.508Z" fill="#6F4975"/>
<path d="M246.667 287.636C246.667 287.636 246.572 291.402 244.024 292.462C241.476 293.525 234.096 294.482 236.854 296.903C238.436 298.291 245.894 297.394 247.999 297.394C250.105 297.394 252.081 298.314 253.647 296.903C255.368 295.352 253.647 287.636 253.647 287.636C253.647 287.636 251.829 288.581 250.197 288.541C247.841 288.478 246.667 287.636 246.667 287.636Z" fill="#2F1A31"/>
<path d="M290.567 287.745C290.567 287.745 291.627 291.359 289.527 293.149C287.427 294.938 280.69 298.107 284.057 299.569C285.988 300.408 292.816 297.274 294.821 296.63C296.826 295.987 298.989 296.257 300.049 294.436C301.216 292.433 297.217 285.611 297.217 285.611C297.217 285.611 295.775 287.067 294.206 287.527C291.945 288.19 290.567 287.745 290.567 287.745Z" fill="#2F1A31"/>
<path d="M245.144 208.837C244.937 208.837 244.721 208.788 244.506 208.693C243.908 208.426 243.377 207.811 243.087 207.047C242.598 205.76 242.937 204.424 243.839 204.071C244.184 203.939 244.566 203.956 244.948 204.125C245.549 204.393 246.077 205.007 246.367 205.771C246.856 207.061 246.517 208.394 245.615 208.748C245.465 208.808 245.304 208.837 245.144 208.837ZM244.311 204.453C244.204 204.453 244.104 204.47 244.009 204.507C243.354 204.763 243.133 205.849 243.523 206.883C243.771 207.532 244.207 208.049 244.695 208.268C244.963 208.386 245.221 208.403 245.445 208.314C246.1 208.058 246.321 206.972 245.931 205.938C245.684 205.289 245.247 204.772 244.759 204.553C244.606 204.487 244.454 204.453 244.311 204.453Z" fill="#E08B65"/>
<path d="M175.88 188.36L173.393 180.725C174.007 180.288 194.119 170.426 209.324 148.045C209.324 148.045 209.918 146.819 214.994 149.433C220.199 152.113 219.809 154.153 219.809 154.153C207.58 177.743 176.234 188.11 175.88 188.36Z" fill="#EAA678"/>
<path d="M227.768 195.45C228.42 202.652 230.405 219.066 232.292 230.419C235.923 252.245 240.212 274.238 242.312 284.781C243.064 288.552 246.236 291.31 249.996 291.46L252.016 291.54C256.078 291.704 259.378 288.213 259.082 284.062L254.351 217.949L253.978 212.732L253.07 195.783C249.944 196.786 259.933 192.126 257.801 194.261L262.383 190.236C262.386 190.236 235.208 187.082 227.768 195.45Z" fill="#436E8E"/>
<path d="M244.672 195.867L254.353 217.946L283.53 284.494C285.133 288.151 288.833 290.368 292.726 289.998L294.423 289.837C298.428 289.458 301.071 285.419 299.893 281.477C299.893 281.477 276.63 190.42 275.553 187.168C275.553 187.168 262.821 189.343 253.916 192.195C250.793 193.198 246.806 193.732 244.672 195.867Z" fill="#436E8E"/>
<path d="M258.103 134.94C258.103 134.94 251.461 125.211 236.589 128.537C220.215 132.203 219.103 141.088 221.051 158.154C222.284 168.967 225.975 189.185 228.727 204.487C228.727 204.487 243.133 187.007 270.601 170.803C270.604 170.805 264.33 143.96 258.103 134.94Z" fill="#E28569"/>
<path d="M270.113 168.786C270.113 168.786 267.372 172.314 259.837 168.786C250.918 164.609 233.053 155.621 225.762 156.175C218.471 156.729 208.664 146.718 208.664 146.718C208.664 146.718 218.037 135.699 230.223 130.54C231.369 130.054 232.57 129.609 233.831 129.212C235.951 128.549 238.129 128.164 240.278 127.776C266.608 123.002 270.113 168.786 270.113 168.786Z" fill="#E28569"/>
<path d="M237.666 129.962C238.02 128.393 236.799 128.721 235.954 127.583L233.337 124.058L232.576 123.033L228.098 117L230.192 123.832L231.45 127.931L231.846 129.229C232.116 130.111 231.924 130.318 231.545 131.298C231.393 131.694 230.852 133.274 232.341 133.415C233.671 133.544 237.213 131.958 237.666 129.962Z" fill="#F7B686"/>
<path d="M234.28 121.979C234.28 121.979 240.017 117.242 237.222 112.706C234.427 108.167 232.855 119.362 232.855 119.362L233.539 122.022L234.28 121.979Z" fill="#2F1A31"/>
<path d="M233.319 123.941C233.327 123.978 233.333 124.018 233.336 124.059C233.675 126.337 231.463 127.942 231.463 127.942L231.446 127.934L230.188 123.834C230.877 123.395 231.88 122.878 232.575 123.036C232.937 123.116 233.215 123.383 233.319 123.941Z" fill="#2F1A31"/>
<path d="M222.134 120.356C221.206 116.271 223.197 112.336 226.584 111.566C229.971 110.796 233.469 113.482 234.4 117.567C235.331 121.652 233.337 125.587 229.95 126.357C226.564 127.127 223.065 124.441 222.134 120.356Z" fill="#F7B686"/>
<path d="M233.306 116.909C233.306 116.909 231.508 118.021 230.146 116.878C228.785 115.734 227.84 114.674 224.516 116.047C221.189 117.42 217.725 116.452 217.202 114.605C216.679 112.755 218.308 111.483 220.319 111.715C222.33 111.948 219.963 110.678 221.5 108.883C223.037 107.088 226.461 109.291 228.291 108.478C230.123 107.662 236.466 107.291 237.222 112.706L233.306 116.909Z" fill="#2F1A31"/>
<path d="M234.574 118.072C234.117 118.673 233.31 118.831 232.773 118.423C232.235 118.015 232.169 117.196 232.626 116.593C233.083 115.992 233.89 115.835 234.427 116.242C234.964 116.65 235.03 117.469 234.574 118.072Z" fill="#F7B686"/>
<path d="M220.922 114.162C220.764 114.162 220.611 114.142 220.471 114.096C219.81 113.881 219.64 113.53 219.704 113.275C219.778 112.973 220.198 112.72 220.772 112.821C221.758 112.99 222.318 112.697 222.324 112.695L222.364 112.769C222.341 112.781 221.769 113.079 220.758 112.907C220.232 112.815 219.853 113.036 219.787 113.298C219.732 113.516 219.89 113.818 220.497 114.016C221.749 114.427 224.053 112.649 224.076 112.631L224.128 112.7C224.047 112.763 222.234 114.162 220.922 114.162Z" fill="white"/>
<path d="M226.982 110.092C225.583 110.092 224.276 109.371 224.189 109.256L224.258 109.204C224.33 109.291 226.252 110.397 227.973 109.865C228.539 109.69 229.039 109.472 229.521 109.262C230.495 108.837 231.334 108.469 232.233 108.71L232.21 108.794C231.339 108.561 230.512 108.923 229.553 109.339C229.067 109.552 228.567 109.77 227.996 109.946C227.665 110.049 227.321 110.092 226.982 110.092Z" fill="white"/>
<path d="M235.636 112.241C235.349 112.241 234.74 111.686 234.597 111.333C234.519 111.14 234.599 111.063 234.654 111.034C235.105 110.799 235.754 111.861 235.78 111.907L235.786 111.922C235.829 112.143 235.754 112.215 235.685 112.235C235.674 112.238 235.657 112.241 235.636 112.241ZM234.798 111.086C234.76 111.086 234.729 111.094 234.697 111.112C234.677 111.123 234.617 111.155 234.68 111.304C234.823 111.658 235.473 112.212 235.665 112.154C235.728 112.137 235.723 112.034 235.708 111.948C235.545 111.68 235.108 111.086 234.798 111.086Z" fill="white"/>
<path d="M227.05 119.075C227.013 119.066 226.978 119.043 226.961 119.003C226.932 118.94 226.958 118.862 227.021 118.833C227.059 118.816 227.892 118.328 228.69 119.109C228.739 119.158 228.745 119.238 228.696 119.29C228.647 119.342 228.575 119.33 228.515 119.296C227.909 118.937 227.159 119.052 227.13 119.066C227.105 119.078 227.076 119.081 227.05 119.075Z" fill="#060633"/>
<path d="M228.136 120.416C228.162 120.721 228.007 120.979 227.786 121C227.565 121.02 227.367 120.79 227.341 120.485C227.315 120.181 227.47 119.919 227.691 119.902C227.909 119.882 228.108 120.112 228.136 120.416Z" fill="#060633"/>
<path d="M222.494 120.356C222.465 120.361 222.434 120.35 222.408 120.318C222.365 120.27 222.359 120.189 222.393 120.14C222.414 120.112 222.839 119.37 223.663 119.827C223.715 119.856 223.744 119.928 223.726 119.994C223.709 120.057 223.655 120.074 223.6 120.06C223.051 119.931 222.563 120.295 222.543 120.318C222.534 120.339 222.514 120.35 222.494 120.356Z" fill="#060633"/>
<path d="M224.035 121.177C224.176 121.447 224.13 121.749 223.935 121.85C223.739 121.95 223.467 121.815 223.326 121.545C223.185 121.275 223.231 120.973 223.426 120.873C223.625 120.769 223.898 120.907 224.035 121.177Z" fill="#060633"/>
<path d="M227.723 124.63C227.134 124.63 226.697 124.489 226.688 124.486C226.642 124.472 226.617 124.42 226.631 124.374C226.645 124.328 226.697 124.303 226.743 124.317C226.829 124.346 228.863 124.992 230.009 123.283C230.038 123.243 230.092 123.231 230.133 123.257C230.173 123.283 230.184 123.34 230.156 123.38C229.472 124.403 228.472 124.63 227.723 124.63Z" fill="#020202"/>
<path d="M230.322 123.705C230.281 123.705 230.247 123.679 230.235 123.639C230.204 123.513 230.095 123.317 229.764 123.099L229.741 123.082C229.704 123.05 229.695 122.995 229.724 122.955C229.756 122.918 229.81 122.909 229.848 122.938C230.167 123.151 230.347 123.366 230.405 123.593C230.416 123.642 230.388 123.688 230.342 123.702C230.336 123.705 230.327 123.705 230.322 123.705Z" fill="#020202"/>
<path d="M223.15 125.417C223.023 125.417 222.894 125.403 222.762 125.377C221.828 125.185 220.906 124.326 220.294 123.079C219.297 121.054 219.418 118.609 220.567 117.632C220.992 117.271 221.512 117.141 222.069 117.256C223.003 117.449 223.925 118.308 224.537 119.554C225.534 121.579 225.413 124.024 224.264 125.001C223.94 125.277 223.557 125.417 223.15 125.417ZM221.682 117.48C221.334 117.48 221.012 117.601 220.737 117.834C219.677 118.736 219.582 121.037 220.53 122.961C221.107 124.133 221.96 124.941 222.813 125.116C223.287 125.213 223.73 125.104 224.092 124.797C225.152 123.895 225.244 121.594 224.299 119.669C223.721 118.497 222.868 117.69 222.015 117.515C221.9 117.492 221.791 117.48 221.682 117.48Z" fill="white"/>
<g opacity="0.3">
<path d="M231.126 117.147C231.907 119.147 231.488 121.482 230.186 122.367C228.885 123.249 227.196 122.344 226.415 120.342C225.633 118.342 226.053 116.004 227.354 115.122C228.655 114.24 230.344 115.148 231.126 117.147Z" fill="white"/>
</g>
<g opacity="0.3">
<path d="M224.617 119.715C225.401 121.726 225.111 124.076 223.965 124.964C222.822 125.854 221.256 124.946 220.472 122.936C219.688 120.925 219.978 118.575 221.124 117.687C222.27 116.8 223.83 117.704 224.617 119.715Z" fill="white"/>
</g>
<path d="M228.922 122.795C228.695 122.795 228.462 122.758 228.233 122.686C227.264 122.384 226.426 121.496 225.934 120.256C225.09 118.118 225.57 115.605 227.003 114.648C227.583 114.263 228.241 114.168 228.91 114.378C229.879 114.68 230.717 115.567 231.209 116.808C232.056 118.946 231.576 121.459 230.14 122.419C229.761 122.666 229.35 122.795 228.922 122.795ZM228.224 114.53C227.848 114.53 227.486 114.642 227.152 114.864C225.814 115.754 225.38 118.127 226.181 120.155C226.638 121.304 227.434 122.157 228.313 122.43C228.902 122.614 229.485 122.531 229.996 122.192C231.335 121.301 231.769 118.928 230.967 116.9C230.511 115.748 229.715 114.898 228.836 114.625C228.626 114.562 228.422 114.53 228.224 114.53Z" fill="white"/>
<path d="M224.415 120.534C224.358 120.534 224.297 120.514 224.251 120.471C224.151 120.379 224.142 120.224 224.231 120.123C224.26 120.092 224.952 119.325 226.328 119.388C226.463 119.394 226.57 119.509 226.564 119.647C226.558 119.782 226.44 119.891 226.305 119.882C225.188 119.833 224.622 120.428 224.599 120.454C224.55 120.505 224.484 120.534 224.415 120.534Z" fill="white"/>
<path d="M237.274 112.755L237.174 112.66C237.949 111.83 237.317 110.87 237.312 110.862L237.427 110.784C237.432 110.793 238.125 111.844 237.274 112.755Z" fill="#2F1A31"/>
<path d="M238.477 113.896C238.468 113.89 237.669 113.295 237.069 113.378L237.049 113.241C237.704 113.152 238.522 113.758 238.557 113.784L238.477 113.896Z" fill="#2F1A31"/>
<path d="M262.116 150.778C260.84 152.021 257.014 150.258 253.57 146.833C250.125 143.412 248.364 139.629 249.64 138.382C250.915 137.138 254.742 138.905 258.186 142.326C261.63 145.748 263.391 149.531 262.116 150.778Z" fill="#2F1A31"/>
<path d="M172.765 184.839C172.371 184.414 171.702 184.391 171.28 184.781L165.712 189.946C165.287 190.34 165.264 191.009 165.655 191.431C166.048 191.857 166.718 191.882 167.14 191.489L172.71 186.324C173.132 185.933 173.158 185.264 172.765 184.839Z" fill="#EAA678"/>
<path d="M174.593 186.812C174.2 186.387 173.531 186.364 173.108 186.758L165.889 193.451C165.464 193.844 165.438 194.514 165.832 194.936C166.225 195.361 166.895 195.384 167.317 194.993L174.536 188.3C174.961 187.907 174.987 187.237 174.593 186.812Z" fill="#EAA678"/>
<path d="M178.919 183.79L178.549 183.732C177.856 183.626 177.204 184.106 177.101 184.798L176.075 191.535C175.969 192.227 176.449 192.879 177.141 192.982L177.512 193.04C178.204 193.146 178.856 192.666 178.959 191.974L179.985 185.238C180.091 184.545 179.612 183.893 178.919 183.79Z" fill="#EAA678"/>
<path d="M176.427 188.786C176.033 188.36 175.364 188.335 174.942 188.728L169.039 194.201C168.613 194.594 168.59 195.263 168.981 195.686C169.375 196.111 170.044 196.134 170.466 195.74L176.37 190.268C176.795 189.88 176.821 189.211 176.427 188.786Z" fill="#EAA678"/>
<path d="M175.272 180.021C175.272 180.021 169.4 181.313 167.55 185.163C166.91 186.496 170.966 193.439 172.552 192.959C174.137 192.479 179.254 187.113 179.254 187.113L175.272 180.021Z" fill="#EAA678"/>
<path d="M170.977 182.899L170.928 182.845C170.549 182.437 169.905 182.411 169.498 182.79L164.999 186.961C164.591 187.341 164.565 187.984 164.944 188.392L164.993 188.446C165.372 188.854 166.016 188.88 166.424 188.501L170.922 184.33C171.333 183.951 171.356 183.307 170.977 182.899Z" fill="#EAA678"/>
<path d="M209.109 181.168L205.03 181.007C205.033 180.958 205.205 175.962 204.027 170.938C202.594 164.822 199.928 161.507 196.105 161.093C192.861 160.74 190.511 161.858 188.917 164.506C187.607 166.678 187.331 169.071 187.329 169.094L183.27 168.666C183.295 168.422 183.939 162.639 188.098 159.278C190.385 157.431 193.229 156.675 196.547 157.037C209.85 158.482 209.146 180.24 209.109 181.168Z" fill="#96A7E2"/>
<path d="M183.033 168.26C182.93 168.705 183.861 169.303 185.116 169.593C186.368 169.883 187.469 169.757 187.572 169.309C187.675 168.863 186.745 168.266 185.489 167.976C184.237 167.688 183.137 167.815 183.033 168.26Z" fill="#2F1A31"/>
<path d="M215.023 186.137L212.579 195.772C212.237 197.116 211.045 198.07 209.66 198.105L151.811 199.616C150.44 199.653 149.211 198.782 148.789 197.481L144.721 185.02C144.08 183.055 145.508 181.027 147.574 180.966L209.43 179.157C213.147 179.047 215.94 182.529 215.023 186.137Z" fill="#BED5DC"/>
<path d="M146.302 299.566H212.235C215.38 299.566 217.96 297.07 218.063 293.927L221.048 203.985C221.16 200.629 218.422 197.872 215.064 197.961L144.391 199.808C141.185 199.891 138.649 202.548 138.712 205.754L140.467 293.85C140.533 297.027 143.124 299.566 146.302 299.566Z" fill="#96A7E2"/>
<path d="M208.629 292.812H151.794C148.938 292.812 146.568 290.488 146.511 287.636L144.997 211.695C144.94 208.799 147.246 206.383 150.142 206.308L211.062 204.717C212.542 204.677 213.912 205.231 214.949 206.277C215.986 207.32 216.529 208.704 216.48 210.175L213.909 287.708C213.814 290.566 211.493 292.812 208.629 292.812ZM211.206 205.222C211.163 205.222 211.12 205.222 211.077 205.225L150.156 206.817C147.542 206.886 145.457 209.069 145.508 211.683L147.022 287.624C147.074 290.204 149.214 292.304 151.794 292.304H208.629C211.217 292.304 213.314 290.276 213.401 287.688L215.972 210.155C216.015 208.828 215.524 207.575 214.587 206.633C213.682 205.719 212.484 205.222 211.206 205.222Z" fill="#6F4975"/>
<path d="M179.659 206.041L177.574 292.166L178.085 292.179L180.17 206.054L179.659 206.041Z" fill="#6F4975"/>
<path d="M229.148 208.023C229.148 208.023 219.731 164.787 219.7 160.197C219.668 155.606 217.968 149.031 229.148 146.96C240.328 144.888 244.071 143.863 246.111 149.054C248.151 154.245 252.761 165.612 261.666 165.557C270.572 165.502 272.422 171.59 272.422 171.59L280.25 204.964L229.148 208.023Z" fill="#436E8E"/>
<path d="M254.132 218.029L251.332 211.301C249.556 207.076 248.381 205.036 244.572 203.238L244.776 202.807C248.717 204.665 249.99 206.869 251.771 211.117L254.575 217.845L254.132 218.029Z" fill="#020202"/>
<path d="M211.596 175.669L214.566 186.252C237.381 174.526 254.841 155.592 258.635 150.792C259.193 150.085 259.374 149.16 259.132 148.293C258.762 146.971 257.943 144.943 256.171 142.99C254.444 141.088 253.008 139.858 252.04 139.123C251.333 138.586 250.328 138.698 249.767 139.387C245.668 144.437 231.299 165.54 211.596 175.669Z" fill="#F7B686"/>
<path d="M208.148 190.727L198.168 175.657C198.168 175.657 194.615 175.941 192.851 172.385C191.087 168.829 193.971 169.504 195.419 170.684C196.867 171.868 198.662 171.121 198.786 169.636C198.909 168.151 197.74 165.603 199.705 165.557C201.67 165.511 203.773 169.805 201.592 173.316L211.325 188.015C211.325 188.015 219.598 186.869 219.704 194.183C219.704 194.183 218.136 196.403 217.064 194.453C215.996 192.502 214.209 190.141 211.831 192.011C209.452 193.881 209.432 194.634 210.248 196.087C211.064 197.541 213.146 198.678 211.859 199.638C210.572 200.597 209.191 200.405 207.935 198.282C206.674 196.165 206.318 192.132 208.148 190.727Z" fill="#2F1A31"/>
<path d="M210.75 184.04L210.908 184.261C211.262 184.755 211.15 185.447 210.655 185.801L205.085 189.799C204.591 190.153 203.899 190.041 203.546 189.547L203.388 189.325C203.034 188.831 203.146 188.139 203.64 187.786L209.211 183.787C209.702 183.434 210.394 183.546 210.75 184.04Z" fill="#F7B686"/>
<path d="M208.888 181.446L209.069 181.699C209.416 182.184 209.304 182.865 208.822 183.21L202.416 187.809C201.93 188.156 201.249 188.044 200.905 187.562L200.724 187.309C200.376 186.823 200.488 186.145 200.973 185.798L207.379 181.199C207.859 180.848 208.54 180.96 208.888 181.446Z" fill="#F7B686"/>
<path d="M213.478 177.361L213.464 177.657C213.421 178.519 212.68 179.191 211.818 179.148L202.858 178.702C201.996 178.659 201.324 177.918 201.367 177.056L201.382 176.76C201.425 175.899 202.166 175.226 203.028 175.27L211.987 175.715C212.849 175.755 213.521 176.496 213.478 177.361Z" fill="#F7B686"/>
<path d="M207.05 178.883L207.208 179.105C207.561 179.599 207.449 180.291 206.955 180.644L201.31 184.695C200.816 185.048 200.124 184.936 199.77 184.442L199.612 184.221C199.259 183.727 199.371 183.034 199.865 182.681L205.51 178.631C206.001 178.277 206.693 178.389 207.05 178.883Z" fill="#F7B686"/>
<path d="M216.977 182.385C216.977 182.385 214.108 188.863 209.227 190.095C207.538 190.523 200.468 184.206 201.396 182.489C202.321 180.771 209.721 176.12 209.721 176.12L216.977 182.385Z" fill="#F7B686"/>
<path d="M212.547 186.53L212.797 186.878C213.125 187.335 213.019 187.978 212.562 188.306L208.514 191.21C208.058 191.537 207.414 191.431 207.087 190.974L206.837 190.627C206.509 190.17 206.615 189.527 207.072 189.199L211.12 186.295C211.577 185.97 212.22 186.074 212.547 186.53Z" fill="#F7B686"/>
<path d="M227.736 130.861C227.736 130.861 223.487 145.02 223.682 150.76L227.161 150.122C227.161 150.122 229.746 133.412 230.223 130.542C230.223 130.542 228.08 129.675 227.736 130.861Z" fill="#436E8E"/>
<path d="M238.737 147.123C238.673 146.741 236.852 134.871 239.389 128.052C239.389 128.052 240.523 126.865 241.799 127.428C241.799 127.428 238.866 141.447 241.48 147.123H239.389H238.737Z" fill="#436E8E"/>
<path d="M226.586 151.174C226.586 151.174 227.672 150.183 227.273 149.402C226.873 148.62 226.204 148.431 225.566 148.686C224.929 148.942 224.857 149.996 225.066 150.505C225.279 151.013 226.204 151.608 226.586 151.174Z" fill="#2F1A31"/>
<path d="M241.223 147.758C241.223 147.758 240.7 146.678 239.919 146.465C239.137 146.253 238.5 146.928 238.586 147.758C238.672 148.591 239.169 148.939 239.919 148.89C240.671 148.844 241.395 148.416 241.223 147.758Z" fill="#2F1A31"/>
</svg>
