<svg width="21" height="21" viewBox="0 0 21 21" fill="none" xmlns="http://www.w3.org/2000/svg">
<g id="calendar-outline">
<rect y="0.11377" width="20.7059" height="20.7059" rx="5" fill="#5688FF"/>
<path id="Vector" d="M16.8238 3.34839H3.88258C2.8105 3.34839 1.94141 4.21748 1.94141 5.28956V16.9366C1.94141 18.0087 2.8105 18.8778 3.88258 18.8778H16.8238C17.8958 18.8778 18.7649 18.0087 18.7649 16.9366V5.28956C18.7649 4.21748 17.8958 3.34839 16.8238 3.34839Z" stroke="white" stroke-width="1.5" stroke-linejoin="round"/>
<path id="Vector_2" d="M11.9706 10.4652C12.5066 10.4652 12.9412 10.0307 12.9412 9.49464C12.9412 8.95859 12.5066 8.52405 11.9706 8.52405C11.4345 8.52405 11 8.95859 11 9.49464C11 10.0307 11.4345 10.4652 11.9706 10.4652Z" fill="white"/>
<path id="Vector_3" d="M15.2059 10.4652C15.742 10.4652 16.1765 10.0307 16.1765 9.49464C16.1765 8.95859 15.742 8.52405 15.2059 8.52405C14.6699 8.52405 14.2354 8.95859 14.2354 9.49464C14.2354 10.0307 14.6699 10.4652 15.2059 10.4652Z" fill="white"/>
<path id="Vector_4" d="M11.9706 13.7005C12.5066 13.7005 12.9412 13.266 12.9412 12.7299C12.9412 12.1939 12.5066 11.7593 11.9706 11.7593C11.4345 11.7593 11 12.1939 11 12.7299C11 13.266 11.4345 13.7005 11.9706 13.7005Z" fill="white"/>
<path id="Vector_5" d="M15.2059 13.7005C15.742 13.7005 16.1765 13.266 16.1765 12.7299C16.1765 12.1939 15.742 11.7593 15.2059 11.7593C14.6699 11.7593 14.2354 12.1939 14.2354 12.7299C14.2354 13.266 14.6699 13.7005 15.2059 13.7005Z" fill="white"/>
<path id="Vector_6" d="M5.49989 13.7005C6.03593 13.7005 6.47047 13.266 6.47047 12.7299C6.47047 12.1939 6.03593 11.7593 5.49989 11.7593C4.96384 11.7593 4.5293 12.1939 4.5293 12.7299C4.5293 13.266 4.96384 13.7005 5.49989 13.7005Z" fill="white"/>
<path id="Vector_7" d="M8.73524 13.7005C9.27128 13.7005 9.70582 13.266 9.70582 12.7299C9.70582 12.1939 9.27128 11.7593 8.73524 11.7593C8.1992 11.7593 7.76465 12.1939 7.76465 12.7299C7.76465 13.266 8.1992 13.7005 8.73524 13.7005Z" fill="white"/>
<path id="Vector_8" d="M5.49989 16.9358C6.03593 16.9358 6.47047 16.5013 6.47047 15.9652C6.47047 15.4292 6.03593 14.9946 5.49989 14.9946C4.96384 14.9946 4.5293 15.4292 4.5293 15.9652C4.5293 16.5013 4.96384 16.9358 5.49989 16.9358Z" fill="white"/>
<path id="Vector_9" d="M8.73524 16.9358C9.27128 16.9358 9.70582 16.5013 9.70582 15.9652C9.70582 15.4292 9.27128 14.9946 8.73524 14.9946C8.1992 14.9946 7.76465 15.4292 7.76465 15.9652C7.76465 16.5013 8.1992 16.9358 8.73524 16.9358Z" fill="white"/>
<path id="Vector_10" d="M11.9706 16.9358C12.5066 16.9358 12.9412 16.5013 12.9412 15.9652C12.9412 15.4292 12.5066 14.9946 11.9706 14.9946C11.4345 14.9946 11 15.4292 11 15.9652C11 16.5013 11.4345 16.9358 11.9706 16.9358Z" fill="white"/>
<path id="Vector_11" d="M15.5292 2.05347V3.34758M5.17627 2.05347V3.34758V2.05347Z" stroke="white" stroke-width="1.5" stroke-linecap="round" stroke-linejoin="round"/>
<path id="Vector_12" d="M18.7649 6.58368H1.94141" stroke="white" stroke-width="1.5" stroke-linejoin="round"/>
</g>
</svg>
