<svg width="16" height="15" viewBox="0 0 16 15" fill="none" xmlns="http://www.w3.org/2000/svg">
<g id="call">
<path id="Vector" d="M11.806 13.8343C11.2166 13.8343 10.3887 13.6308 9.14892 12.9696C7.64132 12.1626 6.47522 11.4176 4.97577 9.99001C3.53007 8.61089 2.82654 7.71799 1.84191 6.0077C0.72955 4.07664 0.91917 3.06442 1.13113 2.6318C1.38356 2.11474 1.75615 1.80548 2.23775 1.49853C2.5113 1.32746 2.80078 1.18081 3.10252 1.06044C3.13271 1.04805 3.16079 1.03623 3.18585 1.02557C3.33531 0.961294 3.56177 0.864164 3.84862 0.967923C4.04005 1.03652 4.21095 1.17688 4.47847 1.42907C5.0271 1.94556 5.77682 3.09584 6.0534 3.66074C6.2391 4.04148 6.36199 4.2928 6.36229 4.57468C6.36229 4.90469 6.18837 5.15919 5.97731 5.43386C5.93776 5.48545 5.89851 5.53474 5.86046 5.58258C5.63068 5.8708 5.58026 5.95409 5.61347 6.10281C5.6808 6.4017 6.18294 7.29142 7.00814 8.07739C7.83335 8.86336 8.73858 9.31241 9.0529 9.37639C9.21534 9.40954 9.30442 9.35939 9.61602 9.13227C9.66071 9.0997 9.7066 9.06598 9.75461 9.03226C10.0765 8.8037 10.3307 8.64201 10.6683 8.64201H10.6701C10.9639 8.64201 11.2154 8.76364 11.6321 8.96424C12.1756 9.22594 13.4169 9.93236 13.9613 10.4566C14.2261 10.7114 14.3737 10.874 14.4459 11.0564C14.5546 11.3311 14.4522 11.5464 14.3855 11.6905C14.3743 11.7144 14.362 11.7406 14.349 11.7698C14.2219 12.0573 14.0673 12.333 13.8873 12.5935C13.5663 13.0517 13.2411 13.4065 12.6983 13.6478C12.4195 13.7736 12.1144 13.8374 11.806 13.8343Z" fill="#5688FF"/>
</g>
</svg>
