<svg width="24" height="24" viewBox="0 0 24 24" fill="none" xmlns="http://www.w3.org/2000/svg">
<g id="Edit Square">
<g id="Vector">
<path fill-rule="evenodd" clip-rule="evenodd" d="M17.6416 0C16.9074 0 16.301 0.307179 15.727 0.745135C15.1831 1.16006 14.5793 1.76393 13.8552 2.4881L7.60795 8.73524C7.12822 9.21418 6.7489 9.59288 6.51627 10.0769C6.28363 10.5609 6.22488 11.0937 6.15058 11.7675L6.13041 11.9496C5.99142 13.2002 5.87685 14.231 5.90307 15.043C5.9305 15.8922 6.11402 16.67 6.72199 17.278C7.32996 17.886 8.10782 18.0695 8.95704 18.0969C9.76902 18.1231 10.7998 18.0086 12.0504 17.8696L12.2326 17.8494C12.9063 17.7751 13.4391 17.7164 13.9231 17.4837C14.4071 17.2511 14.7858 16.8718 15.2647 16.3921L21.5119 10.1448C22.2361 9.4207 22.8399 8.81687 23.2549 8.27304C23.6928 7.69903 24 7.09256 24 6.35837C24 5.62418 23.6928 5.01771 23.2549 4.4437C22.8399 3.89987 22.2361 3.29604 21.5119 2.57192L21.4281 2.48813C20.704 1.76395 20.1001 1.16007 19.5563 0.745135C18.9823 0.307179 18.3758 0 17.6416 0ZM20.8641 8.37183L15.6282 3.13595C16.0905 2.68041 16.4481 2.34542 16.764 2.1044C17.186 1.78248 17.4316 1.70972 17.6416 1.70972C17.8517 1.70972 18.0973 1.78248 18.5192 2.1044C18.9609 2.44137 19.4841 2.962 20.261 3.73897C21.038 4.51593 21.5586 5.03913 21.8956 5.48078C22.2175 5.90271 22.2903 6.14831 22.2903 6.35837C22.2903 6.56843 22.2175 6.81403 21.8956 7.23596C21.6546 7.55186 21.3196 7.90948 20.8641 8.37183ZM14.4177 4.34344L19.6566 9.58225L14.1382 15.1006C13.537 15.7018 13.3709 15.8522 13.1825 15.9428C12.9941 16.0333 12.7729 16.0691 11.9279 16.163C10.5943 16.3111 9.68664 16.4099 9.01222 16.3881C8.36073 16.3671 8.09772 16.2358 7.93095 16.0691C7.76418 15.9023 7.63294 15.6393 7.61191 14.9878C7.59013 14.3134 7.68886 13.4057 7.83703 12.0721C7.93092 11.2271 7.9667 11.0059 8.05725 10.8175C8.14779 10.6291 8.29818 10.463 8.89937 9.86182L14.4177 4.34344Z" fill="#2D264B"/>
<path d="M8.84381 3.05295C9.3159 3.04729 9.69402 2.66 9.68836 2.1879C9.6827 1.71581 9.29541 1.33769 8.82331 1.34335C6.05754 1.37651 4.15911 1.52784 2.70163 2.58677C2.14523 2.99101 1.65593 3.48031 1.25169 4.03671C0.583954 4.95576 0.284961 6.03218 0.141027 7.36068C-1.65599e-05 8.6625 -9.1567e-06 10.3034 1.5084e-07 12.3967V12.4998C-9.1567e-06 14.5932 -1.65599e-05 16.234 0.141027 17.5359C0.284961 18.8644 0.583954 19.9408 1.25169 20.8598C1.65593 21.4162 2.14523 21.9055 2.70163 22.3098C3.62069 22.9775 4.69711 23.2765 6.0256 23.4204C7.3274 23.5615 8.96825 23.5615 11.0615 23.5615H11.1648C13.258 23.5615 14.899 23.5615 16.2008 23.4204C17.5293 23.2765 18.6057 22.9775 19.5248 22.3098C20.0811 21.9055 20.5704 21.4162 20.9747 20.8598C22.0336 19.4023 22.185 17.5039 22.2181 14.7381C22.2238 14.2661 21.8456 13.8788 21.3736 13.8731C20.9015 13.8674 20.5142 14.2456 20.5085 14.7177C20.4743 17.5681 20.2824 18.9039 19.5915 19.8549C19.2927 20.2661 18.9311 20.6278 18.5198 20.9266C17.9408 21.3473 17.1996 21.5925 16.0166 21.7207C14.8176 21.8506 13.2692 21.8517 11.1132 21.8517C8.95715 21.8517 7.40879 21.8506 6.20976 21.7207C5.02673 21.5925 4.28561 21.3473 3.70658 20.9266C3.29533 20.6278 2.93367 20.2661 2.63488 19.8549C2.21419 19.2759 1.96897 18.5347 1.8408 17.3517C1.7109 16.1527 1.70972 14.6043 1.70972 12.4483C1.70972 10.2922 1.7109 8.74386 1.8408 7.54484C1.96897 6.36181 2.21419 5.62068 2.63488 5.04165C2.93367 4.63041 3.29533 4.26875 3.70658 3.96996C4.65759 3.27901 5.99336 3.08712 8.84381 3.05295Z" fill="#2D264B"/>
</g>
</g>
</svg>
