<svg width="32" height="32" viewBox="0 0 32 32" fill="none" xmlns="http://www.w3.org/2000/svg">
<g id="history_1 1">
<g id="Group">
<path id="Vector" d="M15.8292 1.03135C12.582 1.3253 9.60387 2.56365 7.19508 4.62757C4.73624 6.73527 3.01568 9.61225 2.33371 12.7582C2.25237 13.1334 2.17729 13.4336 2.15852 13.4336C2.13976 13.4274 2.02714 13.2835 1.90826 13.1084C1.58917 12.6393 1.40773 12.5268 0.969772 12.5268C0.362882 12.5268 0 12.8895 0 13.4899V13.8527L1.0949 15.4913C1.69554 16.3982 2.26489 17.1987 2.35874 17.2863C2.57146 17.4614 2.88429 17.5302 3.20963 17.4677C3.40984 17.4301 3.65385 17.2175 4.92394 15.9479C6.51937 14.3468 6.55065 14.3092 6.44429 13.7651C6.38798 13.4587 6.01259 13.0834 5.70601 13.0271C5.27431 12.9458 5.04907 13.0334 4.58608 13.4774C4.32956 13.7276 4.16063 13.8527 4.16063 13.7964C4.16063 13.5775 4.5986 11.9889 4.81758 11.401C6.75712 6.20991 11.9438 2.7763 17.4872 3.00771C24.0191 3.28915 29.212 8.16751 29.9378 14.7158C30.1255 16.4044 29.894 18.3933 29.3184 20.1257C27.6917 24.9853 23.3871 28.4127 18.2442 28.9381C13.8834 29.3884 9.76654 27.6747 7.06995 24.2849C6.75087 23.8908 6.51311 23.6469 6.37547 23.5906C5.61842 23.2779 4.84886 23.9096 4.99902 24.7164C5.08035 25.1354 6.33167 26.599 7.38278 27.5058C8.89062 28.7942 10.4986 29.7073 12.313 30.289C13.727 30.7518 14.7843 30.9332 16.3297 30.9895C19.6832 31.1083 22.7865 30.2202 25.4769 28.3689C27.8106 26.7678 29.6563 24.5288 30.7449 21.9895C32.2402 18.5059 32.4029 14.8158 31.2141 11.2509C29.3247 5.58448 24.3006 1.60674 18.3318 1.05011C17.6874 0.993818 16.386 0.98131 15.8292 1.03135Z" fill="#444444"/>
<path id="Vector_2" d="M15.5984 7.06579C15.3653 7.16895 15.1575 7.38134 15.0693 7.60587C15.0189 7.72117 15 9.25039 15 12.321C15 16.3322 15.0126 16.8965 15.1008 17.1089C15.189 17.3213 15.5669 17.6126 18.4204 19.6758L21.6329 22H21.9983C22.4077 22 22.6156 21.8908 22.8613 21.5449C23.0376 21.29 23.0502 20.8652 22.8738 20.5921C22.7353 20.3676 22.8424 20.4526 19.5353 18.0374L17.0472 16.2229L17.0157 11.9083C16.9842 7.67262 16.9842 7.59373 16.8519 7.42989C16.7826 7.33886 16.6504 7.20536 16.5622 7.14467C16.348 6.99296 15.8504 6.95049 15.5984 7.06579Z" fill="#444444"/>
</g>
</g>
</svg>
