<svg width="24" height="24" viewBox="0 0 24 24" fill="none" xmlns="http://www.w3.org/2000/svg">
<g id="Icon / Platform / Search">
<g id="Group">
<path id="Union" fill-rule="evenodd" clip-rule="evenodd" d="M10.3821 2.99756C8.4043 2.99756 6.50751 3.78324 5.109 5.18175C3.71048 6.58026 2.9248 8.47706 2.9248 10.4549C2.9248 12.4327 3.71048 14.3294 5.109 15.728C6.50751 17.1265 8.4043 17.9121 10.3821 17.9121C12.1083 17.9121 13.7728 17.3137 15.0982 16.2316L19.7962 20.9302C20.089 21.2231 20.5639 21.2232 20.8568 20.9303C21.1497 20.6374 21.1498 20.1626 20.8569 19.8696L16.1588 15.1709C17.2409 13.8455 17.8394 12.1811 17.8394 10.4549C17.8394 8.47706 17.0537 6.58026 15.6552 5.18175C14.2567 3.78324 12.3599 2.99756 10.3821 2.99756ZM14.6135 14.6483C15.7189 13.5329 16.3394 12.0259 16.3394 10.4549C16.3394 8.87488 15.7118 7.35962 14.5945 6.24241C13.4773 5.1252 11.9621 4.49756 10.3821 4.49756C8.80213 4.49756 7.28687 5.1252 6.16966 6.24241C5.05245 7.35962 4.4248 8.87488 4.4248 10.4549C4.4248 12.0348 5.05245 13.5501 6.16966 14.6673C7.28687 15.7845 8.80213 16.4121 10.3821 16.4121C11.9531 16.4121 13.4602 15.7916 14.5756 14.6862C14.5816 14.6797 14.5879 14.6732 14.5942 14.6668C14.6006 14.6605 14.607 14.6543 14.6135 14.6483Z" fill="#444444"/>
</g>
</g>
</svg>
