<svg width="15" height="15" viewBox="0 0 15 15" fill="none" xmlns="http://www.w3.org/2000/svg">
<g id="call">
<path id="Vector" d="M11.4134 13.1966C10.8907 13.1966 10.1565 13.0162 9.05707 12.4299C7.72011 11.7142 6.68599 11.0535 5.35626 9.78752C4.0742 8.5645 3.4503 7.77266 2.57712 6.25596C1.59066 4.54347 1.75882 3.64582 1.94679 3.26217C2.17065 2.80363 2.50107 2.52938 2.92816 2.25717C3.17074 2.10546 3.42745 1.97541 3.69504 1.86866C3.72182 1.85767 3.74672 1.84719 3.76894 1.83774C3.90149 1.78074 4.10231 1.6946 4.35669 1.78662C4.52646 1.84745 4.67801 1.97192 4.91525 2.19557C5.40178 2.6536 6.06665 3.67368 6.31192 4.17465C6.4766 4.51229 6.58558 4.73517 6.58585 4.98514C6.58585 5.27779 6.43161 5.50349 6.24445 5.74707C6.20937 5.79282 6.17456 5.83653 6.14082 5.87896C5.93705 6.13455 5.89233 6.20842 5.92179 6.3403C5.9815 6.60536 6.4268 7.39438 7.1586 8.09139C7.89041 8.7884 8.69317 9.18661 8.97192 9.24336C9.11597 9.27275 9.19496 9.22828 9.4713 9.02687C9.51093 8.99798 9.55163 8.96808 9.5942 8.93818C9.87964 8.73549 10.1051 8.5921 10.4045 8.5921H10.4061C10.6666 8.5921 10.8897 8.69996 11.2592 8.87786C11.7412 9.10994 12.8419 9.7364 13.3247 10.2013C13.5596 10.4273 13.6905 10.5714 13.7545 10.7332C13.8509 10.9768 13.7601 11.1677 13.7009 11.2955C13.691 11.3167 13.6801 11.34 13.6685 11.3658C13.5558 11.6208 13.4188 11.8653 13.2591 12.0963C12.9745 12.5027 12.6861 12.8173 12.2047 13.0313C11.9574 13.1429 11.6869 13.1994 11.4134 13.1966Z" fill="#5688FF"/>
</g>
</svg>
