<svg width="37" height="37" viewBox="0 0 37 37" fill="none" xmlns="http://www.w3.org/2000/svg">
<g filter="url(#filter0_d_1_22007)">
<rect x="6.76721" y="4.91144" width="23.0541" height="23.0541" rx="11.5271" fill="white" stroke="#5688FF"/>
<path d="M21.8143 22.7612C21.269 22.7612 20.503 22.573 19.356 21.9613C17.9612 21.2147 16.8824 20.5254 15.4952 19.2047C14.1577 17.9288 13.5068 17.1027 12.5959 15.5204C11.5668 13.7339 11.7422 12.7974 11.9383 12.3972C12.1718 11.9188 12.5165 11.6327 12.9621 11.3487C13.2152 11.1904 13.483 11.0548 13.7621 10.9434C13.7901 10.932 13.816 10.921 13.8392 10.9112C13.9775 10.8517 14.187 10.7618 14.4524 10.8578C14.6295 10.9213 14.7876 11.0511 15.0351 11.2845C15.5427 11.7623 16.2363 12.8265 16.4922 13.3491C16.664 13.7014 16.7777 13.9339 16.7779 14.1946C16.7779 14.5 16.617 14.7354 16.4218 14.9895C16.3852 15.0373 16.3489 15.0829 16.3137 15.1271C16.1011 15.3938 16.0544 15.4708 16.0852 15.6084C16.1475 15.8849 16.612 16.7081 17.3755 17.4352C18.1389 18.1624 18.9764 18.5778 19.2672 18.637C19.4175 18.6677 19.4999 18.6213 19.7882 18.4111C19.8295 18.381 19.872 18.3498 19.9164 18.3186C20.2142 18.1072 20.4494 17.9576 20.7617 17.9576H20.7634C21.0352 17.9576 21.2679 18.0701 21.6534 18.2557C22.1562 18.4978 23.3046 19.1514 23.8082 19.6364C24.0532 19.8721 24.1898 20.0225 24.2566 20.1913C24.3571 20.4454 24.2624 20.6446 24.2007 20.7779C24.1904 20.8 24.1789 20.8243 24.1669 20.8512C24.0493 21.1172 23.9063 21.3723 23.7398 21.6133C23.4428 22.0373 23.142 22.3655 22.6397 22.5887C22.3818 22.7052 22.0995 22.7642 21.8143 22.7612Z" fill="#5688FF"/>
</g>
<defs>
<filter id="filter0_d_1_22007" x="0.267212" y="0.411438" width="36.0541" height="36.0541" filterUnits="userSpaceOnUse" color-interpolation-filters="sRGB">
<feFlood flood-opacity="0" result="BackgroundImageFix"/>
<feColorMatrix in="SourceAlpha" type="matrix" values="0 0 0 0 0 0 0 0 0 0 0 0 0 0 0 0 0 0 127 0" result="hardAlpha"/>
<feOffset dy="2"/>
<feGaussianBlur stdDeviation="3"/>
<feComposite in2="hardAlpha" operator="out"/>
<feColorMatrix type="matrix" values="0 0 0 0 0.0862745 0 0 0 0 0.0862745 0 0 0 0 0.0862745 0 0 0 0.1 0"/>
<feBlend mode="normal" in2="BackgroundImageFix" result="effect1_dropShadow_1_22007"/>
<feBlend mode="normal" in="SourceGraphic" in2="effect1_dropShadow_1_22007" result="shape"/>
</filter>
</defs>
</svg>
